<?xml version="1.0" encoding="UTF-8" standalone="no"?>
<!-- Created with Inkscape (http://www.inkscape.org/) -->

<svg
   xmlns:dc="http://purl.org/dc/elements/1.1/"
   xmlns:cc="http://creativecommons.org/ns#"
   xmlns:rdf="http://www.w3.org/1999/02/22-rdf-syntax-ns#"
   xmlns:svg="http://www.w3.org/2000/svg"
   xmlns="http://www.w3.org/2000/svg"
   xmlns:sodipodi="http://sodipodi.sourceforge.net/DTD/sodipodi-0.dtd"
   xmlns:inkscape="http://www.inkscape.org/namespaces/inkscape"
   width="744.09448819"
   height="1052.3622047"
   id="svg2"
   version="1.1"
   inkscape:version="0.48.3.1 r9886"
   sodipodi:docname="qq2.pdf"
   inkscape:export-filename="/home/mrule/Desktop/Dropbox/qq2.png"
   inkscape:export-xdpi="90"
   inkscape:export-ydpi="90">
  <defs
     id="defs4" />
  <sodipodi:namedview
     id="base"
     pagecolor="#ffffff"
     bordercolor="#666666"
     borderopacity="1.0"
     inkscape:pageopacity="0.0"
     inkscape:pageshadow="2"
     inkscape:zoom="1.4"
     inkscape:cx="394.27567"
     inkscape:cy="508.55333"
     inkscape:document-units="px"
     inkscape:current-layer="layer1"
     showgrid="false"
     inkscape:window-width="1680"
     inkscape:window-height="975"
     inkscape:window-x="1920"
     inkscape:window-y="54"
     inkscape:window-maximized="1" />
  <metadata
     id="metadata7">
    <rdf:RDF>
      <cc:Work
         rdf:about="">
        <dc:format>image/svg+xml</dc:format>
        <dc:type
           rdf:resource="http://purl.org/dc/dcmitype/StillImage" />
        <dc:title></dc:title>
      </cc:Work>
    </rdf:RDF>
  </metadata>
  <g
     inkscape:label="Layer 1"
     inkscape:groupmode="layer"
     id="layer1">
    <path
       style="fill:#000000"
       d="m 362.9298,810.75504 -2.7869,-5.75 -4,-1.17665 c -2.2,-0.64716 -5.6875,-1.45505 -7.75,-1.79531 l -3.75,-0.61867 0,-1.74648 c 0,-0.96056 2.025,-3.73386 4.5,-6.16289 l 4.5,-4.41642 -0.01,-3.54179 c 0,-1.94798 -0.4767,-5.23801 -1.0524,-7.31117 l -1.0468,-3.76938 -6.1113,-6.53305 c -3.3613,-3.59317 -6.89667,-6.95333 -7.85651,-7.46702 l -1.74516,-0.93398 -5.58477,2.55679 c -3.07162,1.40624 -6.60013,2.41262 -7.84114,2.23641 l -2.25596,-0.32039 0,-7.94457 0,-7.94458 -3.32326,-2.25514 c -1.8278,-1.24032 -5.41598,-2.56896 -7.97374,-2.95252 -2.55775,-0.38356 -6.64181,-1.75619 -9.07567,-3.05028 l -4.42521,-2.35291 -3.76835,0 -3.76835,0 -1.73729,4.54901 c -0.9555,2.50195 -2.86347,5.43487 -4.23992,6.51758 l -2.50264,1.96858 -1.96345,-1.30368 c -1.0799,-0.71703 -3.01629,-3.27207 -4.30308,-5.67788 -1.28679,-2.4058 -2.71906,-4.75363 -3.18282,-5.21739 l -0.84319,-0.84319 -9.44652,1.61569 c -10.46248,1.78946 -12.87021,2.78708 -17.83448,7.38953 l -3.38797,3.14104 0.652,7.81798 0.65199,7.81799 -1.4106,0.5413 c -0.77583,0.29771 -4.26964,-0.81128 -7.76402,-2.46442 l -6.35343,-3.0057 -4,2.11002 c -2.2,1.16051 -5.22159,2.87597 -6.71465,3.81213 l -2.71465,1.70211 -1.17042,-1.17042 -1.17041,-1.17041 1.13506,-4.50776 c 0.62429,-2.47926 1.13507,-5.84674 1.13507,-7.48328 l 0,-2.97552 -4.5,-5.27189 c -6.48302,-7.59505 -6.26458,-8.07871 4.25138,-9.41311 l 5.25138,-0.66637 1.85546,-2.35883 c 1.02051,-1.29736 2.43808,-4.43972 3.15016,-6.98303 l 1.29469,-4.6242 -1.11074,-9.02133 c -1.32874,-10.79177 -1.74519,-11.3864 -9.01917,-12.87798 -9.75695,-2.00074 -10.29894,-3.74269 -3.60308,-11.58028 l 4.57008,-5.34933 -0.69206,-2.25848 c -0.38064,-1.24216 -2.14777,-4.05848 -3.92697,-6.25848 -1.7792,-2.2 -4.88669,-6.58524 -6.90553,-9.74498 -2.01885,-3.15973 -4.74523,-6.44908 -6.05863,-7.30965 l -2.38801,-1.56468 -5.16666,2.61815 -5.16667,2.61814 -2.66782,-0.30849 -2.66781,-0.30849 0,-8 0,-8 -9.36022,-4.75 -9.36022,-4.75 -4.82468,0 c -2.65358,0 -6.00283,0.44793 -7.44278,0.9954 l -2.61809,0.99539 -2.34153,5.29463 c -1.28785,2.91204 -3.01802,5.85605 -3.84482,6.54224 l -1.50329,1.24762 -1.88879,-2.40121 c -1.03884,-1.32067 -2.71736,-4.23864 -3.73005,-6.48439 l -1.84125,-4.08317 -3.02137,-1.05326 c -1.66175,-0.57929 -3.83303,-1.05325 -4.82508,-1.05325 -0.99205,0 -2.9499,-0.52223 -4.35078,-1.16052 l -2.54705,-1.16051 0,-1.7208 c 0,-0.94643 1.60295,-2.94342 3.56211,-4.43775 1.95916,-1.49432 3.99529,-3.85629 4.52472,-5.24881 l 0.96261,-2.53186 -1.16632,-5.92828 -1.16631,-5.92828 1.14717,-1.14718 1.14718,-1.14717 5.51657,2.70558 c 6.98963,3.42804 9.98555,3.40345 15.52649,-0.12742 l 4.44578,-2.83299 4.75,-8.50277 c 5.75782,-10.30684 5.7826,-10.83389 0.75515,-16.06596 -2.19716,-2.28659 -4.27731,-5.04742 -4.62255,-6.13517 l -0.6277,-1.97772 1.69989,-1.24299 c 0.93495,-0.68365 3.96406,-1.5544 6.73136,-1.935 l 5.03145,-0.692 1.8912,-1.8912 1.8912,-1.8912 0,-14 0,-14 -1.8912,-1.8912 -1.8912,-1.8912 -5.03145,-0.692 c -2.7673,-0.3806 -5.79641,-1.25135 -6.73136,-1.935 l -1.69989,-1.24299 0.6277,-1.97772 c 0.34524,-1.08775 2.42539,-3.84858 4.62255,-6.13517 5.02745,-5.23207 5.00267,-5.75912 -0.75515,-16.06596 l -4.75,-8.50277 -4.44578,-2.83299 c -5.54094,-3.53087 -8.53686,-3.55546 -15.52649,-0.12742 l -5.51657,2.70558 -1.14718,-1.14717 -1.14717,-1.14718 1.16631,-5.92828 1.16632,-5.92828 -0.94359,-2.48184 c -0.51898,-1.36501 -2.7801,-3.93638 -5.02472,-5.71416 -5.87232,-4.65096 -4.72786,-8.06425 2.7039,-8.06425 1.60409,0 4.27613,-0.47396 5.93788,-1.05325 l 3.02137,-1.05326 1.84125,-4.08317 c 1.01269,-2.24575 2.69121,-5.16372 3.73005,-6.48439 l 1.88879,-2.40121 1.50329,1.24762 c 0.8268,0.68619 2.55697,3.6302 3.84482,6.54224 l 2.34153,5.29463 2.61809,0.99539 c 1.43995,0.54747 4.7892,0.9954 7.44278,0.9954 l 4.82468,0 9.36022,-4.75 9.36022,-4.75 0,-8 0,-8 2.66781,-0.30849 2.66782,-0.30849 5.16667,2.61814 5.16666,2.61815 2.38801,-1.56468 c 1.3134,-0.86057 4.03978,-4.14992 6.05863,-7.30965 2.01884,-3.15974 5.12633,-7.54498 6.90553,-9.74498 1.7792,-2.2 3.5272,-4.95603 3.88445,-6.1245 l 0.64953,-2.12451 -4.52755,-5.55805 c -6.58184,-8.0799 -6.09237,-9.64266 3.6456,-11.63951 7.28381,-1.4936 7.68934,-2.07731 9.03472,-13.00431 l 1.1263,-9.14766 -1.67023,-5.29858 c -2.04455,-6.48607 -3.85765,-8.18719 -9.66395,-9.06706 -9.62709,-1.45887 -10.07298,-2.56389 -4,-9.91303 l 4,-4.84056 0,-2.94829 c 0,-1.62157 -0.51078,-4.97679 -1.13507,-7.45605 l -1.13506,-4.50776 1.17041,-1.17041 1.17042,-1.17042 2.71465,1.70211 c 1.49306,0.93616 4.51465,2.65162 6.71465,3.81213 l 4,2.11002 6.43608,-3.04479 6.43607,-3.0448 1.29234,1.07254 1.29233,1.07254 -0.61905,7.32339 -0.61905,7.32339 3.39064,3.14348 c 4.75972,4.41276 7.19865,5.47085 16.99877,7.3746 10.35767,2.01207 10.65915,1.91907 14.20025,-4.38039 1.54003,-2.73966 3.62757,-5.42406 4.63897,-5.96534 l 1.8389,-0.98415 2.4523,1.92898 c 1.34877,1.06093 3.23408,3.97603 4.18958,6.47798 l 1.73729,4.54901 3.76835,0 3.76835,0 4.42521,-2.35291 c 2.43386,-1.29409 6.51792,-2.66672 9.07567,-3.05028 2.55776,-0.38356 6.14594,-1.7122 7.97374,-2.95252 l 3.32326,-2.25514 0,-7.94458 0,-7.94457 2.25638,-0.32039 c 1.24101,-0.17621 4.76952,0.83017 7.84114,2.23641 l 5.58477,2.55679 1.74516,-0.93398 c 0.95984,-0.51369 4.49529,-3.87385 7.85649,-7.46702 l 6.1113,-6.53305 1.0468,-3.76938 c 0.5758,-2.07316 1.0493,-5.33023 1.0524,-7.23793 l 0.01,-3.46856 -5.208,-5.27348 -5.208,-5.27347 1.0043,-1.00426 c 0.5523,-0.55235 3.6834,-1.49045 6.958,-2.08468 7.9829,-1.44864 9.7607,-2.79192 12.4435,-9.402 l 2.2808,-5.61953 1.6147,0.30625 1.6147,0.30625 3,5.99102 3,5.99101 7.9197,2 c 4.3558,1.1 8.0725,2.46274 8.2594,3.0283 0.1869,0.56557 -1.9145,3.24865 -4.6697,5.96241 l -5.0098,4.93411 0.01,3.53759 c 0,1.94567 0.4766,5.23381 1.0523,7.30697 l 1.0468,3.76938 6.1113,6.53305 c 3.3613,3.59317 6.8967,6.95333 7.8565,7.46702 l 1.7452,0.93398 5.5848,-2.55679 c 3.0716,-1.40624 6.6001,-2.41262 7.8411,-2.23641 l 2.256,0.32039 0,7.94793 0,7.94793 3.3232,2.25178 c 1.8278,1.23848 5.4278,2.55855 8,2.93348 2.5722,0.37493 6.2727,1.48499 8.2233,2.4668 1.9506,0.98181 5.1709,2.08984 7.1563,2.4623 l 3.6097,0.6772 2.0937,-2.09371 c 1.1516,-1.15154 2.0938,-2.72112 2.0938,-3.48795 0,-0.76684 1.3075,-2.794 2.9057,-4.50481 l 2.9056,-3.11056 1.6443,0.63098 c 0.9044,0.34703 3.1912,3.04919 5.0819,6.0048 1.8907,2.95561 4.0057,5.42151 4.7,5.47979 2.7822,0.23352 7.5981,-0.34419 14.0616,-1.6868 l 6.7992,-1.41233 3.556,-2.75342 c 1.9558,-1.51437 4.1103,-4.02014 4.7878,-5.56837 l 1.2318,-2.81497 -0.9532,-5.53304 -0.9533,-5.53305 1.3893,-1.38933 1.3894,-1.38933 6.3659,3.01061 6.3659,3.01061 1.8346,-0.58226 c 1.009,-0.32024 4.0856,-2.13072 6.8369,-4.02327 2.7513,-1.89256 5.5224,-3.44101 6.1581,-3.44101 l 1.1558,0 -0.6394,4.25 c -0.3516,2.3375 -0.9103,6.27574 -1.2415,8.75165 l -0.6022,4.50165 4.7323,5.74833 4.7324,5.74833 -1.1393,1.37276 -1.1393,1.37275 -5.9464,0.67276 -5.9464,0.67276 -1.8936,2.40737 c -1.0415,1.32405 -2.4824,4.5102 -3.202,7.08032 l -1.3083,4.67297 1.1172,8.35038 c 0.6145,4.59271 1.5875,9.22889 2.1621,10.30263 l 1.0448,1.95226 5.7532,1.17992 c 9.8584,2.0219 10.4688,3.96458 3.683,11.72181 l -4.5701,5.22431 0.7135,2.25852 c 0.3924,1.24219 3.0114,5.24251 5.82,8.88961 2.8087,3.6471 5.8511,7.99599 6.7609,9.66421 0.9098,1.66822 2.8733,3.83189 4.3633,4.80817 l 2.7091,1.77504 4.8999,-2.7544 4.9,-2.75439 2.7367,0.31514 2.7368,0.31514 0,8.32582 0,8.32583 9.5,4.40732 9.5,4.40731 4.5,-0.0828 c 2.475,-0.0455 5.625,-0.37999 7,-0.7432 l 2.5,-0.66038 2.5,-5.0941 c 1.375,-2.80175 3.127,-5.84608 3.8933,-6.76517 l 1.3934,-1.67107 1.6859,1.52574 c 0.9273,0.83915 2.7424,3.7813 4.0336,6.53811 l 2.3477,5.01237 3.573,0.94662 c 1.9652,0.52063 5.2842,1.21467 7.3756,1.54229 l 3.8026,0.59568 0.6206,1.61725 0.6206,1.61725 -4.5462,4.07757 c -5.6704,5.08597 -6.1268,6.42904 -4.6812,13.77674 l 1.1642,5.91765 -1.1471,1.14718 -1.1472,1.14717 -5.5166,-2.70558 c -6.8317,-3.35058 -9.6298,-3.38931 -15.0576,-0.20842 l -4.2611,2.49716 -5.0768,8.87151 c -6.1108,10.6785 -6.1391,11.1059 -1.0819,16.36889 7.0325,7.31877 6.3843,10.11264 -2.607,11.23603 l -5.5523,0.69371 -1.9178,1.91777 -1.9177,1.91775 0,14 0,14 1.9177,1.91777 1.9178,1.91777 5.5523,0.69371 c 8.9913,1.12339 9.6395,3.91726 2.607,11.23603 -5.0572,5.26299 -5.0289,5.69039 1.0819,16.36889 l 5.0768,8.87151 4.2611,2.49716 c 5.3597,3.14099 8.9234,3.13731 14.4374,-0.0149 2.3937,-1.36836 5.2641,-2.48794 6.3789,-2.48794 l 2.0267,0 -0.8188,5.25 c -0.4503,2.8875 -0.809,6.7844 -0.7971,8.65978 l 0.022,3.40978 5.4183,4.76998 5.4183,4.76999 -1.1055,1.12577 c -0.6081,0.61917 -3.7581,1.51059 -7,1.98094 -8.2599,1.19835 -8.5416,1.38299 -11.8945,7.79585 l -3,5.73791 -2,0 -2,0 -2.7522,-5.77558 -2.7522,-5.77558 -2.5629,-0.97442 c -1.4096,-0.53593 -4.7341,-0.97442 -7.3876,-0.97442 l -4.8247,0 -9.3602,4.75 -9.3602,4.75 0,8 0,8 -2.7368,0.31514 -2.7367,0.31514 -4.9,-2.75439 -4.8999,-2.7544 -2.7091,1.77504 c -1.49,0.97628 -3.4535,3.13995 -4.3633,4.80817 -0.9098,1.66822 -4.0193,6.10008 -6.91,9.84859 -2.8907,3.7485 -5.345,7.89293 -5.4539,9.20983 l -0.1982,2.39436 4.2039,4.98562 c 6.3285,7.50521 5.6775,9.32519 -4.0491,11.32006 l -5.7532,1.17992 -1.0448,1.95226 c -0.5746,1.07374 -1.5476,5.70992 -2.1621,10.30263 l -1.1172,8.35038 1.3083,4.67297 c 0.7196,2.57012 2.1605,5.75627 3.202,7.08032 l 1.8936,2.40737 5.9464,0.67276 5.9464,0.67276 1.1393,1.37275 1.1393,1.37276 -4.7027,5.71225 -4.7026,5.71225 0.6809,6.78045 0.681,6.78045 -1.69,0.64851 -1.69,0.6485 -5.7411,-2.74402 -5.7412,-2.74403 -5.1364,2.6028 c -5.8679,2.9735 -7.4779,3.1812 -9.1396,1.17906 l -1.1816,-1.42374 0.9064,-4.98691 0.9064,-4.98692 -1.1984,-2.85021 c -0.6591,-1.56762 -3.0524,-4.13506 -5.3185,-5.70543 l -4.1201,-2.85522 -6.2787,-1.29896 c -6.0057,-1.24247 -10.8243,-1.80287 -13.5412,-1.57483 -0.6943,0.0583 -2.8093,2.52418 -4.7,5.47979 -5.2737,8.24421 -7.7327,8.04607 -12.5059,-1.00773 l -2.5655,-4.8661 -3.3293,-0.32054 -3.3293,-0.32053 -5.1538,2.51566 c -2.8346,1.38361 -7.0558,2.80314 -9.3805,3.1545 -2.3246,0.35136 -5.6996,1.63698 -7.5,2.85694 l -3.2732,2.21811 0,7.94793 0,7.94793 -2.2564,0.32039 c -1.241,0.17621 -4.7695,-0.83017 -7.8412,-2.23641 l -5.5847,-2.55679 -1.7452,0.93398 c -0.9598,0.51369 -4.4953,3.87385 -7.8565,7.46702 l -6.1113,6.53305 -1.0468,3.76938 c -0.5757,2.07316 -1.0493,5.36319 -1.0524,7.31117 l -0.01,3.54179 4.5,4.41642 c 6.4309,6.31144 5.8288,7.98752 -3.3752,9.39474 -6.4634,0.98821 -8.0599,2.20968 -10.7046,8.18994 l -2.3949,5.41532 -1.9757,0 -1.9756,0 -2.787,-5.75 z m 9.9717,-11.03108 c 0.9672,-0.84949 2.28,-3.2847 2.9172,-5.41158 l 1.1586,-3.86705 -3.3634,-3.47014 -3.3634,-3.47015 -2.6076,0 -2.6077,0 -3.3846,3.49198 -3.3845,3.49198 1.9652,4.74186 1.9652,4.74186 2.4732,1.24427 c 2.7309,1.37397 5.5494,0.86278 8.2318,-1.49303 z m 2.2414,-24.99228 5,-2.72664 3.7183,-7 3.7184,-7 0.032,-3.29886 0.032,-3.29886 -4.1626,-5.90267 -4.1627,-5.90266 1.1838,-1.4264 1.1838,-1.42639 5.645,-0.46813 5.645,-0.46813 1.779,-2.19705 c 0.9785,-1.20837 2.0721,-4.15118 2.4303,-6.53958 l 0.6512,-4.34253 -1.2241,-2.28735 -1.2242,-2.28736 1.2867,-7.07702 c 1.6421,-9.03122 2.3077,-10.27395 6.4244,-11.994 3.7993,-1.58744 5.0468,-3.41347 6.0745,-8.89141 l 0.7075,-3.77159 -1.8664,-2.06238 c -2.9992,-3.31411 -6.9144,-4.85763 -12.3215,-4.85763 l -5.0496,0 -4.0622,-4.0622 c -2.2343,-2.23421 -4.9019,-6.02099 -5.9281,-8.41506 l -1.8659,-4.35286 -3.804,-2.58494 -3.8041,-2.58494 -3.5357,0 -3.5358,0 -3.8041,2.58494 -3.804,2.58494 -1.8659,4.35286 c -1.0262,2.39407 -3.6938,6.18085 -5.928,8.41506 l -4.0622,4.0622 -5.0497,0 c -5.40709,0 -9.32227,1.54352 -12.32149,4.85763 l -1.86644,2.06238 0.70756,3.77159 c 1.02766,5.47794 2.27517,7.30397 6.07445,8.89141 4.09255,1.70997 4.82061,3.00796 6.48731,11.56562 l 1.29489,6.64863 -1.26089,3.04406 -1.26089,3.04405 0.685,4.05449 c 0.37675,2.22997 1.45524,5.0057 2.3966,6.16829 l 1.7117,2.11379 5.8455,0.63903 5.8456,0.63903 1.0448,1.66209 1.0448,1.66209 -4.1894,5.43028 -4.1894,5.43028 0,2.93584 c 0,1.61472 1.5448,6.1593 3.4328,10.09907 l 3.4329,7.16323 5.3171,3.04918 c 6.5196,3.73871 8.9169,3.78482 15.3172,0.29458 z m -34.5526,-20.67072 2.2961,-2.44408 -0.7075,-3.77137 c -0.3891,-2.07425 -1.3361,-4.98694 -2.1044,-6.47264 l -1.39688,-2.70128 -2.88903,-0.63454 c -1.58897,-0.349 -4.0875,-0.33374 -5.55229,0.0339 l -2.66326,0.66844 -1.46509,2.83317 c -0.8058,1.55823 -1.46509,3.72049 -1.46509,4.80501 l 0,1.97186 4.75,4.07135 c 5.4777,4.69508 7.98281,5.06202 11.19744,1.64018 z m 64.9628,-1.57917 5.0898,-4.02326 0,-2.0264 c 0,-1.11453 -0.6593,-3.30134 -1.4651,-4.85958 l -1.4651,-2.83317 -2.6633,-0.66844 c -1.4648,-0.36763 -3.9633,-0.38289 -5.5523,-0.0339 l -2.889,0.63454 -1.6163,3.12553 c -0.8889,1.71905 -1.66,4.79384 -1.7135,6.83288 l -0.097,3.70734 1.8859,2.08385 c 2.7021,2.98579 4.7296,2.6108 10.4861,-1.9394 z m -175.341,-0.28265 2.68076,-2.30589 0,-2.68522 c 0,-1.47687 -0.54463,-4.00007 -1.21028,-5.6071 l -1.21028,-2.92188 -2.51541,-0.63133 c -1.38347,-0.34723 -3.97879,-0.14836 -5.76738,0.44192 l -3.25198,1.07325 -1.14734,2.51813 c -0.63103,1.38497 -1.14733,3.82942 -1.14733,5.43212 l 0,2.91399 2.18856,2.03895 2.18856,2.03896 3.25568,0 3.25567,0 2.68077,-2.3059 z m 286.2422,0.26694 c 4.635,-4.31815 2.3403,-13.08069 -3.7441,-14.29758 -6.06,-1.21198 -10.1108,2.15911 -10.2929,8.56574 l -0.088,3.1041 2.7127,2.33335 2.7126,2.33335 3.2557,0 3.2557,0 2.1886,-2.03896 z M 286.4264,735.08569 c 0.70595,-0.67054 1.54894,-2.85462 1.87331,-4.85351 l 0.58978,-3.63436 -3.04639,-3.04639 -3.04639,-3.04639 -3.04213,0 -3.04213,0 -3.53479,3.10359 -3.5348,3.10359 0,3.46215 c 0,1.90419 0.41812,4.24343 0.92917,5.19831 l 0.92916,1.73617 6.82084,-0.402 6.82083,-0.402 1.28354,-1.21916 z m -33.22988,-1.04704 c 2.72049,-1.35652 6.50961,-3.7724 8.42027,-5.36863 l 3.47394,-2.90225 0.38914,-7.70614 0.38914,-7.70614 1.36412,-0.52346 c 0.75027,-0.28791 3.45607,0.64574 6.01288,2.07477 2.55682,1.42903 5.69813,2.59824 6.9807,2.59824 l 2.33194,0 4.0421,-3.84516 4.04211,-3.84517 0,-2.22769 0,-2.22769 6.25,-5.9472 6.25,-5.9472 4,0.15435 c 7.09424,0.27375 8.41302,-0.0647 11.70183,-3.00327 l 3.23338,-2.88902 -1.77646,-5.63559 -1.77647,-5.63558 -3.85708,-2.43487 c -5.40249,-3.41045 -5.51103,-3.71979 -5.64633,-16.09322 l -0.12114,-11.0773 -1.80119,-3.79572 -1.80118,-3.79572 -3.5301,-1.47497 -3.53009,-1.47497 -3.30709,0.53667 c -1.81889,0.29516 -4.54031,1.41319 -6.04758,2.4845 -3.32878,2.36597 -9.4894,4.16171 -14.30341,4.16924 l -3.56291,0.006 -2.87418,-3 -2.87418,-3 -4.26586,0 c -2.34622,0 -5.38963,0.51203 -6.76313,1.13784 l -2.49728,1.13783 -1.04977,3.01139 c -1.46345,4.19804 -1.30907,7.98787 0.41842,10.27181 0.8075,1.06762 1.4825,2.66639 1.5,3.55281 0.0628,3.18317 -5.89328,14.49169 -10.38632,19.71997 l -4.58188,5.33166 0,2.51489 0,2.5149 4.04448,4.59477 4.04448,4.59477 -0.29448,2.05868 -0.29448,2.05868 -4.5,1.38607 c -2.475,0.76234 -5.53588,1.77584 -6.80196,2.25224 l -2.30196,0.86616 -1.4441,3.45621 c -0.79425,1.90091 -1.97103,6.52909 -2.61507,10.28485 l -1.17099,6.82864 3.41704,6.43368 3.41704,6.43369 2.5,0.67955 c 1.375,0.37375 4.77415,0.72441 7.55366,0.77923 l 5.05365,0.0997 4.94635,-2.46639 z m 69.42102,1.18474 c 1.36108,-0.6887 4.21303,-3.71956 6.33766,-6.73526 l 3.86297,-5.48309 -0.54968,-4.82718 c -0.30232,-2.65494 -1.67508,-7.28536 -3.05056,-10.28982 l -2.50089,-5.46265 -4.59449,-2.03236 c -2.52697,-1.1178 -6.07401,-2.27245 -7.8823,-2.5659 l -3.28782,-0.53354 -3.40478,1.74274 c -10.22548,5.2339 -13.90479,10.58649 -13.90479,20.22838 l 0,5.82391 4.25,4.15875 c 6.92907,6.78029 17.89633,9.43111 24.72468,5.97602 z m 105.40736,0.1926 3.8821,-1.0779 4.8679,-4.55337 4.868,-4.55336 0,-5.89528 c 0,-9.78382 -3.4408,-14.95426 -13.2979,-19.98301 l -4.0309,-2.05637 -3.2782,0.53198 c -1.803,0.2926 -5.3006,1.42657 -7.7724,2.51995 l -4.4941,1.98795 -1.9449,3.83423 c -1.0697,2.10883 -2.5016,6.34068 -3.1821,9.40411 l -1.2372,5.56989 1.7369,3.43011 c 0.9553,1.88657 2.8251,4.88398 4.1551,6.66092 l 2.4181,3.2308 3.2138,0.92901 c 4.4504,1.28649 9.5095,1.29379 14.0958,0.0203 z m 36.045,-0.48088 c 0.8635,-0.86346 1.8631,-2.73778 2.2213,-4.16517 l 0.6514,-2.59524 -4.1112,-3.83483 -4.1111,-3.83483 -2.8162,0 c -3.5452,0 -7.0994,2.44411 -8.3544,5.74496 l -0.9669,2.54312 1.087,3.29361 c 1.2152,3.68201 2.234,4.13615 9.6516,4.30231 l 5.1786,0.116 1.5699,-1.56993 z m 35.514,0.26349 3.441,-1.19356 2.829,-5.5 2.829,-5.5 -0.4338,-5 c -0.2386,-2.75 -1.2601,-7.46437 -2.27,-10.47638 l -1.8362,-5.47639 -2.5,-1.16145 c -1.375,-0.6388 -4.525,-1.77443 -7,-2.52362 l -4.5,-1.36216 -0.3021,-2.11636 -0.302,-2.11635 4.052,-3.8397 4.0521,-3.8397 0,-3.85381 0,-3.8538 -4.8498,-5.19014 c -4.6456,-4.9716 -10.1853,-15.13355 -10.1184,-18.56098 0.017,-0.89604 0.6925,-2.50267 1.5,-3.57029 1.7274,-2.28394 1.8818,-6.07377 0.4184,-10.27181 l -1.0498,-3.01139 -2.4973,-1.13783 c -1.3735,-0.62581 -4.4169,-1.13784 -6.7631,-1.13784 l -4.2659,0 -2.8741,3 -2.8742,3 -3.5629,-0.006 c -4.814,-0.008 -10.9747,-1.80327 -14.3034,-4.16924 -1.5073,-1.07131 -4.2287,-2.18934 -6.0476,-2.4845 l -3.3071,-0.53667 -3.5301,1.47497 -3.5301,1.47497 -1.8012,3.79572 -1.8012,3.79572 -0.1211,11.22299 -0.1211,11.22299 -1.8819,2.07878 c -1.0351,1.14334 -2.7301,2.348 -3.7668,2.67703 -1.9784,0.62793 -5.0984,6.00235 -6.2401,10.74908 l -0.6726,2.79626 2.9538,2.95374 c 2.9869,2.98689 4.594,3.41388 11.3299,3.01023 l 3.7224,-0.22306 6.0556,5.33038 6.0556,5.33039 0.9964,3.70016 0.9963,3.70016 3.7035,3.05274 c 4.522,3.72734 6.652,3.8039 12.6447,0.4545 2.5568,-1.42903 5.3135,-2.34315 6.126,-2.03138 l 1.4772,0.56685 0,6.80888 0,6.80888 1.5034,2.14644 c 0.8269,1.18055 4.3106,3.98068 7.7416,6.22251 l 6.2383,4.07606 5.5083,-0.0564 c 3.0296,-0.0311 7.0568,-0.59355 8.9494,-1.25 z M 228.36342,698.69891 c 1.49427,-0.94942 4.27944,-8.59467 4.27944,-11.74702 l 0,-2.30169 -2.63486,-2.07258 -2.63486,-2.07258 -3.75435,0 -3.75436,0 -2.2831,1.84874 -2.28309,1.84874 1.32797,4.90126 c 0.73038,2.69569 1.94448,6.13876 2.69799,7.65126 l 1.37002,2.75 3.22432,-0.0153 c 1.77338,-0.008 3.77357,-0.36429 4.44488,-0.79082 z m 286.52298,-0.44387 c 0.8942,-0.6875 2.2627,-3.74266 3.0412,-6.78925 l 1.4153,-5.53925 -0.759,-2.05171 c -0.4174,-1.12845 -2.0672,-2.5936 -3.6661,-3.25591 l -2.9072,-1.2042 -2.932,1.11477 c -6.5852,2.50366 -7.7457,5.6611 -4.7932,13.04028 l 1.6426,4.1052 2.1074,0.85165 c 3.0403,1.22862 5.0009,1.1509 6.851,-0.27158 z m -281.52021,-27.8026 4.22333,-1.81134 1.9556,-3.21574 c 1.07559,-1.76866 2.72179,-6.04623 3.65823,-9.5057 l 1.70261,-6.28996 -2.54234,-4.31233 c -1.39828,-2.37178 -3.94029,-5.6415 -5.64889,-7.26604 l -3.10657,-2.95371 -6.38373,-0.40649 -6.38374,-0.40648 -3.57534,1.17997 -3.57535,1.17997 -4.04635,4.59689 c -4.93862,5.61057 -5.55264,7.79471 -4.00498,14.24609 3.44357,14.3544 14.82659,20.49796 27.72752,14.96487 z m 110.49891,-1.44088 c 3.1473,-2.47073 6.4322,-5.57569 7.2999,-6.89992 l 1.5775,-2.40769 0.5818,-6.93965 0.5818,-6.93964 -4.6512,-3.90981 c -2.5581,-2.1504 -6.0978,-4.69731 -7.866,-5.65981 l -3.21484,-1.75 -6.0156,0.0147 c -7.84963,0.0192 -10.20602,1.34436 -14.19973,7.98526 l -3.3076,5.5 -0.004,2.89219 c -0.006,4.27994 3.7653,16.16793 5.62853,17.74185 2.41849,2.04294 10.39341,4.70054 14.36733,4.78783 l 3.5,0.0769 5.72221,-4.49222 z m 64.3496,2.85533 c 2.7105,-0.90098 5.718,-2.32285 6.6834,-3.15971 1.9861,-1.72177 5.7448,-13.40316 5.7448,-17.85419 l 0,-2.93642 -3.25,-5.42933 c -3.9276,-6.56123 -6.411,-7.94821 -14.2656,-7.96746 l -6.0156,-0.0147 -3.2149,1.75 c -1.7682,0.9625 -5.3079,3.50941 -7.866,5.65981 l -4.6512,3.90981 0.5818,6.93964 0.5818,6.93965 1.597,2.43732 c 0.8783,1.34053 4.3252,4.44578 7.6598,6.90055 l 6.0629,4.46322 2.7118,0 c 1.4915,0 4.9295,-0.73717 7.64,-1.63815 z m 110.5524,-1.44004 c 6.6596,-3.37026 11.8758,-12.59186 11.8758,-20.99516 l 0,-2.71034 -4.5327,-5.04137 -4.5326,-5.04137 -3.5663,-1.17698 -3.5663,-1.17698 -6.3837,0.40648 -6.3837,0.40649 -3.1066,2.95371 c -1.7086,1.62454 -4.2416,4.87894 -5.629,7.23199 l -2.5223,4.27828 1.1825,4.72172 c 2.8097,11.21847 5.6417,14.87347 13.7997,17.81036 l 3.741,1.34673 3,-0.58972 c 1.65,-0.32435 4.6308,-1.41508 6.6242,-2.42384 z M 196.31954,649.25504 c 2.88641,-3.20665 3.34003,-5.10562 2.20316,-9.22302 l -1.00015,-3.62222 -2.50494,-0.95238 c -1.37772,-0.52381 -4.23565,-0.95238 -6.35095,-0.95238 l -3.84602,0 -2.63653,3.13335 c -3.44913,4.09905 -3.0259,5.53696 2.96532,10.07462 5.74485,4.35107 8.32142,4.70676 11.1701,1.54203 z m 353.60456,-1.32708 c 6.1013,-3.81635 6.5728,-4.87069 4.2163,-9.42773 l -1.5025,-2.9055 -3.4975,-0.65613 c -1.9237,-0.36088 -5.0671,-0.3617 -6.9854,-0.002 l -3.4878,0.65433 -1.1147,2.08283 c -0.6131,1.14556 -1.1575,3.59009 -1.2097,5.4323 l -0.095,3.34946 2.3718,2.52467 c 3.1254,3.32677 4.5094,3.19792 11.3045,-1.05241 z m -176.358,-0.0118 3.0768,-2.5889 0,-3.30032 0,-3.30032 -1.9117,-2.36079 -1.9116,-2.36078 -5.1767,0 -5.1768,0 -1.9116,2.36078 -1.9116,2.36079 0,3.30032 0,3.30032 3.0767,2.5889 3.0767,2.58889 2.8466,0 2.8465,0 3.0767,-2.58889 z M 141.88135,631.66655 c 0.5011,-0.5011 1.50961,-2.65205 2.24112,-4.77989 l 1.33003,-3.86879 -0.94001,-1.75642 c -1.07151,-2.00215 -4.32962,-4.23799 -7.59462,-5.21173 l -2.22499,-0.66358 -4.21081,3.9278 -4.21082,3.92781 1.47323,3.87077 1.47323,3.87077 2.46257,1.29547 2.46258,1.29546 3.41369,-0.49828 c 1.87753,-0.27406 3.82369,-0.90828 4.3248,-1.40939 z m 71.17878,-1.61151 3.08273,-2.29661 6,-0.57996 c 3.3,-0.31897 6.96644,-0.86643 8.14765,-1.21656 l 2.14765,-0.6366 3.85235,3.45718 c 4.5224,4.0585 7.32013,5.10817 11.29063,4.2361 l 2.89335,-0.63548 1.58418,-3.95927 c 1.88449,-4.70979 2.01539,-9.08433 0.40511,-13.53748 l -1.17907,-3.26068 1.91599,-4.31032 c 1.0538,-2.37068 3.81098,-6.35697 6.12707,-8.85842 4.68398,-5.05886 6.31509,-8.49947 6.31509,-13.32083 l 0,-3.23874 -3.25,-3.04504 c -5.09604,-4.77467 -7.93585,-6.34729 -11.46178,-6.34729 -3.88001,0 -13.29065,-3.40028 -14.4449,-5.21928 -0.44698,-0.7044 -0.81959,-2.45753 -0.82801,-3.89586 -0.0278,-4.74126 -6.76174,-10.88486 -11.93085,-10.88486 -1.10818,0 -3.60801,1.3988 -5.55519,3.10844 l -3.54032,3.10844 -0.63312,3.95935 -0.63313,3.95936 -2.61135,1.59235 c -1.43624,0.87579 -4.33841,2.7339 -6.44925,4.12912 l -3.8379,2.53677 -4.89073,0.11092 -4.89073,0.11091 -3.77137,3.07337 -3.77137,3.07336 0.11157,2.36881 c 0.0614,1.30284 0.28636,4.33118 0.5,6.72965 l 0.38843,4.36085 -1.7022,1.10388 -1.7022,1.10389 -4.7978,-1.71968 c -2.63879,-0.94583 -6.01865,-1.71746 -7.51081,-1.71474 l -2.713,0.005 -4.88283,4.25 c -6.56101,5.71068 -8.77009,9.16196 -10.26728,16.04072 l -1.26037,5.79072 4.41824,4.53949 c 2.43004,2.49671 5.76825,5.26431 7.41825,6.15021 l 3,1.61073 8.38785,0.0591 8.38785,0.0591 2.11215,-2.9289 c 1.16168,-1.6109 3.324,-4.3109 4.80515,-6 l 2.693,-3.0711 1.807,1.0931 c 0.99385,0.6012 2.82255,3.20433 4.06378,5.78473 l 2.25677,4.69163 2.24322,0.93442 c 3.17344,1.32189 8.5481,0.23733 12.1605,-2.45388 z m 104.066,2.45636 2.61347,-0.99364 1.47459,-3.5292 1.47459,-3.52919 -1.04793,-1.95808 c -1.29965,-2.42843 -7.89081,-6.99625 -10.09527,-6.99625 -0.89815,0 -2.81869,0.93266 -4.26786,2.07258 l -2.63486,2.07258 0,3.47708 c 0,8.15549 5.27836,12.12342 12.48327,9.38412 z m 78.95907,-3.26153 c 4.3682,-1.67119 9.0385,-4.13478 10.3784,-5.47465 l 2.4361,-2.43613 -0.4941,-6.90605 -0.4941,-6.90604 1.3275,-1.10176 1.3275,-1.10175 5.659,2.59077 c 3.1125,1.42493 6.6052,2.59078 7.7616,2.59078 l 2.1025,0 5.5455,-5.82777 c 5.1444,-5.40622 12.0078,-16.36068 12.0078,-19.16528 0,-0.6672 -2.025,-3.46538 -4.5,-6.21817 -6.5653,-7.30217 -5.9048,-9.77218 3.0184,-11.28734 6.6358,-1.12677 7.2162,-1.44877 8.624,-4.78469 l 1.3576,-3.21675 0,-10.5 0,-10.5 -1.3576,-3.21675 c -1.4078,-3.33592 -1.9882,-3.65792 -8.624,-4.78469 -8.9232,-1.51516 -9.5837,-3.98517 -3.0184,-11.28734 2.475,-2.75279 4.5,-5.55097 4.5,-6.21817 0,-2.8046 -6.8634,-13.75906 -12.0078,-19.16528 l -5.5455,-5.82777 -2.1025,0 c -1.1564,0 -4.6491,1.16585 -7.7616,2.59078 l -5.659,2.59077 -1.3446,-1.11597 -1.3447,-1.11598 0.5065,-6.30951 0.5064,-6.30952 -1.2144,-2.26916 -1.2144,-2.26916 -6.4235,-2.91255 c -3.5329,-1.6019 -9.0046,-3.58805 -12.1592,-4.41366 l -5.7357,-1.50111 -2.779,0.60334 -2.7789,0.60334 -2.9219,5.78836 c -1.6071,3.18359 -3.6761,6.07774 -4.5979,6.43144 l -1.6758,0.6431 -1.4513,-1.20444 c -0.7982,-0.66244 -2.5575,-3.38757 -3.9097,-6.05585 l -2.4583,-4.8514 -2.6446,-1.00546 -2.6446,-1.00547 -4.9101,1.05303 c -2.7006,0.57917 -8.2677,2.4508 -12.3714,4.15918 l -7.4613,3.10615 -1.58214,2.41465 -1.58214,2.41465 0.51734,6.44503 0.51735,6.44502 -1.34467,1.11598 -1.34466,1.11597 -5.659,-2.59077 c -6.83766,-3.13038 -8.37476,-3.1987 -11.77588,-0.52338 -5.23292,4.11622 -15.64144,19.41868 -15.64144,22.99583 0,0.6286 2.025,3.3952 4.5,6.14799 6.86833,7.63923 6.12644,9.51043 -4.6494,11.72682 l -5.64939,1.16198 -1.35061,3.19999 -1.3506,3.19999 0,10.5 0,10.5 1.35755,3.21675 c 1.40784,3.33592 1.98822,3.65792 8.62404,4.78469 8.92317,1.51516 9.58368,3.98517 3.01841,11.28734 -2.475,2.75279 -4.5,5.51939 -4.5,6.14799 0,3.57715 10.40852,18.87961 15.64144,22.99583 3.40112,2.67532 4.93822,2.607 11.77588,-0.52338 l 5.659,-2.59077 1.34466,1.11597 1.34467,1.11598 -0.51735,6.44502 -0.51734,6.44503 1.58214,2.41465 1.58214,2.41465 7.39342,3.07789 c 8.58358,3.57334 14.18298,4.66165 19.17058,3.72599 l 3.5543,-0.66679 2.4152,-4.76623 c 1.3284,-2.62143 3.0683,-5.30824 3.8665,-5.97068 l 1.4513,-1.20444 1.6758,0.6431 c 0.9218,0.3537 2.9925,3.2513 4.6017,6.4391 l 2.9258,5.79601 1.7751,0.48341 c 3.1089,0.84666 9.5389,-0.45343 17.7174,-3.58228 z m 102.7322,-0.28354 4.0302,-3.64102 2.1476,0.6366 c 1.1812,0.35013 4.8477,0.89759 8.1477,1.21656 l 6,0.57996 3.01,2.24113 c 1.6554,1.23263 4.3898,2.5442 6.0762,2.91461 l 3.0663,0.67347 2.6722,-1.01595 2.6721,-1.01596 2.6936,-5.49202 c 4.0647,-8.28775 5.2279,-8.11783 12.0389,1.75853 l 3.2294,4.6828 4.9714,0 c 2.7343,0 7.3294,-0.5057 10.2114,-1.12377 l 5.2399,-1.12377 5.3093,-5.02128 5.3093,-5.02129 0,-2.17345 c 0,-1.19539 -0.6698,-4.42875 -1.4884,-7.18524 l -1.4883,-5.0118 -6.4251,-6.1697 -6.4251,-6.1697 -2.8366,-0.005 c -1.5601,-0.003 -4.9956,0.76891 -7.6343,1.71474 l -4.7978,1.71968 -1.7022,-1.09145 -1.7022,-1.09145 0.1115,-2.37328 c 0.061,-1.30531 0.2864,-4.33267 0.5,-6.72746 l 0.3885,-4.35417 -3.7714,-3.088 -3.7714,-3.088 -4.8907,-0.11091 -4.8907,-0.11092 -3.8379,-2.53677 c -2.1109,-1.39522 -5.0131,-3.25333 -6.4493,-4.12912 l -2.6113,-1.59235 -0.6332,-3.95936 -0.6331,-3.95935 -3.5403,-3.10844 -3.5403,-3.10844 -2.3152,0 c -1.2733,0 -4.1772,1.34884 -6.453,2.99741 l -4.1378,2.99741 -0.6508,4.0697 c -0.3579,2.23834 -1.2767,4.69572 -2.0419,5.46085 -1.4854,1.48543 -9.4831,4.05384 -15.4682,4.96752 l -3.6365,0.55515 -4.6135,4.06097 -4.6135,4.06096 0,3.34992 c 0,4.93381 1.6024,8.34222 6.315,13.43201 2.3161,2.50145 5.0733,6.48774 6.1271,8.85842 l 1.916,4.31032 -1.1791,3.26068 c -1.6106,4.45423 -1.4793,8.8279 0.4068,13.54165 1.7294,4.3221 3.1872,5.12851 8.2363,4.55602 l 3.3222,-0.37667 4.0302,-3.64103 z m 106.3635,2.50711 c 0.7478,-0.62061 1.8802,-2.70566 2.5164,-4.63343 l 1.1568,-3.50505 -2.8556,-3.00102 c -1.5706,-1.65056 -3.6329,-3.42262 -4.5828,-3.93792 l -1.7272,-0.9369 -3.3921,1.41732 c -1.8657,0.77954 -4.0833,2.40409 -4.9281,3.61012 l -1.5358,2.19279 0.801,2.66285 c 1.5231,5.06322 2.2962,6.33389 4.3985,7.2297 2.5427,1.08352 8.2662,0.46404 10.1489,-1.09846 z m -320.15802,0.0837 3.88002,-0.90016 3.9524,-3.82598 c 2.17382,-2.1043 4.60238,-5.06447 5.39679,-6.57818 l 1.44439,-2.75218 -1.60264,-6.24782 -1.60263,-6.24781 -3.12017,-3.24983 c -1.7161,-1.7874 -4.84207,-4.44309 -6.9466,-5.90154 l -3.82643,-2.65171 -2.72758,0.0843 c -3.08854,0.0954 -13.54808,4.63942 -14.95418,6.49662 -1.96702,2.59809 -5.27339,13.08223 -5.27339,16.72138 l 0,3.82121 4.06886,5.1475 c 5.54692,7.01738 10.81099,8.52025 21.31116,6.08423 z m 143.16542,-1.50668 2.4546,-2.45454 0,-3.97288 0,-3.97287 -2.6349,-2.07258 c -1.4492,-1.13989 -3.3697,-2.07255 -4.2679,-2.07255 -2.1864,0 -8.7913,4.55973 -10.0724,6.95361 l -1.0251,1.91544 1.0451,2.81548 c 1.4377,3.87266 3.6612,5.31547 8.1917,5.31547 l 3.8544,0 2.4545,-2.45455 z m 36.8282,1.50257 c 1.3772,-0.52358 4.3315,-3.26399 6.5651,-6.08979 l 4.0613,-5.1378 0,-3.82121 c 0,-3.63915 -3.3064,-14.12329 -5.2734,-16.72137 -0.509,-0.6722 -3.3439,-2.32942 -6.2999,-3.68272 -8.909,-4.07868 -10.6586,-3.8861 -17.8398,1.96369 -6.0874,4.95875 -7.684,7.44095 -9.459,14.70588 l -1.1641,4.76468 1.4356,2.73532 c 0.7897,1.50443 3.2281,4.47053 5.4188,6.59132 l 3.9832,3.85599 3.3493,0.79165 c 4.7939,1.13311 12.3018,1.15501 15.2229,0.0444 z m -290.37652,-47.66435 4.00288,-3.61636 0,-1.9333 c 0,-1.06332 -0.67762,-3.24367 -1.50583,-4.84524 l -1.50582,-2.91195 -4.12504,-1.23589 -4.12505,-1.23589 -1.84264,2.27556 c -1.01345,1.25156 -2.62789,4.76667 -3.58764,7.81135 l -1.745,5.53578 2.32929,1.88615 c 1.28111,1.03738 3.62815,1.88615 5.21563,1.88615 l 2.88634,0 4.00288,-3.61636 z m 110.58775,1.29702 2.6964,-2.31935 -0.72074,-4.80621 -0.72073,-4.80621 -2.48619,-2.48619 -2.48619,-2.48618 -3.18371,0.61475 c -3.92258,0.75742 -6.23624,3.40998 -7.13006,8.17442 l -0.68194,3.63507 1.81415,2.03625 c 1.82509,2.04854 6.78814,4.65108 9.00838,4.72385 0.65683,0.0215 2.40761,-1.00456 3.89063,-2.2802 z m 287.52287,0.43319 2.3293,-1.88615 -1.745,-5.53578 c -0.9598,-3.04468 -2.5466,-6.52567 -3.5263,-7.73553 l -1.7812,-2.19975 -3.1653,0.6952 -3.1652,0.6952 -2.527,3.0032 c -1.3899,1.65177 -2.527,4.04132 -2.527,5.31012 l 0,2.30692 4.0028,3.61636 4.0029,3.61636 2.8864,0 c 1.5874,0 3.9345,-0.84877 5.2156,-1.88615 z m -111.0356,-1.88696 3.1036,-2.77312 -0.7057,-3.76158 c -0.9167,-4.88641 -3.2016,-7.53779 -7.1538,-8.30092 l -3.1837,-0.61475 -2.4862,2.48618 -2.4861,2.48619 -0.7203,4.80287 -0.7202,4.80287 2.2509,1.82269 2.2509,1.82268 3.3735,0 3.3734,0 3.1037,-2.77311 z M 197.14286,567.15219 c 2.75,-1.28332 6.63912,-4.15167 8.64248,-6.3741 l 3.64248,-4.04079 0.67639,-4.00351 0.67639,-4.0035 -1.0868,-4.03608 -1.0868,-4.03608 -5.01667,-4.51041 c -2.75916,-2.48073 -6.5408,-5.01342 -8.40363,-5.62821 l -3.38696,-1.1178 -5.82844,1.51172 -5.82844,1.51173 -3.18982,3.45959 -3.18982,3.45958 -1.16326,4.32001 -1.16325,4.32001 0.58438,4.26354 c 1.23762,9.02945 4.6994,13.2149 13.12177,15.86484 5.54934,1.74599 6.33501,1.6831 12,-0.96054 z m 67.98056,0.5227 5.98056,-1.67011 2.51944,-4.49987 2.51944,-4.49987 0,-7.5 0,-7.5 -2.74592,-4.6711 -2.74591,-4.6711 -3.25409,-1.02514 c -1.78974,-0.56383 -5.28722,-1.30978 -7.77217,-1.65767 l -4.5181,-0.63252 -6.02944,4.02631 c -3.3162,2.21447 -6.87161,4.95689 -7.90092,6.09426 l -1.87148,2.06795 -0.45097,5.43816 c -0.24803,2.99098 -0.15322,7.02529 0.21069,8.96514 l 0.66167,3.52698 4.20832,2.88901 c 10.89661,7.48052 12.24152,7.81817 21.18888,5.31957 z M 483.1429,567.1203 c 2.75,-1.30086 6.8,-3.94501 9,-5.87587 l 4,-3.51067 0,-8.70915 0,-8.70915 -2.756,-2.19756 c -1.5158,-1.20866 -5.2196,-3.69063 -8.2306,-5.51549 l -5.4745,-3.31792 -6.2695,1.0867 -6.2694,1.08671 -3.1899,3.44321 -3.1898,3.44322 -1.1703,4.33036 -1.1703,4.33035 0.5385,5.25596 0.5385,5.25596 2.3411,4.24391 2.341,4.24391 5.9806,1.67011 c 7.7473,2.16349 7.1837,2.18757 12.9806,-0.55459 z m 73.2467,-1.46849 c 2.86,-1.54491 6.121,-7.90277 6.875,-13.40392 l 0.5844,-4.26354 -1.1633,-4.32001 -1.1632,-4.32001 -3.1898,-3.45958 -3.1898,-3.45959 -5.8285,-1.51173 -5.8284,-1.51172 -3.387,1.1178 c -1.8628,0.61479 -5.6445,3.14748 -8.4036,5.62821 l -5.0167,4.51041 -1.0868,4.03608 -1.0868,4.03608 0.6764,4.0035 0.6764,4.00351 3.5673,3.94861 c 7.5909,8.40218 17.2947,10.18927 26.9644,4.9659 z m -328.431,-20.27173 c 3.90278,-2.01006 6.56733,-5.06043 7.20704,-8.25062 0.3446,-1.71843 0.8407,-3.88811 1.10247,-4.8215 l 0.47593,-1.69708 5.48692,-2.05292 c 3.01781,-1.12911 6.94492,-2.05292 8.72691,-2.05292 3.50024,0 6.347,-1.58017 11.43499,-6.34729 l 3.25,-3.04504 0,-3.23874 c 0,-4.82136 -1.63111,-8.26197 -6.31509,-13.32083 -2.31609,-2.50145 -5.07327,-6.48774 -6.12707,-8.85842 l -1.91599,-4.31032 1.17907,-3.26068 c 1.61028,-4.45315 1.47938,-8.82769 -0.40511,-13.53748 l -1.58418,-3.95927 -2.89335,-0.63548 c -3.9705,-0.87207 -6.76823,0.1776 -11.29063,4.2361 l -3.85235,3.45718 -2.14765,-0.6366 c -1.18121,-0.35013 -4.84765,-0.89759 -8.14765,-1.21656 l -6,-0.57996 -3.01,-2.24113 c -1.65549,-1.23263 -4.38982,-2.5442 -6.07627,-2.91461 l -3.06628,-0.67347 -2.72816,1.03725 -2.72816,1.03724 -1.93392,4.37195 c -3.73858,8.45168 -5.78914,8.48556 -11.91237,0.19686 l -4.10793,-5.5607 -4.91924,0 c -2.70557,0 -7.29227,0.50893 -10.19266,1.13095 l -5.27343,1.13095 -5.46185,5.24869 -5.46186,5.2487 1.27819,5.87035 c 1.51507,6.95824 3.70849,10.3961 10.2851,16.12036 l 4.88283,4.25 2.713,0.005 c 1.49216,0.003 4.87202,-0.76891 7.51081,-1.71474 l 4.7978,-1.71968 1.7022,1.09145 1.7022,1.09145 -0.11157,2.37328 c -0.0614,1.30531 -0.28637,4.33267 -0.5,6.72746 l -0.38843,4.35417 3.77137,3.088 3.77137,3.088 4.89073,0.11091 4.89073,0.11092 3.8379,2.53677 c 2.11084,1.39522 5.01301,3.25333 6.44925,4.12912 l 2.61135,1.59235 0.63313,3.95936 0.63312,3.95935 3.54032,3.10844 c 3.7607,3.30193 6.2478,3.80601 9.78647,1.98348 z m 289.155,-1.98348 3.5403,-3.10844 0.6331,-3.95935 0.6332,-3.95936 2.6113,-1.59235 c 1.4362,-0.87579 4.3384,-2.7339 6.4493,-4.12912 l 3.8379,-2.53677 4.8907,-0.11092 4.8907,-0.11091 3.7714,-3.07337 3.7714,-3.07336 -0.1116,-2.36881 c -0.061,-1.30284 -0.2864,-4.33118 -0.5,-6.72965 l -0.3884,-4.36085 1.7022,-1.10388 1.7022,-1.10389 4.7978,1.71968 c 2.6387,0.94583 6.0742,1.71746 7.6343,1.71474 l 2.8366,-0.005 6.4251,-6.1697 6.4251,-6.1697 1.4883,-5.0118 c 0.8186,-2.75644 1.4884,-5.9898 1.4884,-7.18519 l 0,-2.17345 -5.3093,-5.02129 -5.3093,-5.02128 -5.2399,-1.12377 c -2.882,-0.61807 -7.436,-1.12377 -10.1201,-1.12377 l -4.8801,0 -4.3642,5.75 -4.3643,5.75 -1.9786,0.2897 -1.9787,0.2897 -2.7293,-5.56505 -2.7294,-5.56504 -2.6721,-1.01596 -2.6722,-1.01595 -3.0663,0.67347 c -1.6864,0.37041 -4.4208,1.68198 -6.0762,2.91461 l -3.01,2.24113 -6,0.57996 c -3.3,0.31897 -6.9665,0.86643 -8.1477,1.21656 l -2.1476,0.6366 -3.8524,-3.45718 c -4.5224,-4.0585 -7.3201,-5.10817 -11.2906,-4.2361 l -2.8934,0.63548 -1.5664,3.91499 c -2.0778,5.19273 -2.2369,8.68988 -0.5984,13.15276 l 1.3546,3.68968 -1.916,4.31032 c -1.0538,2.37068 -3.811,6.35697 -6.1271,8.85842 -4.6839,5.05886 -6.315,8.49947 -6.315,13.32083 l 0,3.23874 3.25,3.04504 c 5.0879,4.76712 7.9347,6.34729 11.4349,6.34729 1.782,0 5.7314,0.93214 8.7764,2.07143 l 5.5364,2.07143 0.5011,2.42857 c 0.2756,1.33571 0.7358,3.55771 1.0225,4.93777 l 0.5214,2.5092 4.1287,2.9908 c 2.2707,1.64494 5.1705,2.9908 6.4438,2.9908 l 2.3152,0 3.5403,-3.10844 z m -341.22074,-16.94303 2.75,-2.98008 0,-2.5406 0,-2.54059 -3.18721,-2.91107 c -1.75297,-1.60108 -4.40176,-3.33446 -5.8862,-3.85194 l -2.699,-0.94087 -3.1138,1.89361 c -3.67777,2.23659 -3.76549,3.10617 -1.04643,10.3735 3.13486,8.37867 7.58833,9.5604 13.18264,3.49804 z m 109.0423,-0.13821 c 1.01979,-1.36591 2.09585,-4.28531 2.39123,-6.48756 l 0.53706,-4.00408 -2.74515,-2.15934 c -3.53712,-2.7823 -5.18632,-2.71984 -9.73124,0.36852 l -3.72008,2.52785 -0.6115,2.4364 -0.61149,2.4364 1.84943,3.76205 1.84944,3.76206 2.5,0.6074 c 3.34719,0.81322 6.04958,-0.24583 8.2923,-3.2497 z m 176.83994,1.22136 c 0.8977,-1.07926 1.9497,-3.65501 2.3378,-5.72387 l 0.7057,-3.76158 -3.1036,-2.77312 -3.1037,-2.77311 -3.3734,0 -3.3735,0 -2.2509,1.82268 -2.2509,1.82269 0.7202,4.80287 0.7203,4.80287 2.4861,2.48619 2.4862,2.48618 3.1837,-0.61475 c 1.7511,-0.33811 3.9182,-1.49779 4.816,-2.57705 z m 106.8601,1.97241 c 1.7843,-0.9549 6.0077,-10.48504 6.0077,-13.5563 0,-0.81245 -1.412,-2.33587 -3.1378,-3.38537 l -3.1377,-1.90817 -2.6123,0.98421 c -3.3899,1.2772 -9.1133,6.81161 -9.1085,8.80771 0.014,5.7545 7.5384,11.43961 11.9886,9.05792 z M 285.64286,503.39631 c 7.25329,-4.35458 11.00849,-9.52324 12.83944,-17.67219 l 0.88944,-3.9586 -1.21819,-2.88024 c -0.67,-1.58413 -3.26126,-4.75801 -5.75836,-7.05306 l -4.54018,-4.17282 -4.66893,-0.70015 c -2.5679,-0.38508 -6.69365,-0.47193 -9.16833,-0.193 l -4.49942,0.50715 -2.4569,2.30814 c -1.35129,1.26948 -3.85808,4.49169 -5.57064,7.16048 l -3.11374,4.85235 2.82072,8.48877 c 3.09432,9.31211 3.43155,9.74016 10.2514,13.01221 5.96766,2.86317 9.79085,2.94424 14.19369,0.30096 z m 177.31464,-0.0591 c 7.3123,-3.05697 7.8879,-3.7352 11.1445,-13.12986 l 2.9104,-8.39607 -2.6667,-4.40313 c -5.4829,-9.05299 -8.2869,-10.90311 -16.5245,-10.90311 -9.0649,0 -16.7241,4.51005 -20.7789,12.23533 l -1.4356,2.73532 1.1641,4.76468 c 1.775,7.26493 3.3716,9.74713 9.459,14.70588 l 5.5964,4.55879 2.9729,0 c 1.6352,0 5.3064,-0.97551 8.1584,-2.1678 z M 139.04428,482.11067 c 1.83546,-0.7669 4.02834,-2.38112 4.87308,-3.58715 l 1.53589,-2.19279 -0.79541,-2.77346 c -0.43748,-1.5254 -1.30029,-3.71682 -1.91735,-4.86981 l -1.12194,-2.09635 -3.40279,-0.63837 -3.40278,-0.63837 -2.79587,1.34534 -2.79586,1.34533 -1.475,3.88165 -1.475,3.88164 4.14708,3.86836 c 4.75815,4.43835 4.26386,4.29658 8.62595,2.47398 z m 177.84147,-1.12471 c 2.03894,-1.3855 4.19545,-3.43146 4.79225,-4.54657 l 1.08508,-2.02749 -1.81011,-3.70343 -1.81011,-3.70343 -4.74103,-0.30442 -4.74103,-0.30443 -2.50897,2.50897 -2.50897,2.50897 0,3.97288 0,3.97287 2.63486,2.07258 c 3.42146,2.69132 5.10548,2.61306 9.60803,-0.4465 z m 111.14995,0.26908 c 1.3774,-1.2375 2.5808,-2.925 2.6743,-3.75 0.4411,-3.89519 -0.2654,-6.28913 -2.5217,-8.54545 l -2.4545,-2.45455 -3.6112,0 c -4.8463,0 -7.0546,1.34173 -8.3569,5.07756 l -1.0876,3.11978 1.0073,1.88225 c 1.2883,2.40711 7.8973,6.92041 10.1338,6.92041 0.9417,0 2.8391,-1.0125 4.2165,-2.25 z m 176.8317,-1.61835 4.1471,-3.86836 -1.475,-3.88164 -1.475,-3.88165 -2.7959,-1.34533 -2.7959,-1.34534 -3.4028,0.63837 -3.4027,0.63837 -1.122,2.09635 c -0.617,1.15299 -1.4798,3.34441 -1.9173,4.86981 l -0.7954,2.77346 1.5335,2.18937 c 1.3539,1.933 6.3843,4.83755 8.5656,4.9458 0.4338,0.0215 2.6549,-1.70162 4.9358,-3.82921 z m -336.76175,-18.09558 3.13242,-3.03607 3.4524,0.006 c 4.71283,0.008 10.89125,1.82255 14.19289,4.16924 1.50727,1.07131 4.22869,2.18934 6.04758,2.4845 l 3.30709,0.53667 3.53009,-1.47497 3.5301,-1.47497 1.80118,-3.79572 1.80119,-3.79572 0.12114,-11.0773 c 0.1353,-12.37343 0.24384,-12.68277 5.64633,-16.09322 l 3.85708,-2.43487 1.77647,-5.63558 1.77646,-5.63559 -3.23338,-2.88902 c -3.28881,-2.93856 -4.60759,-3.27702 -11.70183,-3.00327 l -4,0.15435 -6.25,-5.9472 -6.25,-5.9472 0,-2.22769 0,-2.22769 -4.04211,-3.84517 -4.0421,-3.84516 -2.33194,0 c -1.28257,0 -4.42388,1.16921 -6.9807,2.59824 -2.55681,1.42903 -5.31349,2.34315 -6.12595,2.03138 l -1.4772,-0.56727 0,-6.59713 c 0,-8.46206 -0.73248,-9.68603 -8.99543,-15.03131 l -6.85478,-4.43433 -4.8249,0.006 c -2.65369,0.003 -6.51727,0.47556 -8.58573,1.04999 l -3.76085,1.04443 -3.14078,6.2 -3.14079,6.2 1.15558,6.79156 c 0.63556,3.73535 1.80541,8.34685 2.59966,10.24776 l 1.4441,3.45621 2.30196,0.86616 c 1.26608,0.4764 4.32696,1.4899 6.80196,2.25224 l 4.5,1.38607 0.29448,2.05868 0.29448,2.05868 -4.04448,4.59477 -4.04448,4.59477 0,2.5149 0,2.51489 4.58188,5.33166 c 4.49304,5.22828 10.44913,16.5368 10.38632,19.71997 -0.0175,0.88642 -0.6925,2.48519 -1.5,3.55281 -1.96642,2.59984 -1.8511,7.29254 0.28335,11.53006 l 1.74845,3.47119 2.5,0.72357 c 1.375,0.39797 4.03683,0.53966 5.91518,0.31488 l 3.41519,-0.4087 3.13242,-3.03606 z m 106.77695,0.91614 1.7603,-2.17378 0,-3.30032 0,-3.30032 -3.0768,-2.5889 -3.0767,-2.58889 -2.8465,0 -2.8466,0 -3.0767,2.58889 -3.0767,2.5889 0,2.97685 c 0,6.26976 3.5762,9.13223 10.4897,8.39614 l 3.9898,-0.42479 1.7602,-2.17378 z m 71.4634,0.26271 c 3.3798,-2.40232 9.5184,-4.20177 14.3598,-4.20934 l 3.5629,-0.006 2.8742,3 2.8741,3 4.2659,0 c 2.3462,0 5.3896,-0.51203 6.7631,-1.13784 l 2.4973,-1.13783 1.0498,-3.01139 c 1.4634,-4.19804 1.309,-7.98787 -0.4184,-10.27181 -0.8075,-1.06762 -1.4825,-2.67425 -1.5,-3.57029 -0.067,-3.42743 5.4728,-13.58938 10.1184,-18.56098 l 4.8498,-5.19014 0,-3.8538 0,-3.85381 -4.0521,-3.8397 -4.052,-3.8397 0.302,-2.11635 0.3021,-2.11594 4.5,-1.36216 c 2.475,-0.74919 5.625,-1.88482 7,-2.52362 l 2.5,-1.16145 1.8362,-5.47639 c 1.0099,-3.01201 2.0314,-7.72638 2.27,-10.47638 l 0.4338,-5 -2.829,-5.5 -2.829,-5.5 -3.441,-1.19356 c -1.8926,-0.65645 -5.8372,-1.21895 -8.7659,-1.25 l -5.3249,-0.0564 -6.8548,4.43433 c -8.263,5.34524 -8.9954,6.56921 -8.9954,15.03127 l 0,6.59713 -1.4772,0.56685 c -0.8125,0.31177 -3.5692,-0.60235 -6.126,-2.03138 -5.9927,-3.3494 -8.1227,-3.27284 -12.6447,0.4545 l -3.7035,3.05274 -0.9963,3.70016 -0.9964,3.70016 -6.0556,5.33039 -6.0556,5.33038 -3.7224,-0.22306 c -6.7359,-0.40365 -8.343,0.0233 -11.3299,3.01023 l -2.9538,2.95374 0.6726,2.79626 c 1.1417,4.74673 4.2617,10.12115 6.2401,10.74908 1.0367,0.32903 2.7317,1.53369 3.7668,2.67703 l 1.8819,2.07878 0.1211,11.22299 0.1211,11.22299 1.7998,3.79285 1.7999,3.79285 3.079,1.39295 3.0791,1.39294 3.7031,-0.41166 c 2.0368,-0.22642 4.9618,-1.30624 6.5,-2.39962 z m -251.32839,0.8327 2.50494,-0.95238 1.00015,-3.62222 c 1.43023,-5.17987 -1.79653,-11.47302 -5.88271,-11.47302 -2.15519,0 -10.77813,5.72227 -11.96512,7.94018 l -0.92074,1.72041 1.50292,2.89688 c 0.82661,1.59328 2.03907,3.23776 2.69436,3.65439 1.6753,1.06515 8.08279,0.97005 11.0662,-0.16424 z m 42.03026,-2.95555 c 1.89823,-1.83984 4.45221,-5.23183 5.6755,-7.53776 l 2.22416,-4.19259 -2.22723,-7.33268 -2.22723,-7.33268 -2.76059,-2.76058 -2.76058,-2.76058 -5.11792,-1.51986 -5.11791,-1.51986 -3.41424,0.94271 c -7.98879,2.20582 -13.60348,8.2702 -15.68316,16.93928 -1.56354,6.51757 -0.81081,9.14304 4.17078,14.54743 4.87431,5.28801 8.08085,6.43721 17.06024,6.11427 l 6.72684,-0.24193 3.45134,-3.34517 z m 104.34103,2.15793 c 1.7682,-0.9625 5.3034,-3.50571 7.8562,-5.65157 l 4.6413,-3.90156 -0.4742,-7.38972 -0.4743,-7.38972 -2.8975,-3.0432 c -1.5937,-1.67376 -4.9828,-4.58018 -7.5315,-6.45872 l -4.63399,-3.41551 -2.93789,0 c -3.73517,0 -12.25616,2.80991 -14.54938,4.79786 -1.98308,1.71909 -5.74965,13.41531 -5.7354,17.80995 0.009,2.91177 4.64704,12.05161 7.14613,14.08372 1.88439,1.53226 4.49112,2.05852 10.86009,2.19247 l 5.5156,0.116 3.21484,-1.75 z m 70.254,0.45882 c 1.375,-0.69394 3.9625,-3.7049 5.75,-6.69102 l 3.25,-5.42933 0,-2.93642 c 0,-4.43326 -3.7532,-16.12256 -5.7448,-17.89228 -0.9654,-0.85781 -4.8694,-2.51373 -8.6757,-3.67982 l -6.9204,-2.12016 -3.5796,2.37437 c -1.9687,1.30591 -5.8295,4.41457 -8.5795,6.90815 l -5,4.53378 0,7.54629 0,7.54629 2.944,3.07291 c 1.6192,1.69009 5.1951,4.19464 7.9463,5.56566 l 5.0023,2.49276 5.5537,-0.0147 c 3.0545,-0.008 6.6787,-0.58251 8.0537,-1.27644 z m 106.1829,0.25711 3.6829,-1.02291 4.5671,-5.07966 4.5671,-5.07967 0,-2.71034 c 0,-10.88042 -6.9238,-20.18352 -17.2189,-23.13611 l -2.8356,-0.81326 -5.1373,1.52561 -5.1373,1.52561 -2.7606,2.76058 -2.7606,2.76058 -2.1975,7.23493 -2.1975,7.23494 1.1859,2.60295 c 5.0516,11.08704 14.4726,15.46569 26.2423,12.19675 z m 32.6071,0.39331 c 2.2877,-0.61281 5.21,-4.95002 5.21,-7.7325 0,-1.65064 -10.5485,-8.62674 -13.0444,-8.62674 -4.0458,0 -7.2578,6.32166 -5.8334,11.48066 l 1.0023,3.62985 2.1877,0.88136 c 2.61,1.05146 7.309,1.21622 10.4778,0.36737 z m -175.4502,-24.94418 3.804,-2.58494 1.8659,-4.35286 c 1.0262,-2.39407 3.737,-6.224 6.0239,-8.51095 l 4.1581,-4.15809 4.1541,0.43729 4.1542,0.4373 3.5,-1.73499 c 1.925,-0.95425 4.3409,-2.66489 5.3687,-3.80142 l 1.8688,-2.06641 -0.7075,-3.77159 c -1.0277,-5.47794 -2.2752,-7.30397 -6.0745,-8.89141 -4.1166,-1.72005 -4.7823,-2.96278 -6.4243,-11.994 l -1.2868,-7.07702 1.2242,-2.28736 1.2241,-2.28735 -0.6512,-4.34253 c -0.3581,-2.3884 -1.4517,-5.33121 -2.4302,-6.53958 l -1.7791,-2.19705 -5.645,-0.46813 -5.645,-0.46813 -1.1838,-1.42639 -1.1838,-1.4264 4.1627,-5.90266 4.1627,-5.90267 -0.032,-3.29886 -0.032,-3.29886 -3.7184,-7 -3.7184,-7 -6.5553,-3.4083 -6.5553,-3.40829 -5.9447,3.42445 -5.9447,3.42446 -3.75,7.37048 -3.75,7.37048 0,3.02099 0,3.02099 4.1894,5.43028 4.1894,5.43028 -1.0448,1.66209 -1.0448,1.66209 -5.8455,0.63903 -5.8456,0.63903 -1.7116,2.11379 c -0.94143,1.16259 -2.01992,3.93832 -2.39667,6.16829 l -0.685,4.05449 1.26089,3.04405 1.26089,3.04406 -1.29489,6.64863 c -1.6667,8.55766 -2.39476,9.85565 -6.48731,11.56562 -3.79928,1.58744 -5.04679,3.41347 -6.07445,8.89141 l -0.70756,3.77159 1.86644,2.06238 c 2.99922,3.31411 6.9144,4.85763 12.32149,4.85763 l 5.04967,0 4.0622,4.0622 c 2.2342,2.23421 4.9018,6.02099 5.928,8.41506 l 1.8659,4.35286 3.8041,2.58494 3.8041,2.58494 3.5357,0 3.5357,0 3.8041,-2.58494 z m -144.9747,-22.48764 2.63486,-2.07258 0,-2.24928 c 0,-1.23711 -0.71277,-4.34114 -1.58393,-6.89785 l -1.58392,-4.64857 -3.31078,-0.62111 -3.31078,-0.6211 -1.97833,1.05877 -1.97833,1.05877 -1.17218,4.78276 c -0.6447,2.63053 -1.39986,5.54725 -1.67812,6.48162 l -0.50593,1.69885 2.05115,2.05115 2.05115,2.05115 3.86514,0 3.86514,0 2.63486,-2.07258 z m 287.6797,0.23734 2.2664,-1.83525 -1.818,-6.7165 -1.8181,-6.7165 -1.9429,-1.03979 -1.9428,-1.03979 -3.3108,0.6211 -3.3108,0.62111 -1.5839,4.64857 c -0.8712,2.55671 -1.5839,5.66074 -1.5839,6.89785 l 0,2.24928 2.6348,2.07258 2.6349,2.07258 3.7543,0 3.7544,0 2.2664,-1.83524 z m -195.26974,-18.23402 4.27509,-1.84048 2.45009,-5.28827 c 1.34756,-2.90855 2.73239,-7.17072 3.07741,-9.47148 l 0.62731,-4.1832 -2.73358,-5.02248 c -1.50346,-2.76237 -3.79613,-6.0207 -5.09481,-7.24075 l -2.36123,-2.21826 -5.46134,-0.4529 c -3.00374,-0.24909 -7.11769,-0.14216 -9.14213,0.23763 l -3.68079,0.69052 -5.36556,5.07452 -5.36556,5.07452 0,5.88707 c 0,9.74522 4.40632,16.06184 14.15377,20.28991 l 3.34623,1.45147 3.5,-0.57367 c 1.925,-0.31551 5.42379,-1.40188 7.7751,-2.41415 z m 105.72494,1.18679 c 2.2,-1.01121 6.019,-3.64463 8.4868,-5.85206 l 4.4869,-4.01351 0.3583,-7.89088 0.3584,-7.89088 -5.4608,-5.16456 -5.4608,-5.16457 -3.6808,-0.69052 c -2.0244,-0.37979 -6.1383,-0.48672 -9.1421,-0.23763 l -5.4613,0.4529 -2.3613,2.21826 c -1.2986,1.22005 -3.6041,4.50191 -5.1232,7.29302 l -2.762,5.07475 1.2493,5.62407 c 0.6871,3.09325 2.1004,7.30231 3.1407,9.35347 l 1.8915,3.7294 2.9577,1.52948 c 2.6326,1.36136 8.8007,3.17567 11.5227,3.38932 0.55,0.0432 2.8,-0.74886 5,-1.76006 z m -142.2998,-24.16392 3.04639,-3.04639 -0.57493,-3.54284 c -0.3162,-1.94856 -1.10179,-4.17769 -1.74575,-4.95361 l -1.17084,-1.41077 -6.75511,0 -6.75511,0 -1.11651,1.34531 c -0.61408,0.73992 -1.38295,2.67753 -1.7086,4.3058 l -0.5921,2.96049 4.08904,3.6942 4.08904,3.6942 3.07404,0 3.07405,0 3.04639,-3.04639 z m 176.9883,-0.78844 4.1112,-3.83483 -0.6514,-2.59524 c -0.3582,-1.42739 -1.3578,-3.30171 -2.2213,-4.16517 l -1.5699,-1.56993 -5.6786,0.0153 c -6.5947,0.0178 -7.6748,0.52965 -9.116,4.32014 -1.6081,4.22956 -1.326,5.55498 1.8605,8.74147 l 2.9231,2.92308 3.1157,0 3.1156,0 4.1111,-3.83483 z M 230.18831,359.05049 c 2.25633,-2.25632 2.96275,-4.65026 2.52165,-8.54545 -0.0934,-0.825 -1.29683,-2.5125 -2.67424,-3.75 l -2.50439,-2.25 -3.25567,0 -3.25568,0 -2.18856,2.03896 -2.18856,2.03895 0,2.91399 c 0,8.42046 8.13956,12.95945 13.54545,7.55355 z m 106.2446,1.81379 c 2.62307,-0.70266 4.72319,-4.24791 5.74599,-9.69971 l 0.7075,-3.77137 -2.2961,-2.44408 c -3.19839,-3.40456 -5.41801,-3.07358 -11.05866,1.64904 l -4.88878,4.09312 0,2.68437 c 0,3.46788 2.41402,6.87619 5.2588,7.42481 3.63944,0.70187 4.13143,0.70667 6.53125,0.0638 z m 72.45999,-2.52078 c 0.9625,-1.13301 1.75,-3.32516 1.75,-4.87144 l 0,-2.81141 -4.75,-4.07135 c -5.3043,-4.54641 -8.053,-5.06445 -10.7951,-2.03452 l -1.8549,2.04974 0,3.26031 c 0,7.89913 3.8818,12.02683 10.4,11.0586 l 3.5,-0.5199 1.75,-2.06003 z m 107.504,0.92031 c 0.6896,-0.55566 1.6327,-2.4162 2.0957,-4.13453 l 0.8417,-3.12424 -0.885,-2.4185 c -1.218,-3.32816 -3.7191,-5.01205 -7.5007,-5.0497 l -3.1942,-0.0318 -2.7127,2.33335 -2.7127,2.33335 0.088,3.1041 c 0.22,7.73716 8.1373,11.6948 13.9796,6.98797 z m -142.783,-47.22892 3.3634,-3.47014 -1.1586,-3.86705 c -1.4529,-4.84953 -4.3462,-7.52599 -8.1355,-7.52599 -3.8668,0 -5.5793,1.55919 -7.6406,6.95673 l -1.7056,4.46587 3.3491,3.45537 3.3491,3.45536 2.6077,0 2.6076,0 3.3634,-3.47015 z"
       id="path14415"
       inkscape:connector-curvature="0" />
  </g>
</svg>
