  0
SECTION
  2
HEADER
  9
$ACADVER
  1
AC1014
  9
$HANDSEED
  5
FFFF
  9
$MEASUREMENT
 70
     1
  0
ENDSEC
  0
SECTION
  2
TABLES
  0
TABLE
  2
VPORT
  5
8
330
0
100
AcDbSymbolTable
 70
     4
  0
VPORT
  5
2E
330
8
100
AcDbSymbolTableRecord
100
AcDbViewportTableRecord
  2
*ACTIVE
 70
     0
 10
0.0
 20
0.0
 11
1.0
 21
1.0
 12
210.0
 22
148.5
 13
0.0
 23
0.0
 14
10.0
 24
10.0
 15
10.0
 25
10.0
 16
0.0
 26
0.0
 36
1.0
 17
0.0
 27
0.0
 37
0.0
 40
341.0
 41
1.24
 42
50.0
 43
0.0
 44
0.0
 50
0.0
 51
0.0
 71
     0
 72
   100
 73
     1
 74
     3
 75
     0
 76
     0
 77
     0
 78
     0
  0
ENDTAB
  0
TABLE
  2
LTYPE
  5
5
330
0
100
AcDbSymbolTable
 70
     1
  0
LTYPE
  5
14
330
5
100
AcDbSymbolTableRecord
100
AcDbLinetypeTableRecord
  2
BYBLOCK
 70
     0
  3

 72
    65
 73
     0
 40
0.0
  0
LTYPE
  5
15
330
5
100
AcDbSymbolTableRecord
100
AcDbLinetypeTableRecord
  2
BYLAYER
 70
     0
  3

 72
    65
 73
     0
 40
0.0
  0
LTYPE
  5
16
330
5
100
AcDbSymbolTableRecord
100
AcDbLinetypeTableRecord
  2
CONTINUOUS
 70
     0
  3
Solid line
 72
    65
 73
     0
 40
0.0
  0
ENDTAB
  0
TABLE
  2
LAYER
  5
2
100
AcDbSymbolTable
 70
2
  0
LAYER
  5
50
100
AcDbSymbolTableRecord
100
AcDbLayerTableRecord
  2
0
 70
0
  6
CONTINUOUS
  0
LAYER
  5
51
100
AcDbSymbolTableRecord
100
AcDbLayerTableRecord
  2
Layer_1
 70
0
  6
CONTINUOUS
  0
ENDTAB
  0
TABLE
  2
STYLE
  5
3
330
0
100
AcDbSymbolTable
 70
     1
  0
STYLE
  5
11
330
3
100
AcDbSymbolTableRecord
100
AcDbTextStyleTableRecord
  2
STANDARD
 70
     0
 40
0.0
 41
1.0
 50
0.0
 71
     0
 42
2.5
  3
txt
  4

  0
ENDTAB
  0
TABLE
  2
VIEW
  5
6
330
0
100
AcDbSymbolTable
 70
     0
  0
ENDTAB
  0
TABLE
  2
UCS
  5
7
330
0
100
AcDbSymbolTable
 70
     0
  0
ENDTAB
  0
TABLE
  2
APPID
  5
9
330
0
100
AcDbSymbolTable
 70
     2
  0
APPID
  5
12
330
9
100
AcDbSymbolTableRecord
100
AcDbRegAppTableRecord
  2
ACAD
 70
     0
  0
ENDTAB
  0
TABLE
  2
DIMSTYLE
  5
A
330
0
100
AcDbSymbolTable
 70
     1
  0
DIMSTYLE
105
27
330
A
100
AcDbSymbolTableRecord
100
AcDbDimStyleTableRecord
  2
ISO-25
 70
     0
  3

  4

  5

  6

  7

 40
1.0
 41
2.5
 42
0.625
 43
3.75
 44
1.25
 45
0.0
 46
0.0
 47
0.0
 48
0.0
140
2.5
141
2.5
142
0.0
143
0.03937007874016
144
1.0
145
0.0
146
1.0
147
0.625
 71
     0
 72
     0
 73
     0
 74
     0
 75
     0
 76
     0
 77
     1
 78
     8
170
     0
171
     3
172
     1
173
     0
174
     0
175
     0
176
     0
177
     0
178
     0
270
     2
271
     2
272
     2
273
     2
274
     3
340
11
275
     0
280
     0
281
     0
282
     0
283
     0
284
     8
285
     0
286
     0
287
     3
288
     0
  0
ENDTAB
  0
TABLE
  2
BLOCK_RECORD
  5
1
330
0
100
AcDbSymbolTable
 70
     1
  0
BLOCK_RECORD
  5
1F
330
1
100
AcDbSymbolTableRecord
100
AcDbBlockTableRecord
  2
*MODEL_SPACE
  0
BLOCK_RECORD
  5
1B
330
1
100
AcDbSymbolTableRecord
100
AcDbBlockTableRecord
  2
*PAPER_SPACE
  0
ENDTAB
  0
ENDSEC
  0
SECTION
  2
BLOCKS
  0
BLOCK
  5
20
330
1F
100
AcDbEntity
  8
0
100
AcDbBlockBegin
  2
*MODEL_SPACE
 70
     0
 10
0.0
 20
0.0
 30
0.0
  3
*MODEL_SPACE
  1

  0
ENDBLK
  5
21
330
1F
100
AcDbEntity
  8
0
100
AcDbBlockEnd
  0
BLOCK
  5
1C
330
1B
100
AcDbEntity
 67
     1
  8
0
100
AcDbBlockBegin
  2
*PAPER_SPACE
  1

  0
ENDBLK
  5
1D
330
1B
100
AcDbEntity
 67
     1
  8
0
100
AcDbBlockEnd
  0
ENDSEC
  0
SECTION
  2
ENTITIES
  0
LWPOLYLINE
  5
100
100
AcDbEntity
  8
Layer_1
 62
7
100
AcDbPolyline
 90
383
 70
0
 10
77.193176
 20
1.800008
 30
0.0
 10
76.228736
 20
2.621752
 30
0.0
 10
75.091832
 20
3.547240
 30
0.0
 10
73.924376
 20
4.463080
 30
0.0
 10
72.868280
 20
5.255880
 30
0.0
 10
71.564448
 20
6.285320
 30
0.0
 10
70.986184
 20
7.219800
 30
0.0
 10
71.013384
 20
8.553840
 30
0.0
 10
71.525864
 20
10.781936
 30
0.0
 10
72.027408
 20
13.498512
 30
0.0
 10
71.648032
 20
15.062192
 30
0.0
 10
70.127976
 20
15.785776
 30
0.0
 10
67.207504
 20
15.982032
 30
0.0
 10
63.355912
 20
16.282920
 30
0.0
 10
59.585976
 20
17.114880
 30
0.0
 10
55.862472
 20
18.488288
 30
0.0
 10
52.150168
 20
20.413504
 30
0.0
 10
50.265800
 20
21.485632
 30
0.0
 10
48.577936
 20
22.363616
 30
0.0
 10
47.271016
 20
22.956848
 30
0.0
 10
46.529464
 20
23.174728
 30
0.0
 10
46.030792
 20
22.906448
 30
0.0
 10
45.385168
 20
22.175976
 30
0.0
 10
44.676032
 20
21.094880
 30
0.0
 10
43.986800
 20
19.774728
 30
0.0
 10
43.591976
 20
18.924728
 30
0.0
 10
43.197152
 20
18.074728
 30
0.0
 10
42.802328
 20
17.224728
 30
0.0
 10
42.407504
 20
16.374728
 30
0.0
 10
40.933976
 20
16.374728
 30
0.0
 10
39.460448
 20
16.374728
 30
0.0
 10
37.986920
 20
16.374728
 30
0.0
 10
36.513400
 20
16.374728
 30
0.0
 10
35.039872
 20
16.374728
 30
0.0
 10
33.566352
 20
16.374728
 30
0.0
 10
32.092824
 20
16.374728
 30
0.0
 10
30.619296
 20
16.374728
 30
0.0
 10
30.227592
 20
17.650704
 30
0.0
 10
29.835888
 20
18.926680
 30
0.0
 10
29.444184
 20
20.202648
 30
0.0
 10
29.052488
 20
21.478624
 30
0.0
 10
28.660784
 20
22.754592
 30
0.0
 10
28.269088
 20
24.030568
 30
0.0
 10
27.877384
 20
25.306536
 30
0.0
 10
27.485680
 20
26.582512
 30
0.0
 10
28.249144
 20
27.364376
 30
0.0
 10
29.012616
 20
28.146240
 30
0.0
 10
29.776080
 20
28.928104
 30
0.0
 10
30.539552
 20
29.709960
 30
0.0
 10
31.303016
 20
30.491816
 30
0.0
 10
32.066488
 20
31.273680
 30
0.0
 10
32.829952
 20
32.055544
 30
0.0
 10
33.593424
 20
32.837400
 30
0.0
 10
32.360544
 20
33.979568
 30
0.0
 10
31.127672
 20
35.121736
 30
0.0
 10
29.894792
 20
36.263904
 30
0.0
 10
28.661912
 20
37.406064
 30
0.0
 10
26.253720
 20
39.810304
 30
0.0
 10
24.250984
 20
42.213752
 30
0.0
 10
22.549504
 20
44.755528
 30
0.0
 10
21.045096
 20
47.574728
 30
0.0
 10
18.768384
 20
52.262936
 30
0.0
 10
17.325152
 20
54.328912
 30
0.0
 10
15.865800
 20
54.397472
 30
0.0
 10
13.540752
 20
53.093328
 30
0.0
 10
12.649040
 20
52.570760
 30
0.0
 10
11.757336
 20
52.048184
 30
0.0
 10
10.865624
 20
51.525608
 30
0.0
 10
9.973920
 20
51.003032
 30
0.0
 10
8.828120
 20
51.774496
 30
0.0
 10
7.682320
 20
52.545960
 30
0.0
 10
6.536512
 20
53.317424
 30
0.0
 10
5.390712
 20
54.088888
 30
0.0
 10
2.371319
 20
56.196216
 30
0.0
 10
0.632362
 20
57.627464
 30
0.0
 10
-0.000000
 20
58.555616
 30
0.0
 10
0.300392
 20
59.153632
 30
0.0
 10
0.658905
 20
59.664328
 30
0.0
 10
1.185289
 20
60.743544
 30
0.0
 10
1.808728
 20
62.233080
 30
0.0
 10
2.458416
 20
63.974744
 30
0.0
 10
2.845816
 20
65.074744
 30
0.0
 10
3.233216
 20
66.174744
 30
0.0
 10
3.620616
 20
67.274744
 30
0.0
 10
4.008016
 20
68.374744
 30
0.0
 10
5.077168
 20
68.564424
 30
0.0
 10
6.146328
 20
68.754096
 30
0.0
 10
7.215480
 20
68.943776
 30
0.0
 10
8.284632
 20
69.133448
 30
0.0
 10
9.353784
 20
69.323128
 30
0.0
 10
10.422936
 20
69.512808
 30
0.0
 10
11.492088
 20
69.702488
 30
0.0
 10
12.561240
 20
69.892160
 30
0.0
 10
12.395480
 20
70.702488
 30
0.0
 10
12.229728
 20
71.512808
 30
0.0
 10
12.063968
 20
72.323128
 30
0.0
 10
11.898216
 20
73.133448
 30
0.0
 10
11.417296
 20
77.571880
 30
0.0
 10
11.256984
 20
83.574744
 30
0.0
 10
11.417296
 20
89.577616
 30
0.0
 10
11.898216
 20
94.016040
 30
0.0
 10
12.063968
 20
94.826368
 30
0.0
 10
12.229728
 20
95.636688
 30
0.0
 10
12.395480
 20
96.447008
 30
0.0
 10
12.561240
 20
97.257328
 30
0.0
 10
11.492024
 20
97.447008
 30
0.0
 10
10.422808
 20
97.636688
 30
0.0
 10
9.353584
 20
97.826368
 30
0.0
 10
8.284368
 20
98.016040
 30
0.0
 10
7.215152
 20
98.205720
 30
0.0
 10
6.145936
 20
98.395392
 30
0.0
 10
5.076720
 20
98.585072
 30
0.0
 10
4.007504
 20
98.774744
 30
0.0
 10
3.582864
 20
99.974488
 30
0.0
 10
3.158232
 20
101.174232
 30
0.0
 10
2.733596
 20
102.373976
 30
0.0
 10
2.308960
 20
103.573712
 30
0.0
 10
1.676712
 20
105.508104
 30
0.0
 10
1.210862
 20
107.227472
 30
0.0
 10
0.955807
 20
108.544808
 30
0.0
 10
0.955944
 20
109.273088
 30
0.0
 10
1.432257
 20
109.858360
 30
0.0
 10
2.473733
 20
110.786288
 30
0.0
 10
3.926752
 20
111.929344
 30
0.0
 10
5.637688
 20
113.159984
 30
0.0
 10
6.721744
 20
113.906608
 30
0.0
 10
7.805808
 20
114.653224
 30
0.0
 10
8.889864
 20
115.399840
 30
0.0
 10
9.973920
 20
116.146456
 30
0.0
 10
10.865624
 20
115.623888
 30
0.0
 10
11.757336
 20
115.101312
 30
0.0
 10
12.649040
 20
114.578736
 30
0.0
 10
13.540752
 20
114.056160
 30
0.0
 10
15.865800
 20
112.752032
 30
0.0
 10
17.325144
 20
112.820592
 30
0.0
 10
18.768384
 20
114.886576
 30
0.0
 10
21.045096
 20
119.574776
 30
0.0
 10
22.549504
 20
122.393976
 30
0.0
 10
24.250984
 20
124.935752
 30
0.0
 10
26.253720
 20
127.339200
 30
0.0
 10
28.661912
 20
129.743440
 30
0.0
 10
29.894792
 20
130.885608
 30
0.0
 10
31.127672
 20
132.027776
 30
0.0
 10
32.360544
 20
133.169944
 30
0.0
 10
33.593424
 20
134.312104
 30
0.0
 10
32.833808
 20
135.090016
 30
0.0
 10
32.074200
 20
135.867928
 30
0.0
 10
31.314584
 20
136.645840
 30
0.0
 10
30.554976
 20
137.423744
 30
0.0
 10
29.795368
 20
138.201656
 30
0.0
 10
29.035760
 20
138.979568
 30
0.0
 10
28.276144
 20
139.757480
 30
0.0
 10
27.516536
 20
140.535392
 30
0.0
 10
27.877904
 20
141.773080
 30
0.0
 10
28.239280
 20
143.010760
 30
0.0
 10
28.600648
 20
144.248448
 30
0.0
 10
28.962016
 20
145.486128
 30
0.0
 10
30.099944
 20
148.765184
 30
0.0
 10
31.529392
 20
150.497864
 30
0.0
 10
33.947208
 20
151.108656
 30
0.0
 10
38.050264
 20
151.022040
 30
0.0
 10
40.559984
 20
150.818104
 30
0.0
 10
42.038352
 20
150.355824
 30
0.0
 10
43.006816
 20
149.314832
 30
0.0
 10
43.986800
 20
147.374776
 30
0.0
 10
44.676024
 20
146.054616
 30
0.0
 10
45.385168
 20
144.973528
 30
0.0
 10
46.030792
 20
144.243056
 30
0.0
 10
46.529464
 20
143.974776
 30
0.0
 10
47.271016
 20
144.192656
 30
0.0
 10
48.577936
 20
144.785888
 30
0.0
 10
50.265792
 20
145.663872
 30
0.0
 10
52.150168
 20
146.736000
 30
0.0
 10
55.862472
 20
148.661216
 30
0.0
 10
59.585984
 20
150.034624
 30
0.0
 10
63.355912
 20
150.866584
 30
0.0
 10
67.207504
 20
151.167472
 30
0.0
 10
70.120664
 20
151.363688
 30
0.0
 10
71.642928
 20
152.081760
 30
0.0
 10
72.031280
 20
153.625992
 30
0.0
 10
71.542712
 20
156.300672
 30
0.0
 10
71.217536
 20
157.849208
 30
0.0
 10
71.064344
 20
159.169496
 30
0.0
 10
71.089544
 20
160.146896
 30
0.0
 10
71.299472
 20
160.666744
 30
0.0
 10
74.646744
 20
163.369792
 30
0.0
 10
77.379384
 20
165.423328
 30
0.0
 10
79.306528
 20
166.691296
 30
0.0
 10
80.237328
 20
167.037656
 30
0.0
 10
82.214040
 20
165.783208
 30
0.0
 10
84.979288
 20
163.650696
 30
0.0
 10
87.507872
 20
161.474520
 30
0.0
 10
88.774600
 20
160.089104
 30
0.0
 10
88.880128
 20
159.412776
 30
0.0
 10
88.835968
 20
158.373840
 30
0.0
 10
88.655864
 20
157.113872
 30
0.0
 10
88.353632
 20
155.774456
 30
0.0
 10
87.935888
 20
153.436240
 30
0.0
 10
88.388752
 20
152.044352
 30
0.0
 10
89.937544
 20
151.365760
 30
0.0
 10
92.807536
 20
151.167472
 30
0.0
 10
96.659128
 20
150.866584
 30
0.0
 10
100.429064
 20
150.034624
 30
0.0
 10
104.152568
 20
148.661216
 30
0.0
 10
107.864872
 20
146.736000
 30
0.0
 10
109.749240
 20
145.663872
 30
0.0
 10
111.437104
 20
144.785888
 30
0.0
 10
112.744024
 20
144.192656
 30
0.0
 10
113.485576
 20
143.974776
 30
0.0
 10
113.984248
 20
144.243056
 30
0.0
 10
114.629872
 20
144.973528
 30
0.0
 10
115.339008
 20
146.054624
 30
0.0
 10
116.028240
 20
147.374776
 30
0.0
 10
116.423064
 20
148.224776
 30
0.0
 10
116.817888
 20
149.074776
 30
0.0
 10
117.212712
 20
149.924776
 30
0.0
 10
117.607536
 20
150.774776
 30
0.0
 10
118.959264
 20
150.874776
 30
0.0
 10
120.310992
 20
150.974776
 30
0.0
 10
121.662720
 20
151.074776
 30
0.0
 10
123.014448
 20
151.174776
 30
0.0
 10
126.781808
 20
151.394776
 30
0.0
 10
128.888496
 20
151.282656
 30
0.0
 10
129.806432
 20
150.735560
 30
0.0
 10
130.007536
 20
149.650624
 30
0.0
 10
130.109936
 20
148.810064
 30
0.0
 10
130.388752
 20
147.549552
 30
0.0
 10
130.801392
 20
146.039704
 30
0.0
 10
131.305280
 20
144.451120
 30
0.0
 10
131.629720
 20
143.498952
 30
0.0
 10
131.954160
 20
142.546784
 30
0.0
 10
132.278600
 20
141.594616
 30
0.0
 10
132.603032
 20
140.642440
 30
0.0
 10
131.830352
 20
139.851144
 30
0.0
 10
131.057680
 20
139.059856
 30
0.0
 10
130.285000
 20
138.268568
 30
0.0
 10
129.512328
 20
137.477272
 30
0.0
 10
128.739648
 20
136.685976
 30
0.0
 10
127.966976
 20
135.894688
 30
0.0
 10
127.194296
 20
135.103400
 30
0.0
 10
126.421616
 20
134.312104
 30
0.0
 10
127.654496
 20
133.169944
 30
0.0
 10
128.887376
 20
132.027776
 30
0.0
 10
130.120248
 20
130.885608
 30
0.0
 10
131.353128
 20
129.743440
 30
0.0
 10
133.761328
 20
127.339200
 30
0.0
 10
135.764056
 20
124.935752
 30
0.0
 10
137.465528
 20
122.393976
 30
0.0
 10
138.969944
 20
119.574776
 30
0.0
 10
141.246192
 20
114.887440
 30
0.0
 10
142.686952
 20
112.819888
 30
0.0
 10
144.137864
 20
112.745808
 30
0.0
 10
146.444600
 20
114.038808
 30
0.0
 10
147.328888
 20
114.557040
 30
0.0
 10
148.213176
 20
115.075264
 30
0.0
 10
149.097456
 20
115.593488
 30
0.0
 10
149.981744
 20
116.111712
 30
0.0
 10
151.173848
 20
115.344600
 30
0.0
 10
152.365944
 20
114.577488
 30
0.0
 10
153.558048
 20
113.810376
 30
0.0
 10
154.750144
 20
113.043256
 30
0.0
 10
156.601384
 20
111.788704
 30
0.0
 10
158.116928
 20
110.641152
 30
0.0
 10
159.140416
 20
109.727536
 30
0.0
 10
159.515488
 20
109.174792
 30
0.0
 10
159.376056
 20
108.485416
 30
0.0
 10
158.998576
 20
107.199792
 30
0.0
 10
158.440672
 20
105.501664
 30
0.0
 10
157.759984
 20
103.574792
 30
0.0
 10
156.684848
 20
100.793672
 30
0.0
 10
155.724240
 20
99.287096
 30
0.0
 10
154.343392
 20
98.540440
 30
0.0
 10
152.007536
 20
98.039080
 30
0.0
 10
150.431224
 20
97.735672
 30
0.0
 10
149.096200
 20
97.453424
 30
0.0
 10
148.143376
 20
97.223864
 30
0.0
 10
147.713632
 20
97.078504
 30
0.0
 10
147.704432
 20
96.461720
 30
0.0
 10
147.897152
 20
94.948576
 30
0.0
 10
148.257496
 20
92.766648
 30
0.0
 10
148.751200
 20
90.143440
 30
0.0
 10
149.438376
 20
86.343240
 30
0.0
 10
149.678816
 20
83.556048
 30
0.0
 10
149.479088
 20
80.902696
 30
0.0
 10
148.845768
 20
77.504016
 30
0.0
 10
148.365424
 20
75.131040
 30
0.0
 10
147.971968
 20
73.053024
 30
0.0
 10
147.706008
 20
71.493968
 30
0.0
 10
147.608152
 20
70.677856
 30
0.0
 10
147.927896
 20
70.287144
 30
0.0
 10
148.798968
 20
69.886368
 30
0.0
 10
150.088320
 20
69.522608
 30
0.0
 10
151.662904
 20
69.242952
 30
0.0
 10
153.903888
 20
68.870392
 30
0.0
 10
155.282400
 20
68.328728
 30
0.0
 10
156.175904
 20
67.368400
 30
0.0
 10
156.961840
 20
65.739888
 30
0.0
 10
157.474752
 20
64.366728
 30
0.0
 10
157.952048
 20
62.819808
 30
0.0
 10
158.340408
 20
61.288696
 30
0.0
 10
158.586528
 20
59.962936
 30
0.0
 10
158.694496
 20
58.330080
 30
0.0
 10
158.263856
 20
57.112992
 30
0.0
 10
156.974016
 20
55.849408
 30
0.0
 10
154.504384
 20
54.077072
 30
0.0
 10
153.388560
 20
53.308576
 30
0.0
 10
152.272736
 20
52.540080
 30
0.0
 10
151.156904
 20
51.771584
 30
0.0
 10
150.041080
 20
51.003080
 30
0.0
 10
149.149368
 20
51.525656
 30
0.0
 10
148.257664
 20
52.048232
 30
0.0
 10
147.365952
 20
52.570808
 30
0.0
 10
146.474248
 20
53.093376
 30
0.0
 10
144.149192
 20
54.397504
 30
0.0
 10
142.689848
 20
54.328944
 30
0.0
 10
141.246616
 20
52.262968
 30
0.0
 10
138.969904
 20
47.574760
 30
0.0
 10
137.465496
 20
44.755560
 30
0.0
 10
135.764016
 20
42.213784
 30
0.0
 10
133.761280
 20
39.810336
 30
0.0
 10
131.353088
 20
37.406096
 30
0.0
 10
130.120208
 20
36.263936
 30
0.0
 10
128.887328
 20
35.121768
 30
0.0
 10
127.654448
 20
33.979600
 30
0.0
 10
126.421576
 20
32.837432
 30
0.0
 10
127.187448
 20
32.053112
 30
0.0
 10
127.953320
 20
31.268792
 30
0.0
 10
128.719192
 20
30.484472
 30
0.0
 10
129.485064
 20
29.700144
 30
0.0
 10
130.250928
 20
28.915824
 30
0.0
 10
131.016800
 20
28.131496
 30
0.0
 10
131.782672
 20
27.347168
 30
0.0
 10
132.548544
 20
26.562848
 30
0.0
 10
132.192536
 20
25.389336
 30
0.0
 10
131.836528
 20
24.215832
 30
0.0
 10
131.480520
 20
23.042320
 30
0.0
 10
131.124520
 20
21.868808
 30
0.0
 10
130.526008
 20
19.983072
 30
0.0
 10
129.949096
 20
18.318640
 30
0.0
 10
129.459464
 20
17.055776
 30
0.0
 10
129.122784
 20
16.374760
 30
0.0
 10
128.486336
 20
16.081168
 30
0.0
 10
127.176016
 20
15.910656
 30
0.0
 10
125.327448
 20
15.872176
 30
0.0
 10
123.076288
 20
15.974720
 30
0.0
 10
121.709088
 20
16.074720
 30
0.0
 10
120.341888
 20
16.174720
 30
0.0
 10
118.974688
 20
16.274720
 30
0.0
 10
117.607496
 20
16.374720
 30
0.0
 10
117.212672
 20
17.224720
 30
0.0
 10
116.817848
 20
18.074720
 30
0.0
 10
116.423024
 20
18.924720
 30
0.0
 10
116.028200
 20
19.774720
 30
0.0
 10
115.338976
 20
21.094872
 30
0.0
 10
114.629832
 20
22.175968
 30
0.0
 10
113.984208
 20
22.906440
 30
0.0
 10
113.485536
 20
23.174720
 30
0.0
 10
112.743984
 20
22.956840
 30
0.0
 10
111.437064
 20
22.363608
 30
0.0
 10
109.749200
 20
21.485624
 30
0.0
 10
107.864832
 20
20.413496
 30
0.0
 10
104.152528
 20
18.488280
 30
0.0
 10
100.429016
 20
17.114872
 30
0.0
 10
96.659088
 20
16.282912
 30
0.0
 10
92.807496
 20
15.982024
 30
0.0
 10
89.894336
 20
15.785808
 30
0.0
 10
88.372072
 20
15.067736
 30
0.0
 10
87.983720
 20
13.523504
 30
0.0
 10
88.472288
 20
10.848824
 30
0.0
 10
88.797464
 20
9.300288
 30
0.0
 10
88.950656
 20
7.980000
 30
0.0
 10
88.925456
 20
7.002600
 30
0.0
 10
88.715528
 20
6.482752
 30
0.0
 10
85.612960
 20
3.974824
 30
0.0
 10
82.899000
 20
1.907376
 30
0.0
 10
80.882632
 20
0.506928
 30
0.0
 10
79.872832
 20
0.000000
 30
0.0
 10
79.455544
 20
0.149952
 30
0.0
 10
78.811216
 20
0.539184
 30
0.0
 10
78.027776
 20
1.108912
 30
0.0
 10
77.193152
 20
1.800000
 30
0.0
 10
77.193152
 20
1.800008
 30
0.0
 10
77.193176
 20
1.800008
 30
0.0
  0
LWPOLYLINE
  5
101
100
AcDbEntity
  8
Layer_1
 62
7
100
AcDbPolyline
 90
17
 70
0
 10
82.629488
 20
6.020088
 30
0.0
 10
83.847912
 20
7.307560
 30
0.0
 10
84.337400
 20
8.854960
 30
0.0
 10
84.086432
 20
10.507840
 30
0.0
 10
83.083504
 20
12.111736
 30
0.0
 10
80.836560
 20
13.375048
 30
0.0
 10
78.386544
 20
13.110000
 30
0.0
 10
76.416016
 20
11.591912
 30
0.0
 10
75.607496
 20
9.096104
 30
0.0
 10
76.044504
 20
7.682840
 30
0.0
 10
77.139520
 20
6.279376
 30
0.0
 10
78.568520
 20
5.203928
 30
0.0
 10
80.007496
 20
4.774728
 30
0.0
 10
80.475496
 20
4.872992
 30
0.0
 10
81.125856
 20
5.140552
 30
0.0
 10
81.872528
 20
5.536536
 30
0.0
 10
82.629488
 20
6.020088
 30
0.0
  0
LWPOLYLINE
  5
102
100
AcDbEntity
  8
Layer_1
 62
7
100
AcDbPolyline
 90
17
 70
0
 10
84.662216
 20
17.553736
 30
0.0
 10
84.800200
 20
18.788064
 30
0.0
 10
84.164960
 20
20.858048
 30
0.0
 10
83.048192
 20
23.053496
 30
0.0
 10
81.741608
 20
24.664232
 30
0.0
 10
80.523920
 20
25.314480
 30
0.0
 10
79.303832
 20
25.251200
 30
0.0
 10
78.086056
 20
24.475992
 30
0.0
 10
76.875288
 20
22.990472
 30
0.0
 10
75.728272
 20
20.762632
 30
0.0
 10
75.404736
 20
18.907264
 30
0.0
 10
75.899528
 20
17.521904
 30
0.0
 10
77.207496
 20
16.704056
 30
0.0
 10
79.129040
 20
16.431064
 30
0.0
 10
81.340320
 20
16.519112
 30
0.0
 10
83.348872
 20
16.912048
 30
0.0
 10
84.662216
 20
17.553736
 30
0.0
  0
LWPOLYLINE
  5
103
100
AcDbEntity
  8
Layer_1
 62
7
100
AcDbPolyline
 90
13
 70
0
 10
40.045912
 20
21.121080
 30
0.0
 10
40.629424
 20
24.476528
 30
0.0
 10
38.751928
 20
27.057080
 30
0.0
 10
35.723160
 20
27.938536
 30
0.0
 10
32.852856
 20
26.196720
 30
0.0
 10
31.943128
 20
24.628968
 30
0.0
 10
31.690888
 20
23.326608
 30
0.0
 10
32.108288
 20
22.103808
 30
0.0
 10
33.207496
 20
20.774728
 30
0.0
 10
34.985680
 20
19.561240
 30
0.0
 10
36.864888
 20
19.221896
 30
0.0
 10
38.625008
 20
19.745560
 30
0.0
 10
40.045912
 20
21.121080
 30
0.0
  0
LWPOLYLINE
  5
104
100
AcDbEntity
  8
Layer_1
 62
7
100
AcDbPolyline
 90
17
 70
0
 10
126.807496
 20
20.774728
 30
0.0
 10
127.906696
 20
22.103800
 30
0.0
 10
128.324104
 20
23.326608
 30
0.0
 10
128.071864
 20
24.628968
 30
0.0
 10
127.162136
 20
26.196720
 30
0.0
 10
125.399680
 20
27.719752
 30
0.0
 10
123.359136
 20
27.980008
 30
0.0
 10
121.347160
 20
27.029712
 30
0.0
 10
119.670400
 20
24.921080
 30
0.0
 10
119.231704
 20
23.910136
 30
0.0
 10
119.126616
 20
23.049616
 30
0.0
 10
119.368096
 20
22.174832
 30
0.0
 10
119.969080
 20
21.121080
 30
0.0
 10
121.389984
 20
19.745560
 30
0.0
 10
123.150104
 20
19.221896
 30
0.0
 10
125.029320
 20
19.561232
 30
0.0
 10
126.807496
 20
20.774728
 30
0.0
  0
LWPOLYLINE
  5
105
100
AcDbEntity
  8
Layer_1
 62
7
100
AcDbPolyline
 90
13
 70
0
 10
72.343200
 20
21.374728
 30
0.0
 10
73.791752
 20
23.307896
 30
0.0
 10
74.571368
 20
25.764008
 30
0.0
 10
74.560408
 20
28.000304
 30
0.0
 10
73.637168
 20
29.274048
 30
0.0
 10
70.476120
 20
28.971408
 30
0.0
 10
67.234576
 20
26.741448
 30
0.0
 10
65.098848
 20
23.738592
 30
0.0
 10
65.255208
 20
21.117264
 30
0.0
 10
66.621096
 20
20.257440
 30
0.0
 10
68.511336
 20
20.022952
 30
0.0
 10
70.545512
 20
20.399992
 30
0.0
 10
72.343200
 20
21.374728
 30
0.0
  0
LWPOLYLINE
  5
106
100
AcDbEntity
  8
Layer_1
 62
7
100
AcDbPolyline
 90
13
 70
0
 10
94.759800
 20
21.117264
 30
0.0
 10
94.916168
 20
23.738592
 30
0.0
 10
92.780432
 20
26.741448
 30
0.0
 10
89.538888
 20
28.971408
 30
0.0
 10
86.377840
 20
29.274048
 30
0.0
 10
85.454600
 20
28.000304
 30
0.0
 10
85.443640
 20
25.764008
 30
0.0
 10
86.223256
 20
23.307896
 30
0.0
 10
87.671808
 20
21.374728
 30
0.0
 10
89.469512
 20
20.399984
 30
0.0
 10
91.503688
 20
20.022952
 30
0.0
 10
93.393928
 20
20.257440
 30
0.0
 10
94.759800
 20
21.117264
 30
0.0
  0
LWPOLYLINE
  5
107
100
AcDbEntity
  8
Layer_1
 62
7
100
AcDbPolyline
 90
13
 70
0
 10
56.247496
 20
24.934728
 30
0.0
 10
57.050368
 20
27.500168
 30
0.0
 10
56.698152
 20
31.204464
 30
0.0
 10
55.520808
 20
34.530832
 30
0.0
 10
53.848320
 20
35.962480
 30
0.0
 10
51.094128
 20
34.643824
 30
0.0
 10
49.690856
 20
31.586632
 30
0.0
 10
49.866440
 20
28.020672
 30
0.0
 10
51.848848
 20
25.175720
 30
0.0
 10
53.232144
 20
24.347184
 30
0.0
 10
54.349672
 20
24.035040
 30
0.0
 10
55.316448
 20
24.232984
 30
0.0
 10
56.247496
 20
24.934728
 30
0.0
  0
LWPOLYLINE
  5
108
100
AcDbEntity
  8
Layer_1
 62
7
100
AcDbPolyline
 90
13
 70
0
 10
108.166144
 20
25.175720
 30
0.0
 10
110.148544
 20
28.020672
 30
0.0
 10
110.324136
 20
31.586624
 30
0.0
 10
108.920856
 20
34.643816
 30
0.0
 10
106.166672
 20
35.962480
 30
0.0
 10
105.094264
 20
35.175904
 30
0.0
 10
104.000384
 20
33.203320
 30
0.0
 10
103.149856
 20
30.659800
 30
0.0
 10
102.807496
 20
28.160424
 30
0.0
 10
103.210312
 20
25.750824
 30
0.0
 10
104.328232
 20
24.399744
 30
0.0
 10
106.025448
 20
24.182824
 30
0.0
 10
108.166144
 20
25.175720
 30
0.0
  0
LWPOLYLINE
  5
109
100
AcDbEntity
  8
Layer_1
 62
7
100
AcDbPolyline
 90
21
 70
0
 10
45.979352
 20
28.722136
 30
0.0
 10
46.300904
 20
29.579616
 30
0.0
 10
46.564232
 20
30.770440
 30
0.0
 10
46.742152
 20
32.137112
 30
0.0
 10
46.807512
 20
33.522136
 30
0.0
 10
46.750552
 20
35.302512
 30
0.0
 10
46.472376
 20
36.278856
 30
0.0
 10
45.811744
 20
36.689240
 30
0.0
 10
44.607472
 20
36.771736
 30
0.0
 10
42.457264
 20
36.332160
 30
0.0
 10
40.023952
 20
35.274688
 30
0.0
 10
38.032400
 20
33.983992
 30
0.0
 10
37.207472
 20
32.844728
 30
0.0
 10
38.119032
 20
31.530680
 30
0.0
 10
40.217808
 20
29.629184
 30
0.0
 10
42.549944
 20
27.917960
 30
0.0
 10
44.161600
 20
27.174728
 30
0.0
 10
44.611176
 20
27.296832
 30
0.0
 10
45.103760
 20
27.629280
 30
0.0
 10
45.579696
 20
28.121304
 30
0.0
 10
45.979352
 20
28.722136
 30
0.0
  0
LWPOLYLINE
  5
10a
100
AcDbEntity
  8
Layer_1
 62
7
100
AcDbPolyline
 90
17
 70
0
 10
64.909976
 20
27.653456
 30
0.0
 10
66.548112
 20
28.595944
 30
0.0
 10
67.587152
 20
30.204960
 30
0.0
 10
67.913584
 20
32.182360
 30
0.0
 10
67.413888
 20
34.229984
 30
0.0
 10
66.903416
 20
35.077296
 30
0.0
 10
66.266472
 20
35.813328
 30
0.0
 10
65.584296
 20
36.359144
 30
0.0
 10
64.938128
 20
36.635792
 30
0.0
 10
61.137528
 20
36.182496
 30
0.0
 10
58.881784
 20
33.861768
 30
0.0
 10
58.674008
 20
30.777432
 30
0.0
 10
61.017304
 20
28.033320
 30
0.0
 10
62.013824
 20
27.486232
 30
0.0
 10
62.762440
 20
27.263224
 30
0.0
 10
63.611656
 20
27.330264
 30
0.0
 10
64.909976
 20
27.653456
 30
0.0
  0
LWPOLYLINE
  5
10b
100
AcDbEntity
  8
Layer_1
 62
7
100
AcDbPolyline
 90
19
 70
0
 10
98.841752
 20
27.993064
 30
0.0
 10
101.305152
 20
30.689224
 30
0.0
 10
101.163600
 20
33.797904
 30
0.0
 10
98.919896
 20
36.164856
 30
0.0
 10
95.076864
 20
36.635792
 30
0.0
 10
94.430688
 20
36.359136
 30
0.0
 10
93.748520
 20
35.813328
 30
0.0
 10
93.111576
 20
35.077296
 30
0.0
 10
92.601104
 20
34.229984
 30
0.0
 10
92.014424
 20
31.808752
 30
0.0
 10
92.576944
 20
29.701264
 30
0.0
 10
94.166296
 20
28.117520
 30
0.0
 10
96.660048
 20
27.267528
 30
0.0
 10
97.034088
 20
27.296088
 30
0.0
 10
97.570104
 20
27.442392
 30
0.0
 10
98.196512
 20
27.682656
 30
0.0
 10
98.841712
 20
27.993080
 30
0.0
 10
98.841728
 20
27.993080
 30
0.0
 10
98.841752
 20
27.993064
 30
0.0
  0
LWPOLYLINE
  5
10c
100
AcDbEntity
  8
Layer_1
 62
7
100
AcDbPolyline
 90
21
 70
0
 10
119.825224
 20
29.632968
 30
0.0
 10
120.983184
 20
30.646920
 30
0.0
 10
121.931456
 20
31.590448
 30
0.0
 10
122.572184
 20
32.358184
 30
0.0
 10
122.807496
 20
32.844728
 30
0.0
 10
121.982560
 20
33.983992
 30
0.0
 10
119.991016
 20
35.274696
 30
0.0
 10
117.557704
 20
36.332168
 30
0.0
 10
115.407496
 20
36.771736
 30
0.0
 10
114.203224
 20
36.689144
 30
0.0
 10
113.542592
 20
36.278712
 30
0.0
 10
113.264408
 20
35.302464
 30
0.0
 10
113.207528
 20
33.522136
 30
0.0
 10
113.408904
 20
31.004336
 30
0.0
 10
113.965032
 20
28.991976
 30
0.0
 10
114.803872
 20
27.657840
 30
0.0
 10
115.853400
 20
27.174728
 30
0.0
 10
116.472952
 20
27.368696
 30
0.0
 10
117.428336
 20
27.896832
 30
0.0
 10
118.589208
 20
28.678472
 30
0.0
 10
119.825224
 20
29.632968
 30
0.0
  0
LWPOLYLINE
  5
10d
100
AcDbEntity
  8
Layer_1
 62
7
100
AcDbPolyline
 90
13
 70
0
 10
81.658560
 20
36.293360
 30
0.0
 10
81.994480
 20
38.557384
 30
0.0
 10
81.802656
 20
40.357432
 30
0.0
 10
81.126016
 20
41.545784
 30
0.0
 10
80.007496
 20
41.974728
 30
0.0
 10
78.888968
 20
41.545784
 30
0.0
 10
78.212336
 20
40.357432
 30
0.0
 10
78.020512
 20
38.557384
 30
0.0
 10
78.356432
 20
36.293360
 30
0.0
 10
79.047216
 20
34.900240
 30
0.0
 10
80.007496
 20
34.435864
 30
0.0
 10
80.967776
 20
34.900240
 30
0.0
 10
81.658560
 20
36.293360
 30
0.0
  0
LWPOLYLINE
  5
10e
100
AcDbEntity
  8
Layer_1
 62
7
100
AcDbPolyline
 90
17
 70
0
 10
40.699608
 20
39.232792
 30
0.0
 10
41.536920
 20
40.033528
 30
0.0
 10
42.205064
 20
40.951888
 30
0.0
 10
42.647456
 20
41.893128
 30
0.0
 10
42.807496
 20
42.762472
 30
0.0
 10
42.683240
 20
43.732368
 30
0.0
 10
42.212912
 20
44.382256
 30
0.0
 10
41.250160
 20
44.823584
 30
0.0
 10
39.648632
 20
45.167776
 30
0.0
 10
35.514936
 20
45.024760
 30
0.0
 10
32.652528
 20
43.490904
 30
0.0
 10
31.711008
 20
41.216528
 30
0.0
 10
33.339984
 20
38.851976
 30
0.0
 10
35.175752
 20
37.902944
 30
0.0
 10
36.997992
 20
37.649224
 30
0.0
 10
38.831136
 20
38.092080
 30
0.0
 10
40.699608
 20
39.232792
 30
0.0
  0
LWPOLYLINE
  5
10f
100
AcDbEntity
  8
Layer_1
 62
7
100
AcDbPolyline
 90
17
 70
0
 10
72.245360
 20
40.016472
 30
0.0
 10
71.991880
 20
41.906848
 30
0.0
 10
70.829304
 20
43.482616
 30
0.0
 10
68.859640
 20
44.654296
 30
0.0
 10
66.184912
 20
45.332392
 30
0.0
 10
62.762056
 20
45.260392
 30
0.0
 10
60.449320
 20
44.246016
 30
0.0
 10
59.658128
 20
42.636968
 30
0.0
 10
60.799912
 20
40.780984
 30
0.0
 10
62.698968
 20
39.643184
 30
0.0
 10
65.255712
 20
38.639480
 30
0.0
 10
67.886448
 20
37.959328
 30
0.0
 10
70.007496
 20
37.792200
 30
0.0
 10
70.960264
 20
37.983344
 30
0.0
 10
71.618256
 20
38.385392
 30
0.0
 10
72.030336
 20
39.046904
 30
0.0
 10
72.245360
 20
40.016472
 30
0.0
  0
LWPOLYLINE
  5
110
100
AcDbEntity
  8
Layer_1
 62
7
100
AcDbPolyline
 90
19
 70
0
 10
97.332632
 20
39.639440
 30
0.0
 10
99.183632
 20
40.871280
 30
0.0
 10
100.117088
 20
42.143416
 30
0.0
 10
100.109888
 20
43.392016
 30
0.0
 10
99.137816
 20
44.553208
 30
0.0
 10
97.038112
 20
45.292864
 30
0.0
 10
94.200296
 20
45.323184
 30
0.0
 10
91.340616
 20
44.716520
 30
0.0
 10
89.175368
 20
43.545384
 30
0.0
 10
88.203064
 20
42.243552
 30
0.0
 10
87.680792
 20
40.681824
 30
0.0
 10
87.663912
 20
39.175296
 30
0.0
 10
88.207824
 20
38.039048
 30
0.0
 10
89.581128
 20
37.730888
 30
0.0
 10
92.009696
 20
37.973848
 30
0.0
 10
94.818600
 20
38.649512
 30
0.0
 10
97.332960
 20
39.639504
 30
0.0
 10
97.332960
 20
39.639488
 30
0.0
 10
97.332632
 20
39.639440
 30
0.0
  0
LWPOLYLINE
  5
111
100
AcDbEntity
  8
Layer_1
 62
7
100
AcDbPolyline
 90
17
 70
0
 10
126.675008
 20
38.851976
 30
0.0
 10
128.303984
 20
41.216528
 30
0.0
 10
127.362464
 20
43.490904
 30
0.0
 10
124.500056
 20
45.024768
 30
0.0
 10
120.366360
 20
45.167776
 30
0.0
 10
118.764832
 20
44.823576
 30
0.0
 10
117.802080
 20
44.382256
 30
0.0
 10
117.331752
 20
43.732368
 30
0.0
 10
117.207496
 20
42.762472
 30
0.0
 10
117.782232
 20
41.028568
 30
0.0
 10
119.234296
 20
39.347872
 30
0.0
 10
121.155424
 20
38.077544
 30
0.0
 10
123.137376
 20
37.574728
 30
0.0
 10
123.946816
 20
37.675512
 30
0.0
 10
124.883624
 20
37.949920
 30
0.0
 10
125.831712
 20
38.356048
 30
0.0
 10
126.675008
 20
38.851976
 30
0.0
  0
LWPOLYLINE
  5
112
100
AcDbEntity
  8
Layer_1
 62
7
100
AcDbPolyline
 90
13
 70
0
 10
54.443856
 20
45.138368
 30
0.0
 10
55.833936
 20
46.970984
 30
0.0
 10
56.381376
 20
48.658272
 30
0.0
 10
56.062304
 20
49.894696
 30
0.0
 10
54.852856
 20
50.374728
 30
0.0
 10
53.426984
 20
49.886176
 30
0.0
 10
52.124592
 20
48.623744
 30
0.0
 10
51.174992
 20
46.892304
 30
0.0
 10
50.807496
 20
44.996720
 30
0.0
 10
51.031024
 20
43.680528
 30
0.0
 10
51.706608
 20
43.265208
 30
0.0
 10
52.841720
 20
43.751056
 30
0.0
 10
54.443856
 20
45.138368
 30
0.0
  0
LWPOLYLINE
  5
113
100
AcDbEntity
  8
Layer_1
 62
7
100
AcDbPolyline
 90
13
 70
0
 10
109.207496
 20
44.996720
 30
0.0
 10
108.840000
 20
46.892312
 30
0.0
 10
107.890400
 20
48.623744
 30
0.0
 10
106.588000
 20
49.886176
 30
0.0
 10
105.162136
 20
50.374728
 30
0.0
 10
103.952688
 20
49.894696
 30
0.0
 10
103.633616
 20
48.658272
 30
0.0
 10
104.181056
 20
46.970984
 30
0.0
 10
105.571136
 20
45.138368
 30
0.0
 10
107.173272
 20
43.751056
 30
0.0
 10
108.308384
 20
43.265208
 30
0.0
 10
108.983968
 20
43.680528
 30
0.0
 10
109.207496
 20
44.996720
 30
0.0
  0
LWPOLYLINE
  5
114
100
AcDbEntity
  8
Layer_1
 62
7
100
AcDbPolyline
 90
13
 70
0
 10
40.121680
 20
49.236728
 30
0.0
 10
40.960912
 20
52.521792
 30
0.0
 10
39.645120
 20
55.212352
 30
0.0
 10
36.954568
 20
56.528144
 30
0.0
 10
33.669496
 20
55.688912
 30
0.0
 10
31.814056
 20
53.287048
 30
0.0
 10
31.865896
 20
50.479360
 30
0.0
 10
33.530424
 20
48.147896
 30
0.0
 10
36.513040
 20
47.174728
 30
0.0
 10
37.598120
 20
47.298680
 30
0.0
 10
38.549760
 20
47.677096
 30
0.0
 10
39.385200
 20
48.319832
 30
0.0
 10
40.121680
 20
49.236728
 30
0.0
  0
LWPOLYLINE
  5
115
100
AcDbEntity
  8
Layer_1
 62
7
100
AcDbPolyline
 90
17
 70
0
 10
73.047496
 20
48.134728
 30
0.0
 10
73.806976
 20
49.556448
 30
0.0
 10
73.951768
 20
51.444008
 30
0.0
 10
73.507912
 20
53.457584
 30
0.0
 10
72.501472
 20
55.257336
 30
0.0
 10
71.641880
 20
56.204040
 30
0.0
 10
70.901800
 20
56.637536
 30
0.0
 10
70.072136
 20
56.612176
 30
0.0
 10
68.943784
 20
56.182360
 30
0.0
 10
67.146728
 20
54.988400
 30
0.0
 10
65.706896
 20
53.363640
 30
0.0
 10
64.858568
 20
51.649848
 30
0.0
 10
64.836008
 20
50.188848
 30
0.0
 10
66.269712
 20
48.557624
 30
0.0
 10
68.623256
 20
47.544680
 30
0.0
 10
71.136048
 20
47.340280
 30
0.0
 10
73.047496
 20
48.134728
 30
0.0
  0
LWPOLYLINE
  5
116
100
AcDbEntity
  8
Layer_1
 62
7
100
AcDbPolyline
 90
21
 70
0
 10
92.725848
 20
48.083128
 30
0.0
 10
93.536400
 20
48.530864
 30
0.0
 10
94.269608
 20
49.078440
 30
0.0
 10
94.844872
 20
49.656544
 30
0.0
 10
95.181632
 20
50.195848
 30
0.0
 10
95.157072
 20
51.653504
 30
0.0
 10
94.306912
 20
53.365664
 30
0.0
 10
92.866512
 20
54.989560
 30
0.0
 10
91.071208
 20
56.182432
 30
0.0
 10
89.942856
 20
56.612240
 30
0.0
 10
89.113192
 20
56.637600
 30
0.0
 10
88.373112
 20
56.204104
 30
0.0
 10
87.513520
 20
55.257400
 30
0.0
 10
86.928760
 20
54.365496
 30
0.0
 10
86.449888
 20
53.311904
 30
0.0
 10
86.126328
 20
52.228256
 30
0.0
 10
86.007496
 20
51.246168
 30
0.0
 10
86.480960
 20
48.887728
 30
0.0
 10
87.829936
 20
47.540792
 30
0.0
 10
89.947280
 20
47.255784
 30
0.0
 10
92.725848
 20
48.083128
 30
0.0
  0
LWPOLYLINE
  5
117
100
AcDbEntity
  8
Layer_1
 62
7
100
AcDbPolyline
 90
13
 70
0
 10
126.944504
 20
48.498760
 30
0.0
 10
128.120440
 20
50.226592
 30
0.0
 10
128.393952
 20
52.224512
 30
0.0
 10
127.792984
 20
54.157104
 30
0.0
 10
126.345496
 20
55.688952
 30
0.0
 10
123.060424
 20
56.528176
 30
0.0
 10
120.369864
 20
55.212384
 30
0.0
 10
119.054080
 20
52.521840
 30
0.0
 10
119.893312
 20
49.236768
 30
0.0
 10
121.349216
 20
47.819496
 30
0.0
 10
123.176912
 20
47.206568
 30
0.0
 10
125.125608
 20
47.424240
 30
0.0
 10
126.944504
 20
48.498760
 30
0.0
  0
LWPOLYLINE
  5
118
100
AcDbEntity
  8
Layer_1
 62
7
100
AcDbPolyline
 90
17
 70
0
 10
81.687736
 20
50.187016
 30
0.0
 10
82.980960
 20
51.448816
 30
0.0
 10
83.739224
 20
53.048656
 30
0.0
 10
83.910768
 20
54.799992
 30
0.0
 10
83.443824
 20
56.516256
 30
0.0
 10
81.666840
 20
58.959200
 30
0.0
 10
79.729680
 20
59.705328
 30
0.0
 10
77.869656
 20
58.766672
 30
0.0
 10
76.324040
 20
56.155264
 30
0.0
 10
76.121312
 20
54.009808
 30
0.0
 10
76.848128
 20
51.880752
 30
0.0
 10
78.233768
 20
50.249952
 30
0.0
 10
80.007496
 20
49.599272
 30
0.0
 10
80.387576
 20
49.645672
 30
0.0
 10
80.831064
 20
49.771960
 30
0.0
 10
81.282824
 20
49.958856
 30
0.0
 10
81.687736
 20
50.187016
 30
0.0
  0
LWPOLYLINE
  5
119
100
AcDbEntity
  8
Layer_1
 62
7
100
AcDbPolyline
 90
13
 70
0
 10
28.754560
 20
51.916280
 30
0.0
 10
30.059120
 20
54.027464
 30
0.0
 10
30.872552
 20
56.604968
 30
0.0
 10
31.065976
 20
59.010968
 30
0.0
 10
30.510544
 20
60.607648
 30
0.0
 10
29.184384
 20
61.161376
 30
0.0
 10
27.449024
 20
60.870632
 30
0.0
 10
25.638848
 20
59.858296
 30
0.0
 10
24.088224
 20
58.247256
 30
0.0
 10
22.812376
 20
54.572704
 30
0.0
 10
23.663272
 20
51.616416
 30
0.0
 10
25.893232
 20
50.392800
 30
0.0
 10
28.754560
 20
51.916280
 30
0.0
  0
LWPOLYLINE
  5
11a
100
AcDbEntity
  8
Layer_1
 62
7
100
AcDbPolyline
 90
13
 70
0
 10
136.247496
 20
51.334728
 30
0.0
 10
137.232624
 20
53.625840
 30
0.0
 10
136.772704
 20
56.441120
 30
0.0
 10
135.135360
 20
59.084040
 30
0.0
 10
132.588216
 20
60.858096
 30
0.0
 10
130.645128
 20
61.217128
 30
0.0
 10
129.406104
 20
60.585272
 30
0.0
 10
128.904064
 20
59.004360
 30
0.0
 10
129.171936
 20
56.516240
 30
0.0
 10
130.420184
 20
53.207296
 30
0.0
 10
132.222136
 20
51.089432
 30
0.0
 10
134.267872
 20
50.389600
 30
0.0
 10
136.247496
 20
51.334728
 30
0.0
  0
LWPOLYLINE
  5
11b
100
AcDbEntity
  8
Layer_1
 62
7
100
AcDbPolyline
 90
17
 70
0
 10
49.207496
 20
55.175040
 30
0.0
 10
48.503928
 20
57.686240
 30
0.0
 10
46.765904
 20
60.295992
 30
0.0
 10
44.552448
 20
62.345192
 30
0.0
 10
42.422576
 20
63.174728
 30
0.0
 10
40.070056
 20
62.447696
 30
0.0
 10
39.552696
 20
60.435976
 30
0.0
 10
40.832176
 20
57.393600
 30
0.0
 10
43.870200
 20
53.574632
 30
0.0
 10
45.066616
 20
52.412832
 30
0.0
 10
45.992224
 20
51.808416
 30
0.0
 10
46.806816
 20
51.695520
 30
0.0
 10
47.670200
 20
52.008288
 30
0.0
 10
48.323592
 20
52.514216
 30
0.0
 10
48.806128
 20
53.228208
 30
0.0
 10
49.105024
 20
54.123920
 30
0.0
 10
49.207496
 20
55.175040
 30
0.0
  0
LWPOLYLINE
  5
11c
100
AcDbEntity
  8
Layer_1
 62
7
100
AcDbPolyline
 90
13
 70
0
 10
117.207496
 20
54.696976
 30
0.0
 10
119.002376
 20
57.213792
 30
0.0
 10
120.137432
 20
59.346624
 30
0.0
 10
120.577368
 20
61.010392
 30
0.0
 10
120.286904
 20
62.120032
 30
0.0
 10
117.743920
 20
63.001488
 30
0.0
 10
114.603344
 20
61.618232
 30
0.0
 10
111.934704
 20
58.752536
 30
0.0
 10
110.807496
 20
55.186640
 30
0.0
 10
111.353624
 20
52.702944
 30
0.0
 10
112.797176
 20
51.778528
 30
0.0
 10
114.845880
 20
52.435752
 30
0.0
 10
117.207496
 20
54.696976
 30
0.0
  0
LWPOLYLINE
  5
11d
100
AcDbEntity
  8
Layer_1
 62
7
100
AcDbPolyline
 90
13
 70
0
 10
65.729008
 20
56.905456
 30
0.0
 10
66.631488
 20
58.122368
 30
0.0
 10
67.151992
 20
59.818832
 30
0.0
 10
67.228392
 20
61.630024
 30
0.0
 10
66.798680
 20
63.191144
 30
0.0
 10
64.733480
 20
64.739632
 30
0.0
 10
62.077232
 20
64.276528
 30
0.0
 10
59.783904
 20
62.276568
 30
0.0
 10
58.807464
 20
59.214480
 30
0.0
 10
59.436496
 20
56.957536
 30
0.0
 10
61.061672
 20
55.733008
 30
0.0
 10
63.290120
 20
55.671968
 30
0.0
 10
65.729008
 20
56.905456
 30
0.0
  0
LWPOLYLINE
  5
11e
100
AcDbEntity
  8
Layer_1
 62
7
100
AcDbPolyline
 90
17
 70
0
 10
99.660088
 20
56.002872
 30
0.0
 10
101.207848
 20
58.179752
 30
0.0
 10
100.803344
 20
61.105488
 30
0.0
 10
98.909768
 20
63.672880
 30
0.0
 10
95.990344
 20
64.774728
 30
0.0
 10
93.614672
 20
63.638280
 30
0.0
 10
92.772976
 20
61.013312
 30
0.0
 10
93.491344
 20
58.076360
 30
0.0
 10
95.795864
 20
56.003960
 30
0.0
 10
97.147392
 20
55.469968
 30
0.0
 10
97.949728
 20
55.291904
 30
0.0
 10
98.641192
 20
55.469664
 30
0.0
 10
99.660088
 20
56.003160
 30
0.0
 10
99.660088
 20
56.003088
 30
0.0
 10
99.660088
 20
56.003016
 30
0.0
 10
99.660088
 20
56.002944
 30
0.0
 10
99.660088
 20
56.002872
 30
0.0
  0
LWPOLYLINE
  5
11f
100
AcDbEntity
  8
Layer_1
 62
7
100
AcDbPolyline
 90
19
 70
0
 10
12.855392
 20
57.935560
 30
0.0
 10
13.622432
 20
59.725920
 30
0.0
 10
13.581632
 20
61.459808
 30
0.0
 10
12.750552
 20
63.069688
 30
0.0
 10
11.146832
 20
64.488048
 30
0.0
 10
10.039616
 20
65.141544
 30
0.0
 10
9.198008
 20
65.354608
 30
0.0
 10
8.345984
 20
65.124448
 30
0.0
 10
7.207512
 20
64.448288
 30
0.0
 10
5.829216
 20
63.012040
 30
0.0
 10
5.240288
 20
61.190272
 30
0.0
 10
5.465960
 20
59.244864
 30
0.0
 10
6.531504
 20
57.437712
 30
0.0
 10
8.094808
 20
56.312768
 30
0.0
 10
9.821536
 20
56.032696
 30
0.0
 10
11.484232
 20
56.579592
 30
0.0
 10
12.855408
 20
57.935552
 30
0.0
 10
12.855408
 20
57.935552
 30
0.0
 10
12.855392
 20
57.935560
 30
0.0
  0
LWPOLYLINE
  5
120
100
AcDbEntity
  8
Layer_1
 62
7
100
AcDbPolyline
 90
17
 70
0
 10
153.344504
 20
57.298720
 30
0.0
 10
154.510272
 20
59.015632
 30
0.0
 10
154.792048
 20
61.010096
 30
0.0
 10
154.215800
 20
62.936272
 30
0.0
 10
152.807496
 20
64.448296
 30
0.0
 10
151.669016
 20
65.124456
 30
0.0
 10
150.816992
 20
65.354616
 30
0.0
 10
149.975384
 20
65.141552
 30
0.0
 10
148.868168
 20
64.488056
 30
0.0
 10
147.264440
 20
63.069704
 30
0.0
 10
146.433368
 20
61.459816
 30
0.0
 10
146.392568
 20
59.725928
 30
0.0
 10
147.159600
 20
57.935568
 30
0.0
 10
148.458008
 20
56.611608
 30
0.0
 10
150.022352
 20
56.053776
 30
0.0
 10
151.701544
 20
56.277624
 30
0.0
 10
153.344504
 20
57.298720
 30
0.0
  0
LWPOLYLINE
  5
121
100
AcDbEntity
  8
Layer_1
 62
7
100
AcDbPolyline
 90
21
 70
0
 10
22.487496
 20
61.094728
 30
0.0
 10
23.543624
 20
62.253416
 30
0.0
 10
24.408496
 20
63.397544
 30
0.0
 10
24.992872
 20
64.395216
 30
0.0
 10
25.207496
 20
65.114528
 30
0.0
 10
24.664872
 20
66.222640
 30
0.0
 10
23.189488
 20
67.132368
 30
0.0
 10
21.010088
 20
67.748224
 30
0.0
 10
18.355416
 20
67.974728
 30
0.0
 10
16.910568
 20
67.907768
 30
0.0
 10
16.078800
 20
67.627312
 30
0.0
 10
15.698368
 20
67.014152
 30
0.0
 10
15.607496
 20
65.949056
 30
0.0
 10
15.951256
 20
63.626592
 30
0.0
 10
16.794120
 20
61.149480
 30
0.0
 10
17.853464
 20
59.178576
 30
0.0
 10
18.846672
 20
58.374752
 30
0.0
 10
19.418840
 20
58.589376
 30
0.0
 10
20.296008
 20
59.173752
 30
0.0
 10
21.358712
 20
60.038624
 30
0.0
 10
22.487496
 20
61.094728
 30
0.0
  0
LWPOLYLINE
  5
122
100
AcDbEntity
  8
Layer_1
 62
7
100
AcDbPolyline
 90
23
 70
0
 10
143.248320
 20
61.149048
 30
0.0
 10
143.698408
 20
62.386096
 30
0.0
 10
144.066984
 20
63.703448
 30
0.0
 10
144.316024
 20
64.943600
 30
0.0
 10
144.407496
 20
65.949048
 30
0.0
 10
144.316632
 20
67.014144
 30
0.0
 10
143.936192
 20
67.627296
 30
0.0
 10
143.104424
 20
67.907744
 30
0.0
 10
141.659576
 20
67.974704
 30
0.0
 10
139.004904
 20
67.748200
 30
0.0
 10
136.825504
 20
67.132344
 30
0.0
 10
135.350120
 20
66.222616
 30
0.0
 10
134.807496
 20
65.114504
 30
0.0
 10
135.604976
 20
63.437120
 30
0.0
 10
137.464184
 20
61.189680
 30
0.0
 10
139.585256
 20
59.219704
 30
0.0
 10
141.168320
 20
58.374704
 30
0.0
 10
141.617320
 20
58.593616
 30
0.0
 10
142.159152
 20
59.189656
 30
0.0
 10
142.725576
 20
60.071800
 30
0.0
 10
143.248320
 20
61.149008
 30
0.0
 10
143.248320
 20
61.149016
 30
0.0
 10
143.248320
 20
61.149048
 30
0.0
  0
SPLINE
  5
123
100
AcDbEntity
  8
Layer_1
 62
7
100
AcDbSpline
 70
8
 71
3
 72
8
 73
4
 74
0
 40
0
 40
0
 40
0
 40
0
 40
1
 40
1
 40
1
 40
1
 10
51.910984
 20
68.262928
 30
0.0
 10
50.931344
 20
68.341968
 30
0.0
 10
50.150664
 20
67.502808
 30
0.0
 10
49.575568
 20
66.792960
 30
0.0
  0
SPLINE
  5
124
100
AcDbEntity
  8
Layer_1
 62
7
100
AcDbSpline
 70
8
 71
3
 72
8
 73
4
 74
0
 40
0
 40
0
 40
0
 40
0
 40
1
 40
1
 40
1
 40
1
 10
49.575568
 20
66.792960
 30
0.0
 10
49.000464
 20
66.083112
 30
0.0
 10
48.341944
 20
65.145728
 30
0.0
 10
48.626840
 20
64.209328
 30
0.0
  0
LWPOLYLINE
  5
125
100
AcDbEntity
  8
Layer_1
 62
7
100
AcDbPolyline
 90
10
 70
0
 10
55.744504
 20
60.498736
 30
0.0
 10
56.338416
 20
61.233040
 30
0.0
 10
56.800736
 20
62.204128
 30
0.0
 10
57.100680
 20
63.327456
 30
0.0
 10
57.207496
 20
64.518520
 30
0.0
 10
57.117672
 20
65.887256
 30
0.0
 10
56.795144
 20
66.835080
 30
0.0
 10
56.160336
 20
67.495696
 30
0.0
 10
55.133672
 20
68.002800
 30
0.0
 10
51.910984
 20
68.262928
 30
0.0
  0
LWPOLYLINE
  5
126
100
AcDbEntity
  8
Layer_1
 62
7
100
AcDbPolyline
 90
10
 70
0
 10
48.626840
 20
64.209328
 30
0.0
 10
49.564208
 20
61.128472
 30
0.0
 10
50.860416
 20
59.808600
 30
0.0
 10
52.423864
 20
59.253360
 30
0.0
 10
54.102536
 20
59.478232
 30
0.0
 10
55.744472
 20
60.498720
 30
0.0
 10
55.744472
 20
60.498728
 30
0.0
 10
55.744472
 20
60.498728
 30
0.0
 10
55.744488
 20
60.498728
 30
0.0
 10
55.744504
 20
60.498736
 30
0.0
  0
LWPOLYLINE
  5
127
100
AcDbEntity
  8
Layer_1
 62
7
100
AcDbPolyline
 90
15
 70
0
 10
110.450752
 20
61.128488
 30
0.0
 10
111.338520
 20
63.126504
 30
0.0
 10
111.385960
 20
64.998800
 30
0.0
 10
110.623416
 20
66.597696
 30
0.0
 10
109.081360
 20
67.775520
 30
0.0
 10
106.695976
 20
68.416128
 30
0.0
 10
104.695472
 20
68.030616
 30
0.0
 10
103.319456
 20
66.738048
 30
0.0
 10
102.807536
 20
64.657520
 30
0.0
 10
103.644200
 20
61.427768
 30
0.0
 10
105.675584
 20
59.542024
 30
0.0
 10
108.183760
 20
59.331768
 30
0.0
 10
110.450792
 20
61.128472
 30
0.0
 10
110.450792
 20
61.128480
 30
0.0
 10
110.450752
 20
61.128488
 30
0.0
  0
LWPOLYLINE
  5
128
100
AcDbEntity
  8
Layer_1
 62
7
100
AcDbPolyline
 90
111
 70
0
 10
77.129016
 20
63.267264
 30
0.0
 10
78.528912
 20
63.641248
 30
0.0
 10
79.924600
 20
63.746528
 30
0.0
 10
81.475176
 20
63.579792
 30
0.0
 10
83.339736
 20
63.137720
 30
0.0
 10
84.252352
 20
62.882200
 30
0.0
 10
85.164960
 20
62.626688
 30
0.0
 10
86.077568
 20
62.371168
 30
0.0
 10
86.990184
 20
62.115656
 30
0.0
 10
87.617352
 20
62.836952
 30
0.0
 10
88.244512
 20
63.558256
 30
0.0
 10
88.871680
 20
64.279560
 30
0.0
 10
89.498840
 20
65.000864
 30
0.0
 10
90.709624
 20
66.216096
 30
0.0
 10
92.151824
 20
67.392072
 30
0.0
 10
93.644704
 20
68.394624
 30
0.0
 10
95.007496
 20
69.089584
 30
0.0
 10
96.178928
 20
69.607448
 30
0.0
 10
97.150768
 20
70.127808
 30
0.0
 10
97.821832
 20
70.590136
 30
0.0
 10
98.090968
 20
70.933920
 30
0.0
 10
98.138248
 20
71.421880
 30
0.0
 10
98.205368
 20
72.276784
 30
0.0
 10
98.283368
 20
73.378144
 30
0.0
 10
98.363288
 20
74.605488
 30
0.0
 10
98.572928
 20
75.966664
 30
0.0
 10
99.004160
 20
77.432408
 30
0.0
 10
99.594088
 20
78.826592
 30
0.0
 10
100.279824
 20
79.973096
 30
0.0
 10
101.500144
 20
81.923888
 30
0.0
 10
101.906912
 20
83.574744
 30
0.0
 10
101.500136
 20
85.225592
 30
0.0
 10
100.279824
 20
87.176392
 30
0.0
 10
99.594088
 20
88.322896
 30
0.0
 10
99.004160
 20
89.717080
 30
0.0
 10
98.572936
 20
91.182824
 30
0.0
 10
98.363288
 20
92.544000
 30
0.0
 10
98.283368
 20
93.771344
 30
0.0
 10
98.205368
 20
94.872704
 30
0.0
 10
98.138248
 20
95.727608
 30
0.0
 10
98.090968
 20
96.215568
 30
0.0
 10
97.821832
 20
96.559352
 30
0.0
 10
97.150760
 20
97.021680
 30
0.0
 10
96.178920
 20
97.542040
 30
0.0
 10
95.007496
 20
98.059904
 30
0.0
 10
93.643408
 20
98.756408
 30
0.0
 10
92.147008
 20
99.763152
 30
0.0
 10
90.699584
 20
100.945336
 30
0.0
 10
89.482432
 20
102.168160
 30
0.0
 10
87.970344
 20
103.829632
 30
0.0
 10
86.847680
 20
104.580456
 30
0.0
 10
85.561400
 20
104.596696
 30
0.0
 10
83.558456
 20
104.054536
 30
0.0
 10
81.721208
 20
103.593624
 30
0.0
 10
80.126056
 20
103.437224
 30
0.0
 10
78.505528
 20
103.584608
 30
0.0
 10
76.592176
 20
104.035016
 30
0.0
 10
75.700336
 20
104.284720
 30
0.0
 10
74.808488
 20
104.534416
 30
0.0
 10
73.916648
 20
104.784120
 30
0.0
 10
73.024808
 20
105.033816
 30
0.0
 10
72.397640
 20
104.312520
 30
0.0
 10
71.770480
 20
103.591216
 30
0.0
 10
71.143312
 20
102.869912
 30
0.0
 10
70.516152
 20
102.148608
 30
0.0
 10
69.305368
 20
100.933376
 30
0.0
 10
67.863160
 20
99.757400
 30
0.0
 10
66.370288
 20
98.754856
 30
0.0
 10
65.007496
 20
98.059888
 30
0.0
 10
63.836064
 20
97.542016
 30
0.0
 10
62.864224
 20
97.021664
 30
0.0
 10
62.193152
 20
96.559336
 30
0.0
 10
61.924024
 20
96.215552
 30
0.0
 10
61.876744
 20
95.727584
 30
0.0
 10
61.809624
 20
94.872688
 30
0.0
 10
61.731624
 20
93.771328
 30
0.0
 10
61.651704
 20
92.543984
 30
0.0
 10
61.442064
 20
91.182808
 30
0.0
 10
61.010832
 20
89.717064
 30
0.0
 10
60.420904
 20
88.322880
 30
0.0
 10
59.735168
 20
87.176376
 30
0.0
 10
59.064328
 20
86.169200
 30
0.0
 10
58.514968
 20
85.154408
 30
0.0
 10
58.143784
 20
84.250184
 30
0.0
 10
58.007456
 20
83.574696
 30
0.0
 10
58.143784
 20
82.899208
 30
0.0
 10
58.514968
 20
81.994984
 30
0.0
 10
59.064328
 20
80.980200
 30
0.0
 10
59.735168
 20
79.973048
 30
0.0
 10
60.420904
 20
78.826544
 30
0.0
 10
61.010832
 20
77.432360
 30
0.0
 10
61.442064
 20
75.966616
 30
0.0
 10
61.651704
 20
74.605440
 30
0.0
 10
61.731624
 20
73.379080
 30
0.0
 10
61.809624
 20
72.280376
 30
0.0
 10
61.876744
 20
71.429416
 30
0.0
 10
61.924024
 20
70.946264
 30
0.0
 10
62.232016
 20
70.584128
 30
0.0
 10
63.008888
 20
70.062680
 30
0.0
 10
64.137312
 20
69.451656
 30
0.0
 10
65.499952
 20
68.820792
 30
0.0
 10
66.995040
 20
68.044264
 30
0.0
 10
68.484088
 20
67.036616
 30
0.0
 10
69.794688
 20
65.928160
 30
0.0
 10
70.754424
 20
64.849224
 30
0.0
 10
72.040552
 20
63.267464
 30
0.0
 10
73.259288
 20
62.544144
 30
0.0
 10
74.819240
 20
62.577904
 30
0.0
 10
77.129016
 20
63.267248
 30
0.0
 10
77.129016
 20
63.267256
 30
0.0
 10
77.129016
 20
63.267264
 30
0.0
  0
LWPOLYLINE
  5
129
100
AcDbEntity
  8
Layer_1
 62
7
100
AcDbPolyline
 90
15
 70
0
 10
40.291440
 20
69.115832
 30
0.0
 10
41.074280
 20
70.685336
 30
0.0
 10
40.156048
 20
71.659616
 30
0.0
 10
38.043936
 20
71.844624
 30
0.0
 10
35.245136
 20
71.046328
 30
0.0
 10
34.006336
 20
70.287664
 30
0.0
 10
33.336824
 20
69.430416
 30
0.0
 10
33.260664
 20
68.531280
 30
0.0
 10
33.801936
 20
67.646968
 30
0.0
 10
34.982232
 20
67.337512
 30
0.0
 10
36.863272
 20
67.571048
 30
0.0
 10
38.836016
 20
68.209760
 30
0.0
 10
40.291432
 20
69.115808
 30
0.0
 10
40.291432
 20
69.115816
 30
0.0
 10
40.291440
 20
69.115832
 30
0.0
  0
LWPOLYLINE
  5
12a
100
AcDbEntity
  8
Layer_1
 62
7
100
AcDbPolyline
 90
13
 70
0
 10
126.636336
 20
68.862352
 30
0.0
 10
126.148352
 20
70.007600
 30
0.0
 10
124.628720
 20
71.065440
 30
0.0
 10
122.621512
 20
71.764808
 30
0.0
 10
120.670776
 20
71.834648
 30
0.0
 10
119.538960
 20
71.264080
 30
0.0
 10
119.273816
 20
70.313352
 30
0.0
 10
119.841328
 20
69.213128
 30
0.0
 10
121.207496
 20
68.194072
 30
0.0
 10
123.085400
 20
67.512848
 30
0.0
 10
124.758088
 20
67.414632
 30
0.0
 10
126.012688
 20
67.873208
 30
0.0
 10
126.636336
 20
68.862352
 30
0.0
  0
LWPOLYLINE
  5
12b
100
AcDbEntity
  8
Layer_1
 62
7
100
AcDbPolyline
 90
13
 70
0
 10
26.120320
 20
72.510680
 30
0.0
 10
26.200240
 20
74.134952
 30
0.0
 10
24.719216
 20
76.106264
 30
0.0
 10
22.254176
 20
77.877456
 30
0.0
 10
19.382032
 20
78.901376
 30
0.0
 10
17.311544
 20
78.973616
 30
0.0
 10
16.080416
 20
78.339200
 30
0.0
 10
15.641864
 20
76.941160
 30
0.0
 10
15.949120
 20
74.722576
 30
0.0
 10
17.583776
 20
72.422336
 30
0.0
 10
20.467424
 20
71.146976
 30
0.0
 10
23.634728
 20
71.106416
 30
0.0
 10
26.120320
 20
72.510680
 30
0.0
  0
LWPOLYLINE
  5
12c
100
AcDbEntity
  8
Layer_1
 62
7
100
AcDbPolyline
 90
15
 70
0
 10
55.429488
 20
71.620088
 30
0.0
 10
56.745448
 20
73.086920
 30
0.0
 10
57.162640
 20
74.823552
 30
0.0
 10
56.685944
 20
76.547032
 30
0.0
 10
55.320216
 20
77.974432
 30
0.0
 10
53.823984
 20
78.648480
 30
0.0
 10
52.301600
 20
78.703680
 30
0.0
 10
50.710344
 20
78.132920
 30
0.0
 10
49.007496
 20
76.929152
 30
0.0
 10
47.578488
 20
74.114152
 30
0.0
 10
48.893248
 20
71.695128
 30
0.0
 10
51.870632
 20
70.565848
 30
0.0
 10
55.429488
 20
71.620088
 30
0.0
 10
55.429488
 20
71.620096
 30
0.0
 10
55.429488
 20
71.620088
 30
0.0
  0
LWPOLYLINE
  5
12d
100
AcDbEntity
  8
Layer_1
 62
7
100
AcDbPolyline
 90
17
 70
0
 10
110.369856
 20
71.303144
 30
0.0
 10
112.125024
 20
72.902720
 30
0.0
 10
112.231792
 20
74.984888
 30
0.0
 10
110.838824
 20
77.068216
 30
0.0
 10
108.094776
 20
78.671280
 30
0.0
 10
106.356720
 20
78.722880
 30
0.0
 10
104.640536
 20
77.908144
 30
0.0
 10
103.329632
 20
76.507536
 30
0.0
 10
102.807496
 20
74.801624
 30
0.0
 10
103.241704
 20
73.304880
 30
0.0
 10
104.343752
 20
71.872576
 30
0.0
 10
105.812760
 20
70.798064
 30
0.0
 10
107.347856
 20
70.374704
 30
0.0
 10
107.890848
 20
70.447984
 30
0.0
 10
108.641616
 20
70.647448
 30
0.0
 10
109.501008
 20
70.942656
 30
0.0
 10
110.369856
 20
71.303144
 30
0.0
  0
LWPOLYLINE
  5
12e
100
AcDbEntity
  8
Layer_1
 62
7
100
AcDbPolyline
 90
13
 70
0
 10
143.929008
 20
74.539296
 30
0.0
 10
144.406944
 20
76.756272
 30
0.0
 10
144.016016
 20
78.223464
 30
0.0
 10
142.757584
 20
78.939096
 30
0.0
 10
140.632984
 20
78.901416
 30
0.0
 10
137.735592
 20
77.872848
 30
0.0
 10
135.276872
 20
76.097944
 30
0.0
 10
133.820040
 20
74.116952
 30
0.0
 10
133.928336
 20
72.470152
 30
0.0
 10
136.293344
 20
71.120104
 30
0.0
 10
139.331304
 20
71.135544
 30
0.0
 10
142.167944
 20
72.335584
 30
0.0
 10
143.929008
 20
74.539296
 30
0.0
  0
LWPOLYLINE
  5
12f
100
AcDbEntity
  8
Layer_1
 62
7
100
AcDbPolyline
 90
15
 70
0
 10
37.225664
 20
77.584448
 30
0.0
 10
39.019656
 20
80.011696
 30
0.0
 10
39.493928
 20
83.748672
 30
0.0
 10
38.705392
 20
87.448488
 30
0.0
 10
36.710976
 20
89.764272
 30
0.0
 10
34.914960
 20
90.197520
 30
0.0
 10
33.723224
 20
89.484744
 30
0.0
 10
33.056456
 20
87.511312
 30
0.0
 10
32.835344
 20
84.162576
 30
0.0
 10
33.017208
 20
79.934680
 30
0.0
 10
33.717904
 20
77.566344
 30
0.0
 10
35.074896
 20
76.851592
 30
0.0
 10
37.225664
 20
77.584424
 30
0.0
 10
37.225664
 20
77.584432
 30
0.0
 10
37.225664
 20
77.584448
 30
0.0
  0
LWPOLYLINE
  5
130
100
AcDbEntity
  8
Layer_1
 62
7
100
AcDbPolyline
 90
17
 70
0
 10
127.103720
 20
80.509008
 30
0.0
 10
127.390656
 20
83.645256
 30
0.0
 10
127.081240
 20
86.712080
 30
0.0
 10
126.297952
 20
89.098216
 30
0.0
 10
125.163288
 20
90.192424
 30
0.0
 10
123.320560
 20
90.045352
 30
0.0
 10
121.952376
 20
88.850888
 30
0.0
 10
121.100704
 20
86.672768
 30
0.0
 10
120.807488
 20
83.574728
 30
0.0
 10
120.878368
 20
81.300304
 30
0.0
 10
121.128592
 20
79.728824
 30
0.0
 10
121.614384
 20
78.658392
 30
0.0
 10
122.391984
 20
77.887120
 30
0.0
 10
124.071112
 20
77.017504
 30
0.0
 10
125.394360
 20
77.152512
 30
0.0
 10
126.394344
 20
78.310296
 30
0.0
 10
127.103720
 20
80.509008
 30
0.0
  0
LWPOLYLINE
  5
131
100
AcDbEntity
  8
Layer_1
 62
7
100
AcDbPolyline
 90
17
 70
0
 10
29.344504
 20
80.498688
 30
0.0
 10
30.378032
 20
81.862944
 30
0.0
 10
30.747632
 20
83.402896
 30
0.0
 10
30.450416
 20
84.994000
 30
0.0
 10
29.483504
 20
86.511704
 30
0.0
 10
27.096336
 20
87.809672
 30
0.0
 10
24.373024
 20
87.590640
 30
0.0
 10
22.135944
 20
86.132640
 30
0.0
 10
21.207496
 20
83.713728
 30
0.0
 10
22.055512
 20
81.176848
 30
0.0
 10
24.146944
 20
79.616560
 30
0.0
 10
26.802904
 20
79.301104
 30
0.0
 10
29.344504
 20
80.498720
 30
0.0
 10
29.344504
 20
80.498712
 30
0.0
 10
29.344504
 20
80.498704
 30
0.0
 10
29.344504
 20
80.498696
 30
0.0
 10
29.344504
 20
80.498688
 30
0.0
  0
LWPOLYLINE
  5
132
100
AcDbEntity
  8
Layer_1
 62
7
100
AcDbPolyline
 90
13
 70
0
 10
49.755936
 20
80.914144
 30
0.0
 10
51.067640
 20
82.365400
 30
0.0
 10
51.495952
 20
83.586360
 30
0.0
 10
51.037976
 20
84.816776
 30
0.0
 10
49.690816
 20
86.296424
 30
0.0
 10
46.529680
 20
87.849824
 30
0.0
 10
43.752768
 20
87.122480
 30
0.0
 10
42.183992
 20
84.709744
 30
0.0
 10
42.647248
 20
81.206928
 30
0.0
 10
43.891176
 20
79.728456
 30
0.0
 10
45.673136
 20
79.179320
 30
0.0
 10
47.719328
 20
79.570792
 30
0.0
 10
49.755936
 20
80.914144
 30
0.0
  0
LWPOLYLINE
  5
133
100
AcDbEntity
  8
Layer_1
 62
7
100
AcDbPolyline
 90
13
 70
0
 10
117.367744
 20
81.206928
 30
0.0
 10
117.831000
 20
84.709744
 30
0.0
 10
116.262224
 20
87.122488
 30
0.0
 10
113.485312
 20
87.849824
 30
0.0
 10
110.324176
 20
86.296424
 30
0.0
 10
108.990688
 20
84.867952
 30
0.0
 10
108.523288
 20
83.710672
 30
0.0
 10
108.912016
 20
82.528720
 30
0.0
 10
110.146944
 20
81.026256
 30
0.0
 10
112.124760
 20
79.593568
 30
0.0
 10
114.208904
 20
79.151656
 30
0.0
 10
116.067272
 20
79.692192
 30
0.0
 10
117.367744
 20
81.206928
 30
0.0
  0
LWPOLYLINE
  5
134
100
AcDbEntity
  8
Layer_1
 62
7
100
AcDbPolyline
 90
17
 70
0
 10
137.344504
 20
80.498688
 30
0.0
 10
138.378032
 20
81.862944
 30
0.0
 10
138.747632
 20
83.402896
 30
0.0
 10
138.450416
 20
84.994000
 30
0.0
 10
137.483504
 20
86.511704
 30
0.0
 10
135.096344
 20
87.809664
 30
0.0
 10
132.373024
 20
87.590632
 30
0.0
 10
130.135944
 20
86.132640
 30
0.0
 10
129.207496
 20
83.713728
 30
0.0
 10
130.055504
 20
81.176848
 30
0.0
 10
132.146944
 20
79.616560
 30
0.0
 10
134.802904
 20
79.301104
 30
0.0
 10
137.344504
 20
80.498720
 30
0.0
 10
137.344504
 20
80.498712
 30
0.0
 10
137.344504
 20
80.498704
 30
0.0
 10
137.344504
 20
80.498696
 30
0.0
 10
137.344504
 20
80.498688
 30
0.0
  0
LWPOLYLINE
  5
135
100
AcDbEntity
  8
Layer_1
 62
7
100
AcDbPolyline
 90
21
 70
0
 10
24.705088
 20
91.103096
 30
0.0
 10
25.847368
 20
92.335328
 30
0.0
 10
26.426112
 20
93.240696
 30
0.0
 10
26.498112
 20
93.961184
 30
0.0
 10
26.120280
 20
94.638776
 30
0.0
 10
23.634664
 20
96.042992
 30
0.0
 10
20.467360
 20
96.002432
 30
0.0
 10
17.583704
 20
94.727080
 30
0.0
 10
15.949056
 20
92.426832
 30
0.0
 10
15.788912
 20
91.528512
 30
0.0
 10
15.732912
 20
90.596944
 30
0.0
 10
15.781552
 20
89.742144
 30
0.0
 10
15.935312
 20
89.074120
 30
0.0
 10
17.229840
 20
88.130280
 30
0.0
 10
19.533904
 20
88.248896
 30
0.0
 10
22.231104
 20
89.287368
 30
0.0
 10
24.705008
 20
91.103072
 30
0.0
 10
24.705000
 20
91.103072
 30
0.0
 10
24.704992
 20
91.103072
 30
0.0
 10
24.704992
 20
91.103072
 30
0.0
 10
24.705088
 20
91.103096
 30
0.0
  0
LWPOLYLINE
  5
136
100
AcDbEntity
  8
Layer_1
 62
7
100
AcDbPolyline
 90
17
 70
0
 10
55.475168
 20
89.252080
 30
0.0
 10
56.782632
 20
90.789704
 30
0.0
 10
57.067672
 20
92.623304
 30
0.0
 10
56.366984
 20
94.431280
 30
0.0
 10
54.717280
 20
95.892024
 30
0.0
 10
53.554680
 20
96.448200
 30
0.0
 10
52.549328
 20
96.650808
 30
0.0
 10
51.477952
 20
96.506064
 30
0.0
 10
50.117280
 20
96.020200
 30
0.0
 10
48.087040
 20
94.410288
 30
0.0
 10
47.723216
 20
92.303392
 30
0.0
 10
48.928976
 20
90.185424
 30
0.0
 10
51.607496
 20
88.542280
 30
0.0
 10
52.709432
 20
88.177096
 30
0.0
 10
53.495776
 20
88.132296
 30
0.0
 10
54.304904
 20
88.469928
 30
0.0
 10
55.475168
 20
89.252080
 30
0.0
  0
LWPOLYLINE
  5
137
100
AcDbEntity
  8
Layer_1
 62
7
100
AcDbPolyline
 90
13
 70
0
 10
111.007496
 20
90.193344
 30
0.0
 10
112.353752
 20
92.844432
 30
0.0
 10
111.282792
 20
95.244888
 30
0.0
 10
108.646728
 20
96.544248
 30
0.0
 10
105.297712
 20
95.892024
 30
0.0
 10
103.648568
 20
94.431648
 30
0.0
 10
102.947520
 20
92.623840
 30
0.0
 10
103.231464
 20
90.790584
 30
0.0
 10
104.537288
 20
89.253864
 30
0.0
 10
106.058760
 20
88.539472
 30
0.0
 10
107.659000
 20
88.460032
 30
0.0
 10
109.315936
 20
89.012392
 30
0.0
 10
111.007496
 20
90.193344
 30
0.0
  0
LWPOLYLINE
  5
138
100
AcDbEntity
  8
Layer_1
 62
7
100
AcDbPolyline
 90
13
 70
0
 10
144.118880
 20
89.176520
 30
0.0
 10
144.199280
 20
91.959400
 30
0.0
 10
142.648272
 20
94.385728
 30
0.0
 10
139.993936
 20
95.953896
 30
0.0
 10
136.764368
 20
96.162288
 30
0.0
 10
134.743696
 20
95.486040
 30
0.0
 10
133.746984
 20
94.450528
 30
0.0
 10
133.790344
 20
93.096272
 30
0.0
 10
134.890048
 20
91.463792
 30
0.0
 10
137.533400
 20
89.339176
 30
0.0
 10
140.343448
 20
88.152880
 30
0.0
 10
142.734008
 20
88.050232
 30
0.0
 10
144.118880
 20
89.176520
 30
0.0
  0
LWPOLYLINE
  5
139
100
AcDbEntity
  8
Layer_1
 62
7
100
AcDbPolyline
 90
13
 70
0
 10
40.854944
 20
96.051496
 30
0.0
 10
40.922464
 20
97.151544
 30
0.0
 10
40.010912
 20
98.219960
 30
0.0
 10
38.391824
 20
99.052744
 30
0.0
 10
36.336760
 20
99.445864
 30
0.0
 10
35.118736
 20
99.430344
 30
0.0
 10
34.240592
 20
99.242504
 30
0.0
 10
33.677384
 20
98.872744
 30
0.0
 10
33.404128
 20
98.311432
 30
0.0
 10
34.198968
 20
96.732568
 30
0.0
 10
36.491760
 20
95.591208
 30
0.0
 10
39.103448
 20
95.244984
 30
0.0
 10
40.854944
 20
96.051496
 30
0.0
  0
LWPOLYLINE
  5
13a
100
AcDbEntity
  8
Layer_1
 62
7
100
AcDbPolyline
 90
15
 70
0
 10
124.801048
 20
96.117336
 30
0.0
 10
126.362744
 20
97.234632
 30
0.0
 10
126.631560
 20
98.353344
 30
0.0
 10
125.704416
 20
99.186184
 30
0.0
 10
123.678224
 20
99.445848
 30
0.0
 10
121.623160
 20
99.052728
 30
0.0
 10
120.004072
 20
98.219944
 30
0.0
 10
119.092512
 20
97.151520
 30
0.0
 10
119.160032
 20
96.051480
 30
0.0
 10
119.974832
 20
95.413760
 30
0.0
 10
121.273376
 20
95.213168
 30
0.0
 10
122.925504
 20
95.448208
 30
0.0
 10
124.801032
 20
96.117320
 30
0.0
 10
124.801032
 20
96.117328
 30
0.0
 10
124.801048
 20
96.117336
 30
0.0
  0
LWPOLYLINE
  5
13b
100
AcDbEntity
  8
Layer_1
 62
7
100
AcDbPolyline
 90
17
 70
0
 10
55.155416
 20
99.154912
 30
0.0
 10
56.156104
 20
99.652440
 30
0.0
 10
56.785944
 20
100.300072
 30
0.0
 10
57.113544
 20
101.209376
 30
0.0
 10
57.207496
 20
102.491920
 30
0.0
 10
56.370832
 20
105.721664
 30
0.0
 10
54.339448
 20
107.607416
 30
0.0
 10
51.831272
 20
107.817680
 30
0.0
 10
49.564240
 20
106.020968
 30
0.0
 10
48.690768
 20
104.054872
 30
0.0
 10
48.626528
 20
102.192432
 30
0.0
 10
49.341944
 20
100.590648
 30
0.0
 10
50.807528
 20
99.406528
 30
0.0
 10
52.159448
 20
98.722392
 30
0.0
 10
52.964600
 20
98.473832
 30
0.0
 10
53.778200
 20
98.628712
 30
0.0
 10
55.155416
 20
99.154912
 30
0.0
  0
LWPOLYLINE
  5
13c
100
AcDbEntity
  8
Layer_1
 62
7
100
AcDbPolyline
 90
13
 70
0
 10
110.607496
 20
100.170592
 30
0.0
 10
111.561920
 20
102.195352
 30
0.0
 10
111.097832
 20
104.788536
 30
0.0
 10
109.592992
 20
107.023784
 30
0.0
 10
107.425128
 20
107.974728
 30
0.0
 10
104.625736
 20
106.818880
 30
0.0
 10
102.962536
 20
104.161832
 30
0.0
 10
102.826224
 20
101.219336
 30
0.0
 10
104.607496
 20
99.207112
 30
0.0
 10
106.114184
 20
98.851296
 30
0.0
 10
107.697984
 20
98.906336
 30
0.0
 10
109.236536
 20
99.352648
 30
0.0
 10
110.607496
 20
100.170592
 30
0.0
  0
LWPOLYLINE
  5
13d
100
AcDbEntity
  8
Layer_1
 62
7
100
AcDbPolyline
 90
21
 70
0
 10
23.155416
 20
99.954928
 30
0.0
 10
23.952200
 20
100.360424
 30
0.0
 10
24.604696
 20
100.887760
 30
0.0
 10
25.045576
 20
101.468680
 30
0.0
 10
25.207496
 20
102.034928
 30
0.0
 10
24.410016
 20
103.712312
 30
0.0
 10
22.550808
 20
105.959752
 30
0.0
 10
20.429736
 20
107.929728
 30
0.0
 10
18.846672
 20
108.774728
 30
0.0
 10
17.853464
 20
107.970904
 30
0.0
 10
16.794120
 20
106.000000
 30
0.0
 10
15.951256
 20
103.522888
 30
0.0
 10
15.607496
 20
101.200424
 30
0.0
 10
15.698360
 20
100.135320
 30
0.0
 10
16.078800
 20
99.522168
 30
0.0
 10
16.910568
 20
99.241712
 30
0.0
 10
18.355416
 20
99.174752
 30
0.0
 10
19.584296
 20
99.236352
 30
0.0
 10
20.898928
 20
99.403976
 30
0.0
 10
22.141800
 20
99.652056
 30
0.0
 10
23.155416
 20
99.954928
 30
0.0
  0
LWPOLYLINE
  5
13e
100
AcDbEntity
  8
Layer_1
 62
7
100
AcDbPolyline
 90
17
 70
0
 10
144.407496
 20
101.200424
 30
0.0
 10
144.063736
 20
103.522888
 30
0.0
 10
143.220872
 20
106.000000
 30
0.0
 10
142.161528
 20
107.970904
 30
0.0
 10
141.168320
 20
108.774728
 30
0.0
 10
139.583992
 20
107.929424
 30
0.0
 10
137.463064
 20
105.958448
 30
0.0
 10
135.604560
 20
103.709160
 30
0.0
 10
134.807496
 20
102.028952
 30
0.0
 10
135.282160
 20
100.919272
 30
0.0
 10
136.623280
 20
100.046912
 30
0.0
 10
138.706504
 20
99.464696
 30
0.0
 10
141.407496
 20
99.225440
 30
0.0
 10
143.011160
 20
99.259360
 30
0.0
 10
143.916312
 20
99.514672
 30
0.0
 10
144.317048
 20
100.119080
 30
0.0
 10
144.407496
 20
101.200424
 30
0.0
  0
LWPOLYLINE
  5
13f
100
AcDbEntity
  8
Layer_1
 62
7
100
AcDbPolyline
 90
17
 70
0
 10
12.043856
 20
103.538368
 30
0.0
 10
12.806296
 20
104.384320
 30
0.0
 10
13.430672
 20
105.236080
 30
0.0
 10
13.852552
 20
105.994480
 30
0.0
 10
14.007496
 20
106.560360
 30
0.0
 10
13.596952
 20
108.085504
 30
0.0
 10
12.564184
 20
109.582344
 30
0.0
 10
11.207480
 20
110.721784
 30
0.0
 10
9.825120
 20
111.174728
 30
0.0
 10
7.099040
 20
110.208432
 30
0.0
 10
5.515808
 20
107.901712
 30
0.0
 10
5.377320
 20
105.142840
 30
0.0
 10
6.985496
 20
102.820088
 30
0.0
 10
8.442936
 20
101.913232
 30
0.0
 10
9.530680
 20
101.696424
 30
0.0
 10
10.610416
 20
102.221016
 30
0.0
 10
12.043856
 20
103.538368
 30
0.0
  0
LWPOLYLINE
  5
140
100
AcDbEntity
  8
Layer_1
 62
7
100
AcDbPolyline
 90
17
 70
0
 10
153.029488
 20
102.820088
 30
0.0
 10
154.611032
 20
105.121608
 30
0.0
 10
154.493640
 20
107.882840
 30
0.0
 10
152.969016
 20
110.201352
 30
0.0
 10
150.328872
 20
111.174728
 30
0.0
 10
148.876480
 20
110.730360
 30
0.0
 10
147.477360
 20
109.605208
 30
0.0
 10
146.423656
 20
108.111224
 30
0.0
 10
146.007496
 20
106.560360
 30
0.0
 10
146.574632
 20
105.294168
 30
0.0
 10
147.901992
 20
103.634488
 30
0.0
 10
149.428520
 20
102.191336
 30
0.0
 10
150.593128
 20
101.574728
 30
0.0
 10
150.989048
 20
101.672992
 30
0.0
 10
151.580384
 20
101.940552
 30
0.0
 10
152.287176
 20
102.336536
 30
0.0
 10
153.029488
 20
102.820088
 30
0.0
  0
LWPOLYLINE
  5
141
100
AcDbEntity
  8
Layer_1
 62
7
100
AcDbPolyline
 90
17
 70
0
 10
66.872264
 20
104.197400
 30
0.0
 10
67.156584
 20
107.268112
 30
0.0
 10
65.707896
 20
109.937496
 30
0.0
 10
63.212104
 20
111.474152
 30
0.0
 10
60.355120
 20
111.146696
 30
0.0
 10
59.202544
 20
109.854112
 30
0.0
 10
58.829272
 20
107.928112
 30
0.0
 10
59.232024
 20
105.818408
 30
0.0
 10
60.407520
 20
103.974728
 30
0.0
 10
62.195968
 20
102.758936
 30
0.0
 10
64.068952
 20
102.397648
 30
0.0
 10
65.727408
 20
102.880568
 30
0.0
 10
66.872288
 20
104.197400
 30
0.0
 10
66.872280
 20
104.197400
 30
0.0
 10
66.872272
 20
104.197400
 30
0.0
 10
66.872264
 20
104.197400
 30
0.0
 10
66.872264
 20
104.197400
 30
0.0
  0
LWPOLYLINE
  5
142
100
AcDbEntity
  8
Layer_1
 62
7
100
AcDbPolyline
 90
17
 70
0
 10
99.607496
 20
103.974728
 30
0.0
 10
100.782976
 20
105.818408
 30
0.0
 10
101.185728
 20
107.928112
 30
0.0
 10
100.812464
 20
109.854120
 30
0.0
 10
99.659896
 20
111.146696
 30
0.0
 10
96.802912
 20
111.474152
 30
0.0
 10
94.307120
 20
109.937496
 30
0.0
 10
92.858432
 20
107.268120
 30
0.0
 10
93.142752
 20
104.197400
 30
0.0
 10
94.287632
 20
102.880568
 30
0.0
 10
95.946096
 20
102.397648
 30
0.0
 10
97.819080
 20
102.758936
 30
0.0
 10
99.607520
 20
103.974728
 30
0.0
 10
99.607512
 20
103.974728
 30
0.0
 10
99.607504
 20
103.974728
 30
0.0
 10
99.607496
 20
103.974728
 30
0.0
 10
99.607496
 20
103.974728
 30
0.0
  0
LWPOLYLINE
  5
143
100
AcDbEntity
  8
Layer_1
 62
7
100
AcDbPolyline
 90
17
 70
0
 10
46.724624
 20
106.802568
 30
0.0
 10
48.434240
 20
109.322512
 30
0.0
 10
49.182360
 20
111.734384
 30
0.0
 10
48.938008
 20
113.764992
 30
0.0
 10
47.670200
 20
115.141168
 30
0.0
 10
46.806816
 20
115.453928
 30
0.0
 10
45.992224
 20
115.341040
 30
0.0
 10
45.066616
 20
114.736632
 30
0.0
 10
43.870200
 20
113.574824
 30
0.0
 10
41.626216
 20
110.889960
 30
0.0
 10
40.115320
 20
108.421096
 30
0.0
 10
39.446336
 20
106.392752
 30
0.0
 10
39.728088
 20
105.029424
 30
0.0
 10
41.120104
 20
104.093984
 30
0.0
 10
42.845384
 20
104.101984
 30
0.0
 10
44.761160
 20
105.016912
 30
0.0
 10
46.724624
 20
106.802568
 30
0.0
  0
LWPOLYLINE
  5
144
100
AcDbEntity
  8
Layer_1
 62
7
100
AcDbPolyline
 90
17
 70
0
 10
120.286904
 20
105.029424
 30
0.0
 10
120.568656
 20
106.392752
 30
0.0
 10
119.899672
 20
108.421096
 30
0.0
 10
118.388776
 20
110.889960
 30
0.0
 10
116.144792
 20
113.574824
 30
0.0
 10
114.948368
 20
114.736624
 30
0.0
 10
114.022768
 20
115.341040
 30
0.0
 10
113.208176
 20
115.453928
 30
0.0
 10
112.344792
 20
115.141168
 30
0.0
 10
111.076984
 20
113.764984
 30
0.0
 10
110.832632
 20
111.734376
 30
0.0
 10
111.580752
 20
109.322512
 30
0.0
 10
113.290368
 20
106.802568
 30
0.0
 10
115.253832
 20
105.016736
 30
0.0
 10
117.169608
 20
104.101816
 30
0.0
 10
118.894888
 20
104.093816
 30
0.0
 10
120.286904
 20
105.029424
 30
0.0
  0
LWPOLYLINE
  5
145
100
AcDbEntity
  8
Layer_1
 62
7
100
AcDbPolyline
 90
13
 70
0
 10
30.664224
 20
106.602096
 30
0.0
 10
31.191552
 20
109.184688
 30
0.0
 10
30.220104
 20
112.571184
 30
0.0
 10
28.315544
 20
115.516296
 30
0.0
 10
26.043504
 20
116.774728
 30
0.0
 10
23.485904
 20
115.431896
 30
0.0
 10
22.901416
 20
112.326616
 30
0.0
 10
24.150368
 20
108.843712
 30
0.0
 10
27.093096
 20
106.367992
 30
0.0
 10
28.509856
 20
105.838288
 30
0.0
 10
29.399160
 20
105.689056
 30
0.0
 10
30.028208
 20
105.937816
 30
0.0
 10
30.664224
 20
106.602096
 30
0.0
  0
LWPOLYLINE
  5
146
100
AcDbEntity
  8
Layer_1
 62
7
100
AcDbPolyline
 90
13
 70
0
 10
135.407496
 20
108.483992
 30
0.0
 10
136.578624
 20
110.320768
 30
0.0
 10
137.134896
 20
112.380832
 30
0.0
 10
137.037464
 20
114.325152
 30
0.0
 10
136.247496
 20
115.814728
 30
0.0
 10
134.269776
 20
116.758088
 30
0.0
 10
132.224272
 20
116.061328
 30
0.0
 10
130.423944
 20
113.952736
 30
0.0
 10
129.181752
 20
110.660592
 30
0.0
 10
129.091856
 20
107.464488
 30
0.0
 10
130.360464
 20
105.945120
 30
0.0
 10
132.596152
 20
106.239344
 30
0.0
 10
135.407496
 20
108.483992
 30
0.0
  0
LWPOLYLINE
  5
147
100
AcDbEntity
  8
Layer_1
 62
7
100
AcDbPolyline
 90
17
 70
0
 10
82.161904
 20
108.574728
 30
0.0
 10
83.296192
 20
110.164768
 30
0.0
 10
83.885912
 20
111.686424
 30
0.0
 10
83.942552
 20
113.193600
 30
0.0
 10
83.477656
 20
114.740200
 30
0.0
 10
81.940912
 20
116.733520
 30
0.0
 10
80.011736
 20
117.403816
 30
0.0
 10
78.083712
 20
116.749464
 30
0.0
 10
76.550360
 20
114.768840
 30
0.0
 10
76.197624
 20
112.406224
 30
0.0
 10
76.850440
 20
109.926424
 30
0.0
 10
78.217496
 20
107.969296
 30
0.0
 10
80.007488
 20
107.174728
 30
0.0
 10
80.472016
 20
107.285200
 30
0.0
 10
81.033056
 20
107.585976
 30
0.0
 10
81.619912
 20
108.031128
 30
0.0
 10
82.161904
 20
108.574728
 30
0.0
  0
LWPOLYLINE
  5
148
100
AcDbEntity
  8
Layer_1
 62
7
100
AcDbPolyline
 90
13
 70
0
 10
39.607496
 20
111.974728
 30
0.0
 10
41.078168
 20
115.448576
 30
0.0
 10
39.702240
 20
118.512360
 30
0.0
 10
36.644688
 20
119.976336
 30
0.0
 10
33.070488
 20
118.650736
 30
0.0
 10
31.948904
 20
116.988240
 30
0.0
 10
31.638472
 20
115.018520
 30
0.0
 10
32.122800
 20
113.107248
 30
0.0
 10
33.385504
 20
111.620088
 30
0.0
 10
35.096952
 20
110.698088
 30
0.0
 10
36.673104
 20
110.448072
 30
0.0
 10
38.160952
 20
110.872728
 30
0.0
 10
39.607496
 20
111.974728
 30
0.0
  0
LWPOLYLINE
  5
149
100
AcDbEntity
  8
Layer_1
 62
7
100
AcDbPolyline
 90
17
 70
0
 10
72.847184
 20
112.323016
 30
0.0
 10
73.659792
 20
114.256544
 30
0.0
 10
73.827128
 20
116.323808
 30
0.0
 10
73.375528
 20
118.162888
 30
0.0
 10
72.331320
 20
119.411840
 30
0.0
 10
70.126224
 20
119.807608
 30
0.0
 10
67.509856
 20
119.095288
 30
0.0
 10
65.323264
 20
117.652296
 30
0.0
 10
64.407496
 20
115.856048
 30
0.0
 10
65.139272
 20
114.462872
 30
0.0
 10
66.852240
 20
112.638304
 30
0.0
 10
68.822840
 20
111.052280
 30
0.0
 10
70.327512
 20
110.374728
 30
0.0
 10
70.910912
 20
110.528464
 30
0.0
 10
71.580448
 20
110.947032
 30
0.0
 10
72.253432
 20
111.566528
 30
0.0
 10
72.847184
 20
112.323016
 30
0.0
  0
LWPOLYLINE
  5
14a
100
AcDbEntity
  8
Layer_1
 62
7
100
AcDbPolyline
 90
17
 70
0
 10
93.269032
 20
112.713192
 30
0.0
 10
94.177016
 20
113.684648
 30
0.0
 10
94.920576
 20
114.601024
 30
0.0
 10
95.422976
 20
115.359200
 30
0.0
 10
95.607496
 20
115.856048
 30
0.0
 10
94.691728
 20
117.652296
 30
0.0
 10
92.505136
 20
119.095288
 30
0.0
 10
89.888768
 20
119.807616
 30
0.0
 10
87.683672
 20
119.411840
 30
0.0
 10
86.639464
 20
118.162888
 30
0.0
 10
86.187864
 20
116.323808
 30
0.0
 10
86.355200
 20
114.256544
 30
0.0
 10
87.167808
 20
112.323016
 30
0.0
 10
88.427992
 20
110.903576
 30
0.0
 10
89.778960
 20
110.489960
 30
0.0
 10
91.349656
 20
111.090416
 30
0.0
 10
93.269032
 20
112.713192
 30
0.0
  0
LWPOLYLINE
  5
14b
100
AcDbEntity
  8
Layer_1
 62
7
100
AcDbPolyline
 90
17
 70
0
 10
126.629488
 20
111.620088
 30
0.0
 10
128.277424
 20
113.977344
 30
0.0
 10
128.095888
 20
116.732376
 30
0.0
 10
126.405992
 20
119.019928
 30
0.0
 10
123.528872
 20
119.974728
 30
0.0
 10
121.786408
 20
119.550040
 30
0.0
 10
120.275072
 20
118.427384
 30
0.0
 10
119.210296
 20
116.833904
 30
0.0
 10
118.807496
 20
114.996720
 30
0.0
 10
119.271784
 20
113.500840
 30
0.0
 10
120.430768
 20
111.998000
 30
0.0
 10
121.933608
 20
110.839016
 30
0.0
 10
123.429488
 20
110.374728
 30
0.0
 10
124.121920
 20
110.472992
 30
0.0
 10
124.956064
 20
110.740552
 30
0.0
 10
125.826920
 20
111.136536
 30
0.0
 10
126.629488
 20
111.620088
 30
0.0
  0
LWPOLYLINE
  5
14c
100
AcDbEntity
  8
Layer_1
 62
7
100
AcDbPolyline
 90
13
 70
0
 10
56.407496
 20
118.411088
 30
0.0
 10
55.868184
 20
119.998696
 30
0.0
 10
54.572352
 20
121.831392
 30
0.0
 10
53.003184
 20
123.344840
 30
0.0
 10
51.643856
 20
123.974728
 30
0.0
 10
50.977296
 20
123.411176
 30
0.0
 10
50.845872
 20
122.020088
 30
0.0
 10
51.215688
 20
120.250824
 30
0.0
 10
52.052856
 20
118.552736
 30
0.0
 10
53.409496
 20
117.250672
 30
0.0
 10
54.831264
 20
116.785112
 30
0.0
 10
55.952488
 20
117.167952
 30
0.0
 10
56.407496
 20
118.411088
 30
0.0
  0
LWPOLYLINE
  5
14d
100
AcDbEntity
  8
Layer_1
 62
7
100
AcDbPolyline
 90
13
 70
0
 10
107.962136
 20
118.552736
 30
0.0
 10
108.799304
 20
120.250824
 30
0.0
 10
109.169120
 20
122.020088
 30
0.0
 10
109.037696
 20
123.411176
 30
0.0
 10
108.371136
 20
123.974728
 30
0.0
 10
107.011808
 20
123.344840
 30
0.0
 10
105.442640
 20
121.831392
 30
0.0
 10
104.146808
 20
119.998704
 30
0.0
 10
103.607496
 20
118.411088
 30
0.0
 10
104.062504
 20
117.167952
 30
0.0
 10
105.183728
 20
116.785112
 30
0.0
 10
106.605496
 20
117.250672
 30
0.0
 10
107.962136
 20
118.552736
 30
0.0
  0
LWPOLYLINE
  5
14e
100
AcDbEntity
  8
Layer_1
 62
7
100
AcDbPolyline
 90
17
 70
0
 10
40.307496
 20
122.074728
 30
0.0
 10
42.150504
 20
122.925480
 30
0.0
 10
42.841248
 20
124.347496
 30
0.0
 10
42.363152
 20
126.093616
 30
0.0
 10
40.699608
 20
127.916664
 30
0.0
 10
38.831128
 20
129.057368
 30
0.0
 10
36.997992
 20
129.500232
 30
0.0
 10
35.175760
 20
129.246512
 30
0.0
 10
33.339984
 20
128.297480
 30
0.0
 10
32.088744
 20
126.911328
 30
0.0
 10
31.800952
 20
125.346960
 30
0.0
 10
32.449560
 20
123.835128
 30
0.0
 10
34.007496
 20
122.606544
 30
0.0
 10
35.486272
 20
121.937208
 30
0.0
 10
36.746096
 20
121.649360
 30
0.0
 10
38.211616
 20
121.707120
 30
0.0
 10
40.307496
 20
122.074728
 30
0.0
  0
LWPOLYLINE
  5
14f
100
AcDbEntity
  8
Layer_1
 62
7
100
AcDbPolyline
 90
17
 70
0
 10
70.877824
 20
123.638376
 30
0.0
 10
71.530504
 20
124.385656
 30
0.0
 10
71.988544
 20
125.249288
 30
0.0
 10
72.233112
 20
126.181120
 30
0.0
 10
72.245352
 20
127.132984
 30
0.0
 10
72.021488
 20
128.229072
 30
0.0
 10
71.512608
 20
128.825128
 30
0.0
 10
70.477384
 20
129.049336
 30
0.0
 10
68.674480
 20
129.029896
 30
0.0
 10
65.794944
 20
128.598608
 30
0.0
 10
63.104280
 20
127.669024
 30
0.0
 10
60.989184
 20
126.416704
 30
0.0
 10
59.836344
 20
125.017200
 30
0.0
 10
60.516464
 20
122.912312
 30
0.0
 10
63.556368
 20
121.859376
 30
0.0
 10
67.496624
 20
122.040648
 30
0.0
 10
70.877824
 20
123.638376
 30
0.0
  0
LWPOLYLINE
  5
150
100
AcDbEntity
  8
Layer_1
 62
7
100
AcDbPolyline
 90
17
 70
0
 10
99.184576
 20
122.659040
 30
0.0
 10
100.151344
 20
124.576696
 30
0.0
 10
98.773984
 20
126.596328
 30
0.0
 10
95.640904
 20
128.240032
 30
0.0
 10
91.340504
 20
129.029912
 30
0.0
 10
89.578240
 20
129.045352
 30
0.0
 10
88.533360
 20
128.834248
 30
0.0
 10
87.993448
 20
128.296176
 30
0.0
 10
87.746088
 20
127.330712
 30
0.0
 10
88.043872
 20
125.088384
 30
0.0
 10
89.509896
 20
123.302416
 30
0.0
 10
91.971144
 20
122.104288
 30
0.0
 10
95.254592
 20
121.625456
 30
0.0
 10
96.321760
 20
121.691296
 30
0.0
 10
97.418456
 20
121.908120
 30
0.0
 10
98.415712
 20
122.242008
 30
0.0
 10
99.184576
 20
122.659040
 30
0.0
  0
LWPOLYLINE
  5
151
100
AcDbEntity
  8
Layer_1
 62
7
100
AcDbPolyline
 90
15
 70
0
 10
127.278880
 20
123.233968
 30
0.0
 10
128.292712
 20
125.135176
 30
0.0
 10
127.687016
 20
127.213648
 30
0.0
 10
125.841880
 20
128.887472
 30
0.0
 10
123.137376
 20
129.574728
 30
0.0
 10
120.028344
 20
128.527472
 30
0.0
 10
117.875848
 20
126.159536
 30
0.0
 10
117.321648
 20
123.631720
 30
0.0
 10
119.007496
 20
122.104792
 30
0.0
 10
121.215216
 20
121.895616
 30
0.0
 10
123.629560
 20
122.055032
 30
0.0
 10
125.800712
 20
122.521624
 30
0.0
 10
127.278880
 20
123.233976
 30
0.0
 10
127.278880
 20
123.233976
 30
0.0
 10
127.278880
 20
123.233968
 30
0.0
  0
LWPOLYLINE
  5
152
100
AcDbEntity
  8
Layer_1
 62
7
100
AcDbPolyline
 90
17
 70
0
 10
81.873800
 20
127.064272
 30
0.0
 10
81.787744
 20
130.056272
 30
0.0
 10
80.902824
 20
132.179384
 30
0.0
 10
79.658216
 20
132.856200
 30
0.0
 10
78.493088
 20
131.509296
 30
0.0
 10
78.129464
 20
129.907248
 30
0.0
 10
78.024776
 20
128.008248
 30
0.0
 10
78.173112
 20
126.302552
 30
0.0
 10
78.568528
 20
125.280408
 30
0.0
 10
79.513640
 20
124.834968
 30
0.0
 10
80.536824
 20
125.068664
 30
0.0
 10
81.402184
 20
125.854208
 30
0.0
 10
81.873840
 20
127.064272
 30
0.0
 10
81.873832
 20
127.064272
 30
0.0
 10
81.873824
 20
127.064272
 30
0.0
 10
81.873816
 20
127.064272
 30
0.0
 10
81.873800
 20
127.064272
 30
0.0
  0
LWPOLYLINE
  5
153
100
AcDbEntity
  8
Layer_1
 62
7
100
AcDbPolyline
 90
17
 70
0
 10
46.807496
 20
133.627320
 30
0.0
 10
46.606120
 20
136.145120
 30
0.0
 10
46.049992
 20
138.157480
 30
0.0
 10
45.211152
 20
139.491616
 30
0.0
 10
44.161624
 20
139.974728
 30
0.0
 10
42.549968
 20
139.231496
 30
0.0
 10
40.217832
 20
137.520272
 30
0.0
 10
38.119056
 20
135.618776
 30
0.0
 10
37.207496
 20
134.304728
 30
0.0
 10
38.032432
 20
133.165464
 30
0.0
 10
40.023976
 20
131.874760
 30
0.0
 10
42.457288
 20
130.817288
 30
0.0
 10
44.607496
 20
130.377720
 30
0.0
 10
45.811768
 20
130.460312
 30
0.0
 10
46.472400
 20
130.870744
 30
0.0
 10
46.750584
 20
131.847000
 30
0.0
 10
46.807496
 20
133.627320
 30
0.0
  0
LWPOLYLINE
  5
154
100
AcDbEntity
  8
Layer_1
 62
7
100
AcDbPolyline
 90
15
 70
0
 10
67.414416
 20
132.909688
 30
0.0
 10
67.689016
 20
136.810728
 30
0.0
 10
65.319392
 20
139.209792
 30
0.0
 10
61.843104
 20
139.420472
 30
0.0
 10
58.797680
 20
136.756392
 30
0.0
 10
58.468512
 20
135.339552
 30
0.0
 10
58.739120
 20
133.725960
 30
0.0
 10
59.521408
 20
132.180064
 30
0.0
 10
60.727232
 20
130.966312
 30
0.0
 10
62.432152
 20
130.406544
 30
0.0
 10
64.397912
 20
130.626072
 30
0.0
 10
66.200120
 20
131.501568
 30
0.0
 10
67.414392
 20
132.909688
 30
0.0
 10
67.414400
 20
132.909688
 30
0.0
 10
67.414416
 20
132.909688
 30
0.0
  0
LWPOLYLINE
  5
155
100
AcDbEntity
  8
Layer_1
 62
7
100
AcDbPolyline
 90
13
 70
0
 10
99.287736
 20
130.986976
 30
0.0
 10
101.011080
 20
132.897432
 30
0.0
 10
101.487952
 20
135.191344
 30
0.0
 10
100.744184
 20
137.430264
 30
0.0
 10
98.805576
 20
139.175752
 30
0.0
 10
95.472432
 20
139.658152
 30
0.0
 10
93.039768
 20
137.901160
 30
0.0
 10
92.146024
 20
134.831208
 30
0.0
 10
93.429640
 20
131.374728
 30
0.0
 10
94.502600
 20
130.722056
 30
0.0
 10
96.146568
 20
130.419352
 30
0.0
 10
97.896592
 20
130.497432
 30
0.0
 10
99.287736
 20
130.986976
 30
0.0
  0
LWPOLYLINE
  5
156
100
AcDbEntity
  8
Layer_1
 62
7
100
AcDbPolyline
 90
21
 70
0
 10
120.207496
 20
131.965960
 30
0.0
 10
121.217024
 20
132.640936
 30
0.0
 10
122.043744
 20
133.306888
 30
0.0
 10
122.602336
 20
133.887064
 30
0.0
 10
122.807496
 20
134.304728
 30
0.0
 10
121.895936
 20
135.618776
 30
0.0
 10
119.797160
 20
137.520272
 30
0.0
 10
117.465024
 20
139.231496
 30
0.0
 10
115.853368
 20
139.974728
 30
0.0
 10
114.803840
 20
139.491616
 30
0.0
 10
113.965000
 20
138.157480
 30
0.0
 10
113.408880
 20
136.145120
 30
0.0
 10
113.207496
 20
133.627320
 30
0.0
 10
113.264376
 20
131.846944
 30
0.0
 10
113.542552
 20
130.870600
 30
0.0
 10
114.203184
 20
130.460216
 30
0.0
 10
115.407456
 20
130.377720
 30
0.0
 10
116.466832
 20
130.503960
 30
0.0
 10
117.724960
 20
130.845480
 30
0.0
 10
119.024336
 20
131.350192
 30
0.0
 10
120.207496
 20
131.965960
 30
0.0
  0
LWPOLYLINE
  5
157
100
AcDbEntity
  8
Layer_1
 62
7
100
AcDbPolyline
 90
13
 70
0
 10
56.048320
 20
133.949032
 30
0.0
 10
57.141824
 20
138.032592
 30
0.0
 10
56.841936
 20
141.125992
 30
0.0
 10
55.325096
 20
142.769192
 30
0.0
 10
52.767744
 20
142.502176
 30
0.0
 10
50.598680
 20
140.646400
 30
0.0
 10
49.565440
 20
137.947552
 30
0.0
 10
49.757880
 20
135.008144
 30
0.0
 10
51.265840
 20
132.430672
 30
0.0
 10
52.670936
 20
131.411120
 30
0.0
 10
53.928024
 20
131.321672
 30
0.0
 10
55.049640
 20
132.166312
 30
0.0
 10
56.048320
 20
133.949032
 30
0.0
  0
LWPOLYLINE
  5
158
100
AcDbEntity
  8
Layer_1
 62
7
100
AcDbPolyline
 90
13
 70
0
 10
108.749152
 20
132.430672
 30
0.0
 10
110.257112
 20
135.008144
 30
0.0
 10
110.449552
 20
137.947560
 30
0.0
 10
109.416312
 20
140.646408
 30
0.0
 10
107.247248
 20
142.502176
 30
0.0
 10
104.689896
 20
142.769184
 30
0.0
 10
103.173056
 20
141.125984
 30
0.0
 10
102.873168
 20
138.032600
 30
0.0
 10
103.966672
 20
133.949032
 30
0.0
 10
104.965352
 20
132.166312
 30
0.0
 10
106.086968
 20
131.321672
 30
0.0
 10
107.344056
 20
131.411120
 30
0.0
 10
108.749152
 20
132.430672
 30
0.0
  0
LWPOLYLINE
  5
159
100
AcDbEntity
  8
Layer_1
 62
7
100
AcDbPolyline
 90
17
 70
0
 10
74.302432
 20
141.130488
 30
0.0
 10
74.152176
 20
142.640656
 30
0.0
 10
73.799656
 20
143.880696
 30
0.0
 10
73.226352
 20
144.895632
 30
0.0
 10
72.413808
 20
145.730488
 30
0.0
 10
70.578720
 20
146.730520
 30
0.0
 10
68.526400
 20
147.124584
 30
0.0
 10
66.628128
 20
146.897024
 30
0.0
 10
65.255192
 20
146.032200
 30
0.0
 10
64.982816
 20
143.608912
 30
0.0
 10
66.737944
 20
140.786776
 30
0.0
 10
69.639776
 20
138.526976
 30
0.0
 10
72.807496
 20
137.790696
 30
0.0
 10
73.609872
 20
138.010616
 30
0.0
 10
74.082208
 20
138.541656
 30
0.0
 10
74.290944
 20
139.532160
 30
0.0
 10
74.302432
 20
141.130488
 30
0.0
  0
LWPOLYLINE
  5
15a
100
AcDbEntity
  8
Layer_1
 62
7
100
AcDbPolyline
 90
17
 70
0
 10
90.833680
 20
138.788272
 30
0.0
 10
92.923680
 20
140.361432
 30
0.0
 10
94.441904
 20
142.401640
 30
0.0
 10
95.137544
 20
144.446152
 30
0.0
 10
94.759800
 20
146.032200
 30
0.0
 10
93.459328
 20
146.867848
 30
0.0
 10
91.645752
 20
147.130400
 30
0.0
 10
89.653608
 20
146.823736
 30
0.0
 10
87.817440
 20
145.951736
 30
0.0
 10
86.581736
 20
144.465928
 30
0.0
 10
85.671600
 20
142.298408
 30
0.0
 10
85.273880
 20
140.076280
 30
0.0
 10
85.575416
 20
138.426640
 30
0.0
 10
86.318504
 20
137.782736
 30
0.0
 10
87.445792
 20
137.628600
 30
0.0
 10
88.952456
 20
137.963888
 30
0.0
 10
90.833680
 20
138.788272
 30
0.0
  0
LWPOLYLINE
  5
15b
100
AcDbEntity
  8
Layer_1
 62
7
100
AcDbPolyline
 90
17
 70
0
 10
38.487736
 20
139.786976
 30
0.0
 10
38.906576
 20
140.161456
 30
0.0
 10
39.396280
 20
140.746584
 30
0.0
 10
39.895928
 20
141.462264
 30
0.0
 10
40.344592
 20
142.228376
 30
0.0
 10
40.743568
 20
144.176632
 30
0.0
 10
40.128384
 20
146.035232
 30
0.0
 10
38.732416
 20
147.426992
 30
0.0
 10
36.789056
 20
147.974728
 30
0.0
 10
35.092976
 20
147.555808
 30
0.0
 10
33.410312
 20
146.505776
 30
0.0
 10
32.121632
 20
145.134720
 30
0.0
 10
31.607496
 20
143.752736
 30
0.0
 10
32.322224
 20
141.547672
 30
0.0
 10
34.086776
 20
139.932888
 30
0.0
 10
36.331760
 20
139.236584
 30
0.0
 10
38.487736
 20
139.786976
 30
0.0
  0
LWPOLYLINE
  5
15c
100
AcDbEntity
  8
Layer_1
 62
7
100
AcDbPolyline
 90
13
 70
0
 10
127.162136
 20
140.952736
 30
0.0
 10
128.071864
 20
142.520488
 30
0.0
 10
128.324104
 20
143.822848
 30
0.0
 10
127.906696
 20
145.045648
 30
0.0
 10
126.807496
 20
146.374728
 30
0.0
 10
125.029320
 20
147.588216
 30
0.0
 10
123.150104
 20
147.927560
 30
0.0
 10
121.389984
 20
147.403896
 30
0.0
 10
119.969080
 20
146.028376
 30
0.0
 10
119.385560
 20
142.672928
 30
0.0
 10
121.263056
 20
140.092376
 30
0.0
 10
124.291824
 20
139.210920
 30
0.0
 10
127.162136
 20
140.952736
 30
0.0
  0
LWPOLYLINE
  5
15d
100
AcDbEntity
  8
Layer_1
 62
7
100
AcDbPolyline
 90
17
 70
0
 10
82.227824
 20
142.976192
 30
0.0
 10
83.534904
 20
144.827256
 30
0.0
 10
84.433096
 20
146.863624
 30
0.0
 10
84.787672
 20
148.671808
 30
0.0
 10
84.463896
 20
149.838336
 30
0.0
 10
82.778080
 20
150.424736
 30
0.0
 10
80.007504
 20
150.620200
 30
0.0
 10
77.236936
 20
150.424736
 30
0.0
 10
75.551112
 20
149.838336
 30
0.0
 10
75.283288
 20
147.909952
 30
0.0
 10
76.341080
 20
145.140136
 30
0.0
 10
78.117984
 20
142.653520
 30
0.0
 10
80.007504
 20
141.574728
 30
0.0
 10
80.477232
 20
141.685312
 30
0.0
 10
81.052432
 20
141.986408
 30
0.0
 10
81.660248
 20
142.432032
 30
0.0
 10
82.227824
 20
142.976192
 30
0.0
  0
LWPOLYLINE
  5
15e
100
AcDbEntity
  8
Layer_1
 62
7
100
AcDbPolyline
 90
17
 70
0
 10
82.944504
 20
154.898720
 30
0.0
 10
84.088248
 20
156.482720
 30
0.0
 10
84.351072
 20
158.217080
 30
0.0
 10
83.753320
 20
159.894752
 30
0.0
 10
82.315312
 20
161.308696
 30
0.0
 10
81.133760
 20
162.005448
 30
0.0
 10
80.220560
 20
162.261408
 30
0.0
 10
79.304736
 20
162.088936
 30
0.0
 10
78.115312
 20
161.500408
 30
0.0
 10
76.574896
 20
160.188616
 30
0.0
 10
75.825872
 20
158.545040
 30
0.0
 10
75.909536
 20
156.781240
 30
0.0
 10
76.867200
 20
155.108760
 30
0.0
 10
78.263096
 20
154.033488
 30
0.0
 10
79.816752
 20
153.637448
 30
0.0
 10
81.414952
 20
153.924568
 30
0.0
 10
82.944504
 20
154.898720
 30
0.0
  0
ENDSEC
  0
SECTION
  2
OBJECTS
  0
DICTIONARY
  5
C
330
0
100
AcDbDictionary
  3
ACAD_GROUP
350
D
  3
ACAD_MLINESTYLE
350
17
  0
DICTIONARY
  5
D
330
C
100
AcDbDictionary
  0
DICTIONARY
  5
1A
330
C
100
AcDbDictionary
  0
DICTIONARY
  5
17
330
C
100
AcDbDictionary
  3
STANDARD
350
18
  0
DICTIONARY
  5
19
330
C
100
AcDbDictionary
  0
ENDSEC
  0
EOF
