  0
SECTION
  2
HEADER
  9
$ACADVER
  1
AC1014
  9
$HANDSEED
  5
FFFF
  9
$MEASUREMENT
 70
     1
  0
ENDSEC
  0
SECTION
  2
TABLES
  0
TABLE
  2
VPORT
  5
8
330
0
100
AcDbSymbolTable
 70
     4
  0
VPORT
  5
2E
330
8
100
AcDbSymbolTableRecord
100
AcDbViewportTableRecord
  2
*ACTIVE
 70
     0
 10
0.0
 20
0.0
 11
1.0
 21
1.0
 12
210.0
 22
148.5
 13
0.0
 23
0.0
 14
10.0
 24
10.0
 15
10.0
 25
10.0
 16
0.0
 26
0.0
 36
1.0
 17
0.0
 27
0.0
 37
0.0
 40
341.0
 41
1.24
 42
50.0
 43
0.0
 44
0.0
 50
0.0
 51
0.0
 71
     0
 72
   100
 73
     1
 74
     3
 75
     0
 76
     0
 77
     0
 78
     0
  0
ENDTAB
  0
TABLE
  2
LTYPE
  5
5
330
0
100
AcDbSymbolTable
 70
     1
  0
LTYPE
  5
14
330
5
100
AcDbSymbolTableRecord
100
AcDbLinetypeTableRecord
  2
BYBLOCK
 70
     0
  3

 72
    65
 73
     0
 40
0.0
  0
LTYPE
  5
15
330
5
100
AcDbSymbolTableRecord
100
AcDbLinetypeTableRecord
  2
BYLAYER
 70
     0
  3

 72
    65
 73
     0
 40
0.0
  0
LTYPE
  5
16
330
5
100
AcDbSymbolTableRecord
100
AcDbLinetypeTableRecord
  2
CONTINUOUS
 70
     0
  3
Solid line
 72
    65
 73
     0
 40
0.0
  0
ENDTAB
  0
TABLE
  2
LAYER
  5
2
100
AcDbSymbolTable
 70
2
  0
LAYER
  5
50
100
AcDbSymbolTableRecord
100
AcDbLayerTableRecord
  2
0
 70
0
  6
CONTINUOUS
  0
LAYER
  5
51
100
AcDbSymbolTableRecord
100
AcDbLayerTableRecord
  2
Layer_1
 70
0
  6
CONTINUOUS
  0
ENDTAB
  0
TABLE
  2
STYLE
  5
3
330
0
100
AcDbSymbolTable
 70
     1
  0
STYLE
  5
11
330
3
100
AcDbSymbolTableRecord
100
AcDbTextStyleTableRecord
  2
STANDARD
 70
     0
 40
0.0
 41
1.0
 50
0.0
 71
     0
 42
2.5
  3
txt
  4

  0
ENDTAB
  0
TABLE
  2
VIEW
  5
6
330
0
100
AcDbSymbolTable
 70
     0
  0
ENDTAB
  0
TABLE
  2
UCS
  5
7
330
0
100
AcDbSymbolTable
 70
     0
  0
ENDTAB
  0
TABLE
  2
APPID
  5
9
330
0
100
AcDbSymbolTable
 70
     2
  0
APPID
  5
12
330
9
100
AcDbSymbolTableRecord
100
AcDbRegAppTableRecord
  2
ACAD
 70
     0
  0
ENDTAB
  0
TABLE
  2
DIMSTYLE
  5
A
330
0
100
AcDbSymbolTable
 70
     1
  0
DIMSTYLE
105
27
330
A
100
AcDbSymbolTableRecord
100
AcDbDimStyleTableRecord
  2
ISO-25
 70
     0
  3

  4

  5

  6

  7

 40
1.0
 41
2.5
 42
0.625
 43
3.75
 44
1.25
 45
0.0
 46
0.0
 47
0.0
 48
0.0
140
2.5
141
2.5
142
0.0
143
0.03937007874016
144
1.0
145
0.0
146
1.0
147
0.625
 71
     0
 72
     0
 73
     0
 74
     0
 75
     0
 76
     0
 77
     1
 78
     8
170
     0
171
     3
172
     1
173
     0
174
     0
175
     0
176
     0
177
     0
178
     0
270
     2
271
     2
272
     2
273
     2
274
     3
340
11
275
     0
280
     0
281
     0
282
     0
283
     0
284
     8
285
     0
286
     0
287
     3
288
     0
  0
ENDTAB
  0
TABLE
  2
BLOCK_RECORD
  5
1
330
0
100
AcDbSymbolTable
 70
     1
  0
BLOCK_RECORD
  5
1F
330
1
100
AcDbSymbolTableRecord
100
AcDbBlockTableRecord
  2
*MODEL_SPACE
  0
BLOCK_RECORD
  5
1B
330
1
100
AcDbSymbolTableRecord
100
AcDbBlockTableRecord
  2
*PAPER_SPACE
  0
ENDTAB
  0
ENDSEC
  0
SECTION
  2
BLOCKS
  0
BLOCK
  5
20
330
1F
100
AcDbEntity
  8
0
100
AcDbBlockBegin
  2
*MODEL_SPACE
 70
     0
 10
0.0
 20
0.0
 30
0.0
  3
*MODEL_SPACE
  1

  0
ENDBLK
  5
21
330
1F
100
AcDbEntity
  8
0
100
AcDbBlockEnd
  0
BLOCK
  5
1C
330
1B
100
AcDbEntity
 67
     1
  8
0
100
AcDbBlockBegin
  2
*PAPER_SPACE
  1

  0
ENDBLK
  5
1D
330
1B
100
AcDbEntity
 67
     1
  8
0
100
AcDbBlockEnd
  0
ENDSEC
  0
SECTION
  2
ENTITIES
  0
LWPOLYLINE
  5
100
100
AcDbEntity
  8
Layer_1
 62
7
100
AcDbPolyline
 90
3
 70
0
 10
199.960784
 20
4.600000
 30
0.0
 10
197.731264
 20
9.200000
 30
0.0
 10
194.531264
 20
10.141320
 30
0.0
  0
SPLINE
  5
101
100
AcDbEntity
  8
Layer_1
 62
7
100
AcDbSpline
 70
0
 71
3
 72
10
 73
6
 74
4
 40
0.000000
 40
0.000000
 40
0.000000
 40
0.000000
 40
2.094305
 40
4.380696
 40
6.366687
 40
6.366687
 40
6.366687
 40
6.366687
 10
194.531264
 20
10.141320
 30
0.0
 10
193.858067
 20
10.326227
 30
0.0
 10
192.449927
 20
10.713000
 30
0.0
 10
190.381973
 20
11.194047
 30
0.0
 10
188.982022
 20
11.455864
 30
0.0
 10
188.331264
 20
11.577568
 30
0.0
 11
194.531264
 21
10.141320
 31
0.0
 11
192.508301
 21
10.683291
 31
0.0
 11
190.280894
 21
11.199277
 31
0.0
 11
188.331264
 21
11.577568
 31
0.0
  0
LWPOLYLINE
  5
102
100
AcDbEntity
  8
Layer_1
 62
7
100
AcDbPolyline
 90
3
 70
0
 10
188.331264
 20
11.577568
 30
0.0
 10
185.331264
 20
12.072504
 30
0.0
 10
185.331264
 20
13.469688
 30
0.0
  0
SPLINE
  5
103
100
AcDbEntity
  8
Layer_1
 62
7
100
AcDbSpline
 70
0
 71
3
 72
10
 73
6
 74
4
 40
0.000000
 40
0.000000
 40
0.000000
 40
0.000000
 40
1.286299
 40
3.479487
 40
6.157823
 40
6.157823
 40
6.157823
 40
6.157823
 10
185.331264
 20
13.469688
 30
0.0
 10
185.479798
 20
13.874177
 30
0.0
 10
185.881587
 20
14.968337
 30
0.0
 10
187.210772
 20
16.574063
 30
0.0
 10
188.320914
 20
17.752243
 30
0.0
 10
188.931264
 20
18.400000
 30
0.0
 11
185.331264
 21
13.469688
 31
0.0
 11
185.824597
 21
14.657622
 31
0.0
 11
187.117931
 21
16.428882
 31
0.0
 11
188.931264
 21
18.400000
 31
0.0
  0
LWPOLYLINE
  5
104
100
AcDbEntity
  8
Layer_1
 62
7
100
AcDbPolyline
 90
3
 70
0
 10
188.931264
 20
18.400000
 30
0.0
 10
192.531264
 20
21.933136
 30
0.0
 10
192.523264
 20
24.766568
 30
0.0
  0
SPLINE
  5
105
100
AcDbEntity
  8
Layer_1
 62
7
100
AcDbSpline
 70
0
 71
3
 72
10
 73
6
 74
4
 40
0.000000
 40
0.000000
 40
0.000000
 40
0.000000
 40
1.844092
 40
3.967113
 40
5.920659
 40
5.920659
 40
5.920659
 40
5.920659
 10
192.523264
 20
24.766568
 30
0.0
 10
192.493936
 20
25.380779
 30
0.0
 10
192.430843
 20
26.702104
 30
0.0
 10
192.143677
 20
28.658980
 30
0.0
 10
191.831124
 20
29.981659
 30
0.0
 10
191.681344
 20
30.615504
 30
0.0
 11
192.523264
 21
24.766568
 31
0.0
 11
192.407335
 21
26.607012
 31
0.0
 11
192.104313
 21
28.708297
 31
0.0
 11
191.681344
 21
30.615504
 31
0.0
  0
LWPOLYLINE
  5
106
100
AcDbEntity
  8
Layer_1
 62
7
100
AcDbPolyline
 90
3
 70
0
 10
191.681344
 20
30.615504
 30
0.0
 10
190.843904
 20
33.631008
 30
0.0
 10
185.954864
 20
38.857448
 30
0.0
  0
SPLINE
  5
107
100
AcDbEntity
  8
Layer_1
 62
7
100
AcDbSpline
 70
0
 71
3
 72
10
 73
6
 74
4
 40
0.000000
 40
0.000000
 40
0.000000
 40
0.000000
 40
3.810995
 40
6.926160
 40
8.680989
 40
8.680989
 40
8.680989
 40
8.680989
 10
185.954864
 20
38.857448
 30
0.0
 10
185.073963
 20
39.771939
 30
0.0
 10
183.473001
 20
41.433949
 30
0.0
 10
181.419690
 20
43.481823
 30
0.0
 10
180.133217
 20
44.473668
 30
0.0
 10
179.669656
 20
44.831064
 30
0.0
 11
185.954864
 21
38.857448
 31
0.0
 11
183.300875
 21
41.592412
 31
0.0
 11
181.042866
 21
43.738489
 31
0.0
 11
179.669656
 21
44.831064
 31
0.0
  0
LWPOLYLINE
  5
108
100
AcDbEntity
  8
Layer_1
 62
7
100
AcDbPolyline
 90
3
 70
0
 10
179.669656
 20
44.831064
 30
0.0
 10
178.273528
 20
45.578248
 30
0.0
 10
173.805712
 20
43.532816
 30
0.0
  0
SPLINE
  5
109
100
AcDbEntity
  8
Layer_1
 62
7
100
AcDbSpline
 70
0
 71
3
 72
10
 73
6
 74
4
 40
0.000000
 40
0.000000
 40
0.000000
 40
0.000000
 40
2.688765
 40
5.032237
 40
6.561224
 40
6.561224
 40
6.561224
 40
6.561224
 10
173.805712
 20
43.532816
 30
0.0
 10
172.978914
 20
43.190074
 30
0.0
 10
171.431495
 20
42.548606
 30
0.0
 10
169.334338
 20
41.863199
 30
0.0
 10
168.042761
 20
41.777518
 30
0.0
 10
167.532800
 20
41.743688
 30
0.0
 11
173.805712
 21
43.532816
 31
0.0
 11
171.307894
 21
42.537645
 31
0.0
 11
169.054293
 21
41.894885
 31
0.0
 11
167.532800
 21
41.743688
 31
0.0
  0
LWPOLYLINE
  5
10a
100
AcDbEntity
  8
Layer_1
 62
7
100
AcDbPolyline
 90
5
 70
0
 10
167.532800
 20
41.743688
 30
0.0
 10
165.728032
 20
42.000000
 30
0.0
 10
165.728032
 20
48.355656
 30
0.0
 10
165.728032
 20
54.711320
 30
0.0
 10
163.069424
 20
56.515432
 30
0.0
  0
SPLINE
  5
10b
100
AcDbEntity
  8
Layer_1
 62
7
100
AcDbSpline
 70
0
 71
3
 72
13
 73
9
 74
7
 40
0.000000
 40
0.000000
 40
0.000000
 40
0.000000
 40
2.095075
 40
4.538848
 40
6.838634
 40
9.258516
 40
12.010314
 40
14.521832
 40
14.521832
 40
14.521832
 40
14.521832
 10
163.069424
 20
56.515432
 30
0.0
 10
162.461088
 20
56.859926
 30
0.0
 10
161.143168
 20
57.606251
 30
0.0
 10
158.987911
 20
58.389217
 30
0.0
 10
156.651742
 20
58.887868
 30
0.0
 10
154.211945
 20
59.394226
 30
0.0
 10
151.777666
 20
60.218137
 30
0.0
 10
150.188300
 20
60.962487
 30
0.0
 10
149.429896
 20
61.317672
 30
0.0
 11
163.069424
 21
56.515432
 31
0.0
 11
161.220440
 21
57.500621
 31
0.0
 11
158.928728
 21
58.349198
 31
0.0
 11
156.690432
 21
58.877448
 31
0.0
 11
154.331335
 21
59.416415
 31
0.0
 11
151.722919
 21
60.293089
 31
0.0
 11
149.429896
 21
61.317672
 31
0.0
  0
LWPOLYLINE
  5
10c
100
AcDbEntity
  8
Layer_1
 62
7
100
AcDbPolyline
 90
5
 70
0
 10
149.429896
 20
61.317672
 30
0.0
 10
145.889728
 20
63.200000
 30
0.0
 10
142.875048
 20
63.200000
 30
0.0
 10
139.860368
 20
63.200000
 30
0.0
 10
138.470536
 20
59.560792
 30
0.0
  0
SPLINE
  5
10d
100
AcDbEntity
  8
Layer_1
 62
7
100
AcDbSpline
 70
0
 71
3
 72
10
 73
6
 74
4
 40
0.000000
 40
0.000000
 40
0.000000
 40
0.000000
 40
2.268803
 40
4.503493
 40
6.266050
 40
6.266050
 40
6.266050
 40
6.266050
 10
138.470536
 20
59.560792
 30
0.0
 10
138.161716
 20
58.870577
 30
0.0
 10
137.548720
 20
57.500525
 30
0.0
 10
136.432875
 20
55.713507
 30
0.0
 10
135.493022
 20
54.764976
 30
0.0
 10
135.078600
 20
54.346728
 30
0.0
 11
138.470536
 21
59.560792
 31
0.0
 11
137.496114
 21
57.511897
 31
0.0
 11
136.277529
 21
55.638695
 31
0.0
 11
135.078600
 21
54.346728
 31
0.0
  0
LWPOLYLINE
  5
10e
100
AcDbEntity
  8
Layer_1
 62
7
100
AcDbPolyline
 90
3
 70
0
 10
135.078600
 20
54.346728
 30
0.0
 10
133.076488
 20
52.771864
 30
0.0
 10
131.505728
 20
53.814808
 30
0.0
  0
SPLINE
  5
10f
100
AcDbEntity
  8
Layer_1
 62
7
100
AcDbSpline
 70
0
 71
3
 72
13
 73
9
 74
7
 40
0.000000
 40
0.000000
 40
0.000000
 40
0.000000
 40
1.451703
 40
3.499262
 40
5.729107
 40
7.853485
 40
9.610001
 40
10.623324
 40
10.623324
 40
10.623324
 40
10.623324
 10
131.505728
 20
53.814808
 30
0.0
 10
131.145815
 20
54.139849
 30
0.0
 10
130.278263
 20
54.923346
 30
0.0
 10
129.162717
 20
56.489169
 30
0.0
 10
128.066983
 20
58.318538
 30
0.0
 10
127.097762
 20
60.109883
 30
0.0
 10
126.273634
 20
61.521317
 30
0.0
 10
125.719671
 20
62.260573
 30
0.0
 10
125.517008
 20
62.531024
 30
0.0
 11
131.505728
 21
53.814808
 31
0.0
 11
130.458036
 21
54.819687
 31
0.0
 11
129.221298
 21
56.451551
 31
0.0
 11
128.063264
 21
58.357112
 31
0.0
 11
127.028044
 21
60.212187
 31
0.0
 11
126.113278
 21
61.711704
 31
0.0
 11
125.517008
 21
62.531024
 31
0.0
  0
LWPOLYLINE
  5
110
100
AcDbEntity
  8
Layer_1
 62
7
100
AcDbPolyline
 90
3
 70
0
 10
125.517008
 20
62.531024
 30
0.0
 10
124.842456
 20
63.205576
 30
0.0
 10
117.285240
 20
61.913024
 30
0.0
  0
SPLINE
  5
111
100
AcDbEntity
  8
Layer_1
 62
7
100
AcDbSpline
 70
0
 71
3
 72
10
 73
6
 74
4
 40
0.000000
 40
0.000000
 40
0.000000
 40
0.000000
 40
6.674552
 40
11.141831
 40
15.737185
 40
15.737185
 40
15.737185
 40
15.737185
 10
117.285240
 20
61.913024
 30
0.0
 10
115.091644
 20
61.548222
 30
0.0
 10
111.429873
 20
60.939259
 30
0.0
 10
106.432309
 20
59.070462
 30
0.0
 10
104.166547
 20
57.034014
 30
0.0
 10
103.017656
 20
56.001400
 30
0.0
 11
117.285240
 21
61.913024
 31
0.0
 11
110.748781
 21
60.562342
 31
0.0
 11
106.621737
 21
58.852344
 31
0.0
 11
103.017656
 21
56.001400
 31
0.0
  0
LWPOLYLINE
  5
112
100
AcDbEntity
  8
Layer_1
 62
7
100
AcDbPolyline
 90
5
 70
0
 10
103.017656
 20
56.001400
 30
0.0
 10
100.307280
 20
53.488568
 30
0.0
 10
100.828880
 20
47.234184
 30
0.0
 10
101.350472
 20
40.979792
 30
0.0
 10
100.221992
 20
40.546752
 30
0.0
  0
SPLINE
  5
113
100
AcDbEntity
  8
Layer_1
 62
7
100
AcDbSpline
 70
0
 71
3
 72
10
 73
6
 74
4
 40
0.000000
 40
0.000000
 40
0.000000
 40
0.000000
 40
1.269838
 40
3.610990
 40
6.560073
 40
6.560073
 40
6.560073
 40
6.560073
 10
100.221992
 20
40.546752
 30
0.0
 10
99.797474
 20
40.568222
 30
0.0
 10
98.590288
 20
40.629277
 30
0.0
 10
96.523705
 20
41.430413
 30
0.0
 10
94.910224
 20
42.128907
 30
0.0
 10
94.010776
 20
42.518288
 30
0.0
 11
100.221992
 21
40.546752
 31
0.0
 11
98.957049
 21
40.658147
 31
0.0
 11
96.725612
 21
41.366440
 31
0.0
 11
94.010776
 21
42.518288
 31
0.0
  0
LWPOLYLINE
  5
114
100
AcDbEntity
  8
Layer_1
 62
7
100
AcDbPolyline
 90
3
 70
0
 10
94.010776
 20
42.518288
 30
0.0
 10
88.928032
 20
44.922848
 30
0.0
 10
85.728032
 20
43.234832
 30
0.0
  0
SPLINE
  5
115
100
AcDbEntity
  8
Layer_1
 62
7
100
AcDbSpline
 70
0
 71
3
 72
10
 73
6
 74
4
 40
0.000000
 40
0.000000
 40
0.000000
 40
0.000000
 40
2.172811
 40
4.391977
 40
6.177920
 40
6.177920
 40
6.177920
 40
6.177920
 10
85.728032
 20
43.234832
 30
0.0
 10
85.090397
 20
42.891334
 30
0.0
 10
83.801524
 20
42.197009
 30
0.0
 10
82.008358
 20
41.183758
 30
0.0
 10
80.865798
 20
40.493102
 30
0.0
 10
80.356312
 20
40.185128
 30
0.0
 11
85.728032
 21
43.234832
 31
0.0
 11
83.818575
 21
42.197971
 31
0.0
 11
81.888735
 21
41.102336
 31
0.0
 11
80.356312
 21
40.185128
 31
0.0
  0
LWPOLYLINE
  5
116
100
AcDbEntity
  8
Layer_1
 62
7
100
AcDbPolyline
 90
5
 70
0
 10
80.356312
 20
40.185128
 30
0.0
 10
78.184592
 20
38.823440
 30
0.0
 10
77.248256
 20
39.759776
 30
0.0
 10
76.311928
 20
40.696104
 30
0.0
 10
77.219976
 20
44.302312
 30
0.0
  0
SPLINE
  5
117
100
AcDbEntity
  8
Layer_1
 62
7
100
AcDbSpline
 70
0
 71
3
 72
10
 73
6
 74
4
 40
0.000000
 40
0.000000
 40
0.000000
 40
0.000000
 40
2.190938
 40
4.366289
 40
6.064066
 40
6.064066
 40
6.064066
 40
6.064066
 10
77.219976
 20
44.302312
 30
0.0
 10
77.379782
 20
45.014896
 30
0.0
 10
77.698258
 20
46.434996
 30
0.0
 10
78.019070
 20
48.434359
 30
0.0
 10
78.094825
 20
49.723739
 30
0.0
 10
78.128032
 20
50.288936
 30
0.0
 11
77.219976
 21
44.302312
 31
0.0
 11
77.677368
 21
46.444974
 31
0.0
 11
78.003595
 21
48.595725
 31
0.0
 11
78.128032
 21
50.288936
 31
0.0
  0
LWPOLYLINE
  5
118
100
AcDbEntity
  8
Layer_1
 62
7
100
AcDbPolyline
 90
3
 70
0
 10
78.128032
 20
50.288936
 30
0.0
 10
78.128032
 20
52.669352
 30
0.0
 10
74.528032
 20
56.886864
 30
0.0
  0
SPLINE
  5
119
100
AcDbEntity
  8
Layer_1
 62
7
100
AcDbSpline
 70
0
 71
3
 72
10
 73
6
 74
4
 40
0.000000
 40
0.000000
 40
0.000000
 40
0.000000
 40
5.508174
 40
7.744758
 40
13.617589
 40
13.617589
 40
13.617589
 40
13.617589
 10
74.528032
 20
56.886864
 30
0.0
 10
72.810474
 20
58.218751
 30
0.0
 10
70.395505
 20
60.091448
 30
0.0
 10
72.614351
 20
64.843906
 30
0.0
 10
75.696817
 20
64.596513
 30
0.0
 10
77.929136
 20
64.417352
 30
0.0
 11
74.528032
 21
56.886864
 31
0.0
 11
71.235222
 21
61.302448
 31
0.0
 11
72.155823
 21
63.340781
 31
0.0
 11
77.929136
 21
64.417352
 31
0.0
  0
LWPOLYLINE
  5
11a
100
AcDbEntity
  8
Layer_1
 62
7
100
AcDbPolyline
 90
3
 70
0
 10
77.929136
 20
64.417352
 30
0.0
 10
82.130240
 20
64.950448
 30
0.0
 10
83.614608
 20
66.837512
 30
0.0
  0
SPLINE
  5
11b
100
AcDbEntity
  8
Layer_1
 62
7
100
AcDbSpline
 70
0
 71
3
 72
10
 73
6
 74
4
 40
0.000000
 40
0.000000
 40
0.000000
 40
0.000000
 40
1.707528
 40
3.909267
 40
6.151721
 40
6.151721
 40
6.151721
 40
6.151721
 10
83.614608
 20
66.837512
 30
0.0
 10
83.922912
 20
67.316737
 30
0.0
 10
84.628752
 20
68.413891
 30
0.0
 10
85.448412
 20
70.303674
 30
0.0
 10
85.904568
 20
71.712878
 30
0.0
 10
86.134736
 20
72.423936
 30
0.0
 11
83.614608
 21
66.837512
 31
0.0
 11
84.504231
 21
68.294984
 31
0.0
 11
85.409609
 21
70.301958
 31
0.0
 11
86.134736
 21
72.423936
 31
0.0
  0
LWPOLYLINE
  5
11c
100
AcDbEntity
  8
Layer_1
 62
7
100
AcDbPolyline
 90
3
 70
0
 10
86.134736
 20
72.423936
 30
0.0
 10
87.170488
 20
76.123296
 30
0.0
 10
86.281896
 20
83.340360
 30
0.0
  0
SPLINE
  5
11d
100
AcDbEntity
  8
Layer_1
 62
7
100
AcDbSpline
 70
0
 71
3
 72
13
 73
9
 74
7
 40
0.000000
 40
0.000000
 40
0.000000
 40
0.000000
 40
6.330566
 40
9.720527
 40
14.131886
 40
19.805650
 40
22.645383
 40
28.536047
 40
28.536047
 40
28.536047
 40
28.536047
 10
86.281896
 20
83.340360
 30
0.0
 10
86.166985
 20
85.461555
 30
0.0
 10
85.990541
 20
88.718632
 30
0.0
 10
83.316800
 20
93.040128
 30
0.0
 10
78.729583
 20
93.795954
 30
0.0
 10
73.708252
 20
93.968976
 30
0.0
 10
72.121636
 20
99.326128
 30
0.0
 10
74.547376
 20
101.464287
 30
0.0
 10
76.184096
 20
102.906968
 30
0.0
 11
86.281896
 21
83.340360
 31
0.0
 11
85.231964
 21
89.583252
 31
0.0
 11
83.287286
 21
92.359953
 31
0.0
 11
79.066560
 21
93.642744
 31
0.0
 11
73.659742
 21
95.362605
 31
0.0
 11
72.816082
 21
98.074121
 31
0.0
 11
76.184096
 21
102.906968
 31
0.0
  0
LWPOLYLINE
  5
11e
100
AcDbEntity
  8
Layer_1
 62
7
100
AcDbPolyline
 90
3
 70
0
 10
76.184096
 20
102.906968
 30
0.0
 10
79.840160
 20
107.186432
 30
0.0
 10
79.286512
 20
108.993216
 30
0.0
  0
SPLINE
  5
11f
100
AcDbEntity
  8
Layer_1
 62
7
100
AcDbSpline
 70
0
 71
3
 72
16
 73
12
 74
10
 40
0.000000
 40
0.000000
 40
0.000000
 40
0.000000
 40
1.489990
 40
3.613495
 40
5.928736
 40
8.745717
 40
12.178413
 40
15.486682
 40
18.522094
 40
21.250770
 40
23.108399
 40
23.108399
 40
23.108399
 40
23.108399
 10
79.286512
 20
108.993216
 30
0.0
 10
79.085392
 20
109.448010
 30
0.0
 10
78.597638
 20
110.550966
 30
0.0
 10
77.506353
 20
112.208333
 30
0.0
 10
76.047312
 20
114.135364
 30
0.0
 10
74.298192
 20
116.392809
 30
0.0
 10
72.459533
 20
118.995883
 30
0.0
 10
70.683332
 20
121.729365
 30
0.0
 10
68.965381
 20
124.215143
 30
0.0
 10
67.389999
 20
126.224026
 30
0.0
 10
66.239574
 20
127.234445
 30
0.0
 10
65.773608
 20
127.643704
 30
0.0
 11
79.286512
 21
108.993216
 31
0.0
 11
78.652993
 21
110.341817
 31
0.0
 11
77.524354
 21
112.140551
 31
0.0
 11
76.144936
 21
114.000000
 31
0.0
 11
74.438978
 21
116.241672
 31
0.0
 11
72.454278
 21
119.042451
 31
0.0
 11
70.620512
 21
121.795984
 31
0.0
 11
68.879587
 21
124.282529
 31
0.0
 11
67.138293
 21
126.383378
 31
0.0
 11
65.773608
 21
127.643704
 31
0.0
  0
LWPOLYLINE
  5
120
100
AcDbEntity
  8
Layer_1
 62
7
100
AcDbPolyline
 90
11
 70
0
 10
65.773608
 20
127.643704
 30
0.0
 10
63.863200
 20
128.895448
 30
0.0
 10
59.729872
 20
126.800928
 30
0.0
 10
55.596536
 20
124.706416
 30
0.0
 10
53.462280
 20
124.953208
 30
0.0
 10
51.328032
 20
125.200000
 30
0.0
 10
51.328032
 20
131.600000
 30
0.0
 10
51.328032
 20
138.000000
 30
0.0
 10
43.839856
 20
141.800000
 30
0.0
 10
36.351680
 20
145.600000
 30
0.0
 10
32.491936
 20
145.600000
 30
0.0
  0
SPLINE
  5
121
100
AcDbEntity
  8
Layer_1
 62
7
100
AcDbSpline
 70
0
 71
3
 72
10
 73
6
 74
4
 40
0.000000
 40
0.000000
 40
0.000000
 40
0.000000
 40
2.233859
 40
4.392014
 40
6.025936
 40
6.025936
 40
6.025936
 40
6.025936
 10
32.491936
 20
145.600000
 30
0.0
 10
31.747913
 20
145.574125
 30
0.0
 10
30.285082
 20
145.523253
 30
0.0
 10
28.282695
 20
145.286382
 30
0.0
 10
27.063176
 20
144.949035
 30
0.0
 10
26.537712
 20
144.803680
 30
0.0
 11
32.491936
 21
145.600000
 31
0.0
 11
30.260744
 21
145.490875
 31
0.0
 11
28.121634
 21
145.204789
 31
0.0
 11
26.537712
 21
144.803680
 31
0.0
  0
LWPOLYLINE
  5
122
100
AcDbEntity
  8
Layer_1
 62
7
100
AcDbPolyline
 90
3
 70
0
 10
26.537712
 20
144.803680
 30
0.0
 10
24.443240
 20
144.007368
 30
0.0
 10
22.570016
 20
139.771664
 30
0.0
  0
SPLINE
  5
123
100
AcDbEntity
  8
Layer_1
 62
7
100
AcDbSpline
 70
0
 71
3
 72
10
 73
6
 74
4
 40
0.000000
 40
0.000000
 40
0.000000
 40
0.000000
 40
2.526416
 40
4.707373
 40
6.091986
 40
6.091986
 40
6.091986
 40
6.091986
 10
22.570016
 20
139.771664
 30
0.0
 10
22.208448
 20
139.011957
 30
0.0
 10
21.534751
 20
137.596423
 30
0.0
 10
20.556618
 20
135.804113
 30
0.0
 10
19.791340
 20
134.892052
 30
0.0
 10
19.494160
 20
134.537872
 30
0.0
 11
22.570016
 21
139.771664
 31
0.0
 11
21.461656
 21
137.501352
 31
0.0
 11
20.356626
 21
135.621064
 31
0.0
 11
19.494160
 21
134.537872
 31
0.0
  0
LWPOLYLINE
  5
124
100
AcDbEntity
  8
Layer_1
 62
7
100
AcDbPolyline
 90
3
 70
0
 10
19.494160
 20
134.537872
 30
0.0
 10
18.291528
 20
133.539776
 30
0.0
 10
16.780496
 20
135.460744
 30
0.0
  0
SPLINE
  5
125
100
AcDbEntity
  8
Layer_1
 62
7
100
AcDbSpline
 70
0
 71
3
 72
10
 73
6
 74
4
 40
0.000000
 40
0.000000
 40
0.000000
 40
0.000000
 40
1.711786
 40
3.861788
 40
5.993326
 40
5.993326
 40
5.993326
 40
5.993326
 10
16.780496
 20
135.460744
 30
0.0
 10
16.452636
 20
135.928020
 30
0.0
 10
15.712985
 20
136.982194
 30
0.0
 10
14.727855
 20
138.724150
 30
0.0
 10
14.106029
 20
140.008734
 30
0.0
 10
13.796456
 20
140.648256
 30
0.0
 11
16.780496
 21
135.460744
 31
0.0
 11
15.817524
 21
136.875982
 31
0.0
 11
14.745481
 21
138.739642
 31
0.0
 11
13.796456
 21
140.648256
 31
0.0
  0
LWPOLYLINE
  5
126
100
AcDbEntity
  8
Layer_1
 62
7
100
AcDbPolyline
 90
3
 70
0
 10
13.796456
 20
140.648256
 30
0.0
 10
12.323456
 20
143.914792
 30
0.0
 10
9.906360
 20
144.757400
 30
0.0
  0
SPLINE
  5
127
100
AcDbEntity
  8
Layer_1
 62
7
100
AcDbSpline
 70
0
 71
3
 72
13
 73
9
 74
7
 40
0.000000
 40
0.000000
 40
0.000000
 40
0.000000
 40
1.477508
 40
2.896925
 40
3.961271
 40
4.975351
 40
6.269517
 40
7.579914
 40
7.579914
 40
7.579914
 40
7.579914
 10
9.906360
 20
144.757400
 30
0.0
 10
9.436532
 20
144.904694
 30
0.0
 10
8.515348
 20
145.193491
 30
0.0
 10
7.225473
 20
145.496609
 30
0.0
 10
6.062810
 20
145.595031
 30
0.0
 10
4.942982
 20
145.711925
 30
0.0
 10
3.775956
 20
146.040483
 30
0.0
 10
2.970773
 20
146.365097
 30
0.0
 10
2.565672
 20
146.528416
 30
0.0
 11
9.906360
 21
144.757400
 31
0.0
 11
8.491123
 21
145.181822
 31
0.0
 11
7.104360
 21
145.484533
 31
0.0
 11
6.046296
 21
145.600000
 31
0.0
 11
5.040228
 21
145.727227
 31
0.0
 11
3.789782
 21
146.060768
 31
0.0
 11
2.565672
 21
146.528416
 31
0.0
  0
LWPOLYLINE
  5
128
100
AcDbEntity
  8
Layer_1
 62
7
100
AcDbPolyline
 90
3
 70
0
 10
2.565672
 20
146.528416
 30
0.0
 10
0.528032
 20
147.456824
 30
0.0
 10
0.528032
 20
148.833464
 30
0.0
  0
SPLINE
  5
129
100
AcDbEntity
  8
Layer_1
 62
7
100
AcDbSpline
 70
0
 71
3
 72
13
 73
9
 74
7
 40
0.000000
 40
0.000000
 40
0.000000
 40
0.000000
 40
1.065420
 40
2.700924
 40
4.626464
 40
6.689941
 40
8.681638
 40
10.212427
 40
10.212427
 40
10.212427
 40
10.212427
 10
0.528032
 20
148.833464
 30
0.0
 10
0.640719
 20
149.173259
 30
0.0
 10
0.926391
 20
150.034665
 30
0.0
 10
1.993116
 20
151.200717
 30
0.0
 10
3.410363
 20
152.412866
 30
0.0
 10
4.930966
 20
153.705158
 30
0.0
 10
6.188594
 20
155.100444
 30
0.0
 10
6.752455
 20
156.133688
 30
0.0
 10
6.997496
 20
156.582712
 30
0.0
 11
0.528032
 21
148.833464
 31
0.0
 11
0.918545
 21
149.824736
 31
0.0
 11
1.942322
 21
151.100179
 31
0.0
 11
3.377720
 21
152.383664
 31
0.0
 11
4.918650
 21
153.756061
 31
0.0
 11
6.219089
 21
155.264609
 31
0.0
 11
6.997496
 21
156.582712
 31
0.0
  0
LWPOLYLINE
  5
12a
100
AcDbEntity
  8
Layer_1
 62
7
100
AcDbPolyline
 90
7
 70
0
 10
6.997496
 20
156.582712
 30
0.0
 10
7.767584
 20
158.608200
 30
0.0
 10
6.834528
 20
163.350824
 30
0.0
 10
5.901480
 20
168.093448
 30
0.0
 10
6.819216
 20
169.011192
 30
0.0
 10
7.736960
 20
169.928928
 30
0.0
 10
12.150216
 20
167.764464
 30
0.0
  0
SPLINE
  5
12b
100
AcDbEntity
  8
Layer_1
 62
7
100
AcDbSpline
 70
0
 71
3
 72
10
 73
6
 74
4
 40
0.000000
 40
0.000000
 40
0.000000
 40
0.000000
 40
5.059210
 40
8.812254
 40
13.189720
 40
13.189720
 40
13.189720
 40
13.189720
 10
12.150216
 20
167.764464
 30
0.0
 10
13.678100
 20
167.020213
 30
0.0
 10
16.339405
 20
165.723858
 30
0.0
 10
20.943938
 20
165.657242
 30
0.0
 10
23.301888
 20
167.093252
 30
0.0
 10
24.571408
 20
167.866400
 30
0.0
 11
12.150216
 21
167.764464
 31
0.0
 11
16.870671
 21
165.944323
 31
0.0
 11
20.623588
 21
165.975122
 31
0.0
 11
24.571408
 21
167.866400
 31
0.0
  0
LWPOLYLINE
  5
12c
100
AcDbEntity
  8
Layer_1
 62
7
100
AcDbPolyline
 90
3
 70
0
 10
24.571408
 20
167.866400
 30
0.0
 10
28.128032
 20
170.132792
 30
0.0
 10
31.928032
 20
176.935008
 30
0.0
  0
SPLINE
  5
12d
100
AcDbEntity
  8
Layer_1
 62
7
100
AcDbSpline
 70
0
 71
3
 72
13
 73
9
 74
7
 40
0.000000
 40
0.000000
 40
0.000000
 40
0.000000
 40
6.811767
 40
10.241447
 40
14.523644
 40
17.053019
 40
19.260793
 40
20.691413
 40
20.691413
 40
20.691413
 40
20.691413
 10
31.928032
 20
176.935008
 30
0.0
 10
33.156329
 20
178.833520
 30
0.0
 10
35.003065
 20
181.687919
 30
0.0
 10
35.739370
 20
186.925665
 30
0.0
 10
32.837787
 20
189.339239
 30
0.0
 10
30.922245
 20
191.583602
 30
0.0
 10
29.610598
 20
193.192633
 30
0.0
 10
29.053258
 20
194.271644
 30
0.0
 10
28.834112
 20
194.695912
 30
0.0
 11
31.928032
 21
176.935008
 31
0.0
 11
35.025649
 21
183.001716
 31
0.0
 11
35.186679
 21
186.427612
 31
0.0
 11
32.532152
 21
189.787776
 31
0.0
 11
30.853564
 21
191.679888
 31
0.0
 11
29.525009
 21
193.443182
 31
0.0
 11
28.834112
 21
194.695912
 31
0.0
  0
LWPOLYLINE
  5
12e
100
AcDbEntity
  8
Layer_1
 62
7
100
AcDbPolyline
 90
3
 70
0
 10
28.834112
 20
194.695912
 30
0.0
 10
28.331952
 20
196.278088
 30
0.0
 10
29.691864
 20
197.272480
 30
0.0
  0
SPLINE
  5
12f
100
AcDbEntity
  8
Layer_1
 62
7
100
AcDbSpline
 70
0
 71
3
 72
10
 73
6
 74
4
 40
0.000000
 40
0.000000
 40
0.000000
 40
0.000000
 40
1.364480
 40
3.377470
 40
5.629903
 40
5.629903
 40
5.629903
 40
5.629903
 10
29.691864
 20
197.272480
 30
0.0
 10
30.099155
 20
197.477053
 30
0.0
 10
31.107314
 20
197.983429
 30
0.0
 10
32.938181
 20
198.449899
 30
0.0
 10
34.337838
 20
198.692415
 30
0.0
 10
35.076952
 20
198.820480
 30
0.0
 11
29.691864
 21
197.272480
 31
0.0
 11
30.928460
 21
197.849227
 31
0.0
 11
32.863103
 21
198.405360
 31
0.0
 11
35.076952
 21
198.820480
 31
0.0
  0
LWPOLYLINE
  5
130
100
AcDbEntity
  8
Layer_1
 62
7
100
AcDbPolyline
 90
9
 70
0
 10
35.076952
 20
198.820480
 30
0.0
 10
39.102112
 20
199.374080
 30
0.0
 10
40.615072
 20
200.887040
 30
0.0
 10
42.128032
 20
202.400000
 30
0.0
 10
42.128032
 20
213.600000
 30
0.0
 10
42.128032
 20
224.800000
 30
0.0
 10
40.615072
 20
226.312960
 30
0.0
 10
39.102112
 20
227.825920
 30
0.0
 10
35.076952
 20
228.379520
 30
0.0
  0
SPLINE
  5
131
100
AcDbEntity
  8
Layer_1
 62
7
100
AcDbSpline
 70
0
 71
3
 72
10
 73
6
 74
4
 40
0.000000
 40
0.000000
 40
0.000000
 40
0.000000
 40
2.252433
 40
4.265422
 40
5.629903
 40
5.629903
 40
5.629903
 40
5.629903
 10
35.076952
 20
228.379520
 30
0.0
 10
34.337838
 20
228.507585
 30
0.0
 10
32.938181
 20
228.750101
 30
0.0
 10
31.107314
 20
229.216571
 30
0.0
 10
30.099155
 20
229.722947
 30
0.0
 10
29.691864
 20
229.927520
 30
0.0
 11
35.076952
 21
228.379520
 31
0.0
 11
32.863103
 21
228.794640
 31
0.0
 11
30.928460
 21
229.350773
 31
0.0
 11
29.691864
 21
229.927520
 31
0.0
  0
LWPOLYLINE
  5
132
100
AcDbEntity
  8
Layer_1
 62
7
100
AcDbPolyline
 90
3
 70
0
 10
29.691864
 20
229.927520
 30
0.0
 10
28.331952
 20
230.921912
 30
0.0
 10
28.834112
 20
232.504088
 30
0.0
  0
SPLINE
  5
133
100
AcDbEntity
  8
Layer_1
 62
7
100
AcDbSpline
 70
0
 71
3
 72
13
 73
9
 74
7
 40
0.000000
 40
0.000000
 40
0.000000
 40
0.000000
 40
1.430619
 40
3.638393
 40
6.167769
 40
10.449966
 40
13.879645
 40
20.691413
 40
20.691413
 40
20.691413
 40
20.691413
 10
28.834112
 20
232.504088
 30
0.0
 10
29.053258
 20
232.928356
 30
0.0
 10
29.610598
 20
234.007367
 30
0.0
 10
30.922245
 20
235.616398
 30
0.0
 10
32.837787
 20
237.860761
 30
0.0
 10
35.739370
 20
240.274335
 30
0.0
 10
35.003065
 20
245.512081
 30
0.0
 10
33.156329
 20
248.366480
 30
0.0
 10
31.928032
 20
250.264992
 30
0.0
 11
28.834112
 21
232.504088
 31
0.0
 11
29.525009
 21
233.756818
 31
0.0
 11
30.853564
 21
235.520112
 31
0.0
 11
32.532152
 21
237.412224
 31
0.0
 11
35.186679
 21
240.772388
 31
0.0
 11
35.025649
 21
244.198284
 31
0.0
 11
31.928032
 21
250.264992
 31
0.0
  0
LWPOLYLINE
  5
134
100
AcDbEntity
  8
Layer_1
 62
7
100
AcDbPolyline
 90
3
 70
0
 10
31.928032
 20
250.264992
 30
0.0
 10
28.128032
 20
257.067208
 30
0.0
 10
24.571408
 20
259.333600
 30
0.0
  0
SPLINE
  5
135
100
AcDbEntity
  8
Layer_1
 62
7
100
AcDbSpline
 70
0
 71
3
 72
10
 73
6
 74
4
 40
0.000000
 40
0.000000
 40
0.000000
 40
0.000000
 40
4.377467
 40
8.130510
 40
13.189720
 40
13.189720
 40
13.189720
 40
13.189720
 10
24.571408
 20
259.333600
 30
0.0
 10
23.301888
 20
260.106748
 30
0.0
 10
20.943938
 20
261.542758
 30
0.0
 10
16.339405
 20
261.476142
 30
0.0
 10
13.678100
 20
260.179787
 30
0.0
 10
12.150216
 20
259.435536
 30
0.0
 11
24.571408
 21
259.333600
 31
0.0
 11
20.623588
 21
261.224878
 31
0.0
 11
16.870671
 21
261.255677
 31
0.0
 11
12.150216
 21
259.435536
 31
0.0
  0
LWPOLYLINE
  5
136
100
AcDbEntity
  8
Layer_1
 62
7
100
AcDbPolyline
 90
7
 70
0
 10
12.150216
 20
259.435536
 30
0.0
 10
7.736960
 20
257.271072
 30
0.0
 10
6.819216
 20
258.188808
 30
0.0
 10
5.901480
 20
259.106552
 30
0.0
 10
6.834528
 20
263.849176
 30
0.0
 10
7.767584
 20
268.591800
 30
0.0
 10
7.012712
 20
270.577272
 30
0.0
  0
SPLINE
  5
137
100
AcDbEntity
  8
Layer_1
 62
7
100
AcDbSpline
 70
0
 71
3
 72
16
 73
12
 74
10
 40
0.000000
 40
0.000000
 40
0.000000
 40
0.000000
 40
1.587301
 40
3.774231
 40
6.126846
 40
10.505999
 40
12.910107
 40
17.240677
 40
18.751577
 40
20.484805
 40
22.079553
 40
22.079553
 40
22.079553
 40
22.079553
 10
7.012712
 20
270.577272
 30
0.0
 10
6.752113
 20
271.038679
 30
0.0
 10
6.132469
 20
272.135797
 30
0.0
 10
4.705774
 20
273.643520
 30
0.0
 10
2.599924
 20
275.595003
 30
0.0
 10
-0.507099
 20
277.560894
 30
0.0
 10
0.915708
 20
281.874628
 30
0.0
 10
4.275258
 20
281.494802
 30
0.0
 10
6.729063
 20
281.700531
 30
0.0
 10
8.334409
 20
281.976186
 30
0.0
 10
9.397116
 20
282.291502
 30
0.0
 10
9.906360
 20
282.442600
 30
0.0
 11
7.012712
 21
270.577272
 31
0.0
 11
6.185065
 21
271.931718
 31
0.0
 11
4.740924
 21
273.574010
 31
0.0
 11
2.992936
 21
275.148600
 31
0.0
 11
0.144607
 21
278.474860
 31
0.0
 11
0.908876
 21
280.754252
 31
0.0
 11
5.156056
 21
281.600000
 31
0.0
 11
6.662537
 21
281.715467
 31
0.0
 11
8.369127
 21
282.018178
 31
0.0
 11
9.906360
 21
282.442600
 31
0.0
  0
LWPOLYLINE
  5
138
100
AcDbEntity
  8
Layer_1
 62
7
100
AcDbPolyline
 90
3
 70
0
 10
9.906360
 20
282.442600
 30
0.0
 10
12.323456
 20
283.285208
 30
0.0
 10
13.796456
 20
286.551744
 30
0.0
  0
SPLINE
  5
139
100
AcDbEntity
  8
Layer_1
 62
7
100
AcDbSpline
 70
0
 71
3
 72
10
 73
6
 74
4
 40
0.000000
 40
0.000000
 40
0.000000
 40
0.000000
 40
2.131538
 40
4.281540
 40
5.993326
 40
5.993326
 40
5.993326
 40
5.993326
 10
13.796456
 20
286.551744
 30
0.0
 10
14.106029
 20
287.191266
 30
0.0
 10
14.727855
 20
288.475850
 30
0.0
 10
15.712985
 20
290.217806
 30
0.0
 10
16.452636
 20
291.271980
 30
0.0
 10
16.780496
 20
291.739256
 30
0.0
 11
13.796456
 21
286.551744
 31
0.0
 11
14.745481
 21
288.460358
 31
0.0
 11
15.817524
 21
290.324018
 31
0.0
 11
16.780496
 21
291.739256
 31
0.0
  0
LWPOLYLINE
  5
13a
100
AcDbEntity
  8
Layer_1
 62
7
100
AcDbPolyline
 90
3
 70
0
 10
16.780496
 20
291.739256
 30
0.0
 10
18.291528
 20
293.660224
 30
0.0
 10
19.494160
 20
292.662128
 30
0.0
  0
SPLINE
  5
13b
100
AcDbEntity
  8
Layer_1
 62
7
100
AcDbSpline
 70
0
 71
3
 72
10
 73
6
 74
4
 40
0.000000
 40
0.000000
 40
0.000000
 40
0.000000
 40
1.384613
 40
3.565570
 40
6.091986
 40
6.091986
 40
6.091986
 40
6.091986
 10
19.494160
 20
292.662128
 30
0.0
 10
19.791340
 20
292.307948
 30
0.0
 10
20.556618
 20
291.395887
 30
0.0
 10
21.534751
 20
289.603577
 30
0.0
 10
22.208448
 20
288.188043
 30
0.0
 10
22.570016
 20
287.428336
 30
0.0
 11
19.494160
 21
292.662128
 31
0.0
 11
20.356626
 21
291.578936
 31
0.0
 11
21.461656
 21
289.698648
 31
0.0
 11
22.570016
 21
287.428336
 31
0.0
  0
LWPOLYLINE
  5
13c
100
AcDbEntity
  8
Layer_1
 62
7
100
AcDbPolyline
 90
3
 70
0
 10
22.570016
 20
287.428336
 30
0.0
 10
24.443240
 20
283.192632
 30
0.0
 10
26.537712
 20
282.396320
 30
0.0
  0
SPLINE
  5
13d
100
AcDbEntity
  8
Layer_1
 62
7
100
AcDbSpline
 70
0
 71
3
 72
10
 73
6
 74
4
 40
0.000000
 40
0.000000
 40
0.000000
 40
0.000000
 40
1.633921
 40
3.792077
 40
6.025936
 40
6.025936
 40
6.025936
 40
6.025936
 10
26.537712
 20
282.396320
 30
0.0
 10
27.063176
 20
282.250965
 30
0.0
 10
28.282695
 20
281.913618
 30
0.0
 10
30.285082
 20
281.676747
 30
0.0
 10
31.747913
 20
281.625875
 30
0.0
 10
32.491936
 20
281.600000
 30
0.0
 11
26.537712
 21
282.396320
 31
0.0
 11
28.121634
 21
281.995211
 31
0.0
 11
30.260744
 21
281.709125
 31
0.0
 11
32.491936
 21
281.600000
 31
0.0
  0
LWPOLYLINE
  5
13e
100
AcDbEntity
  8
Layer_1
 62
7
100
AcDbPolyline
 90
11
 70
0
 10
32.491936
 20
281.600000
 30
0.0
 10
36.351680
 20
281.600000
 30
0.0
 10
43.839856
 20
285.400000
 30
0.0
 10
51.328032
 20
289.200000
 30
0.0
 10
51.328032
 20
295.600000
 30
0.0
 10
51.328032
 20
302.000000
 30
0.0
 10
53.462280
 20
302.246792
 30
0.0
 10
55.596536
 20
302.493584
 30
0.0
 10
59.729872
 20
300.399072
 30
0.0
 10
63.863200
 20
298.304552
 30
0.0
 10
65.773608
 20
299.556296
 30
0.0
  0
SPLINE
  5
13f
100
AcDbEntity
  8
Layer_1
 62
7
100
AcDbSpline
 70
0
 71
3
 72
16
 73
12
 74
10
 40
0.000000
 40
0.000000
 40
0.000000
 40
0.000000
 40
1.857629
 40
4.586305
 40
7.621717
 40
10.929986
 40
14.362681
 40
17.179663
 40
19.480337
 40
21.564753
 40
22.998611
 40
22.998611
 40
22.998611
 40
22.998611
 10
65.773608
 20
299.556296
 30
0.0
 10
66.239574
 20
299.965555
 30
0.0
 10
67.389999
 20
300.975974
 30
0.0
 10
68.965376
 20
302.984861
 30
0.0
 10
70.683354
 20
305.470617
 30
0.0
 10
72.459442
 20
308.204192
 30
0.0
 10
74.298519
 20
310.806923
 30
0.0
 10
76.043434
 20
313.061536
 30
0.0
 10
77.495254
 20
314.971404
 30
0.0
 10
78.575917
 20
316.591666
 30
0.0
 10
79.056597
 20
317.662987
 30
0.0
 10
79.252496
 20
318.099600
 30
0.0
 11
65.773608
 21
299.556296
 31
0.0
 11
67.138293
 21
300.816622
 31
0.0
 11
68.879587
 21
302.917471
 31
0.0
 11
70.620512
 21
305.404016
 31
0.0
 11
72.454278
 21
308.157549
 31
0.0
 11
74.438978
 21
310.958328
 31
0.0
 11
76.144936
 21
313.200000
 31
0.0
 11
77.519693
 21
315.044761
 31
0.0
 11
78.636112
 21
316.804988
 31
0.0
 11
79.252496
 21
318.099600
 31
0.0
  0
LWPOLYLINE
  5
140
100
AcDbEntity
  8
Layer_1
 62
7
100
AcDbPolyline
 90
3
 70
0
 10
79.252496
 20
318.099600
 30
0.0
 10
79.772120
 20
319.799208
 30
0.0
 10
76.150080
 20
324.245648
 30
0.0
  0
SPLINE
  5
141
100
AcDbEntity
  8
Layer_1
 62
7
100
AcDbSpline
 70
0
 71
3
 72
13
 73
9
 74
7
 40
0.000000
 40
0.000000
 40
0.000000
 40
0.000000
 40
5.942684
 40
8.763580
 40
14.410304
 40
18.826099
 40
22.236693
 40
28.641388
 40
28.641388
 40
28.641388
 40
28.641388
 10
76.150080
 20
324.245648
 30
0.0
 10
74.532208
 20
325.725526
 30
0.0
 10
72.146358
 20
327.907877
 30
0.0
 10
73.724199
 20
333.257000
 30
0.0
 10
78.742529
 20
333.399013
 30
0.0
 10
83.329649
 20
334.162667
 30
0.0
 10
85.999526
 20
338.529430
 30
0.0
 10
86.177926
 20
341.816087
 30
0.0
 10
86.294336
 20
343.960704
 30
0.0
 11
76.150080
 21
324.245648
 31
0.0
 11
72.834800
 21
329.177626
 31
0.0
 11
73.677941
 21
331.869571
 31
0.0
 11
79.066560
 21
333.557256
 31
0.0
 11
83.291048
 21
334.842926
 31
0.0
 11
85.237010
 21
337.643887
 31
0.0
 11
86.294336
 21
343.960704
 31
0.0
  0
LWPOLYLINE
  5
142
100
AcDbEntity
  8
Layer_1
 62
7
100
AcDbPolyline
 90
3
 70
0
 10
86.294336
 20
343.960704
 30
0.0
 10
87.195376
 20
351.278832
 30
0.0
 10
85.859192
 20
355.517696
 30
0.0
  0
SPLINE
  5
143
100
AcDbEntity
  8
Layer_1
 62
7
100
AcDbSpline
 70
0
 71
3
 72
13
 73
9
 74
7
 40
0.000000
 40
0.000000
 40
0.000000
 40
0.000000
 40
4.373824
 40
7.564283
 40
11.412920
 40
16.893901
 40
19.322847
 40
24.679528
 40
24.679528
 40
24.679528
 40
24.679528
 10
85.859192
 20
355.517696
 30
0.0
 10
85.423330
 20
356.929258
 30
0.0
 10
84.669531
 20
359.370474
 30
0.0
 10
81.765423
 20
362.131476
 30
0.0
 10
77.718047
 20
363.071623
 30
0.0
 10
73.045087
 20
362.638445
 30
0.0
 10
71.138858
 20
367.436806
 30
0.0
 10
73.383600
 20
369.371000
 30
0.0
 10
74.928032
 20
370.701768
 30
0.0
 11
85.859192
 21
355.517696
 31
0.0
 11
84.160097
 21
359.548008
 31
0.0
 11
81.833393
 21
361.731005
 31
0.0
 11
78.128032
 21
362.771344
 31
0.0
 11
72.795796
 21
364.039575
 31
0.0
 11
71.886897
 21
366.292059
 31
0.0
 11
74.928032
 21
370.701768
 31
0.0
  0
LWPOLYLINE
  5
144
100
AcDbEntity
  8
Layer_1
 62
7
100
AcDbPolyline
 90
3
 70
0
 10
74.928032
 20
370.701768
 30
0.0
 10
78.128032
 20
374.574216
 30
0.0
 10
78.128032
 20
376.932848
 30
0.0
  0
SPLINE
  5
145
100
AcDbEntity
  8
Layer_1
 62
7
100
AcDbSpline
 70
0
 71
3
 72
10
 73
6
 74
4
 40
0.000000
 40
0.000000
 40
0.000000
 40
0.000000
 40
1.686837
 40
3.854450
 40
6.042467
 40
6.042467
 40
6.042467
 40
6.042467
 10
78.128032
 20
376.932848
 30
0.0
 10
78.094777
 20
377.494389
 30
0.0
 10
78.018788
 20
378.777519
 30
0.0
 10
77.697723
 20
380.769533
 30
0.0
 10
77.379721
 20
382.186091
 30
0.0
 10
77.219976
 20
382.897688
 30
0.0
 11
78.128032
 21
376.932848
 31
0.0
 11
78.003595
 21
378.615089
 31
0.0
 11
77.677368
 21
380.758012
 31
0.0
 11
77.219976
 21
382.897688
 31
0.0
  0
LWPOLYLINE
  5
146
100
AcDbEntity
  8
Layer_1
 62
7
100
AcDbPolyline
 90
5
 70
0
 10
77.219976
 20
382.897688
 30
0.0
 10
76.311928
 20
386.503896
 30
0.0
 10
77.248256
 20
387.440224
 30
0.0
 10
78.184592
 20
388.376560
 30
0.0
 10
80.356312
 20
387.014872
 30
0.0
  0
SPLINE
  5
147
100
AcDbEntity
  8
Layer_1
 62
7
100
AcDbSpline
 70
0
 71
3
 72
10
 73
6
 74
4
 40
0.000000
 40
0.000000
 40
0.000000
 40
0.000000
 40
1.785942
 40
4.005108
 40
6.177920
 40
6.177920
 40
6.177920
 40
6.177920
 10
80.356312
 20
387.014872
 30
0.0
 10
80.865798
 20
386.706898
 30
0.0
 10
82.008358
 20
386.016242
 30
0.0
 10
83.801524
 20
385.002991
 30
0.0
 10
85.090397
 20
384.308666
 30
0.0
 10
85.728032
 20
383.965168
 30
0.0
 11
80.356312
 21
387.014872
 31
0.0
 11
81.888735
 21
386.097664
 31
0.0
 11
83.818575
 21
385.002029
 31
0.0
 11
85.728032
 21
383.965168
 31
0.0
  0
LWPOLYLINE
  5
148
100
AcDbEntity
  8
Layer_1
 62
7
100
AcDbPolyline
 90
9
 70
0
 10
85.728032
 20
383.965168
 30
0.0
 10
88.928032
 20
382.277152
 30
0.0
 10
94.076896
 20
384.712984
 30
0.0
 10
99.225752
 20
387.148824
 30
0.0
 10
100.259624
 20
386.290792
 30
0.0
 10
101.293488
 20
385.432760
 30
0.0
 10
100.798248
 20
379.574048
 30
0.0
 10
100.303008
 20
373.715336
 30
0.0
 10
103.015520
 20
371.200552
 30
0.0
  0
SPLINE
  5
149
100
AcDbEntity
  8
Layer_1
 62
7
100
AcDbSpline
 70
0
 71
3
 72
16
 73
12
 74
10
 40
0.000000
 40
0.000000
 40
0.000000
 40
0.000000
 40
4.438362
 40
8.754153
 40
15.080024
 40
21.149632
 40
24.287902
 40
28.515871
 40
31.014362
 40
33.186244
 40
34.595810
 40
34.595810
 40
34.595810
 40
34.595810
 10
103.015520
 20
371.200552
 30
0.0
 10
104.125997
 20
370.207863
 30
0.0
 10
106.316285
 20
368.249898
 30
0.0
 10
111.056596
 20
366.337900
 30
0.0
 10
116.556111
 20
365.460833
 30
0.0
 10
121.543450
 20
363.940597
 30
0.0
 10
126.288320
 20
365.044816
 30
0.0
 10
127.619916
 20
368.392830
 30
0.0
 10
129.227438
 20
370.828177
 30
0.0
 10
130.408653
 20
372.504670
 30
0.0
 10
131.325187
 20
373.274479
 30
0.0
 10
131.685912
 20
373.577456
 30
0.0
 11
103.015520
 21
371.200552
 31
0.0
 11
106.491292
 21
368.440468
 31
0.0
 11
110.450551
 21
366.722817
 31
0.0
 11
116.614536
 21
365.300872
 31
0.0
 11
122.612971
 21
364.374091
 31
0.0
 11
125.611805
 21
365.299149
 31
0.0
 11
127.974736
 21
368.805184
 31
0.0
 11
129.304655
 21
370.920313
 31
0.0
 11
130.637929
 21
372.634796
 31
0.0
 11
131.685912
 21
373.577456
 31
0.0
  0
LWPOLYLINE
  5
14a
100
AcDbEntity
  8
Layer_1
 62
7
100
AcDbPolyline
 90
3
 70
0
 10
131.685912
 20
373.577456
 30
0.0
 10
133.157032
 20
374.364776
 30
0.0
 10
135.118872
 20
372.821592
 30
0.0
  0
SPLINE
  5
14b
100
AcDbEntity
  8
Layer_1
 62
7
100
AcDbSpline
 70
0
 71
3
 72
10
 73
6
 74
4
 40
0.000000
 40
0.000000
 40
0.000000
 40
0.000000
 40
1.737068
 40
3.954335
 40
6.216849
 40
6.216849
 40
6.216849
 40
6.216849
 10
135.118872
 20
372.821592
 30
0.0
 10
135.526383
 20
372.408457
 30
0.0
 10
136.454058
 20
371.467979
 30
0.0
 10
137.554956
 20
369.691173
 30
0.0
 10
138.163294
 20
368.327787
 30
0.0
 10
138.470536
 20
367.639208
 30
0.0
 11
135.118872
 21
372.821592
 31
0.0
 11
136.297518
 21
371.545583
 31
0.0
 11
137.501634
 21
369.683761
 31
0.0
 11
138.470536
 21
367.639208
 31
0.0
  0
LWPOLYLINE
  5
14c
100
AcDbEntity
  8
Layer_1
 62
7
100
AcDbPolyline
 90
5
 70
0
 10
138.470536
 20
367.639208
 30
0.0
 10
139.860368
 20
364.000000
 30
0.0
 10
142.875048
 20
364.000000
 30
0.0
 10
145.889728
 20
364.000000
 30
0.0
 10
149.429896
 20
365.882328
 30
0.0
  0
SPLINE
  5
14d
100
AcDbEntity
  8
Layer_1
 62
7
100
AcDbSpline
 70
0
 71
3
 72
13
 73
9
 74
7
 40
0.000000
 40
0.000000
 40
0.000000
 40
0.000000
 40
2.511518
 40
5.263316
 40
7.683197
 40
9.982984
 40
12.426756
 40
14.521832
 40
14.521832
 40
14.521832
 40
14.521832
 10
149.429896
 20
365.882328
 30
0.0
 10
150.188300
 20
366.237513
 30
0.0
 10
151.777666
 20
366.981863
 30
0.0
 10
154.211945
 20
367.805774
 30
0.0
 10
156.651742
 20
368.312132
 30
0.0
 10
158.987911
 20
368.810783
 30
0.0
 10
161.143168
 20
369.593749
 30
0.0
 10
162.461088
 20
370.340074
 30
0.0
 10
163.069424
 20
370.684568
 30
0.0
 11
149.429896
 21
365.882328
 31
0.0
 11
151.722919
 21
366.906911
 31
0.0
 11
154.331335
 21
367.783585
 31
0.0
 11
156.690432
 21
368.322552
 31
0.0
 11
158.928728
 21
368.850802
 31
0.0
 11
161.220440
 21
369.699379
 31
0.0
 11
163.069424
 21
370.684568
 31
0.0
  0
LWPOLYLINE
  5
14e
100
AcDbEntity
  8
Layer_1
 62
7
100
AcDbPolyline
 90
5
 70
0
 10
163.069424
 20
370.684568
 30
0.0
 10
165.728032
 20
372.488680
 30
0.0
 10
165.728032
 20
378.844344
 30
0.0
 10
165.728032
 20
385.200000
 30
0.0
 10
167.533136
 20
385.456312
 30
0.0
  0
SPLINE
  5
14f
100
AcDbEntity
  8
Layer_1
 62
7
100
AcDbSpline
 70
0
 71
3
 72
10
 73
6
 74
4
 40
0.000000
 40
0.000000
 40
0.000000
 40
0.000000
 40
1.528987
 40
3.872458
 40
6.561224
 40
6.561224
 40
6.561224
 40
6.561224
 10
167.533136
 20
385.456312
 30
0.0
 10
168.043097
 20
385.422482
 30
0.0
 10
169.334674
 20
385.336801
 30
0.0
 10
171.431831
 20
384.651394
 30
0.0
 10
172.979250
 20
384.009926
 30
0.0
 10
173.806048
 20
383.667184
 30
0.0
 11
167.533136
 21
385.456312
 31
0.0
 11
169.054629
 21
385.305115
 31
0.0
 11
171.308230
 21
384.662355
 31
0.0
 11
173.806048
 21
383.667184
 31
0.0
  0
LWPOLYLINE
  5
150
100
AcDbEntity
  8
Layer_1
 62
7
100
AcDbPolyline
 90
3
 70
0
 10
173.806048
 20
383.667184
 30
0.0
 10
178.273864
 20
381.621752
 30
0.0
 10
179.669992
 20
382.368936
 30
0.0
  0
SPLINE
  5
151
100
AcDbEntity
  8
Layer_1
 62
7
100
AcDbSpline
 70
0
 71
3
 72
10
 73
6
 74
4
 40
0.000000
 40
0.000000
 40
0.000000
 40
0.000000
 40
1.754840
 40
4.870012
 40
8.680980
 40
8.680980
 40
8.680980
 40
8.680980
 10
179.669992
 20
382.368936
 30
0.0
 10
180.133558
 20
382.726332
 30
0.0
 10
181.420040
 20
383.718174
 30
0.0
 10
183.473358
 20
385.766037
 30
0.0
 10
185.074299
 20
387.428059
 30
0.0
 10
185.955184
 20
388.342552
 30
0.0
 11
179.669992
 21
382.368936
 31
0.0
 11
181.043216
 21
383.461511
 31
0.0
 11
183.301235
 21
385.607588
 31
0.0
 11
185.955184
 21
388.342552
 31
0.0
  0
LWPOLYLINE
  5
152
100
AcDbEntity
  8
Layer_1
 62
7
100
AcDbPolyline
 90
3
 70
0
 10
185.955184
 20
388.342552
 30
0.0
 10
190.844224
 20
393.568992
 30
0.0
 10
191.681664
 20
396.584496
 30
0.0
  0
SPLINE
  5
153
100
AcDbEntity
  8
Layer_1
 62
7
100
AcDbSpline
 70
0
 71
3
 72
10
 73
6
 74
4
 40
0.000000
 40
0.000000
 40
0.000000
 40
0.000000
 40
1.945599
 40
4.047709
 40
5.862415
 40
5.862415
 40
5.862415
 40
5.862415
 10
191.681664
 20
396.584496
 30
0.0
 10
191.831189
 20
397.215675
 30
0.0
 10
192.142269
 20
398.528808
 30
0.0
 10
192.429168
 20
400.466007
 30
0.0
 10
192.493690
 20
401.770468
 30
0.0
 10
192.523584
 20
402.374840
 30
0.0
 11
191.681664
 21
396.584496
 31
0.0
 11
192.104135
 21
398.483673
 31
0.0
 11
192.406606
 21
400.563908
 31
0.0
 11
192.523584
 21
402.374840
 31
0.0
  0
LWPOLYLINE
  5
154
100
AcDbEntity
  8
Layer_1
 62
7
100
AcDbPolyline
 90
5
 70
0
 10
192.523584
 20
402.374840
 30
0.0
 10
192.531584
 20
405.149688
 30
0.0
 10
188.365184
 20
409.368472
 30
0.0
 10
184.198784
 20
413.587248
 30
0.0
 10
185.002224
 20
414.390656
 30
0.0
  0
SPLINE
  5
155
100
AcDbEntity
  8
Layer_1
 62
7
100
AcDbSpline
 70
0
 71
3
 72
13
 73
9
 74
7
 40
0.000000
 40
0.000000
 40
0.000000
 40
0.000000
 40
1.179695
 40
3.267302
 40
5.835161
 40
10.943034
 40
14.573909
 40
19.136755
 40
19.136755
 40
19.136755
 40
19.136755
 10
185.002224
 20
414.390656
 30
0.0
 10
185.350229
 20
414.575853
 30
0.0
 10
186.314069
 20
415.088779
 30
0.0
 10
188.218285
 20
415.560091
 30
0.0
 10
191.381517
 20
416.261447
 30
0.0
 10
195.177007
 20
416.802759
 30
0.0
 10
198.920897
 20
419.555473
 30
0.0
 10
199.950222
 20
422.140483
 30
0.0
 10
200.523424
 20
423.580000
 30
0.0
 11
185.002224
 21
414.390656
 31
0.0
 11
186.059587
 21
414.913784
 31
0.0
 11
188.059368
 21
415.512936
 31
0.0
 11
190.568624
 21
416.058400
 31
0.0
 11
195.510920
 21
417.348391
 31
0.0
 11
198.407848
 21
419.537241
 31
0.0
 11
200.523424
 21
423.580000
 31
0.0
  0
LWPOLYLINE
  5
156
100
AcDbEntity
  8
Layer_1
 62
7
100
AcDbPolyline
 90
7
 70
0
 10
200.523424
 20
423.580000
 30
0.0
 10
202.348064
 20
428.075624
 30
0.0
 10
203.639824
 20
427.830624
 30
0.0
 10
204.931584
 20
427.585624
 30
0.0
 10
207.331584
 20
422.792808
 30
0.0
 10
209.731584
 20
418.000000
 30
0.0
 10
216.067344
 20
416.400000
 30
0.0
  0
SPLINE
  5
157
100
AcDbEntity
  8
Layer_1
 62
7
100
AcDbSpline
 70
0
 71
3
 72
13
 73
9
 74
7
 40
0.000000
 40
0.000000
 40
0.000000
 40
0.000000
 40
3.356718
 40
5.885054
 40
7.073248
 40
8.113703
 40
10.290358
 40
13.178274
 40
13.178274
 40
13.178274
 40
13.178274
 10
216.067344
 20
416.400000
 30
0.0
 10
217.181258
 20
416.108771
 30
0.0
 10
219.134191
 20
415.598182
 30
0.0
 10
221.063297
 20
414.818368
 30
0.0
 10
223.026979
 20
414.128987
 30
0.0
 10
221.972726
 20
412.585029
 30
0.0
 10
220.837651
 20
411.149772
 30
0.0
 10
219.628554
 20
409.912785
 30
0.0
 10
218.939104
 20
409.207432
 30
0.0
 11
216.067344
 21
416.400000
 31
0.0
 11
219.295907
 21
415.481341
 31
0.0
 11
221.669714
 21
414.610984
 31
0.0
 11
222.674864
 21
413.977360
 31
0.0
 11
222.262600
 21
413.022067
 31
0.0
 11
220.920488
 21
411.308427
 31
0.0
 11
218.939104
 21
409.207432
 31
0.0
  0
LWPOLYLINE
  5
158
100
AcDbEntity
  8
Layer_1
 62
7
100
AcDbPolyline
 90
3
 70
0
 10
218.939104
 20
409.207432
 30
0.0
 10
214.931264
 20
405.260144
 30
0.0
 10
214.939264
 20
402.430072
 30
0.0
  0
SPLINE
  5
159
100
AcDbEntity
  8
Layer_1
 62
7
100
AcDbSpline
 70
0
 71
3
 72
10
 73
6
 74
4
 40
0.000000
 40
0.000000
 40
0.000000
 40
0.000000
 40
1.842401
 40
3.964223
 40
5.917314
 40
5.917314
 40
5.917314
 40
5.917314
 10
214.939264
 20
402.430072
 30
0.0
 10
214.968592
 20
401.816425
 30
0.0
 10
215.031695
 20
400.496065
 30
0.0
 10
215.318864
 20
398.540318
 30
0.0
 10
215.631337
 20
397.218188
 30
0.0
 10
215.781104
 20
396.584496
 30
0.0
 11
214.939264
 21
402.430072
 31
0.0
 11
215.055172
 21
400.591320
 31
0.0
 11
215.358156
 21
398.491242
 31
0.0
 11
215.781104
 21
396.584496
 31
0.0
  0
LWPOLYLINE
  5
15a
100
AcDbEntity
  8
Layer_1
 62
7
100
AcDbPolyline
 90
3
 70
0
 10
215.781104
 20
396.584496
 30
0.0
 10
216.618544
 20
393.568992
 30
0.0
 10
221.507584
 20
388.342552
 30
0.0
  0
SPLINE
  5
15b
100
AcDbEntity
  8
Layer_1
 62
7
100
AcDbSpline
 70
0
 71
3
 72
10
 73
6
 74
4
 40
0.000000
 40
0.000000
 40
0.000000
 40
0.000000
 40
3.810999
 40
6.926166
 40
8.680983
 40
8.680983
 40
8.680983
 40
8.680983
 10
221.507584
 20
388.342552
 30
0.0
 10
222.388486
 20
387.428060
 30
0.0
 10
223.989451
 20
385.766050
 30
0.0
 10
226.042766
 20
383.718185
 30
0.0
 10
227.329229
 20
382.726333
 30
0.0
 10
227.792784
 20
382.368936
 30
0.0
 11
221.507584
 21
388.342552
 31
0.0
 11
224.161578
 21
385.607588
 31
0.0
 11
226.419590
 21
383.461511
 31
0.0
 11
227.792784
 21
382.368936
 31
0.0
  0
LWPOLYLINE
  5
15c
100
AcDbEntity
  8
Layer_1
 62
7
100
AcDbPolyline
 90
3
 70
0
 10
227.792784
 20
382.368936
 30
0.0
 10
229.188944
 20
381.621752
 30
0.0
 10
233.656784
 20
383.667184
 30
0.0
  0
SPLINE
  5
15d
100
AcDbEntity
  8
Layer_1
 62
7
100
AcDbSpline
 70
0
 71
3
 72
10
 73
6
 74
4
 40
0.000000
 40
0.000000
 40
0.000000
 40
0.000000
 40
2.688753
 40
5.032215
 40
6.561193
 40
6.561193
 40
6.561193
 40
6.561193
 10
233.656784
 20
383.667184
 30
0.0
 10
234.483578
 20
384.009926
 30
0.0
 10
236.030988
 20
384.651395
 30
0.0
 10
238.128134
 20
385.336800
 30
0.0
 10
239.419705
 20
385.422482
 30
0.0
 10
239.929664
 20
385.456312
 30
0.0
 11
233.656784
 21
383.667184
 31
0.0
 11
236.154588
 21
384.662355
 31
0.0
 11
238.408180
 21
385.305115
 31
0.0
 11
239.929664
 21
385.456312
 31
0.0
  0
LWPOLYLINE
  5
15e
100
AcDbEntity
  8
Layer_1
 62
7
100
AcDbPolyline
 90
5
 70
0
 10
239.929664
 20
385.456312
 30
0.0
 10
241.734464
 20
385.200000
 30
0.0
 10
241.734464
 20
378.841656
 30
0.0
 10
241.734464
 20
372.483312
 30
0.0
 10
244.393024
 20
370.681888
 30
0.0
  0
SPLINE
  5
15f
100
AcDbEntity
  8
Layer_1
 62
7
100
AcDbSpline
 70
0
 71
3
 72
16
 73
12
 74
10
 40
0.000000
 40
0.000000
 40
0.000000
 40
0.000000
 40
2.096177
 40
4.545140
 40
6.853705
 40
9.175221
 40
11.642709
 40
13.740633
 40
15.730572
 40
17.905683
 40
19.807723
 40
19.807723
 40
19.807723
 40
19.807723
 10
244.393024
 20
370.681888
 30
0.0
 10
245.002247
 20
370.338056
 30
0.0
 10
246.323224
 20
369.592526
 30
0.0
 10
248.486687
 20
368.818376
 30
0.0
 10
250.795077
 20
368.322835
 30
0.0
 10
253.122891
 20
367.896062
 30
0.0
 10
255.328794
 20
367.236362
 30
0.0
 10
257.343246
 20
366.386094
 30
0.0
 10
259.240129
 20
365.513117
 30
0.0
 10
261.157290
 20
364.853557
 30
0.0
 10
262.479757
 20
364.538706
 30
0.0
 10
263.096704
 20
364.391824
 30
0.0
 11
244.393024
 21
370.681888
 31
0.0
 11
246.244888
 21
369.699768
 31
0.0
 11
248.544147
 21
368.856664
 31
0.0
 11
250.793024
 21
368.335104
 31
0.0
 11
253.066384
 21
367.864707
 31
0.0
 11
255.429824
 21
367.155730
 31
0.0
 11
257.371664
 21
366.361664
 31
0.0
 11
259.196520
 21
365.568092
 31
0.0
 11
261.253288
 21
364.860409
 31
0.0
 11
263.096704
 21
364.391824
 31
0.0
  0
LWPOLYLINE
  5
160
100
AcDbEntity
  8
Layer_1
 62
7
100
AcDbPolyline
 90
3
 70
0
 10
263.096704
 20
364.391824
 30
0.0
 10
265.984464
 20
363.850064
 30
0.0
 10
267.659424
 20
365.525032
 30
0.0
  0
SPLINE
  5
161
100
AcDbEntity
  8
Layer_1
 62
7
100
AcDbSpline
 70
0
 71
3
 72
13
 73
9
 74
7
 40
0.000000
 40
0.000000
 40
0.000000
 40
0.000000
 40
1.305743
 40
2.474957
 40
3.298934
 40
4.256320
 40
5.797000
 40
7.626943
 40
7.626943
 40
7.626943
 40
7.626943
 10
267.659424
 20
365.525032
 30
0.0
 10
267.947771
 20
365.849485
 30
0.0
 10
268.494316
 20
366.464465
 30
0.0
 10
269.120750
 20
367.395191
 30
0.0
 10
269.330924
 20
368.362890
 30
0.0
 10
269.681242
 20
369.419787
 30
0.0
 10
270.530091
 20
370.608224
 30
0.0
 10
271.261782
 20
371.457928
 30
0.0
 10
271.659024
 20
371.919240
 30
0.0
 11
267.659424
 21
365.525032
 31
0.0
 11
268.503151
 21
366.521570
 31
0.0
 11
269.104923
 21
367.524033
 31
0.0
 11
269.334464
 21
368.315392
 31
0.0
 11
269.653003
 21
369.218233
 31
0.0
 11
270.488111
 21
370.512948
 31
0.0
 11
271.659024
 21
371.919240
 31
0.0
  0
LWPOLYLINE
  5
162
100
AcDbEntity
  8
Layer_1
 62
7
100
AcDbPolyline
 90
3
 70
0
 10
271.659024
 20
371.919240
 30
0.0
 10
273.983504
 20
374.407688
 30
0.0
 10
275.298944
 20
373.902904
 30
0.0
  0
SPLINE
  5
163
100
AcDbEntity
  8
Layer_1
 62
7
100
AcDbSpline
 70
0
 71
3
 72
16
 73
12
 74
10
 40
0.000000
 40
0.000000
 40
0.000000
 40
0.000000
 40
1.338576
 40
3.599488
 40
6.327917
 40
8.985187
 40
11.060060
 40
12.147911
 40
14.904695
 40
18.704382
 40
23.503664
 40
23.503664
 40
23.503664
 40
23.503664
 10
275.298944
 20
373.902904
 30
0.0
 10
275.655636
 20
373.632583
 30
0.0
 10
276.614795
 20
372.905679
 30
0.0
 10
277.911866
 20
371.215600
 30
0.0
 10
279.351892
 20
369.122772
 30
0.0
 10
280.752407
 20
367.058021
 30
0.0
 10
281.947767
 20
365.545428
 30
0.0
 10
283.548089
 20
364.259908
 30
0.0
 10
286.299300
 20
364.906628
 30
0.0
 10
289.966453
 20
365.132334
 30
0.0
 10
292.795043
 20
365.730707
 30
0.0
 10
294.373744
 20
366.064672
 30
0.0
 11
275.298944
 21
373.902904
 31
0.0
 11
276.338408
 21
373.059517
 31
0.0
 11
277.798974
 21
371.333693
 31
0.0
 11
279.364464
 21
369.099064
 31
0.0
 11
280.888097
 21
366.921996
 31
0.0
 11
282.238911
 21
365.347068
 31
0.0
 11
283.124464
 21
364.715232
 31
0.0
 11
285.881104
 21
364.743371
 31
0.0
 11
289.653744
 21
365.195930
 31
0.0
 11
294.373744
 21
366.064672
 31
0.0
  0
LWPOLYLINE
  5
164
100
AcDbEntity
  8
Layer_1
 62
7
100
AcDbPolyline
 90
3
 70
0
 10
294.373744
 20
366.064672
 30
0.0
 10
299.813104
 20
367.194536
 30
0.0
 10
302.657904
 20
369.397272
 30
0.0
  0
SPLINE
  5
165
100
AcDbEntity
  8
Layer_1
 62
7
100
AcDbSpline
 70
0
 71
3
 72
10
 73
6
 74
4
 40
0.000000
 40
0.000000
 40
0.000000
 40
0.000000
 40
2.114148
 40
4.224778
 40
5.912379
 40
5.912379
 40
5.912379
 40
5.912379
 10
302.657904
 20
369.397272
 30
0.0
 10
303.190882
 20
369.858289
 30
0.0
 10
304.255950
 20
370.779555
 30
0.0
 10
305.573462
 20
372.264827
 30
0.0
 10
306.206761
 20
373.363717
 30
0.0
 10
306.488144
 20
373.851968
 30
0.0
 11
302.657904
 21
369.397272
 31
0.0
 11
304.225880
 21
370.815395
 31
0.0
 11
305.601928
 21
372.415786
 31
0.0
 11
306.488144
 21
373.851968
 31
0.0
  0
LWPOLYLINE
  5
166
100
AcDbEntity
  8
Layer_1
 62
7
100
AcDbPolyline
 90
9
 70
0
 10
306.488144
 20
373.851968
 30
0.0
 10
307.473584
 20
376.103944
 30
0.0
 10
306.711024
 20
380.530376
 30
0.0
 10
305.948384
 20
384.956816
 30
0.0
 10
307.059824
 20
386.068280
 30
0.0
 10
308.171344
 20
387.179744
 30
0.0
 10
313.264064
 20
384.771256
 30
0.0
 10
318.356784
 20
382.362768
 30
0.0
 10
319.824464
 20
382.828576
 30
0.0
  0
SPLINE
  5
167
100
AcDbEntity
  8
Layer_1
 62
7
100
AcDbSpline
 70
0
 71
3
 72
13
 73
9
 74
7
 40
0.000000
 40
0.000000
 40
0.000000
 40
0.000000
 40
1.425639
 40
3.705595
 40
6.354809
 40
8.906829
 40
10.934271
 40
12.016303
 40
12.016303
 40
12.016303
 40
12.016303
 10
319.824464
 20
382.828576
 30
0.0
 10
320.257168
 20
383.025814
 30
0.0
 10
321.381875
 20
383.538487
 30
0.0
 10
323.189553
 20
384.651151
 30
0.0
 10
325.265025
 20
386.033842
 30
0.0
 10
327.281130
 20
387.345146
 30
0.0
 10
328.896008
 20
388.346231
 30
0.0
 10
329.878558
 20
388.682860
 30
0.0
 10
330.220464
 20
388.800000
 30
0.0
 11
319.824464
 21
382.828576
 31
0.0
 11
321.112123
 21
383.440442
 31
0.0
 11
323.077098
 21
384.596761
 31
0.0
 11
325.293984
 21
386.047192
 31
0.0
 11
327.436446
 21
387.433793
 31
0.0
 11
329.206322
 21
388.422764
 31
0.0
 11
330.220464
 21
388.800000
 31
0.0
  0
LWPOLYLINE
  5
168
100
AcDbEntity
  8
Layer_1
 62
7
100
AcDbPolyline
 90
3
 70
0
 10
330.220464
 20
388.800000
 30
0.0
 10
331.145104
 20
388.800000
 30
0.0
 10
330.633584
 20
385.400000
 30
0.0
  0
SPLINE
  5
169
100
AcDbEntity
  8
Layer_1
 62
7
100
AcDbSpline
 70
0
 71
3
 72
10
 73
6
 74
4
 40
0.000000
 40
0.000000
 40
0.000000
 40
0.000000
 40
2.229718
 40
4.770190
 40
7.071466
 40
7.071466
 40
7.071466
 40
7.071466
 10
330.633584
 20
385.400000
 30
0.0
 10
330.525055
 20
384.664726
 30
0.0
 10
330.292871
 20
383.091705
 30
0.0
 10
329.961960
 20
380.757874
 30
0.0
 10
329.743986
 20
379.158744
 30
0.0
 10
329.640384
 20
378.398680
 30
0.0
 11
330.633584
 21
385.400000
 31
0.0
 11
330.309954
 21
383.193894
 31
0.0
 11
329.953134
 21
380.678605
 31
0.0
 11
329.640384
 21
378.398680
 31
0.0
  0
LWPOLYLINE
  5
16a
100
AcDbEntity
  8
Layer_1
 62
7
100
AcDbPolyline
 90
9
 70
0
 10
329.640384
 20
378.398680
 30
0.0
 10
329.158624
 20
374.797360
 30
0.0
 10
332.944464
 20
370.198696
 30
0.0
 10
336.730384
 20
365.600032
 30
0.0
 10
335.818944
 20
364.501824
 30
0.0
 10
334.907504
 20
363.403624
 30
0.0
 10
330.150384
 20
362.865416
 30
0.0
 10
325.393264
 20
362.327208
 30
0.0
 10
323.878384
 20
360.401312
 30
0.0
  0
SPLINE
  5
16b
100
AcDbEntity
  8
Layer_1
 62
7
100
AcDbSpline
 70
0
 71
3
 72
10
 73
6
 74
4
 40
0.000000
 40
0.000000
 40
0.000000
 40
0.000000
 40
1.737578
 40
3.970935
 40
6.240149
 40
6.240149
 40
6.240149
 40
6.240149
 10
323.878384
 20
360.401312
 30
0.0
 10
323.564263
 20
359.913911
 30
0.0
 10
322.846392
 20
358.800040
 30
0.0
 10
322.012633
 20
356.884092
 30
0.0
 10
321.549962
 20
355.456524
 30
0.0
 10
321.316784
 20
354.737056
 30
0.0
 11
323.878384
 21
360.401312
 31
0.0
 11
322.971883
 21
358.918938
 31
0.0
 11
322.051605
 21
356.884001
 31
0.0
 11
321.316784
 21
354.737056
 31
0.0
  0
LWPOLYLINE
  5
16c
100
AcDbEntity
  8
Layer_1
 62
7
100
AcDbPolyline
 90
3
 70
0
 10
321.316784
 20
354.737056
 30
0.0
 10
320.270144
 20
350.998680
 30
0.0
 10
321.163904
 20
344.318376
 30
0.0
  0
SPLINE
  5
16d
100
AcDbEntity
  8
Layer_1
 62
7
100
AcDbSpline
 70
0
 71
3
 72
10
 73
6
 74
4
 40
0.000000
 40
0.000000
 40
0.000000
 40
0.000000
 40
3.623206
 40
6.648761
 40
8.435559
 40
8.435559
 40
8.435559
 40
8.435559
 10
321.163904
 20
344.318376
 30
0.0
 10
321.345620
 20
343.125083
 30
0.0
 10
321.679077
 20
340.935333
 30
0.0
 10
322.185999
 20
338.161207
 30
0.0
 10
322.701997
 20
336.640793
 30
0.0
 10
322.893584
 20
336.076272
 30
0.0
 11
321.163904
 21
344.318376
 31
0.0
 11
321.728677
 21
340.739458
 31
0.0
 11
322.350091
 21
337.778406
 31
0.0
 11
322.893584
 21
336.076272
 31
0.0
  0
LWPOLYLINE
  5
16e
100
AcDbEntity
  8
Layer_1
 62
7
100
AcDbPolyline
 90
3
 70
0
 10
322.893584
 20
336.076272
 30
0.0
 10
323.729424
 20
334.514464
 30
0.0
 10
328.331984
 20
333.570528
 30
0.0
  0
SPLINE
  5
16f
100
AcDbEntity
  8
Layer_1
 62
7
100
AcDbSpline
 70
0
 71
3
 72
10
 73
6
 74
4
 40
0.000000
 40
0.000000
 40
0.000000
 40
0.000000
 40
5.754749
 40
8.665133
 40
14.572543
 40
14.572543
 40
14.572543
 40
14.572543
 10
328.331984
 20
333.570528
 30
0.0
 10
330.489437
 20
333.418329
 30
0.0
 10
333.737991
 20
333.189158
 30
0.0
 10
335.400118
 20
327.791937
 30
0.0
 10
332.931928
 20
325.636858
 30
0.0
 10
331.278384
 20
324.193080
 30
0.0
 11
328.331984
 21
333.570528
 31
0.0
 11
333.807439
 21
331.799503
 31
0.0
 11
334.679836
 21
329.022948
 31
0.0
 11
331.278384
 21
324.193080
 31
0.0
  0
LWPOLYLINE
  5
170
100
AcDbEntity
  8
Layer_1
 62
7
100
AcDbPolyline
 90
3
 70
0
 10
331.278384
 20
324.193080
 30
0.0
 10
327.622304
 20
320.013632
 30
0.0
 10
328.193104
 20
318.206816
 30
0.0
  0
SPLINE
  5
171
100
AcDbEntity
  8
Layer_1
 62
7
100
AcDbSpline
 70
0
 71
3
 72
16
 73
12
 74
10
 40
0.000000
 40
0.000000
 40
0.000000
 40
0.000000
 40
1.843351
 40
4.897147
 40
8.514729
 40
12.261929
 40
15.651712
 40
17.954643
 40
19.668089
 40
21.534178
 40
23.182952
 40
23.182952
 40
23.182952
 40
23.182952
 10
328.193104
 20
318.206816
 30
0.0
 10
328.465747
 20
317.655533
 30
0.0
 10
329.190065
 20
316.190963
 30
0.0
 10
330.810178
 20
313.850473
 30
0.0
 10
332.868817
 20
311.056485
 30
0.0
 10
335.029544
 20
308.195894
 30
0.0
 10
336.863372
 20
305.635564
 30
0.0
 10
338.143961
 20
303.524748
 30
0.0
 10
339.214264
 20
301.879469
 30
0.0
 10
340.388073
 20
300.575012
 30
0.0
 10
341.314085
 20
299.854981
 30
0.0
 10
341.748464
 20
299.517224
 30
0.0
 11
328.193104
 21
318.206816
 31
0.0
 11
329.040428
 21
316.569751
 31
0.0
 11
330.713140
 21
314.014812
 31
0.0
 11
332.849104
 21
311.095128
 31
0.0
 11
335.088271
 21
308.090525
 31
0.0
 11
337.031403
 21
305.312960
 31
0.0
 11
338.257824
 21
303.363760
 31
0.0
 11
339.221400
 21
301.946926
 31
0.0
 11
340.475448
 21
300.565023
 31
0.0
 11
341.748464
 21
299.517224
 31
0.0
  0
LWPOLYLINE
  5
172
100
AcDbEntity
  8
Layer_1
 62
7
100
AcDbPolyline
 90
11
 70
0
 10
341.748464
 20
299.517224
 30
0.0
 10
343.915744
 20
298.097192
 30
0.0
 10
347.835664
 20
300.300712
 30
0.0
 10
351.755664
 20
302.504224
 30
0.0
 10
353.945024
 20
302.252112
 30
0.0
 10
356.134464
 20
302.000000
 30
0.0
 10
356.134464
 20
295.339344
 30
0.0
 10
356.134464
 20
288.678680
 30
0.0
 10
363.734464
 20
285.152824
 30
0.0
 10
371.334464
 20
281.626976
 30
0.0
 10
374.934464
 20
281.693216
 30
0.0
  0
SPLINE
  5
173
100
AcDbEntity
  8
Layer_1
 62
7
100
AcDbSpline
 70
0
 71
3
 72
10
 73
6
 74
4
 40
0.000000
 40
0.000000
 40
0.000000
 40
0.000000
 40
2.090085
 40
4.113245
 40
5.639009
 40
5.639009
 40
5.639009
 40
5.639009
 10
374.934464
 20
281.693216
 30
0.0
 10
375.630500
 20
281.722058
 30
0.0
 10
377.000285
 20
281.778818
 30
0.0
 10
378.874457
 20
281.958718
 30
0.0
 10
380.035364
 20
282.188841
 30
0.0
 10
380.534464
 20
282.287776
 30
0.0
 11
374.934464
 21
281.693216
 31
0.0
 11
377.021871
 21
281.798968
 31
0.0
 11
379.033723
 21
282.012578
 31
0.0
 11
380.534464
 21
282.287776
 31
0.0
  0
LWPOLYLINE
  5
174
100
AcDbEntity
  8
Layer_1
 62
7
100
AcDbPolyline
 90
3
 70
0
 10
380.534464
 20
282.287776
 30
0.0
 10
382.534464
 20
282.816080
 30
0.0
 10
384.534464
 20
286.891360
 30
0.0
  0
SPLINE
  5
175
100
AcDbEntity
  8
Layer_1
 62
7
100
AcDbSpline
 70
0
 71
3
 72
10
 73
6
 74
4
 40
0.000000
 40
0.000000
 40
0.000000
 40
0.000000
 40
2.518998
 40
4.762348
 40
6.250814
 40
6.250814
 40
6.250814
 40
6.250814
 10
384.534464
 20
286.891360
 30
0.0
 10
384.916539
 20
287.638856
 30
0.0
 10
385.638879
 20
289.052050
 30
0.0
 10
386.652349
 20
290.876179
 30
0.0
 10
387.364898
 20
291.896523
 30
0.0
 10
387.649104
 20
292.303496
 30
0.0
 11
384.534464
 21
286.891360
 31
0.0
 11
385.694621
 21
289.127290
 31
0.0
 11
386.813587
 21
291.071651
 31
0.0
 11
387.649104
 21
292.303496
 31
0.0
  0
LWPOLYLINE
  5
176
100
AcDbEntity
  8
Layer_1
 62
7
100
AcDbPolyline
 90
3
 70
0
 10
387.649104
 20
292.303496
 30
0.0
 10
388.763824
 20
293.640352
 30
0.0
 10
390.112544
 20
292.419760
 30
0.0
  0
SPLINE
  5
177
100
AcDbEntity
  8
Layer_1
 62
7
100
AcDbSpline
 70
0
 71
3
 72
10
 73
6
 74
4
 40
0.000000
 40
0.000000
 40
0.000000
 40
0.000000
 40
1.494373
 40
3.702304
 40
6.164431
 40
6.164431
 40
6.164431
 40
6.164431
 10
390.112544
 20
292.419760
 30
0.0
 10
390.434126
 20
292.038483
 30
0.0
 10
391.230844
 20
291.093870
 30
0.0
 10
392.271373
 20
289.311705
 30
0.0
 10
392.970718
 20
287.921965
 30
0.0
 10
393.339424
 20
287.189272
 30
0.0
 11
390.112544
 21
292.419760
 31
0.0
 11
391.049303
 21
291.255443
 31
0.0
 11
392.208585
 21
289.376341
 31
0.0
 11
393.339424
 21
287.189272
 31
0.0
  0
LWPOLYLINE
  5
178
100
AcDbEntity
  8
Layer_1
 62
7
100
AcDbPolyline
 90
3
 70
0
 10
393.339424
 20
287.189272
 30
0.0
 10
395.217584
 20
283.179376
 30
0.0
 10
398.075984
 20
282.422080
 30
0.0
  0
SPLINE
  5
179
100
AcDbEntity
  8
Layer_1
 62
7
100
AcDbSpline
 70
0
 71
3
 72
10
 73
6
 74
4
 40
0.000000
 40
0.000000
 40
0.000000
 40
0.000000
 40
1.909679
 40
4.075327
 40
6.029799
 40
6.029799
 40
6.029799
 40
6.029799
 10
398.075984
 20
282.422080
 30
0.0
 10
398.694060
 20
282.269684
 30
0.0
 10
400.013058
 20
281.944464
 30
0.0
 10
401.981198
 20
281.533603
 30
0.0
 10
403.334496
 20
281.299364
 30
0.0
 10
403.976464
 20
281.188248
 30
0.0
 11
398.075984
 21
282.422080
 31
0.0
 11
399.932671
 21
281.975328
 31
0.0
 11
402.052470
 21
281.532061
 31
0.0
 11
403.976464
 21
281.188248
 31
0.0
  0
LWPOLYLINE
  5
17a
100
AcDbEntity
  8
Layer_1
 62
7
100
AcDbPolyline
 90
5
 70
0
 10
403.976464
 20
281.188248
 30
0.0
 10
407.018544
 20
280.711704
 30
0.0
 10
407.515024
 20
279.417904
 30
0.0
 10
408.011504
 20
278.124104
 30
0.0
 10
404.374544
 20
274.862048
 30
0.0
  0
SPLINE
  5
17b
100
AcDbEntity
  8
Layer_1
 62
7
100
AcDbSpline
 70
0
 71
3
 72
10
 73
6
 74
4
 40
0.000000
 40
0.000000
 40
0.000000
 40
0.000000
 40
4.670120
 40
7.940145
 40
12.539031
 40
12.539031
 40
12.539031
 40
12.539031
 10
404.374544
 20
274.862048
 30
0.0
 10
403.158722
 20
273.846446
 30
0.0
 10
401.091581
 20
272.119717
 30
0.0
 10
399.668716
 20
267.965518
 30
0.0
 10
400.275157
 20
265.362157
 30
0.0
 10
400.629584
 20
263.840656
 30
0.0
 11
404.374544
 21
274.862048
 31
0.0
 11
401.130491
 21
271.502563
 31
0.0
 11
400.078437
 21
268.406397
 31
0.0
 11
400.629584
 21
263.840656
 31
0.0
  0
LWPOLYLINE
  5
17c
100
AcDbEntity
  8
Layer_1
 62
7
100
AcDbPolyline
 90
5
 70
0
 10
400.629584
 20
263.840656
 30
0.0
 10
401.560944
 20
259.106536
 30
0.0
 10
400.643264
 20
258.188792
 30
0.0
 10
399.725504
 20
257.271056
 30
0.0
 10
395.312224
 20
259.435520
 30
0.0
  0
SPLINE
  5
17d
100
AcDbEntity
  8
Layer_1
 62
7
100
AcDbSpline
 70
0
 71
3
 72
10
 73
6
 74
4
 40
0.000000
 40
0.000000
 40
0.000000
 40
0.000000
 40
4.927698
 40
8.548543
 40
12.739883
 40
12.739883
 40
12.739883
 40
12.739883
 10
395.312224
 20
259.435520
 30
0.0
 10
393.827230
 20
260.162566
 30
0.0
 10
391.251070
 20
261.423842
 30
0.0
 10
386.818978
 20
261.594249
 30
0.0
 10
384.506707
 20
260.297812
 30
0.0
 10
383.266144
 20
259.602256
 30
0.0
 11
395.312224
 21
259.435520
 31
0.0
 11
390.725060
 21
261.235557
 31
0.0
 11
387.104562
 21
261.285670
 31
0.0
 11
383.266144
 21
259.602256
 31
0.0
  0
LWPOLYLINE
  5
17e
100
AcDbEntity
  8
Layer_1
 62
7
100
AcDbPolyline
 90
3
 70
0
 10
383.266144
 20
259.602256
 30
0.0
 10
379.857264
 20
257.604528
 30
0.0
 10
375.795824
 20
250.507320
 30
0.0
  0
SPLINE
  5
17f
100
AcDbEntity
  8
Layer_1
 62
7
100
AcDbSpline
 70
0
 71
3
 72
13
 73
9
 74
7
 40
0.000000
 40
0.000000
 40
0.000000
 40
0.000000
 40
7.071398
 40
10.549984
 40
14.841709
 40
20.762986
 40
23.665208
 40
28.853644
 40
28.853644
 40
28.853644
 40
28.853644
 10
375.795824
 20
250.507320
 30
0.0
 10
374.492760
 20
248.552773
 30
0.0
 10
372.548690
 20
245.636738
 30
0.0
 10
371.733292
 20
240.305288
 30
0.0
 10
375.308958
 20
236.993614
 30
0.0
 10
379.075286
 20
233.999107
 30
0.0
 10
377.972776
 20
228.576475
 30
0.0
 10
374.848355
 20
228.483200
 30
0.0
 10
372.844704
 20
228.423384
 30
0.0
 11
375.795824
 21
250.507320
 31
0.0
 11
372.499643
 21
244.251134
 31
0.0
 11
372.270218
 21
240.780122
 31
0.0
 11
374.930304
 21
237.412208
 31
0.0
 11
378.488491
 21
232.679257
 31
0.0
 11
377.832544
 21
229.852133
 31
0.0
 11
372.844704
 21
228.423384
 31
0.0
  0
LWPOLYLINE
  5
180
100
AcDbEntity
  8
Layer_1
 62
7
100
AcDbPolyline
 90
9
 70
0
 10
372.844704
 20
228.423384
 30
0.0
 10
368.402864
 20
227.868416
 30
0.0
 10
366.868624
 20
226.334200
 30
0.0
 10
365.334464
 20
224.800000
 30
0.0
 10
365.334464
 20
213.600000
 30
0.0
 10
365.334464
 20
202.400000
 30
0.0
 10
366.868624
 20
200.865784
 30
0.0
 10
368.402864
 20
199.331568
 30
0.0
 10
372.844704
 20
198.776600
 30
0.0
  0
SPLINE
  5
181
100
AcDbEntity
  8
Layer_1
 62
7
100
AcDbSpline
 70
0
 71
3
 72
13
 73
9
 74
7
 40
0.000000
 40
0.000000
 40
0.000000
 40
0.000000
 40
5.188436
 40
8.090659
 40
14.011936
 40
18.303661
 40
21.782246
 40
28.853644
 40
28.853644
 40
28.853644
 40
28.853644
 10
372.844704
 20
198.776600
 30
0.0
 10
374.848355
 20
198.716784
 30
0.0
 10
377.972776
 20
198.623509
 30
0.0
 10
379.075286
 20
193.200877
 30
0.0
 10
375.308958
 20
190.206370
 30
0.0
 10
371.733292
 20
186.894696
 30
0.0
 10
372.548690
 20
181.563246
 30
0.0
 10
374.492760
 20
178.647211
 30
0.0
 10
375.795824
 20
176.692664
 30
0.0
 11
372.844704
 21
198.776600
 31
0.0
 11
377.832544
 21
197.347851
 31
0.0
 11
378.488491
 21
194.520727
 31
0.0
 11
374.930304
 21
189.787776
 31
0.0
 11
372.270218
 21
186.419862
 31
0.0
 11
372.499643
 21
182.948850
 31
0.0
 11
375.795824
 21
176.692664
 31
0.0
  0
LWPOLYLINE
  5
182
100
AcDbEntity
  8
Layer_1
 62
7
100
AcDbPolyline
 90
3
 70
0
 10
375.795824
 20
176.692664
 30
0.0
 10
379.857264
 20
169.595456
 30
0.0
 10
383.266144
 20
167.597728
 30
0.0
  0
SPLINE
  5
183
100
AcDbEntity
  8
Layer_1
 62
7
100
AcDbSpline
 70
0
 71
3
 72
13
 73
9
 74
7
 40
0.000000
 40
0.000000
 40
0.000000
 40
0.000000
 40
4.262354
 40
7.890326
 40
12.231642
 40
14.447365
 40
16.415201
 40
17.737495
 40
17.737495
 40
17.737495
 40
17.737495
 10
383.266144
 20
167.597728
 30
0.0
 10
384.533355
 20
166.916140
 30
0.0
 10
386.879174
 20
165.654408
 30
0.0
 10
391.143561
 20
165.667531
 30
0.0
 10
394.195399
 20
167.285550
 30
0.0
 10
396.701603
 20
168.599559
 30
0.0
 10
398.402469
 20
169.328230
 30
0.0
 10
399.484371
 20
169.522089
 30
0.0
 10
399.919184
 20
169.600000
 30
0.0
 11
383.266144
 21
167.597728
 31
0.0
 11
387.185972
 21
165.923629
 31
0.0
 11
390.813943
 21
165.927374
 31
0.0
 11
394.816064
 21
167.609648
 31
0.0
 11
396.792002
 21
168.612193
 31
0.0
 11
398.625326
 21
169.327247
 31
0.0
 11
399.919184
 21
169.600000
 31
0.0
  0
LWPOLYLINE
  5
184
100
AcDbEntity
  8
Layer_1
 62
7
100
AcDbPolyline
 90
3
 70
0
 10
399.919184
 20
169.600000
 30
0.0
 10
401.540544
 20
169.600000
 30
0.0
 10
400.885504
 20
165.400000
 30
0.0
  0
SPLINE
  5
185
100
AcDbEntity
  8
Layer_1
 62
7
100
AcDbSpline
 70
0
 71
3
 72
10
 73
6
 74
4
 40
0.000000
 40
0.000000
 40
0.000000
 40
0.000000
 40
2.510825
 40
5.010231
 40
6.961486
 40
6.961486
 40
6.961486
 40
6.961486
 10
400.885504
 20
165.400000
 30
0.0
 10
400.770747
 20
164.570976
 30
0.0
 10
400.541756
 20
162.916700
 30
0.0
 10
400.316105
 20
160.605446
 30
0.0
 10
400.268636
 20
159.122380
 30
0.0
 10
400.247824
 20
158.472176
 30
0.0
 11
400.885504
 21
165.400000
 31
0.0
 11
400.557957
 21
162.910632
 31
0.0
 11
400.328864
 21
160.421747
 31
0.0
 11
400.247824
 21
158.472176
 31
0.0
  0
LWPOLYLINE
  5
186
100
AcDbEntity
  8
Layer_1
 62
7
100
AcDbPolyline
 90
5
 70
0
 10
400.247824
 20
158.472176
 30
0.0
 10
400.265424
 20
155.744352
 30
0.0
 10
404.600064
 20
151.928368
 30
0.0
 10
408.934704
 20
148.112376
 30
0.0
 10
408.050304
 20
147.211760
 30
0.0
  0
SPLINE
  5
187
100
AcDbEntity
  8
Layer_1
 62
7
100
AcDbSpline
 70
0
 71
3
 72
13
 73
9
 74
7
 40
0.000000
 40
0.000000
 40
0.000000
 40
0.000000
 40
1.221273
 40
3.312132
 40
5.852046
 40
10.743889
 40
13.753437
 40
18.039596
 40
18.039596
 40
18.039596
 40
18.039596
 10
408.050304
 20
147.211760
 30
0.0
 10
407.691632
 20
147.016366
 30
0.0
 10
406.718900
 20
146.486450
 30
0.0
 10
404.796070
 20
146.054258
 30
0.0
 10
401.698525
 20
145.427730
 30
0.0
 10
398.142604
 20
145.276454
 30
0.0
 10
394.559182
 20
142.986762
 30
0.0
 10
393.535883
 20
140.721278
 30
0.0
 10
392.934704
 20
139.390328
 30
0.0
 11
408.050304
 21
147.211760
 31
0.0
 11
406.958577
 21
146.664367
 31
0.0
 11
404.946725
 21
146.095031
 31
0.0
 11
402.450304
 21
145.627008
 31
0.0
 11
397.642514
 21
144.724075
 31
0.0
 11
395.125427
 21
143.074333
 31
0.0
 11
392.934704
 21
139.390328
 31
0.0
  0
LWPOLYLINE
  5
188
100
AcDbEntity
  8
Layer_1
 62
7
100
AcDbPolyline
 90
7
 70
0
 10
392.934704
 20
139.390328
 30
0.0
 10
390.534704
 20
134.800000
 30
0.0
 10
388.934704
 20
134.800000
 30
0.0
 10
387.334704
 20
134.800000
 30
0.0
 10
385.132944
 20
139.420464
 30
0.0
 10
382.931184
 20
144.040928
 30
0.0
 10
380.880864
 20
144.820464
 30
0.0
  0
SPLINE
  5
189
100
AcDbEntity
  8
Layer_1
 62
7
100
AcDbSpline
 70
0
 71
3
 72
10
 73
6
 74
4
 40
0.000000
 40
0.000000
 40
0.000000
 40
0.000000
 40
1.610306
 40
3.751962
 40
5.979638
 40
5.979638
 40
5.979638
 40
5.979638
 10
380.880864
 20
144.820464
 30
0.0
 10
380.362746
 20
144.962839
 30
0.0
 10
379.155549
 20
145.294570
 30
0.0
 10
377.168024
 20
145.525012
 30
0.0
 10
375.712748
 20
145.574678
 30
0.0
 10
374.970784
 20
145.600000
 30
0.0
 11
380.880864
 21
144.820464
 31
0.0
 11
379.319163
 21
145.213119
 31
0.0
 11
377.195898
 21
145.493175
 31
0.0
 11
374.970784
 21
145.600000
 31
0.0
  0
LWPOLYLINE
  5
18a
100
AcDbEntity
  8
Layer_1
 62
7
100
AcDbPolyline
 90
11
 70
0
 10
374.970784
 20
145.600000
 30
0.0
 10
371.111024
 20
145.600000
 30
0.0
 10
363.622864
 20
141.800000
 30
0.0
 10
356.134704
 20
138.000000
 30
0.0
 10
356.134704
 20
131.600000
 30
0.0
 10
356.134704
 20
125.200000
 30
0.0
 10
353.945264
 20
124.947888
 30
0.0
 10
351.755904
 20
124.695776
 30
0.0
 10
347.835904
 20
126.899288
 30
0.0
 10
343.915984
 20
129.102808
 30
0.0
 10
341.748704
 20
127.682776
 30
0.0
  0
SPLINE
  5
18b
100
AcDbEntity
  8
Layer_1
 62
7
100
AcDbSpline
 70
0
 71
3
 72
16
 73
12
 74
10
 40
0.000000
 40
0.000000
 40
0.000000
 40
0.000000
 40
1.648774
 40
3.514863
 40
5.228309
 40
7.557056
 40
11.014828
 40
14.857506
 40
18.549565
 40
21.625849
 40
23.459245
 40
23.459245
 40
23.459245
 40
23.459245
 10
341.748704
 20
127.682776
 30
0.0
 10
341.314337
 20
127.345012
 30
0.0
 10
340.388351
 20
126.624965
 30
0.0
 10
339.214336
 20
125.320634
 30
0.0
 10
338.140160
 20
123.667629
 30
0.0
 10
336.838944
 20
121.532790
 30
0.0
 10
334.967664
 20
118.921980
 30
0.0
 10
332.743162
 20
116.008169
 30
0.0
 10
330.689973
 20
113.136592
 30
0.0
 10
329.109356
 20
110.717142
 30
0.0
 10
328.568801
 20
109.167994
 30
0.0
 10
328.366944
 20
108.589504
 30
0.0
 11
341.748704
 21
127.682776
 31
0.0
 11
340.475688
 21
126.634977
 31
0.0
 11
339.221640
 21
125.253074
 31
0.0
 11
338.258064
 21
123.836240
 31
0.0
 11
337.015297
 21
121.866826
 31
0.0
 11
335.029311
 21
119.036270
 31
0.0
 11
332.730064
 21
115.957368
 31
0.0
 11
330.590440
 21
112.948497
 31
0.0
 11
329.022941
 21
110.301522
 31
0.0
 11
328.366944
 21
108.589504
 31
0.0
  0
LWPOLYLINE
  5
18c
100
AcDbEntity
  8
Layer_1
 62
7
100
AcDbPolyline
 90
3
 70
0
 10
328.366944
 20
108.589504
 30
0.0
 10
328.208384
 20
106.674016
 30
0.0
 10
331.571504
 20
102.685520
 30
0.0
  0
SPLINE
  5
18d
100
AcDbEntity
  8
Layer_1
 62
7
100
AcDbSpline
 70
0
 71
3
 72
10
 73
6
 74
4
 40
0.000000
 40
0.000000
 40
0.000000
 40
0.000000
 40
5.620341
 40
8.457511
 40
14.147832
 40
14.147832
 40
14.147832
 40
14.147832
 10
331.571504
 20
102.685520
 30
0.0
 10
333.125722
 20
101.271463
 30
0.0
 10
335.464516
 20
99.143586
 30
0.0
 10
333.607181
 20
93.994723
 30
0.0
 10
330.443392
 20
93.775655
 30
0.0
 10
328.332224
 20
93.629472
 30
0.0
 11
331.571504
 21
102.685520
 31
0.0
 11
334.710997
 21
98.023780
 31
0.0
 11
333.755451
 21
95.352364
 31
0.0
 11
328.332224
 21
93.629472
 31
0.0
  0
LWPOLYLINE
  5
18e
100
AcDbEntity
  8
Layer_1
 62
7
100
AcDbPolyline
 90
3
 70
0
 10
328.332224
 20
93.629472
 30
0.0
 10
323.729664
 20
92.685536
 30
0.0
 10
322.893824
 20
91.123728
 30
0.0
  0
SPLINE
  5
18f
100
AcDbEntity
  8
Layer_1
 62
7
100
AcDbSpline
 70
0
 71
3
 72
10
 73
6
 74
4
 40
0.000000
 40
0.000000
 40
0.000000
 40
0.000000
 40
1.786798
 40
4.812352
 40
8.435559
 40
8.435559
 40
8.435559
 40
8.435559
 10
322.893824
 20
91.123728
 30
0.0
 10
322.702237
 20
90.559207
 30
0.0
 10
322.186239
 20
89.038793
 30
0.0
 10
321.679317
 20
86.264667
 30
0.0
 10
321.345860
 20
84.074917
 30
0.0
 10
321.164144
 20
82.881624
 30
0.0
 11
322.893824
 21
91.123728
 31
0.0
 11
322.350331
 21
89.421594
 31
0.0
 11
321.728917
 21
86.460542
 31
0.0
 11
321.164144
 21
82.881624
 31
0.0
  0
LWPOLYLINE
  5
190
100
AcDbEntity
  8
Layer_1
 62
7
100
AcDbPolyline
 90
3
 70
0
 10
321.164144
 20
82.881624
 30
0.0
 10
320.270384
 20
76.201320
 30
0.0
 10
321.317024
 20
72.462944
 30
0.0
  0
SPLINE
  5
191
100
AcDbEntity
  8
Layer_1
 62
7
100
AcDbSpline
 70
0
 71
3
 72
10
 73
6
 74
4
 40
0.000000
 40
0.000000
 40
0.000000
 40
0.000000
 40
2.269214
 40
4.502571
 40
6.240149
 40
6.240149
 40
6.240149
 40
6.240149
 10
321.317024
 20
72.462944
 30
0.0
 10
321.550202
 20
71.743476
 30
0.0
 10
322.012873
 20
70.315908
 30
0.0
 10
322.846632
 20
68.399960
 30
0.0
 10
323.564503
 20
67.286089
 30
0.0
 10
323.878624
 20
66.798688
 30
0.0
 11
321.317024
 21
72.462944
 31
0.0
 11
322.051845
 21
70.315999
 31
0.0
 11
322.972123
 21
68.281062
 31
0.0
 11
323.878624
 21
66.798688
 31
0.0
  0
LWPOLYLINE
  5
192
100
AcDbEntity
  8
Layer_1
 62
7
100
AcDbPolyline
 90
15
 70
0
 10
323.878624
 20
66.798688
 30
0.0
 10
325.393504
 20
64.872792
 30
0.0
 10
330.150624
 20
64.334584
 30
0.0
 10
334.907744
 20
63.796376
 30
0.0
 10
335.819184
 20
62.698176
 30
0.0
 10
336.730624
 20
61.599968
 30
0.0
 10
332.968464
 20
57.030168
 30
0.0
 10
329.206384
 20
52.460368
 30
0.0
 10
329.751104
 20
47.036008
 30
0.0
 10
330.295904
 20
41.611648
 30
0.0
 10
328.943904
 20
41.092840
 30
0.0
 10
327.591904
 20
40.574040
 30
0.0
 10
322.999024
 20
42.769256
 30
0.0
 10
318.406064
 20
44.964480
 30
0.0
 10
314.296944
 20
42.882240
 30
0.0
  0
SPLINE
  5
193
100
AcDbEntity
  8
Layer_1
 62
7
100
AcDbSpline
 70
0
 71
3
 72
10
 73
6
 74
4
 40
0.000000
 40
0.000000
 40
0.000000
 40
0.000000
 40
4.042137
 40
6.242060
 40
7.995607
 40
7.995607
 40
7.995607
 40
7.995607
 10
314.296944
 20
42.882240
 30
0.0
 10
313.126206
 20
42.289044
 30
0.0
 10
311.318296
 20
41.373003
 30
0.0
 10
308.469905
 20
40.571863
 30
0.0
 10
307.441437
 20
41.518926
 30
0.0
 10
306.985264
 20
41.938992
 30
0.0
 11
314.296944
 21
42.882240
 31
0.0
 11
310.610372
 21
41.224514
 31
0.0
 11
308.428529
 21
40.943044
 31
0.0
 11
306.985264
 21
41.938992
 31
0.0
  0
LWPOLYLINE
  5
194
100
AcDbEntity
  8
Layer_1
 62
7
100
AcDbPolyline
 90
5
 70
0
 10
306.985264
 20
41.938992
 30
0.0
 10
306.039984
 20
43.077984
 30
0.0
 10
306.765104
 20
47.067512
 30
0.0
 10
307.490224
 20
51.057048
 30
0.0
 10
306.531504
 20
53.337216
 30
0.0
  0
SPLINE
  5
195
100
AcDbEntity
  8
Layer_1
 62
7
100
AcDbSpline
 70
0
 71
3
 72
10
 73
6
 74
4
 40
0.000000
 40
0.000000
 40
0.000000
 40
0.000000
 40
1.734809
 40
3.976553
 40
6.289649
 40
6.289649
 40
6.289649
 40
6.289649
 10
306.531504
 20
53.337216
 30
0.0
 10
306.236287
 20
53.836143
 30
0.0
 10
305.559586
 20
54.979790
 30
0.0
 10
304.082629
 20
56.495872
 30
0.0
 10
302.884933
 20
57.428129
 30
0.0
 10
302.276704
 20
57.901560
 30
0.0
 11
306.531504
 21
53.337216
 31
0.0
 11
305.596923
 21
54.798764
 31
0.0
 11
304.068351
 21
56.438546
 31
0.0
 11
302.276704
 21
57.901560
 31
0.0
  0
LWPOLYLINE
  5
196
100
AcDbEntity
  8
Layer_1
 62
7
100
AcDbPolyline
 90
3
 70
0
 10
302.276704
 20
57.901560
 30
0.0
 10
298.980624
 20
60.185736
 30
0.0
 10
293.957664
 20
61.224904
 30
0.0
  0
SPLINE
  5
197
100
AcDbEntity
  8
Layer_1
 62
7
100
AcDbSpline
 70
0
 71
3
 72
16
 73
12
 74
10
 40
0.000000
 40
0.000000
 40
0.000000
 40
0.000000
 40
4.533654
 40
8.223543
 40
10.930529
 40
12.018380
 40
14.093253
 40
16.750523
 40
22.396017
 40
25.436813
 40
31.369300
 40
31.369300
 40
31.369300
 40
31.369300
 10
293.957664
 20
61.224904
 30
0.0
 10
292.465828
 20
61.536462
 30
0.0
 10
289.759804
 20
62.101595
 30
0.0
 10
286.226904
 20
62.302879
 30
0.0
 10
283.534716
 20
62.929940
 30
0.0
 10
281.947414
 20
61.656147
 30
0.0
 10
280.759673
 20
60.122349
 30
0.0
 10
278.753693
 20
57.412193
 30
0.0
 10
277.006396
 20
53.227430
 30
0.0
 10
271.324923
 20
53.820983
 30
0.0
 10
270.142028
 20
56.882841
 30
0.0
 10
269.359984
 20
58.907120
 30
0.0
 11
293.957664
 21
61.224904
 31
0.0
 11
289.496763
 21
62.033843
 31
0.0
 11
285.831578
 21
62.460101
 31
0.0
 11
283.124704
 21
62.484768
 31
0.0
 11
282.239151
 21
61.852932
 31
0.0
 11
280.888337
 21
60.278004
 31
0.0
 11
279.364704
 21
58.100936
 31
0.0
 11
275.744363
 21
53.769108
 31
0.0
 11
272.713391
 21
54.013343
 31
0.0
 11
269.359984
 21
58.907120
 31
0.0
  0
LWPOLYLINE
  5
198
100
AcDbEntity
  8
Layer_1
 62
7
100
AcDbPolyline
 90
5
 70
0
 10
269.359984
 20
58.907120
 30
0.0
 10
267.307584
 20
62.800000
 30
0.0
 10
264.644144
 20
63.056432
 30
0.0
 10
261.980704
 20
63.312856
 30
0.0
 10
257.857664
 20
61.300328
 30
0.0
  0
SPLINE
  5
199
100
AcDbEntity
  8
Layer_1
 62
7
100
AcDbSpline
 70
0
 71
3
 72
13
 73
9
 74
7
 40
0.000000
 40
0.000000
 40
0.000000
 40
0.000000
 40
2.761693
 40
5.606074
 40
7.936123
 40
10.058027
 40
12.364677
 40
14.391024
 40
14.391024
 40
14.391024
 40
14.391024
 10
257.857664
 20
61.300328
 30
0.0
 10
257.016058
 20
60.927173
 30
0.0
 10
255.307649
 20
60.169690
 30
0.0
 10
252.799655
 20
59.305698
 30
0.0
 10
250.420892
 20
58.792486
 30
0.0
 10
248.218725
 20
58.310903
 30
0.0
 10
246.193824
 20
57.546620
 30
0.0
 10
244.939742
 20
56.827484
 30
0.0
 10
244.353264
 20
56.491176
 30
0.0
 11
257.857664
 21
61.300328
 31
0.0
 11
255.317501
 21
60.216575
 31
0.0
 11
252.621480
 21
59.309948
 31
0.0
 11
250.353264
 21
58.776728
 31
0.0
 11
248.291255
 21
58.276131
 31
0.0
 11
246.135700
 21
57.455026
 31
0.0
 11
244.353264
 21
56.491176
 31
0.0
  0
LWPOLYLINE
  5
19a
100
AcDbEntity
  8
Layer_1
 62
7
100
AcDbPolyline
 90
5
 70
0
 10
244.353264
 20
56.491176
 30
0.0
 10
241.734704
 20
54.716688
 30
0.0
 10
241.734704
 20
48.358344
 30
0.0
 10
241.734704
 20
42.000000
 30
0.0
 10
239.929584
 20
41.743688
 30
0.0
  0
SPLINE
  5
19b
100
AcDbEntity
  8
Layer_1
 62
7
100
AcDbSpline
 70
0
 71
3
 72
10
 73
6
 74
4
 40
0.000000
 40
0.000000
 40
0.000000
 40
0.000000
 40
1.528982
 40
3.872463
 40
6.561268
 40
6.561268
 40
6.561268
 40
6.561268
 10
239.929584
 20
41.743688
 30
0.0
 10
239.419624
 20
41.777518
 30
0.0
 10
238.128046
 20
41.863201
 30
0.0
 10
236.030875
 20
42.548611
 30
0.0
 10
234.483437
 20
43.190075
 30
0.0
 10
233.656624
 20
43.532816
 30
0.0
 11
239.929584
 21
41.743688
 31
0.0
 11
238.408097
 21
41.894885
 31
0.0
 11
236.154485
 21
42.537645
 31
0.0
 11
233.656624
 21
43.532816
 31
0.0
  0
LWPOLYLINE
  5
19c
100
AcDbEntity
  8
Layer_1
 62
7
100
AcDbPolyline
 90
3
 70
0
 10
233.656624
 20
43.532816
 30
0.0
 10
229.188864
 20
45.578248
 30
0.0
 10
227.792704
 20
44.831064
 30
0.0
  0
SPLINE
  5
19d
100
AcDbEntity
  8
Layer_1
 62
7
100
AcDbSpline
 70
0
 71
3
 72
10
 73
6
 74
4
 40
0.000000
 40
0.000000
 40
0.000000
 40
0.000000
 40
1.754831
 40
4.870010
 40
8.680985
 40
8.680985
 40
8.680985
 40
8.680985
 10
227.792704
 20
44.831064
 30
0.0
 10
227.329143
 20
44.473667
 30
0.0
 10
226.042666
 20
43.481818
 30
0.0
 10
223.989337
 20
41.433965
 30
0.0
 10
222.388392
 20
39.771942
 30
0.0
 10
221.507504
 20
38.857448
 30
0.0
 11
227.792704
 21
44.831064
 31
0.0
 11
226.419492
 21
43.738489
 31
0.0
 11
224.161463
 21
41.592412
 31
0.0
 11
221.507504
 21
38.857448
 31
0.0
  0
LWPOLYLINE
  5
19e
100
AcDbEntity
  8
Layer_1
 62
7
100
AcDbPolyline
 90
3
 70
0
 10
221.507504
 20
38.857448
 30
0.0
 10
216.618464
 20
33.631008
 30
0.0
 10
215.781024
 20
30.615504
 30
0.0
  0
SPLINE
  5
19f
100
AcDbEntity
  8
Layer_1
 62
7
100
AcDbSpline
 70
0
 71
3
 72
10
 73
6
 74
4
 40
0.000000
 40
0.000000
 40
0.000000
 40
0.000000
 40
1.953430
 40
4.076376
 40
5.920535
 40
5.920535
 40
5.920535
 40
5.920535
 10
215.781024
 20
30.615504
 30
0.0
 10
215.631388
 20
29.981658
 30
0.0
 10
215.319131
 20
28.658962
 30
0.0
 10
215.033037
 20
26.702021
 30
0.0
 10
214.968913
 20
25.380769
 30
0.0
 10
214.939104
 20
24.766568
 30
0.0
 11
215.781024
 21
30.615504
 31
0.0
 11
215.358588
 21
28.708297
 31
0.0
 11
215.056100
 21
26.607012
 31
0.0
 11
214.939104
 21
24.766568
 31
0.0
  0
LWPOLYLINE
  5
1a0
100
AcDbEntity
  8
Layer_1
 62
7
100
AcDbPolyline
 90
3
 70
0
 10
214.939104
 20
24.766568
 30
0.0
 10
214.931104
 20
21.933136
 30
0.0
 10
218.531104
 20
18.400000
 30
0.0
  0
SPLINE
  5
1a1
100
AcDbEntity
  8
Layer_1
 62
7
100
AcDbSpline
 70
0
 71
3
 72
13
 73
9
 74
7
 40
0.000000
 40
0.000000
 40
0.000000
 40
0.000000
 40
5.092054
 40
7.479140
 40
12.764252
 40
16.930948
 40
20.083804
 40
24.250749
 40
24.250749
 40
24.250749
 40
24.250749
 10
218.531104
 20
18.400000
 30
0.0
 10
220.118589
 20
17.252827
 30
0.0
 10
222.450265
 20
15.567875
 30
0.0
 10
220.760783
 20
10.847984
 30
0.0
 10
216.044356
 20
11.116185
 30
0.0
 10
212.013009
 20
10.304242
 30
0.0
 10
208.794735
 20
7.910119
 30
0.0
 10
207.821371
 20
5.630166
 30
0.0
 10
207.267264
 20
4.332256
 30
0.0
 11
218.531104
 21
18.400000
 31
0.0
 11
221.753871
 21
14.457566
 31
0.0
 11
220.946790
 21
12.211058
 31
0.0
 11
215.830944
 21
10.884208
 31
0.0
 11
211.782802
 21
9.897348
 31
0.0
 11
209.278766
 21
7.981543
 31
0.0
 11
207.267264
 21
4.332256
 31
0.0
  0
LWPOLYLINE
  5
1a2
100
AcDbEntity
  8
Layer_1
 62
7
100
AcDbPolyline
 90
6
 70
0
 10
207.267264
 20
4.332256
 30
0.0
 10
205.351344
 20
-0.000000
 30
0.0
 10
203.770784
 20
-0.000000
 30
0.0
 10
202.190304
 20
-0.000000
 30
0.0
 10
199.960704
 20
4.600000
 30
0.0
 10
199.960784
 20
4.600000
 30
0.0
  0
ENDSEC
  0
SECTION
  2
OBJECTS
  0
DICTIONARY
  5
C
330
0
100
AcDbDictionary
  3
ACAD_GROUP
350
D
  3
ACAD_MLINESTYLE
350
17
  0
DICTIONARY
  5
D
330
C
100
AcDbDictionary
  0
DICTIONARY
  5
1A
330
C
100
AcDbDictionary
  0
DICTIONARY
  5
17
330
C
100
AcDbDictionary
  3
STANDARD
350
18
  0
DICTIONARY
  5
19
330
C
100
AcDbDictionary
  0
ENDSEC
  0
EOF
