  0
SECTION
  2
HEADER
  9
$ACADVER
  1
AC1014
  9
$HANDSEED
  5
FFFF
  9
$MEASUREMENT
 70
     1
  0
ENDSEC
  0
SECTION
  2
TABLES
  0
TABLE
  2
VPORT
  5
8
330
0
100
AcDbSymbolTable
 70
     4
  0
VPORT
  5
2E
330
8
100
AcDbSymbolTableRecord
100
AcDbViewportTableRecord
  2
*ACTIVE
 70
     0
 10
0.0
 20
0.0
 11
1.0
 21
1.0
 12
210.0
 22
148.5
 13
0.0
 23
0.0
 14
10.0
 24
10.0
 15
10.0
 25
10.0
 16
0.0
 26
0.0
 36
1.0
 17
0.0
 27
0.0
 37
0.0
 40
341.0
 41
1.24
 42
50.0
 43
0.0
 44
0.0
 50
0.0
 51
0.0
 71
     0
 72
   100
 73
     1
 74
     3
 75
     0
 76
     0
 77
     0
 78
     0
  0
ENDTAB
  0
TABLE
  2
LTYPE
  5
5
330
0
100
AcDbSymbolTable
 70
     1
  0
LTYPE
  5
14
330
5
100
AcDbSymbolTableRecord
100
AcDbLinetypeTableRecord
  2
BYBLOCK
 70
     0
  3

 72
    65
 73
     0
 40
0.0
  0
LTYPE
  5
15
330
5
100
AcDbSymbolTableRecord
100
AcDbLinetypeTableRecord
  2
BYLAYER
 70
     0
  3

 72
    65
 73
     0
 40
0.0
  0
LTYPE
  5
16
330
5
100
AcDbSymbolTableRecord
100
AcDbLinetypeTableRecord
  2
CONTINUOUS
 70
     0
  3
Solid line
 72
    65
 73
     0
 40
0.0
  0
ENDTAB
  0
TABLE
  2
LAYER
  5
2
100
AcDbSymbolTable
 70
2
  0
LAYER
  5
50
100
AcDbSymbolTableRecord
100
AcDbLayerTableRecord
  2
0
 70
0
  6
CONTINUOUS
  0
LAYER
  5
51
100
AcDbSymbolTableRecord
100
AcDbLayerTableRecord
  2
Layer_1
 70
0
  6
CONTINUOUS
  0
ENDTAB
  0
TABLE
  2
STYLE
  5
3
330
0
100
AcDbSymbolTable
 70
     1
  0
STYLE
  5
11
330
3
100
AcDbSymbolTableRecord
100
AcDbTextStyleTableRecord
  2
STANDARD
 70
     0
 40
0.0
 41
1.0
 50
0.0
 71
     0
 42
2.5
  3
txt
  4

  0
ENDTAB
  0
TABLE
  2
VIEW
  5
6
330
0
100
AcDbSymbolTable
 70
     0
  0
ENDTAB
  0
TABLE
  2
UCS
  5
7
330
0
100
AcDbSymbolTable
 70
     0
  0
ENDTAB
  0
TABLE
  2
APPID
  5
9
330
0
100
AcDbSymbolTable
 70
     2
  0
APPID
  5
12
330
9
100
AcDbSymbolTableRecord
100
AcDbRegAppTableRecord
  2
ACAD
 70
     0
  0
ENDTAB
  0
TABLE
  2
DIMSTYLE
  5
A
330
0
100
AcDbSymbolTable
 70
     1
  0
DIMSTYLE
105
27
330
A
100
AcDbSymbolTableRecord
100
AcDbDimStyleTableRecord
  2
ISO-25
 70
     0
  3

  4

  5

  6

  7

 40
1.0
 41
2.5
 42
0.625
 43
3.75
 44
1.25
 45
0.0
 46
0.0
 47
0.0
 48
0.0
140
2.5
141
2.5
142
0.0
143
0.03937007874016
144
1.0
145
0.0
146
1.0
147
0.625
 71
     0
 72
     0
 73
     0
 74
     0
 75
     0
 76
     0
 77
     1
 78
     8
170
     0
171
     3
172
     1
173
     0
174
     0
175
     0
176
     0
177
     0
178
     0
270
     2
271
     2
272
     2
273
     2
274
     3
340
11
275
     0
280
     0
281
     0
282
     0
283
     0
284
     8
285
     0
286
     0
287
     3
288
     0
  0
ENDTAB
  0
TABLE
  2
BLOCK_RECORD
  5
1
330
0
100
AcDbSymbolTable
 70
     1
  0
BLOCK_RECORD
  5
1F
330
1
100
AcDbSymbolTableRecord
100
AcDbBlockTableRecord
  2
*MODEL_SPACE
  0
BLOCK_RECORD
  5
1B
330
1
100
AcDbSymbolTableRecord
100
AcDbBlockTableRecord
  2
*PAPER_SPACE
  0
ENDTAB
  0
ENDSEC
  0
SECTION
  2
BLOCKS
  0
BLOCK
  5
20
330
1F
100
AcDbEntity
  8
0
100
AcDbBlockBegin
  2
*MODEL_SPACE
 70
     0
 10
0.0
 20
0.0
 30
0.0
  3
*MODEL_SPACE
  1

  0
ENDBLK
  5
21
330
1F
100
AcDbEntity
  8
0
100
AcDbBlockEnd
  0
BLOCK
  5
1C
330
1B
100
AcDbEntity
 67
     1
  8
0
100
AcDbBlockBegin
  2
*PAPER_SPACE
  1

  0
ENDBLK
  5
1D
330
1B
100
AcDbEntity
 67
     1
  8
0
100
AcDbBlockEnd
  0
ENDSEC
  0
SECTION
  2
ENTITIES
  0
LWPOLYLINE
  5
100
100
AcDbEntity
  8
Layer_1
 62
7
100
AcDbPolyline
 90
465
 70
0
 10
202.972408
 20
0.569168
 30
0.0
 10
201.901400
 20
2.417704
 30
0.0
 10
200.489288
 20
5.403584
 30
0.0
 10
197.521568
 20
9.514496
 30
0.0
 10
190.345928
 20
11.751120
 30
0.0
 10
185.353936
 20
14.274448
 30
0.0
 10
189.076888
 20
19.474200
 30
0.0
 10
192.443784
 20
23.177456
 30
0.0
 10
193.119528
 20
26.448544
 30
0.0
 10
192.699760
 20
29.547160
 30
0.0
 10
191.719528
 20
32.560664
 30
0.0
 10
185.810560
 20
40.257896
 30
0.0
 10
179.900168
 20
45.207776
 30
0.0
 10
177.873640
 20
44.719728
 30
0.0
 10
174.774968
 20
43.546328
 30
0.0
 10
171.375784
 20
42.449728
 30
0.0
 10
168.626648
 20
42.146328
 30
0.0
 10
167.483568
 20
42.277056
 30
0.0
 10
166.340488
 20
42.407776
 30
0.0
 10
166.225728
 20
45.853696
 30
0.0
 10
166.110968
 20
49.299608
 30
0.0
 10
165.996168
 20
52.745528
 30
0.0
 10
165.881376
 20
56.191448
 30
0.0
 10
164.396160
 20
56.818752
 30
0.0
 10
162.910944
 20
57.446064
 30
0.0
 10
159.925056
 20
58.477280
 30
0.0
 10
156.917472
 20
59.194800
 30
0.0
 10
154.000856
 20
60.004928
 30
0.0
 10
151.233680
 20
61.258808
 30
0.0
 10
148.445424
 20
62.423224
 30
0.0
 10
145.478152
 20
63.018240
 30
0.0
 10
142.498384
 20
62.594848
 30
0.0
 10
140.111904
 20
59.009136
 30
0.0
 10
134.594312
 20
53.410816
 30
0.0
 10
128.956072
 20
58.532416
 30
0.0
 10
127.648288
 20
60.745760
 30
0.0
 10
126.340512
 20
62.959112
 30
0.0
 10
123.894080
 20
62.715624
 30
0.0
 10
121.447656
 20
62.472144
 30
0.0
 10
112.210576
 20
60.613632
 30
0.0
 10
105.677848
 20
57.120864
 30
0.0
 10
104.146520
 20
55.854424
 30
0.0
 10
102.615192
 20
54.587992
 30
0.0
 10
102.893376
 20
51.248360
 30
0.0
 10
103.171568
 20
47.908736
 30
0.0
 10
102.608096
 20
40.900960
 30
0.0
 10
96.412056
 20
42.311280
 30
0.0
 10
89.930024
 20
44.259712
 30
0.0
 10
84.663640
 20
41.954888
 30
0.0
 10
81.610344
 20
40.277376
 30
0.0
 10
79.319504
 20
39.754888
 30
0.0
 10
77.653472
 20
41.872648
 30
0.0
 10
78.330544
 20
49.660640
 30
0.0
 10
78.629536
 20
51.687072
 30
0.0
 10
78.928528
 20
53.713496
 30
0.0
 10
76.597656
 20
56.231112
 30
0.0
 10
74.266792
 20
58.748728
 30
0.0
 10
70.560872
 20
63.151440
 30
0.0
 10
71.005160
 20
64.807728
 30
0.0
 10
73.335720
 20
65.688120
 30
0.0
 10
76.972888
 20
66.367168
 30
0.0
 10
83.272016
 20
67.653608
 30
0.0
 10
85.604016
 20
71.262720
 30
0.0
 10
86.609992
 20
75.727872
 30
0.0
 10
86.529792
 20
82.854240
 30
0.0
 10
85.938640
 20
88.848976
 30
0.0
 10
85.137280
 20
92.011664
 30
0.0
 10
83.068880
 20
93.095784
 30
0.0
 10
79.431432
 20
94.093064
 30
0.0
 10
73.005240
 20
97.472600
 30
0.0
 10
76.855968
 20
104.610080
 30
0.0
 10
78.751928
 20
107.278768
 30
0.0
 10
79.540512
 20
109.478976
 30
0.0
 10
78.424264
 20
112.241800
 30
0.0
 10
75.740512
 20
116.263184
 30
0.0
 10
72.343152
 20
120.738968
 30
0.0
 10
69.511200
 20
124.594296
 30
0.0
 10
65.518872
 20
128.072424
 30
0.0
 10
60.343056
 20
126.809072
 30
0.0
 10
57.245128
 20
125.668888
 30
0.0
 10
54.481632
 20
125.361480
 30
0.0
 10
53.211072
 20
125.484632
 30
0.0
 10
51.940512
 20
125.607776
 30
0.0
 10
51.740512
 20
129.007776
 30
0.0
 10
51.540512
 20
132.407776
 30
0.0
 10
51.340512
 20
135.807776
 30
0.0
 10
51.140512
 20
139.207776
 30
0.0
 10
48.140512
 20
140.689488
 30
0.0
 10
45.140512
 20
142.171192
 30
0.0
 10
36.748544
 20
145.525344
 30
0.0
 10
30.478704
 20
145.508384
 30
0.0
 10
27.231584
 20
144.097464
 30
0.0
 10
24.404856
 20
139.407760
 30
0.0
 10
19.929560
 20
133.910632
 30
0.0
 10
15.443032
 20
139.348160
 30
0.0
 10
12.470960
 20
144.147064
 30
0.0
 10
8.093168
 20
145.736696
 30
0.0
 10
0.532464
 20
149.035432
 30
0.0
 10
3.340512
 20
153.762488
 30
0.0
 10
5.647840
 20
155.578112
 30
0.0
 10
6.982480
 20
156.803200
 30
0.0
 10
7.296736
 20
159.273672
 30
0.0
 10
7.150824
 20
164.083528
 30
0.0
 10
7.783264
 20
171.570128
 30
0.0
 10
13.852936
 20
170.051960
 30
0.0
 10
17.831504
 20
168.325744
 30
0.0
 10
20.597664
 20
167.607760
 30
0.0
 10
26.545032
 20
170.658248
 30
0.0
 10
32.675800
 20
179.047048
 30
0.0
 10
35.264000
 20
183.939736
 30
0.0
 10
36.340512
 20
186.262200
 30
0.0
 10
35.283008
 20
187.800472
 30
0.0
 10
32.740512
 20
190.807760
 30
0.0
 10
29.226744
 20
197.752864
 30
0.0
 10
35.640320
 20
200.891968
 30
0.0
 10
41.235536
 20
203.196800
 30
0.0
 10
41.940512
 20
214.807760
 30
0.0
 10
41.235536
 20
226.418720
 30
0.0
 10
35.640320
 20
228.723552
 30
0.0
 10
29.226744
 20
231.862656
 30
0.0
 10
32.740512
 20
238.807760
 30
0.0
 10
35.283016
 20
241.815048
 30
0.0
 10
36.340512
 20
243.353320
 30
0.0
 10
35.264000
 20
245.675784
 30
0.0
 10
32.675800
 20
250.568472
 30
0.0
 10
26.544000
 20
258.958216
 30
0.0
 10
20.593888
 20
262.007760
 30
0.0
 10
18.060768
 20
261.406464
 30
0.0
 10
14.647808
 20
259.960784
 30
0.0
 10
11.285568
 20
258.587656
 30
0.0
 10
8.874400
 20
258.160784
 30
0.0
 10
7.423328
 20
259.354544
 30
0.0
 10
7.364128
 20
265.207760
 30
0.0
 10
7.066080
 20
272.147576
 30
0.0
 10
3.738928
 20
275.501936
 30
0.0
 10
-0.000000
 20
280.808720
 30
0.0
 10
7.253120
 20
283.944056
 30
0.0
 10
9.956032
 20
284.387400
 30
0.0
 10
12.658944
 20
284.830744
 30
0.0
 10
14.038688
 20
287.525000
 30
0.0
 10
15.418440
 20
290.219256
 30
0.0
 10
19.924960
 20
295.704872
 30
0.0
 10
24.404896
 20
290.207736
 30
0.0
 10
27.231624
 20
285.518032
 30
0.0
 10
30.478744
 20
284.107112
 30
0.0
 10
36.748584
 20
284.090152
 30
0.0
 10
45.140552
 20
287.444304
 30
0.0
 10
48.140552
 20
288.926024
 30
0.0
 10
51.140552
 20
290.407744
 30
0.0
 10
51.340552
 20
293.807744
 30
0.0
 10
51.540552
 20
297.207744
 30
0.0
 10
51.740552
 20
300.607744
 30
0.0
 10
51.940552
 20
304.007744
 30
0.0
 10
53.211112
 20
304.130896
 30
0.0
 10
54.481672
 20
304.254040
 30
0.0
 10
57.245160
 20
303.946632
 30
0.0
 10
60.343096
 20
302.806448
 30
0.0
 10
65.518912
 20
301.543096
 30
0.0
 10
69.511240
 20
305.021224
 30
0.0
 10
72.343192
 20
308.876552
 30
0.0
 10
75.740552
 20
313.352336
 30
0.0
 10
78.424304
 20
317.373720
 30
0.0
 10
79.540552
 20
320.136544
 30
0.0
 10
78.751968
 20
322.336752
 30
0.0
 10
76.856008
 20
325.005440
 30
0.0
 10
73.005288
 20
332.142928
 30
0.0
 10
79.431472
 20
335.522456
 30
0.0
 10
83.068920
 20
336.519744
 30
0.0
 10
85.137320
 20
337.603856
 30
0.0
 10
85.938680
 20
340.766544
 30
0.0
 10
86.529832
 20
346.761280
 30
0.0
 10
86.610032
 20
353.887648
 30
0.0
 10
85.604056
 20
358.352800
 30
0.0
 10
83.393880
 20
361.880088
 30
0.0
 10
77.750112
 20
363.188080
 30
0.0
 10
73.319616
 20
364.582912
 30
0.0
 10
71.540552
 20
366.799560
 30
0.0
 10
72.618728
 20
368.531016
 30
0.0
 10
75.210944
 20
371.742424
 30
0.0
 10
78.318320
 20
375.972552
 30
0.0
 10
78.306960
 20
380.007744
 30
0.0
 10
77.655904
 20
387.770072
 30
0.0
 10
79.319528
 20
389.860632
 30
0.0
 10
81.610368
 20
389.338144
 30
0.0
 10
84.663664
 20
387.660632
 30
0.0
 10
89.930048
 20
385.355816
 30
0.0
 10
96.412080
 20
387.304240
 30
0.0
 10
102.608400
 20
388.714320
 30
0.0
 10
103.171200
 20
381.702112
 30
0.0
 10
102.892816
 20
378.360152
 30
0.0
 10
102.614432
 20
375.018192
 30
0.0
 10
104.375880
 20
373.574824
 30
0.0
 10
106.137328
 20
372.131448
 30
0.0
 10
110.150352
 20
369.604984
 30
0.0
 10
115.452672
 20
368.026224
 30
0.0
 10
124.754120
 20
366.936960
 30
0.0
 10
128.969192
 20
371.158768
 30
0.0
 10
134.607064
 20
376.202392
 30
0.0
 10
140.111928
 20
370.606384
 30
0.0
 10
142.498408
 20
367.020672
 30
0.0
 10
145.478176
 20
366.597280
 30
0.0
 10
148.445448
 20
367.192296
 30
0.0
 10
151.233704
 20
368.356712
 30
0.0
 10
154.000880
 20
369.610592
 30
0.0
 10
156.917496
 20
370.420720
 30
0.0
 10
159.925080
 20
371.138240
 30
0.0
 10
162.910968
 20
372.169456
 30
0.0
 10
164.396184
 20
372.796768
 30
0.0
 10
165.881400
 20
373.424072
 30
0.0
 10
165.996192
 20
376.869992
 30
0.0
 10
166.110992
 20
380.315912
 30
0.0
 10
166.225752
 20
383.761832
 30
0.0
 10
166.340512
 20
387.207744
 30
0.0
 10
167.483592
 20
387.338472
 30
0.0
 10
168.626672
 20
387.469192
 30
0.0
 10
171.375808
 20
387.165792
 30
0.0
 10
174.774992
 20
386.069192
 30
0.0
 10
177.873664
 20
384.895792
 30
0.0
 10
179.900192
 20
384.407744
 30
0.0
 10
185.810592
 20
389.357624
 30
0.0
 10
191.719552
 20
397.054856
 30
0.0
 10
192.699656
 20
400.056992
 30
0.0
 10
193.119552
 20
403.128280
 30
0.0
 10
192.388040
 20
406.443032
 30
0.0
 10
188.740512
 20
410.510448
 30
0.0
 10
185.633008
 20
413.766280
 30
0.0
 10
184.340512
 20
415.609720
 30
0.0
 10
186.267488
 20
417.125192
 30
0.0
 10
191.940512
 20
418.377664
 30
0.0
 10
197.746280
 20
420.191928
 30
0.0
 10
201.167712
 20
425.668352
 30
0.0
 10
204.931904
 20
430.719528
 30
0.0
 10
209.140512
 20
425.413672
 30
0.0
 10
213.291184
 20
419.946688
 30
0.0
 10
222.182592
 20
417.633104
 30
0.0
 10
225.613544
 20
415.533968
 30
0.0
 10
221.656272
 20
410.481184
 30
0.0
 10
217.889136
 20
406.479760
 30
0.0
 10
217.161552
 20
403.159824
 30
0.0
 10
217.581320
 20
400.066256
 30
0.0
 10
218.561552
 20
397.054856
 30
0.0
 10
224.470496
 20
389.357624
 30
0.0
 10
230.380912
 20
384.407744
 30
0.0
 10
232.407408
 20
384.895800
 30
0.0
 10
235.506112
 20
386.069192
 30
0.0
 10
238.905280
 20
387.165792
 30
0.0
 10
241.654352
 20
387.469192
 30
0.0
 10
242.797432
 20
387.338472
 30
0.0
 10
243.940512
 20
387.207744
 30
0.0
 10
244.055312
 20
383.761832
 30
0.0
 10
244.170112
 20
380.315912
 30
0.0
 10
244.284912
 20
376.869992
 30
0.0
 10
244.399712
 20
373.424072
 30
0.0
 10
245.884912
 20
372.796768
 30
0.0
 10
247.370112
 20
372.169456
 30
0.0
 10
250.397048
 20
371.130536
 30
0.0
 10
253.503312
 20
370.394504
 30
0.0
 10
256.619848
 20
369.576632
 30
0.0
 10
259.671472
 20
368.340952
 30
0.0
 10
262.621904
 20
367.258128
 30
0.0
 10
265.495232
 20
366.807744
 30
0.0
 10
268.192104
 20
367.438672
 30
0.0
 10
270.355872
 20
370.838024
 30
0.0
 10
273.912584
 20
375.420640
 30
0.0
 10
277.476592
 20
375.851480
 30
0.0
 10
279.168752
 20
374.171624
 30
0.0
 10
281.396592
 20
371.162856
 30
0.0
 10
284.183584
 20
367.738120
 30
0.0
 10
287.973232
 20
367.306136
 30
0.0
 10
297.565592
 20
368.646456
 30
0.0
 10
304.321368
 20
372.176952
 30
0.0
 10
306.014408
 20
373.626144
 30
0.0
 10
307.707448
 20
375.075328
 30
0.0
 10
307.429928
 20
378.407248
 30
0.0
 10
307.152408
 20
381.739160
 30
0.0
 10
307.703768
 20
388.717616
 30
0.0
 10
313.868968
 20
387.304240
 30
0.0
 10
317.726416
 20
385.824608
 30
0.0
 10
320.440568
 20
385.211184
 30
0.0
 10
323.020928
 20
386.152496
 30
0.0
 10
326.556728
 20
388.411184
 30
0.0
 10
332.944136
 20
391.422512
 30
0.0
 10
332.778888
 20
384.361512
 30
0.0
 10
331.810256
 20
376.939880
 30
0.0
 10
335.140488
 20
371.776720
 30
0.0
 10
338.718304
 20
365.670072
 30
0.0
 10
332.740488
 20
363.204304
 30
0.0
 10
326.819296
 20
361.832792
 30
0.0
 10
324.698328
 20
358.408520
 30
0.0
 10
323.687552
 20
354.015056
 30
0.0
 10
323.711072
 20
347.379576
 30
0.0
 10
325.179160
 20
338.242856
 30
0.0
 10
330.779872
 20
335.536184
 30
0.0
 10
336.015352
 20
333.572976
 30
0.0
 10
337.940512
 20
330.656440
 30
0.0
 10
336.883008
 20
329.045328
 30
0.0
 10
334.340512
 20
326.007744
 30
0.0
 10
331.771424
 20
322.587552
 30
0.0
 10
330.740512
 20
320.112152
 30
0.0
 10
331.856760
 20
317.366552
 30
0.0
 10
334.540512
 20
313.352336
 30
0.0
 10
337.937880
 20
308.876552
 30
0.0
 10
340.769872
 20
305.021224
 30
0.0
 10
344.762200
 20
301.543096
 30
0.0
 10
349.938032
 20
302.806448
 30
0.0
 10
353.035936
 20
303.946624
 30
0.0
 10
355.799392
 20
304.254040
 30
0.0
 10
357.069952
 20
304.130896
 30
0.0
 10
358.340512
 20
304.007744
 30
0.0
 10
358.397072
 20
300.901104
 30
0.0
 10
358.453632
 20
297.794464
 30
0.0
 10
358.793928
 20
293.092600
 30
0.0
 10
359.453072
 20
290.513144
 30
0.0
 10
361.707320
 20
289.008344
 30
0.0
 10
365.882352
 20
286.890216
 30
0.0
 10
371.478320
 20
284.805880
 30
0.0
 10
377.282912
 20
284.571536
 30
0.0
 10
380.211712
 20
284.689640
 30
0.0
 10
383.140512
 20
284.807744
 30
0.0
 10
384.508352
 20
287.507744
 30
0.0
 10
385.876192
 20
290.207744
 30
0.0
 10
390.353160
 20
295.704872
 30
0.0
 10
394.846752
 20
290.250224
 30
0.0
 10
396.218592
 20
287.571472
 30
0.0
 10
397.590432
 20
284.892712
 30
0.0
 10
400.314752
 20
284.389904
 30
0.0
 10
403.039072
 20
283.887096
 30
0.0
 10
410.502168
 20
280.996400
 30
0.0
 10
406.649152
 20
275.531224
 30
0.0
 10
404.603472
 20
273.818480
 30
0.0
 10
402.557792
 20
272.105728
 30
0.0
 10
402.833592
 20
268.580232
 30
0.0
 10
403.109392
 20
265.054728
 30
0.0
 10
402.612408
 20
257.774504
 30
0.0
 10
396.446752
 20
259.554128
 30
0.0
 10
392.455024
 20
261.286992
 30
0.0
 10
389.683392
 20
262.007728
 30
0.0
 10
383.885800
 20
259.024960
 30
0.0
 10
377.740512
 20
250.668656
 30
0.0
 10
375.056752
 20
245.719216
 30
0.0
 10
373.940512
 20
243.365816
 30
0.0
 10
374.998008
 20
241.818696
 30
0.0
 10
377.540512
 20
238.807728
 30
0.0
 10
381.054304
 20
231.862616
 30
0.0
 10
374.640752
 20
228.723520
 30
0.0
 10
369.045512
 20
226.418696
 30
0.0
 10
368.340512
 20
214.807744
 30
0.0
 10
369.045512
 20
203.196784
 30
0.0
 10
374.640752
 20
200.891952
 30
0.0
 10
381.054312
 20
197.752848
 30
0.0
 10
377.540512
 20
190.807744
 30
0.0
 10
374.998008
 20
187.796776
 30
0.0
 10
373.940512
 20
186.249656
 30
0.0
 10
375.056760
 20
183.896264
 30
0.0
 10
377.740512
 20
178.946816
 30
0.0
 10
383.903928
 20
170.574080
 30
0.0
 10
389.748592
 20
167.607744
 30
0.0
 10
392.514344
 20
168.341072
 30
0.0
 10
396.400352
 20
170.104160
 30
0.0
 10
402.567640
 20
171.945784
 30
0.0
 10
403.103552
 20
164.637360
 30
0.0
 10
402.813432
 20
161.154544
 30
0.0
 10
402.523312
 20
157.671720
 30
0.0
 10
404.877632
 20
155.550392
 30
0.0
 10
407.231952
 20
153.429064
 30
0.0
 10
409.586232
 20
151.307736
 30
0.0
 10
411.940512
 20
149.186400
 30
0.0
 10
411.055792
 20
148.439968
 30
0.0
 10
410.171072
 20
147.693536
 30
0.0
 10
407.474664
 20
146.446672
 30
0.0
 10
403.132992
 20
145.636456
 30
0.0
 10
400.498712
 20
145.354352
 30
0.0
 10
397.864432
 20
145.072240
 30
0.0
 10
396.783472
 20
143.048008
 30
0.0
 10
395.702512
 20
141.023768
 30
0.0
 10
390.506456
 20
134.542992
 30
0.0
 10
385.643872
 20
140.093640
 30
0.0
 10
383.006120
 20
144.161552
 30
0.0
 10
379.802352
 20
145.508368
 30
0.0
 10
373.504600
 20
145.531968
 30
0.0
 10
365.140512
 20
142.183848
 30
0.0
 10
362.140512
 20
140.695800
 30
0.0
 10
359.140512
 20
139.207744
 30
0.0
 10
358.940512
 20
135.807744
 30
0.0
 10
358.740512
 20
132.407744
 30
0.0
 10
358.540512
 20
129.007744
 30
0.0
 10
358.340512
 20
125.607744
 30
0.0
 10
357.069952
 20
125.484600
 30
0.0
 10
355.799392
 20
125.361448
 30
0.0
 10
353.035936
 20
125.668856
 30
0.0
 10
349.938032
 20
126.809040
 30
0.0
 10
344.762208
 20
128.072408
 30
0.0
 10
340.769872
 20
124.594264
 30
0.0
 10
337.937880
 20
120.738936
 30
0.0
 10
334.540512
 20
116.263152
 30
0.0
 10
331.856760
 20
112.248936
 30
0.0
 10
330.740512
 20
109.503336
 30
0.0
 10
331.771432
 20
107.027944
 30
0.0
 10
334.340512
 20
103.607744
 30
0.0
 10
336.883000
 20
100.570152
 30
0.0
 10
337.940512
 20
98.959048
 30
0.0
 10
336.015352
 20
96.042512
 30
0.0
 10
330.779872
 20
94.079304
 30
0.0
 10
325.179136
 20
91.372632
 30
0.0
 10
323.711072
 20
82.235912
 30
0.0
 10
323.686832
 20
75.613616
 30
0.0
 10
324.683464
 20
71.245928
 30
0.0
 10
326.908712
 20
67.722568
 30
0.0
 10
332.740504
 20
66.400120
 30
0.0
 10
338.586096
 20
63.942272
 30
0.0
 10
335.140504
 20
57.838768
 30
0.0
 10
331.854776
 20
52.913960
 30
0.0
 10
332.384104
 20
46.918680
 30
0.0
 10
331.135144
 20
41.448136
 30
0.0
 10
324.227784
 20
42.967232
 30
0.0
 10
319.676616
 20
44.180056
 30
0.0
 10
312.520184
 20
41.912488
 30
0.0
 10
308.189624
 20
41.894968
 30
0.0
 10
307.405304
 20
48.593320
 30
0.0
 10
307.537664
 20
51.582760
 30
0.0
 10
307.670024
 20
54.572200
 30
0.0
 10
305.986344
 20
56.013376
 30
0.0
 10
304.302664
 20
57.454552
 30
0.0
 10
297.558168
 20
60.970832
 30
0.0
 10
287.973248
 20
62.309344
 30
0.0
 10
284.183600
 20
61.877376
 30
0.0
 10
281.396608
 20
58.452624
 30
0.0
 10
279.168776
 20
55.443856
 30
0.0
 10
277.476608
 20
53.764000
 30
0.0
 10
273.936792
 20
54.197400
 30
0.0
 10
270.198368
 20
58.954464
 30
0.0
 10
267.791064
 20
62.585152
 30
0.0
 10
264.836848
 20
63.022128
 30
0.0
 10
261.935520
 20
62.436544
 30
0.0
 10
259.258288
 20
61.289296
 30
0.0
 10
256.540104
 20
60.043608
 30
0.0
 10
253.540528
 20
59.221360
 30
0.0
 10
250.407984
 20
58.485056
 30
0.0
 10
247.370128
 20
57.446024
 30
0.0
 10
245.884928
 20
56.818712
 30
0.0
 10
244.399728
 20
56.191408
 30
0.0
 10
244.284928
 20
52.745488
 30
0.0
 10
244.170128
 20
49.299568
 30
0.0
 10
244.055328
 20
45.853656
 30
0.0
 10
243.940528
 20
42.407736
 30
0.0
 10
242.797448
 20
42.277016
 30
0.0
 10
241.654368
 20
42.146288
 30
0.0
 10
238.905296
 20
42.449688
 30
0.0
 10
235.506128
 20
43.546288
 30
0.0
 10
232.407432
 20
44.719688
 30
0.0
 10
230.380928
 20
45.207736
 30
0.0
 10
224.470496
 20
40.257856
 30
0.0
 10
218.561568
 20
32.560624
 30
0.0
 10
217.581464
 20
29.564624
 30
0.0
 10
217.161568
 20
26.508088
 30
0.0
 10
217.846376
 20
23.272200
 30
0.0
 10
221.140528
 20
19.532728
 30
0.0
 10
223.965520
 20
16.558680
 30
0.0
 10
225.140528
 20
14.850824
 30
0.0
 10
222.973296
 20
12.746656
 30
0.0
 10
217.940528
 20
11.191712
 30
0.0
 10
212.561136
 20
9.459680
 30
0.0
 10
209.312528
 20
4.564600
 30
0.0
 10
205.957952
 20
0.000016
 30
0.0
 10
202.972408
 20
0.569168
 30
0.0
  0
LWPOLYLINE
  5
101
100
AcDbEntity
  8
Layer_1
 62
7
100
AcDbPolyline
 90
61
 70
0
 10
209.896888
 20
35.185672
 30
0.0
 10
214.881680
 20
38.920848
 30
0.0
 10
218.631368
 20
45.509472
 30
0.0
 10
220.147208
 20
51.532136
 30
0.0
 10
217.140488
 20
57.207776
 30
0.0
 10
214.164392
 20
64.008296
 30
0.0
 10
220.455848
 20
66.545384
 30
0.0
 10
223.773960
 20
67.116080
 30
0.0
 10
225.734808
 20
67.810912
 30
0.0
 10
227.661816
 20
72.130336
 30
0.0
 10
227.435128
 20
78.169848
 30
0.0
 10
226.943040
 20
82.166856
 30
0.0
 10
227.868328
 20
87.799008
 30
0.0
 10
229.513896
 20
93.335624
 30
0.0
 10
232.587528
 20
95.783872
 30
0.0
 10
235.492536
 20
97.970240
 30
0.0
 10
237.065368
 20
101.174312
 30
0.0
 10
237.627808
 20
102.947472
 30
0.0
 10
238.190248
 20
104.720624
 30
0.0
 10
236.652248
 20
106.050120
 30
0.0
 10
235.114248
 20
107.379608
 30
0.0
 10
231.834896
 20
109.571408
 30
0.0
 10
227.743688
 20
109.898264
 30
0.0
 10
223.497656
 20
110.317632
 30
0.0
 10
219.503688
 20
113.644080
 30
0.0
 10
216.456248
 20
117.179224
 30
0.0
 10
214.670008
 20
120.221472
 30
0.0
 10
210.667248
 20
125.123952
 30
0.0
 10
205.140488
 20
127.607776
 30
0.0
 10
199.613800
 20
125.123952
 30
0.0
 10
195.611048
 20
120.221472
 30
0.0
 10
193.824776
 20
117.179224
 30
0.0
 10
190.777368
 20
113.644080
 30
0.0
 10
186.783360
 20
110.317696
 30
0.0
 10
182.537288
 20
109.898264
 30
0.0
 10
178.446136
 20
109.571408
 30
0.0
 10
175.166728
 20
107.379608
 30
0.0
 10
173.628728
 20
106.050120
 30
0.0
 10
172.090728
 20
104.720624
 30
0.0
 10
172.653168
 20
102.942416
 30
0.0
 10
173.215608
 20
101.164200
 30
0.0
 10
174.682936
 20
98.081424
 30
0.0
 10
177.056328
 20
96.251992
 30
0.0
 10
180.825744
 20
93.465520
 30
0.0
 10
182.754408
 20
86.957328
 30
0.0
 10
183.699440
 20
81.255856
 30
0.0
 10
183.005848
 20
77.957760
 30
0.0
 10
182.363224
 20
73.332592
 30
0.0
 10
183.960168
 20
68.725776
 30
0.0
 10
185.774040
 20
67.308480
 30
0.0
 10
189.536888
 20
66.577872
 30
0.0
 10
196.112456
 20
64.007024
 30
0.0
 10
193.090488
 20
57.088104
 30
0.0
 10
190.217184
 20
51.001232
 30
0.0
 10
192.915848
 20
43.106424
 30
0.0
 10
195.616088
 20
38.816304
 30
0.0
 10
199.546808
 20
35.807776
 30
0.0
 10
202.911816
 20
33.971528
 30
0.0
 10
204.931688
 20
33.207776
 30
0.0
 10
206.828328
 20
33.788792
 30
0.0
 10
209.896888
 20
35.185672
 30
0.0
  0
LWPOLYLINE
  5
102
100
AcDbEntity
  8
Layer_1
 62
7
100
AcDbPolyline
 90
21
 70
0
 10
168.740488
 20
67.232784
 30
0.0
 10
170.772824
 20
68.878640
 30
0.0
 10
173.412248
 20
72.363240
 30
0.0
 10
175.959752
 20
77.058504
 30
0.0
 10
175.614968
 20
81.208936
 30
0.0
 10
173.389328
 20
87.821280
 30
0.0
 10
170.598968
 20
92.171520
 30
0.0
 10
168.533056
 20
93.188000
 30
0.0
 10
165.052400
 20
94.428832
 30
0.0
 10
162.808344
 20
95.129136
 30
0.0
 10
160.564288
 20
95.829432
 30
0.0
 10
158.532960
 20
94.723848
 30
0.0
 10
156.501632
 20
93.618256
 30
0.0
 10
149.666568
 20
88.629528
 30
0.0
 10
147.260776
 20
82.623632
 30
0.0
 10
146.905848
 20
76.062168
 30
0.0
 10
148.759288
 20
72.531360
 30
0.0
 10
155.164088
 20
67.931448
 30
0.0
 10
162.874632
 20
66.563160
 30
0.0
 10
166.357400
 20
66.897296
 30
0.0
 10
168.740488
 20
67.232784
 30
0.0
  0
LWPOLYLINE
  5
103
100
AcDbEntity
  8
Layer_1
 62
7
100
AcDbPolyline
 90
55
 70
0
 10
311.816144
 20
67.784488
 30
0.0
 10
313.458128
 20
69.631664
 30
0.0
 10
315.333504
 20
73.004672
 30
0.0
 10
316.929864
 20
77.505656
 30
0.0
 10
316.495344
 20
82.195424
 30
0.0
 10
313.855072
 20
90.460880
 30
0.0
 10
309.140464
 20
93.841448
 30
0.0
 10
301.563080
 20
97.695992
 30
0.0
 10
304.710544
 20
103.578376
 30
0.0
 10
308.311552
 20
110.063808
 30
0.0
 10
303.623024
 20
116.828360
 30
0.0
 10
300.836688
 20
120.231808
 30
0.0
 10
298.479688
 20
124.994904
 30
0.0
 10
296.467040
 20
131.496840
 30
0.0
 10
297.630248
 20
135.232392
 30
0.0
 10
298.480832
 20
137.371536
 30
0.0
 10
298.420032
 20
139.865256
 30
0.0
 10
296.521384
 20
144.164376
 30
0.0
 10
291.791712
 20
145.727328
 30
0.0
 10
287.928984
 20
145.784848
 30
0.0
 10
285.391712
 20
143.833776
 30
0.0
 10
283.384072
 20
142.001504
 30
0.0
 10
281.718432
 20
140.945032
 30
0.0
 10
274.844352
 20
141.736704
 30
0.0
 10
267.599232
 20
144.490856
 30
0.0
 10
264.982168
 20
145.709392
 30
0.0
 10
261.161872
 20
145.854448
 30
0.0
 10
257.375680
 20
145.238624
 30
0.0
 10
255.221552
 20
143.349480
 30
0.0
 10
253.823376
 20
139.975736
 30
0.0
 10
253.452752
 20
132.549480
 30
0.0
 10
252.300392
 20
121.719304
 30
0.0
 10
248.717952
 20
117.051920
 30
0.0
 10
245.244240
 20
113.298912
 30
0.0
 10
243.540512
 20
108.097712
 30
0.0
 10
245.945304
 20
104.225896
 30
0.0
 10
252.510912
 20
102.807776
 30
0.0
 10
257.260600
 20
102.232600
 30
0.0
 10
261.984432
 20
98.607776
 30
0.0
 10
265.892744
 20
94.546904
 30
0.0
 10
267.926352
 20
90.807776
 30
0.0
 10
269.509296
 20
87.663496
 30
0.0
 10
271.794352
 20
85.407776
 30
0.0
 10
275.617320
 20
83.756872
 30
0.0
 10
279.940512
 20
85.628648
 30
0.0
 10
285.003448
 20
87.529496
 30
0.0
 10
287.854912
 20
86.342344
 30
0.0
 10
288.197880
 20
83.863816
 30
0.0
 10
288.340512
 20
79.681800
 30
0.0
 10
289.450160
 20
73.483144
 30
0.0
 10
295.905632
 20
68.485680
 30
0.0
 10
300.059112
 20
66.442472
 30
0.0
 10
305.105608
 20
66.510472
 30
0.0
 10
309.236240
 20
67.096504
 30
0.0
 10
311.816144
 20
67.784488
 30
0.0
  0
LWPOLYLINE
  5
104
100
AcDbEntity
  8
Layer_1
 62
7
100
AcDbPolyline
 90
61
 70
0
 10
114.670224
 20
68.916024
 30
0.0
 10
120.740088
 20
73.360768
 30
0.0
 10
121.940512
 20
78.895144
 30
0.0
 10
123.796712
 20
87.027880
 30
0.0
 10
130.340512
 20
85.628648
 30
0.0
 10
134.663728
 20
83.756880
 30
0.0
 10
138.486672
 20
85.407776
 30
0.0
 10
140.777480
 20
87.672232
 30
0.0
 10
142.355160
 20
90.871368
 30
0.0
 10
143.930672
 20
94.065608
 30
0.0
 10
146.159496
 20
96.389200
 30
0.0
 10
148.528120
 20
98.369144
 30
0.0
 10
150.598496
 20
100.525608
 30
0.0
 10
152.963736
 20
102.443296
 30
0.0
 10
157.490608
 20
102.807776
 30
0.0
 10
164.303352
 20
104.199928
 30
0.0
 10
166.740488
 20
108.091536
 30
0.0
 10
165.330928
 20
113.223824
 30
0.0
 10
161.940512
 20
116.807776
 30
0.0
 10
158.073520
 20
121.577104
 30
0.0
 10
156.878112
 20
132.474136
 30
0.0
 10
156.464120
 20
139.953928
 30
0.0
 10
155.059512
 20
143.350480
 30
0.0
 10
152.905192
 20
145.238680
 30
0.0
 10
149.119152
 20
145.854448
 30
0.0
 10
145.298864
 20
145.709400
 30
0.0
 10
142.681792
 20
144.490856
 30
0.0
 10
135.436696
 20
141.736696
 30
0.0
 10
128.562592
 20
140.945032
 30
0.0
 10
126.896976
 20
142.001496
 30
0.0
 10
124.889360
 20
143.833776
 30
0.0
 10
122.352048
 20
145.784840
 30
0.0
 10
118.489360
 20
145.727320
 30
0.0
 10
113.759656
 20
144.164368
 30
0.0
 10
111.860992
 20
139.865248
 30
0.0
 10
111.800192
 20
137.371528
 30
0.0
 10
112.650816
 20
135.232384
 30
0.0
 10
113.561664
 20
133.278992
 30
0.0
 10
113.940512
 20
131.346568
 30
0.0
 10
111.391552
 20
123.938568
 30
0.0
 10
106.740768
 20
116.807768
 30
0.0
 10
103.300304
 20
112.579520
 30
0.0
 10
101.940512
 20
108.813224
 30
0.0
 10
102.998008
 20
106.782904
 30
0.0
 10
105.540512
 20
103.690528
 30
0.0
 10
108.083008
 20
100.590928
 30
0.0
 10
109.140512
 20
98.543248
 30
0.0
 10
107.229632
 20
96.072160
 30
0.0
 10
102.386160
 20
94.348960
 30
0.0
 10
97.206448
 20
91.562584
 30
0.0
 10
94.338448
 20
84.114184
 30
0.0
 10
93.377400
 20
78.401280
 30
0.0
 10
94.312928
 20
74.643368
 30
0.0
 10
95.727520
 20
71.622336
 30
0.0
 10
97.250048
 20
69.053904
 30
0.0
 10
99.500240
 20
67.134368
 30
0.0
 10
104.924680
 20
66.807768
 30
0.0
 10
110.554768
 20
67.198000
 30
0.0
 10
114.670200
 20
68.916016
 30
0.0
 10
114.670208
 20
68.916016
 30
0.0
 10
114.670224
 20
68.916024
 30
0.0
  0
LWPOLYLINE
  5
105
100
AcDbEntity
  8
Layer_1
 62
7
100
AcDbPolyline
 90
17
 70
0
 10
257.332568
 20
69.157616
 30
0.0
 10
262.611360
 20
73.999656
 30
0.0
 10
263.214648
 20
80.945272
 30
0.0
 10
261.388968
 20
87.799688
 30
0.0
 10
255.334168
 20
92.656208
 30
0.0
 10
249.117784
 20
95.261816
 30
0.0
 10
242.248488
 20
93.249488
 30
0.0
 10
238.999464
 20
91.173880
 30
0.0
 10
236.728248
 20
87.443880
 30
0.0
 10
234.786184
 20
79.659864
 30
0.0
 10
236.753048
 20
72.714944
 30
0.0
 10
240.990768
 20
67.877248
 30
0.0
 10
247.962328
 20
66.807776
 30
0.0
 10
253.282576
 20
67.221536
 30
0.0
 10
257.333048
 20
69.157616
 30
0.0
 10
257.332808
 20
69.157616
 30
0.0
 10
257.332568
 20
69.157616
 30
0.0
  0
LWPOLYLINE
  5
106
100
AcDbEntity
  8
Layer_1
 62
7
100
AcDbPolyline
 90
17
 70
0
 10
185.644248
 20
120.053456
 30
0.0
 10
189.223808
 20
123.143552
 30
0.0
 10
191.235208
 20
125.453456
 30
0.0
 10
192.613240
 20
132.018552
 30
0.0
 10
192.497928
 20
137.796280
 30
0.0
 10
190.783168
 20
139.437792
 30
0.0
 10
187.555928
 20
141.996280
 30
0.0
 10
182.944168
 20
144.780552
 30
0.0
 10
176.636728
 20
145.207776
 30
0.0
 10
170.627880
 20
144.870328
 30
0.0
 10
168.075688
 20
142.607776
 30
0.0
 10
163.878936
 20
134.118392
 30
0.0
 10
165.985848
 20
124.070336
 30
0.0
 10
168.027136
 20
120.104568
 30
0.0
 10
172.177688
 20
118.125208
 30
0.0
 10
179.481088
 20
116.656128
 30
0.0
 10
185.644248
 20
120.053456
 30
0.0
  0
LWPOLYLINE
  5
107
100
AcDbEntity
  8
Layer_1
 62
7
100
AcDbPolyline
 90
19
 70
0
 10
237.494168
 20
117.923328
 30
0.0
 10
242.735736
 20
121.283120
 30
0.0
 10
245.676728
 20
128.476472
 30
0.0
 10
246.300744
 20
135.325600
 30
0.0
 10
242.624968
 20
142.040360
 30
0.0
 10
241.477728
 20
143.624072
 30
0.0
 10
240.330488
 20
145.207776
 30
0.0
 10
237.005248
 20
145.207776
 30
0.0
 10
233.680008
 20
145.207776
 30
0.0
 10
227.340728
 20
144.781736
 30
0.0
 10
222.725128
 20
141.996280
 30
0.0
 10
219.497832
 20
139.437784
 30
0.0
 10
217.783128
 20
137.796280
 30
0.0
 10
217.667776
 20
132.018624
 30
0.0
 10
219.045768
 20
125.452432
 30
0.0
 10
224.941080
 20
119.949640
 30
0.0
 10
231.540488
 20
116.491096
 30
0.0
 10
234.114400
 20
116.928608
 30
0.0
 10
237.494168
 20
117.923328
 30
0.0
  0
LWPOLYLINE
  5
108
100
AcDbEntity
  8
Layer_1
 62
7
100
AcDbPolyline
 90
15
 70
0
 10
97.171000
 20
119.007776
 30
0.0
 10
100.379848
 20
121.248296
 30
0.0
 10
102.642872
 20
124.644056
 30
0.0
 10
104.942544
 20
134.250800
 30
0.0
 10
100.543568
 20
142.497360
 30
0.0
 10
97.799816
 20
144.601584
 30
0.0
 10
93.754656
 20
145.546408
 30
0.0
 10
85.832336
 20
145.367048
 30
0.0
 10
80.198368
 20
141.705960
 30
0.0
 10
76.334976
 20
136.470248
 30
0.0
 10
76.366576
 20
131.091528
 30
0.0
 10
78.988352
 20
124.184632
 30
0.0
 10
83.573328
 20
119.581136
 30
0.0
 10
90.146304
 20
117.253944
 30
0.0
 10
97.171000
 20
119.007776
 30
0.0
  0
LWPOLYLINE
  5
109
100
AcDbEntity
  8
Layer_1
 62
7
100
AcDbPolyline
 90
13
 70
0
 10
325.954464
 20
119.214840
 30
0.0
 10
330.867368
 20
123.332608
 30
0.0
 10
333.916784
 20
130.719704
 30
0.0
 10
334.233472
 20
136.138248
 30
0.0
 10
330.488944
 20
141.323792
 30
0.0
 10
324.614248
 20
145.334176
 30
0.0
 10
316.526384
 20
145.546408
 30
0.0
 10
312.481176
 20
144.601576
 30
0.0
 10
309.737424
 20
142.497360
 30
0.0
 10
305.338464
 20
134.250808
 30
0.0
 10
307.638144
 20
124.644056
 30
0.0
 10
315.290576
 20
117.838768
 30
0.0
 10
325.954464
 20
119.214840
 30
0.0
  0
LWPOLYLINE
  5
10a
100
AcDbEntity
  8
Layer_1
 62
7
100
AcDbPolyline
 90
65
 70
0
 10
81.087424
 20
151.285872
 30
0.0
 10
83.866264
 20
152.930552
 30
0.0
 10
87.348808
 20
153.588736
 30
0.0
 10
90.992800
 20
153.918328
 30
0.0
 10
94.429368
 20
154.395120
 30
0.0
 10
97.656824
 20
154.450400
 30
0.0
 10
100.602704
 20
152.092224
 30
0.0
 10
103.610000
 20
149.731800
 30
0.0
 10
107.047680
 20
149.207752
 30
0.0
 10
110.314216
 20
149.684576
 30
0.0
 10
111.970112
 20
152.773920
 30
0.0
 10
112.830136
 20
156.034152
 30
0.0
 10
112.836536
 20
158.773920
 30
0.0
 10
112.347328
 20
161.163056
 30
0.0
 10
111.867336
 20
163.489432
 30
0.0
 10
113.497632
 20
169.992392
 30
0.0
 10
118.354992
 20
176.910984
 30
0.0
 10
121.796200
 20
182.268912
 30
0.0
 10
122.456304
 20
187.832224
 30
0.0
 10
118.638184
 20
192.245528
 30
0.0
 10
111.237760
 20
195.278208
 30
0.0
 10
103.818144
 20
197.411944
 30
0.0
 10
99.718976
 20
199.793024
 30
0.0
 10
98.860848
 20
201.561960
 30
0.0
 10
98.053704
 20
204.301536
 30
0.0
 10
97.429672
 20
206.782344
 30
0.0
 10
97.011808
 20
207.929112
 30
0.0
 10
92.747304
 20
210.722664
 30
0.0
 10
90.217272
 20
211.603776
 30
0.0
 10
86.099888
 20
209.385696
 30
0.0
 10
83.270984
 20
204.078288
 30
0.0
 10
81.582104
 20
200.223312
 30
0.0
 10
76.706488
 20
196.712288
 30
0.0
 10
71.472056
 20
193.944424
 30
0.0
 10
67.260768
 20
193.241744
 30
0.0
 10
63.602272
 20
192.734320
 30
0.0
 10
60.726640
 20
190.553624
 30
0.0
 10
58.542728
 20
187.744840
 30
0.0
 10
58.881504
 20
184.106368
 30
0.0
 10
59.160432
 20
178.249552
 30
0.0
 10
56.468040
 20
176.407752
 30
0.0
 10
53.779368
 20
176.784288
 30
0.0
 10
50.463800
 20
177.689592
 30
0.0
 10
44.718560
 20
178.324752
 30
0.0
 10
38.926624
 20
174.422920
 30
0.0
 10
34.343912
 20
168.855872
 30
0.0
 10
32.022872
 20
161.864704
 30
0.0
 10
32.032792
 20
158.914856
 30
0.0
 10
34.108320
 20
155.939120
 30
0.0
 10
40.354816
 20
151.374848
 30
0.0
 10
49.228336
 20
150.025320
 30
0.0
 10
52.272128
 20
150.016520
 30
0.0
 10
55.315920
 20
150.007720
 30
0.0
 10
56.879248
 20
152.107720
 30
0.0
 10
58.442576
 20
154.207720
 30
0.0
 10
61.344104
 20
157.482008
 30
0.0
 10
63.735576
 20
158.658984
 30
0.0
 10
66.298800
 20
157.871344
 30
0.0
 10
70.103544
 20
151.656656
 30
0.0
 10
71.839728
 20
149.620912
 30
0.0
 10
75.042160
 20
149.207720
 30
0.0
 10
78.376136
 20
149.662080
 30
0.0
 10
81.087664
 20
151.285816
 30
0.0
 10
81.087664
 20
151.285832
 30
0.0
 10
81.087424
 20
151.285872
 30
0.0
  0
LWPOLYLINE
  5
10b
100
AcDbEntity
  8
Layer_1
 62
7
100
AcDbPolyline
 90
101
 70
0
 10
224.785208
 20
150.824944
 30
0.0
 10
229.083640
 20
152.497112
 30
0.0
 10
232.740488
 20
154.246512
 30
0.0
 10
234.340488
 20
155.148712
 30
0.0
 10
235.940488
 20
156.050904
 30
0.0
 10
236.140488
 20
159.398632
 30
0.0
 10
236.340488
 20
162.746360
 30
0.0
 10
237.997896
 20
170.167280
 30
0.0
 10
244.601048
 20
168.837056
 30
0.0
 10
249.491640
 20
167.075320
 30
0.0
 10
252.201768
 20
168.104408
 30
0.0
 10
259.955456
 20
176.689552
 30
0.0
 10
264.340488
 20
185.877752
 30
0.0
 10
263.382016
 20
188.343616
 30
0.0
 10
260.740488
 20
191.690536
 30
0.0
 10
258.197976
 20
194.653736
 30
0.0
 10
257.140488
 20
196.373504
 30
0.0
 10
259.314760
 20
199.100960
 30
0.0
 10
264.890008
 20
201.094672
 30
0.0
 10
270.518856
 20
204.107696
 30
0.0
 10
271.540488
 20
214.807776
 30
0.0
 10
270.518856
 20
225.507856
 30
0.0
 10
264.890008
 20
228.520880
 30
0.0
 10
259.314760
 20
230.514592
 30
0.0
 10
257.140488
 20
233.242048
 30
0.0
 10
258.197992
 20
234.961808
 30
0.0
 10
260.740488
 20
237.925016
 30
0.0
 10
263.382008
 20
241.271944
 30
0.0
 10
264.340488
 20
243.737800
 30
0.0
 10
259.955448
 20
252.925984
 30
0.0
 10
252.201768
 20
261.511144
 30
0.0
 10
249.491640
 20
262.540240
 30
0.0
 10
244.601048
 20
260.778496
 30
0.0
 10
237.997896
 20
259.448272
 30
0.0
 10
236.340488
 20
266.869192
 30
0.0
 10
236.140488
 20
270.216920
 30
0.0
 10
235.940488
 20
273.564648
 30
0.0
 10
234.340488
 20
274.466848
 30
0.0
 10
232.740488
 20
275.369040
 30
0.0
 10
224.319272
 20
278.902888
 30
0.0
 10
216.592008
 20
280.407776
 30
0.0
 10
213.290144
 20
279.813256
 30
0.0
 10
210.707688
 20
276.072816
 30
0.0
 10
205.508320
 20
270.099736
 30
0.0
 10
200.408808
 20
275.207776
 30
0.0
 10
197.434048
 20
279.350928
 30
0.0
 10
194.075768
 20
280.256232
 30
0.0
 10
186.320496
 20
279.004504
 30
0.0
 10
177.540488
 20
275.372984
 30
0.0
 10
175.940488
 20
274.468816
 30
0.0
 10
174.340488
 20
273.564648
 30
0.0
 10
174.140488
 20
270.216920
 30
0.0
 10
173.940488
 20
266.869192
 30
0.0
 10
172.283144
 20
259.448272
 30
0.0
 10
165.679984
 20
260.778496
 30
0.0
 10
163.049424
 20
261.896504
 30
0.0
 10
160.418864
 20
263.014504
 30
0.0
 10
159.209536
 20
262.248816
 30
0.0
 10
158.000200
 20
261.483120
 30
0.0
 10
152.662080
 20
256.002664
 30
0.0
 10
147.474584
 20
248.239648
 30
0.0
 10
146.120680
 20
242.920600
 30
0.0
 10
149.540512
 20
238.007776
 30
0.0
 10
152.083008
 20
235.096848
 30
0.0
 10
153.140512
 20
233.059656
 30
0.0
 10
151.086384
 20
230.423080
 30
0.0
 10
145.053800
 20
228.447840
 30
0.0
 10
139.733080
 20
225.428936
 30
0.0
 10
138.740512
 20
214.807776
 30
0.0
 10
139.733080
 20
204.186616
 30
0.0
 10
145.053800
 20
201.167712
 30
0.0
 10
151.086384
 20
199.192480
 30
0.0
 10
153.140512
 20
196.555896
 30
0.0
 10
152.083016
 20
194.518704
 30
0.0
 10
149.540512
 20
191.607776
 30
0.0
 10
146.120680
 20
186.694952
 30
0.0
 10
147.474584
 20
181.375904
 30
0.0
 10
152.662080
 20
173.612888
 30
0.0
 10
158.000200
 20
168.132432
 30
0.0
 10
159.209536
 20
167.366744
 30
0.0
 10
160.418864
 20
166.601048
 30
0.0
 10
163.049424
 20
167.719056
 30
0.0
 10
165.679984
 20
168.837056
 30
0.0
 10
172.284616
 20
170.166096
 30
0.0
 10
173.940488
 20
162.724800
 30
0.0
 10
174.140488
 20
159.366288
 30
0.0
 10
174.340488
 20
156.007776
 30
0.0
 10
177.130768
 20
154.607776
 30
0.0
 10
179.921048
 20
153.207776
 30
0.0
 10
185.606920
 20
150.885240
 30
0.0
 10
191.638088
 20
150.126832
 30
0.0
 10
194.706408
 20
149.986360
 30
0.0
 10
197.774728
 20
149.845888
 30
0.0
 10
199.142008
 20
152.185864
 30
0.0
 10
200.509288
 20
154.525832
 30
0.0
 10
205.488848
 20
159.525752
 30
0.0
 10
210.707688
 20
153.542736
 30
0.0
 10
213.290136
 20
149.802288
 30
0.0
 10
216.592008
 20
149.207776
 30
0.0
 10
220.416864
 20
149.682824
 30
0.0
 10
224.785208
 20
150.824944
 30
0.0
  0
LWPOLYLINE
  5
10c
100
AcDbEntity
  8
Layer_1
 62
7
100
AcDbPolyline
 90
55
 70
0
 10
309.678304
 20
152.092248
 30
0.0
 10
312.624192
 20
154.450416
 30
0.0
 10
315.851664
 20
154.395136
 30
0.0
 10
319.288232
 20
153.918344
 30
0.0
 10
322.932224
 20
153.588752
 30
0.0
 10
326.428304
 20
152.925216
 30
0.0
 10
329.240384
 20
151.246472
 30
0.0
 10
331.982688
 20
149.581680
 30
0.0
 10
335.448704
 20
149.368376
 30
0.0
 10
338.968136
 20
150.188280
 30
0.0
 10
341.540464
 20
154.198120
 30
0.0
 10
346.302512
 20
159.470648
 30
0.0
 10
352.181264
 20
153.932592
 30
0.0
 10
353.901664
 20
151.510888
 30
0.0
 10
355.622064
 20
149.089176
 30
0.0
 10
358.301664
 20
149.341696
 30
0.0
 10
360.981264
 20
149.594216
 30
0.0
 10
370.009648
 20
151.520096
 30
0.0
 10
375.963024
 20
155.738048
 30
0.0
 10
378.305416
 20
158.910880
 30
0.0
 10
378.351336
 20
161.831400
 30
0.0
 10
375.911336
 20
168.894928
 30
0.0
 10
370.989736
 20
174.806400
 30
0.0
 10
365.479304
 20
178.541752
 30
0.0
 10
359.540456
 20
177.607792
 30
0.0
 10
356.467416
 20
176.760296
 30
0.0
 10
353.855176
 20
176.407792
 30
0.0
 10
351.122360
 20
178.238224
 30
0.0
 10
351.399736
 20
184.106408
 30
0.0
 10
351.738520
 20
187.744880
 30
0.0
 10
349.554616
 20
190.553664
 30
0.0
 10
346.678984
 20
192.734368
 30
0.0
 10
343.020456
 20
193.241784
 30
0.0
 10
338.809208
 20
193.944464
 30
0.0
 10
333.574776
 20
196.712328
 30
0.0
 10
328.699144
 20
200.223352
 30
0.0
 10
327.010296
 20
204.078328
 30
0.0
 10
324.152368
 20
209.414960
 30
0.0
 10
319.922776
 20
211.603816
 30
0.0
 10
315.112640
 20
208.978824
 30
0.0
 10
312.059656
 20
203.772744
 30
0.0
 10
308.787384
 20
198.528904
 30
0.0
 10
299.128880
 20
195.290736
 30
0.0
 10
291.695264
 20
192.222048
 30
0.0
 10
287.810880
 20
187.735320
 30
0.0
 10
288.492544
 20
182.247024
 30
0.0
 10
291.926320
 20
176.911024
 30
0.0
 10
296.737456
 20
170.060072
 30
0.0
 10
298.443280
 20
163.689472
 30
0.0
 10
297.353000
 20
157.004360
 30
0.0
 10
298.310880
 20
152.773960
 30
0.0
 10
299.966784
 20
149.684608
 30
0.0
 10
303.233336
 20
149.207792
 30
0.0
 10
306.671000
 20
149.731848
 30
0.0
 10
309.678304
 20
152.092248
 30
0.0
  0
LWPOLYLINE
  5
10d
100
AcDbEntity
  8
Layer_1
 62
7
100
AcDbPolyline
 90
15
 70
0
 10
141.893944
 20
151.183696
 30
0.0
 10
146.859432
 20
155.781576
 30
0.0
 10
149.140512
 20
161.380392
 30
0.0
 10
147.394240
 20
169.011504
 30
0.0
 10
141.791208
 20
175.192608
 30
0.0
 10
137.837176
 20
177.745816
 30
0.0
 10
135.084056
 20
178.807776
 30
0.0
 10
129.046664
 20
176.950440
 30
0.0
 10
123.846920
 20
173.937128
 30
0.0
 10
121.148112
 20
167.839712
 30
0.0
 10
119.540512
 20
161.297800
 30
0.0
 10
121.704856
 20
156.094928
 30
0.0
 10
125.786216
 20
151.007776
 30
0.0
 10
133.441056
 20
150.001912
 30
0.0
 10
141.893944
 20
151.183696
 30
0.0
  0
LWPOLYLINE
  5
10e
100
AcDbEntity
  8
Layer_1
 62
7
100
AcDbPolyline
 90
17
 70
0
 10
284.494808
 20
151.007776
 30
0.0
 10
288.648688
 20
156.181096
 30
0.0
 10
290.699208
 20
161.527808
 30
0.0
 10
288.613152
 20
169.317264
 30
0.0
 10
284.610088
 20
175.233352
 30
0.0
 10
278.791776
 20
177.950912
 30
0.0
 10
273.811608
 20
178.534760
 30
0.0
 10
267.905384
 20
174.750280
 30
0.0
 10
263.047368
 20
169.207776
 30
0.0
 10
261.969504
 20
166.134912
 30
0.0
 10
261.310808
 20
162.678888
 30
0.0
 10
261.427648
 20
159.081128
 30
0.0
 10
263.239368
 20
155.949256
 30
0.0
 10
268.635376
 20
151.162128
 30
0.0
 10
276.787608
 20
150.010768
 30
0.0
 10
281.834936
 20
150.278536
 30
0.0
 10
284.494808
 20
151.007776
 30
0.0
  0
LWPOLYLINE
  5
10f
100
AcDbEntity
  8
Layer_1
 62
7
100
AcDbPolyline
 90
13
 70
0
 10
70.879512
 20
202.896968
 30
0.0
 10
76.539488
 20
207.993240
 30
0.0
 10
77.940512
 20
214.807776
 30
0.0
 10
76.539488
 20
221.622312
 30
0.0
 10
70.879512
 20
226.718584
 30
0.0
 10
60.229432
 20
228.976368
 30
0.0
 10
51.918064
 20
223.241648
 30
0.0
 10
50.072904
 20
212.281664
 30
0.0
 10
54.082040
 20
203.061672
 30
0.0
 10
58.088624
 20
201.247144
 30
0.0
 10
63.470472
 20
200.470936
 30
0.0
 10
67.076472
 20
200.963648
 30
0.0
 10
70.879512
 20
202.896968
 30
0.0
  0
LWPOLYLINE
  5
110
100
AcDbEntity
  8
Layer_1
 62
7
100
AcDbPolyline
 90
19
 70
0
 10
125.540512
 20
202.055112
 30
0.0
 10
130.870400
 20
211.159512
 30
0.0
 10
129.091608
 20
223.617856
 30
0.0
 10
124.935648
 20
227.877920
 30
0.0
 10
117.873136
 20
229.162624
 30
0.0
 10
114.004320
 20
228.574448
 30
0.0
 10
109.473136
 20
225.903888
 30
0.0
 10
105.958072
 20
223.307288
 30
0.0
 10
104.152760
 20
221.703888
 30
0.0
 10
103.734064
 20
219.137208
 30
0.0
 10
103.552760
 20
214.224624
 30
0.0
 10
103.546360
 20
210.933056
 30
0.0
 10
103.539960
 20
207.641480
 30
0.0
 10
106.239960
 20
205.807760
 30
0.0
 10
108.939960
 20
203.974040
 30
0.0
 10
114.191536
 20
200.895160
 30
0.0
 10
118.739960
 20
200.604520
 30
0.0
 10
122.552456
 20
201.153528
 30
0.0
 10
125.540512
 20
202.055112
 30
0.0
  0
LWPOLYLINE
  5
111
100
AcDbEntity
  8
Layer_1
 62
7
100
AcDbPolyline
 90
13
 70
0
 10
299.140488
 20
202.738936
 30
0.0
 10
305.646376
 20
207.669648
 30
0.0
 10
306.740464
 20
215.222088
 30
0.0
 10
306.740464
 20
218.598080
 30
0.0
 10
306.740464
 20
221.974072
 30
0.0
 10
304.044752
 20
223.782504
 30
0.0
 10
301.349048
 20
225.590928
 30
0.0
 10
293.626008
 20
229.094936
 30
0.0
 10
285.954088
 20
228.162624
 30
0.0
 10
279.189064
 20
214.897296
 30
0.0
 10
285.940488
 20
201.531128
 30
0.0
 10
292.680912
 20
200.542632
 30
0.0
 10
299.140488
 20
202.738936
 30
0.0
  0
LWPOLYLINE
  5
112
100
AcDbEntity
  8
Layer_1
 62
7
100
AcDbPolyline
 90
13
 70
0
 10
354.315584
 20
202.055112
 30
0.0
 10
360.070696
 20
211.136808
 30
0.0
 10
358.362944
 20
223.241648
 30
0.0
 10
350.051584
 20
228.976376
 30
0.0
 10
339.401504
 20
226.718584
 30
0.0
 10
333.746624
 20
221.629872
 30
0.0
 10
332.340464
 20
214.856136
 30
0.0
 10
333.618024
 20
208.178704
 30
0.0
 10
339.080224
 20
203.083688
 30
0.0
 10
343.195800
 20
200.806344
 30
0.0
 10
347.540464
 20
200.603880
 30
0.0
 10
351.345656
 20
201.153336
 30
0.0
 10
354.315584
 20
202.055112
 30
0.0
  0
LWPOLYLINE
  5
113
100
AcDbEntity
  8
Layer_1
 62
7
100
AcDbPolyline
 90
65
 70
0
 10
94.217016
 20
219.748704
 30
0.0
 10
96.078848
 20
221.036040
 30
0.0
 10
97.011552
 20
221.686416
 30
0.0
 10
97.429416
 20
222.833184
 30
0.0
 10
98.053448
 20
225.313992
 30
0.0
 10
98.860592
 20
228.053568
 30
0.0
 10
99.718720
 20
229.822504
 30
0.0
 10
103.817888
 20
232.203584
 30
0.0
 10
111.237504
 20
234.337320
 30
0.0
 10
118.637936
 20
237.370000
 30
0.0
 10
122.456048
 20
241.783304
 30
0.0
 10
121.795936
 20
247.346616
 30
0.0
 10
118.354736
 20
252.704544
 30
0.0
 10
113.453816
 20
259.688152
 30
0.0
 10
111.896432
 20
266.326096
 30
0.0
 10
112.388536
 20
268.734968
 30
0.0
 10
112.865632
 20
271.041608
 30
0.0
 10
112.811712
 20
273.654592
 30
0.0
 10
111.970080
 20
276.841608
 30
0.0
 10
110.314184
 20
279.930952
 30
0.0
 10
107.047648
 20
280.407776
 30
0.0
 10
103.609968
 20
279.883720
 30
0.0
 10
100.602672
 20
277.523304
 30
0.0
 10
97.656792
 20
275.165136
 30
0.0
 10
94.429336
 20
275.220416
 30
0.0
 10
90.992768
 20
275.697208
 30
0.0
 10
87.348776
 20
276.026800
 30
0.0
 10
83.852672
 20
276.690336
 30
0.0
 10
81.040552
 20
278.369080
 30
0.0
 10
78.302224
 20
280.032472
 30
0.0
 10
74.856264
 20
280.247176
 30
0.0
 10
71.356624
 20
279.432008
 30
0.0
 10
68.735688
 20
275.607760
 30
0.0
 10
66.304616
 20
271.995632
 30
0.0
 10
63.951472
 20
271.207760
 30
0.0
 10
61.386248
 20
272.110352
 30
0.0
 10
58.083216
 20
275.861040
 30
0.0
 10
56.314800
 20
278.187680
 30
0.0
 10
54.546376
 20
280.514320
 30
0.0
 10
51.894904
 20
280.264816
 30
0.0
 10
49.243424
 20
280.015312
 30
0.0
 10
40.278168
 20
278.098568
 30
0.0
 10
34.361680
 20
273.925880
 30
0.0
 10
32.047592
 20
270.774536
 30
0.0
 10
32.018472
 20
267.772624
 30
0.0
 10
34.341448
 20
260.763608
 30
0.0
 10
38.926320
 20
255.192592
 30
0.0
 10
44.718264
 20
251.290768
 30
0.0
 10
50.463496
 20
251.925920
 30
0.0
 10
53.779064
 20
252.831216
 30
0.0
 10
56.467736
 20
253.207760
 30
0.0
 10
59.160128
 20
251.365960
 30
0.0
 10
58.881200
 20
245.509144
 30
0.0
 10
58.542424
 20
241.870672
 30
0.0
 10
60.726336
 20
239.061888
 30
0.0
 10
63.601968
 20
236.881192
 30
0.0
 10
67.260464
 20
236.373768
 30
0.0
 10
71.471752
 20
235.671088
 30
0.0
 10
76.706184
 20
232.903224
 30
0.0
 10
81.581800
 20
229.392200
 30
0.0
 10
83.270680
 20
225.537224
 30
0.0
 10
86.099584
 20
220.229904
 30
0.0
 10
90.216968
 20
218.011736
 30
0.0
 10
92.001032
 20
218.520248
 30
0.0
 10
94.217016
 20
219.748704
 30
0.0
  0
LWPOLYLINE
  5
114
100
AcDbEntity
  8
Layer_1
 62
7
100
AcDbPolyline
 90
59
 70
0
 10
323.775984
 20
219.811744
 30
0.0
 10
325.694496
 20
222.154656
 30
0.0
 10
327.010304
 20
225.537232
 30
0.0
 10
328.699168
 20
229.392200
 30
0.0
 10
333.574784
 20
232.903232
 30
0.0
 10
338.809216
 20
235.671096
 30
0.0
 10
343.020464
 20
236.373776
 30
0.0
 10
346.678984
 20
236.881200
 30
0.0
 10
349.554624
 20
239.061896
 30
0.0
 10
351.738544
 20
241.870672
 30
0.0
 10
351.399744
 20
245.509152
 30
0.0
 10
351.122360
 20
251.377344
 30
0.0
 10
353.855184
 20
253.207776
 30
0.0
 10
356.467424
 20
252.855272
 30
0.0
 10
359.540464
 20
252.007776
 30
0.0
 10
365.479304
 20
251.073816
 30
0.0
 10
370.989744
 20
254.809168
 30
0.0
 10
375.911352
 20
260.720632
 30
0.0
 10
378.351344
 20
267.784168
 30
0.0
 10
378.305424
 20
270.704680
 30
0.0
 10
375.963048
 20
273.877520
 30
0.0
 10
370.013984
 20
278.093928
 30
0.0
 10
361.007528
 20
280.018544
 30
0.0
 10
358.341008
 20
280.269664
 30
0.0
 10
355.674488
 20
280.520784
 30
0.0
 10
354.101888
 20
278.392056
 30
0.0
 10
352.529288
 20
276.263328
 30
0.0
 10
346.386952
 20
270.253904
 30
0.0
 10
341.516488
 20
275.686080
 30
0.0
 10
338.918968
 20
279.438216
 30
0.0
 10
335.424728
 20
280.247192
 30
0.0
 10
331.978752
 20
280.032496
 30
0.0
 10
329.240408
 20
278.369096
 30
0.0
 10
326.428320
 20
276.690360
 30
0.0
 10
322.932248
 20
276.026816
 30
0.0
 10
319.288256
 20
275.697224
 30
0.0
 10
315.851688
 20
275.220432
 30
0.0
 10
312.624216
 20
275.165152
 30
0.0
 10
309.678328
 20
277.523328
 30
0.0
 10
306.671032
 20
279.883744
 30
0.0
 10
303.233368
 20
280.407800
 30
0.0
 10
299.966832
 20
279.930976
 30
0.0
 10
298.310912
 20
276.841632
 30
0.0
 10
297.450904
 20
273.581400
 30
0.0
 10
297.444504
 20
270.841632
 30
0.0
 10
297.933720
 20
268.452496
 30
0.0
 10
298.413704
 20
266.126120
 30
0.0
 10
296.783432
 20
259.623160
 30
0.0
 10
291.926104
 20
252.704568
 30
0.0
 10
288.492320
 20
247.368560
 30
0.0
 10
287.810664
 20
241.880272
 30
0.0
 10
291.695056
 20
237.393544
 30
0.0
 10
299.128664
 20
234.324856
 30
0.0
 10
308.787152
 20
231.086688
 30
0.0
 10
312.059440
 20
225.842848
 30
0.0
 10
313.098736
 20
222.913640
 30
0.0
 10
315.429600
 20
220.377808
 30
0.0
 10
319.772568
 20
218.131976
 30
0.0
 10
323.775984
 20
219.811744
 30
0.0
  0
LWPOLYLINE
  5
115
100
AcDbEntity
  8
Layer_1
 62
7
100
AcDbPolyline
 90
17
 70
0
 10
140.838736
 20
253.639864
 30
0.0
 10
144.533840
 20
256.851448
 30
0.0
 10
147.045664
 20
261.139904
 30
0.0
 10
149.052896
 20
268.391248
 30
0.0
 10
147.048064
 20
273.800368
 30
0.0
 10
141.686536
 20
278.437840
 30
0.0
 10
133.540728
 20
279.592528
 30
0.0
 10
128.731440
 20
279.402336
 30
0.0
 10
126.155904
 20
278.957688
 30
0.0
 10
122.060960
 20
273.874264
 30
0.0
 10
119.540512
 20
268.240344
 30
0.0
 10
121.156032
 20
261.750440
 30
0.0
 10
123.846920
 20
255.677704
 30
0.0
 10
128.846680
 20
252.700096
 30
0.0
 10
134.733584
 20
250.853864
 30
0.0
 10
137.349120
 20
251.653240
 30
0.0
 10
140.838736
 20
253.639864
 30
0.0
  0
LWPOLYLINE
  5
116
100
AcDbEntity
  8
Layer_1
 62
7
100
AcDbPolyline
 90
19
 70
0
 10
280.633368
 20
252.505032
 30
0.0
 10
286.220960
 20
255.721064
 30
0.0
 10
289.429368
 20
262.787752
 30
0.0
 10
290.434968
 20
265.777752
 30
0.0
 10
291.440568
 20
268.767744
 30
0.0
 10
290.565568
 20
270.336424
 30
0.0
 10
289.690568
 20
271.905096
 30
0.0
 10
287.831552
 20
274.791384
 30
0.0
 10
285.819528
 20
277.325112
 30
0.0
 10
283.052968
 20
279.272672
 30
0.0
 10
277.179848
 20
279.607776
 30
0.0
 10
268.902728
 20
278.559448
 30
0.0
 10
263.626808
 20
274.116736
 30
0.0
 10
261.246192
 20
269.051368
 30
0.0
 10
262.074648
 20
262.675552
 30
0.0
 10
264.689304
 20
257.981544
 30
0.0
 10
270.260568
 20
253.089088
 30
0.0
 10
274.694304
 20
250.948944
 30
0.0
 10
280.633368
 20
252.505032
 30
0.0
  0
LWPOLYLINE
  5
117
100
AcDbEntity
  8
Layer_1
 62
7
100
AcDbPolyline
 90
57
 70
0
 10
124.985608
 20
285.887152
 30
0.0
 10
126.925248
 20
287.645008
 30
0.0
 10
128.562592
 20
288.670520
 30
0.0
 10
135.436688
 20
287.878856
 30
0.0
 10
142.681792
 20
285.124696
 30
0.0
 10
145.298864
 20
283.906152
 30
0.0
 10
149.119152
 20
283.761104
 30
0.0
 10
152.905200
 20
284.376872
 30
0.0
 10
155.059512
 20
286.265072
 30
0.0
 10
156.464120
 20
289.661624
 30
0.0
 10
156.878112
 20
297.141416
 30
0.0
 10
158.073520
 20
308.038448
 30
0.0
 10
161.940512
 20
312.807776
 30
0.0
 10
165.330936
 20
316.391728
 30
0.0
 10
166.740488
 20
321.524016
 30
0.0
 10
164.303352
 20
325.415624
 30
0.0
 10
157.490608
 20
326.807776
 30
0.0
 10
152.963736
 20
327.172256
 30
0.0
 10
150.598496
 20
329.089944
 30
0.0
 10
148.528120
 20
331.246408
 30
0.0
 10
146.159496
 20
333.226352
 30
0.0
 10
143.930672
 20
335.549944
 30
0.0
 10
142.355160
 20
338.744184
 30
0.0
 10
140.777480
 20
341.943320
 30
0.0
 10
138.486672
 20
344.207776
 30
0.0
 10
134.663728
 20
345.858672
 30
0.0
 10
130.340512
 20
343.986904
 30
0.0
 10
123.796712
 20
342.587672
 30
0.0
 10
121.940512
 20
350.720408
 30
0.0
 10
120.776048
 20
356.172552
 30
0.0
 10
114.143480
 20
361.147512
 30
0.0
 10
109.750528
 20
363.327872
 30
0.0
 10
104.339888
 20
363.207712
 30
0.0
 10
98.179280
 20
361.487736
 30
0.0
 10
94.403344
 20
355.068952
 30
0.0
 10
93.352664
 20
351.328136
 30
0.0
 10
94.327184
 20
345.552000
 30
0.0
 10
97.201752
 20
338.058832
 30
0.0
 10
102.386160
 20
335.266584
 30
0.0
 10
107.229632
 20
333.543384
 30
0.0
 10
109.140512
 20
331.072296
 30
0.0
 10
108.083016
 20
329.024616
 30
0.0
 10
105.540512
 20
325.925016
 30
0.0
 10
102.998008
 20
322.832640
 30
0.0
 10
101.940512
 20
320.802320
 30
0.0
 10
103.300304
 20
317.036024
 30
0.0
 10
106.740768
 20
312.807776
 30
0.0
 10
111.391552
 20
305.676976
 30
0.0
 10
113.940512
 20
298.268976
 30
0.0
 10
113.559184
 20
296.332768
 30
0.0
 10
112.642384
 20
294.370288
 30
0.0
 10
111.810376
 20
290.224072
 30
0.0
 10
113.570592
 20
285.449592
 30
0.0
 10
115.315432
 20
283.959200
 30
0.0
 10
118.804048
 20
283.607776
 30
0.0
 10
122.485608
 20
284.028024
 30
0.0
 10
124.985608
 20
285.887152
 30
0.0
  0
LWPOLYLINE
  5
118
100
AcDbEntity
  8
Layer_1
 62
7
100
AcDbPolyline
 90
21
 70
0
 10
241.277528
 20
285.778224
 30
0.0
 10
242.884288
 20
287.865384
 30
0.0
 10
244.870008
 20
291.249616
 30
0.0
 10
245.997728
 20
293.403576
 30
0.0
 10
247.125448
 20
295.557536
 30
0.0
 10
246.421608
 20
298.270096
 30
0.0
 10
245.717768
 20
300.982656
 30
0.0
 10
242.749176
 20
308.311176
 30
0.0
 10
237.494168
 20
311.692224
 30
0.0
 10
230.628312
 20
312.966728
 30
0.0
 10
224.571608
 20
309.504200
 30
0.0
 10
218.814936
 20
304.005848
 30
0.0
 10
217.940488
 20
297.416672
 30
0.0
 10
218.277072
 20
292.169168
 30
0.0
 10
220.026168
 20
289.598440
 30
0.0
 10
222.650200
 20
287.659720
 30
0.0
 10
226.030248
 20
285.712880
 30
0.0
 10
230.145560
 20
284.195000
 30
0.0
 10
234.944648
 20
284.187800
 30
0.0
 10
238.865704
 20
284.831320
 30
0.0
 10
241.277528
 20
285.778224
 30
0.0
  0
LWPOLYLINE
  5
119
100
AcDbEntity
  8
Layer_1
 62
7
100
AcDbPolyline
 90
55
 70
0
 10
267.696488
 20
285.158720
 30
0.0
 10
274.806120
 20
287.870968
 30
0.0
 10
281.718408
 20
288.670520
 30
0.0
 10
283.384048
 20
287.614048
 30
0.0
 10
285.391688
 20
285.781776
 30
0.0
 10
287.928960
 20
283.830704
 30
0.0
 10
291.791688
 20
283.888224
 30
0.0
 10
296.521368
 20
285.451168
 30
0.0
 10
298.420008
 20
289.750296
 30
0.0
 10
298.480808
 20
292.244016
 30
0.0
 10
297.630232
 20
294.383160
 30
0.0
 10
296.467024
 20
298.118712
 30
0.0
 10
298.479672
 20
304.620648
 30
0.0
 10
300.836672
 20
309.383744
 30
0.0
 10
303.623008
 20
312.787192
 30
0.0
 10
308.311536
 20
319.551744
 30
0.0
 10
304.710528
 20
326.037176
 30
0.0
 10
301.563064
 20
331.919552
 30
0.0
 10
309.140448
 20
335.774104
 30
0.0
 10
313.855080
 20
339.154672
 30
0.0
 10
316.495328
 20
347.420128
 30
0.0
 10
316.929840
 20
352.109904
 30
0.0
 10
315.333488
 20
356.610880
 30
0.0
 10
311.833112
 20
361.649816
 30
0.0
 10
305.057008
 20
363.241432
 30
0.0
 10
302.498736
 20
363.492480
 30
0.0
 10
299.940472
 20
363.743520
 30
0.0
 10
297.140472
 20
361.806208
 30
0.0
 10
294.340472
 20
359.868888
 30
0.0
 10
291.540472
 20
357.931576
 30
0.0
 10
288.740472
 20
355.994256
 30
0.0
 10
288.526552
 20
352.997632
 30
0.0
 10
288.312632
 20
350.001016
 30
0.0
 10
287.828472
 20
345.474544
 30
0.0
 10
287.265352
 20
343.007776
 30
0.0
 10
284.553488
 20
342.104288
 30
0.0
 10
279.940472
 20
343.986904
 30
0.0
 10
275.617272
 20
345.858656
 30
0.0
 10
271.794312
 20
344.207776
 30
0.0
 10
269.509248
 20
341.952064
 30
0.0
 10
267.926312
 20
338.807776
 30
0.0
 10
265.892704
 20
335.068640
 30
0.0
 10
261.984392
 20
331.007776
 30
0.0
 10
257.260560
 20
327.382952
 30
0.0
 10
252.510872
 20
326.807776
 30
0.0
 10
245.945264
 20
325.389648
 30
0.0
 10
243.540472
 20
321.517840
 30
0.0
 10
245.244192
 20
316.316632
 30
0.0
 10
248.717912
 20
312.563632
 30
0.0
 10
252.328600
 20
308.009960
 30
0.0
 10
253.304072
 20
298.216272
 30
0.0
 10
253.810720
 20
289.734160
 30
0.0
 10
256.120152
 20
285.009240
 30
0.0
 10
261.603960
 20
283.550632
 30
0.0
 10
267.696488
 20
285.158720
 30
0.0
  0
LWPOLYLINE
  5
11a
100
AcDbEntity
  8
Layer_1
 62
7
100
AcDbPolyline
 90
17
 70
0
 10
100.442728
 20
287.007776
 30
0.0
 10
104.941384
 20
295.336928
 30
0.0
 10
102.642872
 20
304.971496
 30
0.0
 10
100.379848
 20
308.367256
 30
0.0
 10
97.171000
 20
310.607776
 30
0.0
 10
90.853824
 20
312.307352
 30
0.0
 10
84.326576
 20
310.400712
 30
0.0
 10
79.258864
 20
306.044168
 30
0.0
 10
76.364504
 20
298.514832
 30
0.0
 10
76.338584
 20
293.096824
 30
0.0
 10
80.246808
 20
287.799920
 30
0.0
 10
81.892792
 20
286.103848
 30
0.0
 10
83.538776
 20
284.407776
 30
0.0
 10
87.161768
 20
284.407776
 30
0.0
 10
90.784760
 20
284.407776
 30
0.0
 10
97.401704
 20
284.746120
 30
0.0
 10
100.442728
 20
287.007776
 30
0.0
  0
LWPOLYLINE
  5
11b
100
AcDbEntity
  8
Layer_1
 62
7
100
AcDbPolyline
 90
17
 70
0
 10
187.555928
 20
287.619272
 30
0.0
 10
190.780600
 20
290.177760
 30
0.0
 10
192.489128
 20
291.819272
 30
0.0
 10
192.584360
 20
298.082632
 30
0.0
 10
191.130808
 20
304.633576
 30
0.0
 10
185.185184
 20
309.874840
 30
0.0
 10
179.199608
 20
313.207776
 30
0.0
 10
176.519248
 20
312.719608
 30
0.0
 10
172.530168
 20
311.545928
 30
0.0
 10
168.051944
 20
309.523328
 30
0.0
 10
165.982968
 20
305.537648
 30
0.0
 10
163.807096
 20
297.355960
 30
0.0
 10
165.149064
 20
291.536104
 30
0.0
 10
169.415512
 20
285.513240
 30
0.0
 10
176.735448
 20
284.407776
 30
0.0
 10
182.954952
 20
284.838448
 30
0.0
 10
187.555928
 20
287.619272
 30
0.0
  0
LWPOLYLINE
  5
11c
100
AcDbEntity
  8
Layer_1
 62
7
100
AcDbPolyline
 90
19
 70
0
 10
330.381984
 20
288.180136
 30
0.0
 10
334.223072
 20
293.456656
 30
0.0
 10
333.916784
 20
298.895848
 30
0.0
 10
330.867376
 20
306.282944
 30
0.0
 10
325.954464
 20
310.400712
 30
0.0
 10
319.427200
 20
312.307368
 30
0.0
 10
313.109984
 20
310.607776
 30
0.0
 10
308.145888
 20
305.911800
 30
0.0
 10
305.410144
 20
298.559368
 30
0.0
 10
305.661176
 20
293.373400
 30
0.0
 10
309.190224
 20
288.141112
 30
0.0
 10
310.833344
 20
286.274440
 30
0.0
 10
312.476464
 20
284.407776
 30
0.0
 10
316.049184
 20
284.407776
 30
0.0
 10
319.621904
 20
284.407776
 30
0.0
 10
323.194664
 20
284.407776
 30
0.0
 10
326.767424
 20
284.407776
 30
0.0
 10
328.574704
 20
286.293952
 30
0.0
 10
330.381984
 20
288.180136
 30
0.0
  0
LWPOLYLINE
  5
11d
100
AcDbEntity
  8
Layer_1
 62
7
100
AcDbPolyline
 90
63
 70
0
 10
210.541128
 20
304.355304
 30
0.0
 10
213.131824
 20
306.797800
 30
0.0
 10
214.670008
 20
309.394080
 30
0.0
 10
216.456248
 20
312.436328
 30
0.0
 10
219.503688
 20
315.971472
 30
0.0
 10
223.497656
 20
319.297856
 30
0.0
 10
227.743688
 20
319.717288
 30
0.0
 10
231.834896
 20
320.044144
 30
0.0
 10
235.114248
 20
322.235944
 30
0.0
 10
236.652248
 20
323.565440
 30
0.0
 10
238.190248
 20
324.894928
 30
0.0
 10
237.627808
 20
326.668088
 30
0.0
 10
237.065368
 20
328.441240
 30
0.0
 10
235.492536
 20
331.645320
 30
0.0
 10
232.587528
 20
333.831680
 30
0.0
 10
229.513896
 20
336.279920
 30
0.0
 10
227.868328
 20
341.816544
 30
0.0
 10
226.943040
 20
347.448696
 30
0.0
 10
227.435128
 20
351.445704
 30
0.0
 10
227.661816
 20
357.485216
 30
0.0
 10
225.734808
 20
361.804640
 30
0.0
 10
223.773960
 20
362.499472
 30
0.0
 10
220.455848
 20
363.070168
 30
0.0
 10
214.164400
 20
365.607264
 30
0.0
 10
217.140488
 20
372.407776
 30
0.0
 10
219.423744
 20
376.062712
 30
0.0
 10
220.311128
 20
378.752264
 30
0.0
 10
219.531248
 20
381.730808
 30
0.0
 10
217.697288
 20
386.005512
 30
0.0
 10
214.825936
 20
390.668672
 30
0.0
 10
211.135768
 20
393.805512
 30
0.0
 10
205.141904
 20
396.252608
 30
0.0
 10
199.173128
 20
393.807912
 30
0.0
 10
195.578416
 20
390.754704
 30
0.0
 10
192.915928
 20
386.509264
 30
0.0
 10
190.217200
 20
378.614504
 30
0.0
 10
193.090488
 20
372.527584
 30
0.0
 10
196.112448
 20
365.608648
 30
0.0
 10
189.536888
 20
363.037816
 30
0.0
 10
185.774040
 20
362.307216
 30
0.0
 10
183.960168
 20
360.889912
 30
0.0
 10
182.363232
 20
356.283104
 30
0.0
 10
183.005848
 20
351.657928
 30
0.0
 10
183.699456
 20
348.359824
 30
0.0
 10
182.754408
 20
342.658360
 30
0.0
 10
180.825720
 20
336.150192
 30
0.0
 10
177.056328
 20
333.363696
 30
0.0
 10
174.682944
 20
331.534256
 30
0.0
 10
173.215608
 20
328.451488
 30
0.0
 10
172.653168
 20
326.673272
 30
0.0
 10
172.090728
 20
324.895064
 30
0.0
 10
173.628728
 20
323.565568
 30
0.0
 10
175.166728
 20
322.236080
 30
0.0
 10
178.446136
 20
320.044280
 30
0.0
 10
182.537288
 20
319.717424
 30
0.0
 10
186.783360
 20
319.298056
 30
0.0
 10
190.777368
 20
315.971608
 30
0.0
 10
193.824776
 20
312.436464
 30
0.0
 10
195.611048
 20
309.394216
 30
0.0
 10
199.613792
 20
304.491616
 30
0.0
 10
205.140488
 20
302.007776
 30
0.0
 10
207.617912
 20
302.697360
 30
0.0
 10
210.541128
 20
304.355304
 30
0.0
  0
LWPOLYLINE
  5
11e
100
AcDbEntity
  8
Layer_1
 62
7
100
AcDbPolyline
 90
19
 70
0
 10
168.740488
 20
336.455112
 30
0.0
 10
173.347008
 20
342.031288
 30
0.0
 10
175.784168
 20
350.121200
 30
0.0
 10
175.337288
 20
353.710968
 30
0.0
 10
173.179288
 20
357.607776
 30
0.0
 10
171.005968
 20
360.595808
 30
0.0
 10
169.618888
 20
362.162776
 30
0.0
 10
167.588224
 20
362.709656
 30
0.0
 10
163.867592
 20
363.245104
 30
0.0
 10
155.773816
 20
362.376008
 30
0.0
 10
149.270160
 20
357.633248
 30
0.0
 10
147.014224
 20
354.251376
 30
0.0
 10
147.155632
 20
348.899816
 30
0.0
 10
148.684208
 20
342.424864
 30
0.0
 10
153.940512
 20
337.462792
 30
0.0
 10
157.669600
 20
335.231584
 30
0.0
 10
161.940512
 20
335.025752
 30
0.0
 10
165.753000
 20
335.559768
 30
0.0
 10
168.740488
 20
336.455112
 30
0.0
  0
LWPOLYLINE
  5
11f
100
AcDbEntity
  8
Layer_1
 62
7
100
AcDbPolyline
 90
19
 70
0
 10
257.157128
 20
338.084232
 30
0.0
 10
260.573368
 20
340.704232
 30
0.0
 10
262.227768
 20
342.402416
 30
0.0
 10
262.670768
 20
344.768728
 30
0.0
 10
263.174488
 20
348.995080
 30
0.0
 10
263.302056
 20
354.223904
 30
0.0
 10
261.030968
 20
357.610336
 30
0.0
 10
254.547552
 20
362.356592
 30
0.0
 10
246.409368
 20
363.185632
 30
0.0
 10
242.613104
 20
362.652232
 30
0.0
 10
240.557208
 20
362.127064
 30
0.0
 10
239.246112
 20
360.598056
 30
0.0
 10
237.240568
 20
357.651152
 30
0.0
 10
234.757832
 20
350.337080
 30
0.0
 10
236.621048
 20
342.407776
 30
0.0
 10
239.340472
 20
337.891328
 30
0.0
 10
243.140488
 20
335.778352
 30
0.0
 10
250.223840
 20
334.930880
 30
0.0
 10
257.157128
 20
338.084232
 30
0.0
  0
ENDSEC
  0
SECTION
  2
OBJECTS
  0
DICTIONARY
  5
C
330
0
100
AcDbDictionary
  3
ACAD_GROUP
350
D
  3
ACAD_MLINESTYLE
350
17
  0
DICTIONARY
  5
D
330
C
100
AcDbDictionary
  0
DICTIONARY
  5
1A
330
C
100
AcDbDictionary
  0
DICTIONARY
  5
17
330
C
100
AcDbDictionary
  3
STANDARD
350
18
  0
DICTIONARY
  5
19
330
C
100
AcDbDictionary
  0
ENDSEC
  0
EOF
