  0
SECTION
  2
HEADER
  9
$ACADVER
  1
AC1014
  9
$HANDSEED
  5
FFFF
  9
$MEASUREMENT
 70
     1
  0
ENDSEC
  0
SECTION
  2
TABLES
  0
TABLE
  2
VPORT
  5
8
330
0
100
AcDbSymbolTable
 70
     4
  0
VPORT
  5
2E
330
8
100
AcDbSymbolTableRecord
100
AcDbViewportTableRecord
  2
*ACTIVE
 70
     0
 10
0.0
 20
0.0
 11
1.0
 21
1.0
 12
210.0
 22
148.5
 13
0.0
 23
0.0
 14
10.0
 24
10.0
 15
10.0
 25
10.0
 16
0.0
 26
0.0
 36
1.0
 17
0.0
 27
0.0
 37
0.0
 40
341.0
 41
1.24
 42
50.0
 43
0.0
 44
0.0
 50
0.0
 51
0.0
 71
     0
 72
   100
 73
     1
 74
     3
 75
     0
 76
     0
 77
     0
 78
     0
  0
ENDTAB
  0
TABLE
  2
LTYPE
  5
5
330
0
100
AcDbSymbolTable
 70
     1
  0
LTYPE
  5
14
330
5
100
AcDbSymbolTableRecord
100
AcDbLinetypeTableRecord
  2
BYBLOCK
 70
     0
  3

 72
    65
 73
     0
 40
0.0
  0
LTYPE
  5
15
330
5
100
AcDbSymbolTableRecord
100
AcDbLinetypeTableRecord
  2
BYLAYER
 70
     0
  3

 72
    65
 73
     0
 40
0.0
  0
LTYPE
  5
16
330
5
100
AcDbSymbolTableRecord
100
AcDbLinetypeTableRecord
  2
CONTINUOUS
 70
     0
  3
Solid line
 72
    65
 73
     0
 40
0.0
  0
ENDTAB
  0
TABLE
  2
LAYER
  5
2
100
AcDbSymbolTable
 70
2
  0
LAYER
  5
50
100
AcDbSymbolTableRecord
100
AcDbLayerTableRecord
  2
0
 70
0
  6
CONTINUOUS
  0
LAYER
  5
51
100
AcDbSymbolTableRecord
100
AcDbLayerTableRecord
  2
Layer_1
 70
0
  6
CONTINUOUS
  0
ENDTAB
  0
TABLE
  2
STYLE
  5
3
330
0
100
AcDbSymbolTable
 70
     1
  0
STYLE
  5
11
330
3
100
AcDbSymbolTableRecord
100
AcDbTextStyleTableRecord
  2
STANDARD
 70
     0
 40
0.0
 41
1.0
 50
0.0
 71
     0
 42
2.5
  3
txt
  4

  0
ENDTAB
  0
TABLE
  2
VIEW
  5
6
330
0
100
AcDbSymbolTable
 70
     0
  0
ENDTAB
  0
TABLE
  2
UCS
  5
7
330
0
100
AcDbSymbolTable
 70
     0
  0
ENDTAB
  0
TABLE
  2
APPID
  5
9
330
0
100
AcDbSymbolTable
 70
     2
  0
APPID
  5
12
330
9
100
AcDbSymbolTableRecord
100
AcDbRegAppTableRecord
  2
ACAD
 70
     0
  0
ENDTAB
  0
TABLE
  2
DIMSTYLE
  5
A
330
0
100
AcDbSymbolTable
 70
     1
  0
DIMSTYLE
105
27
330
A
100
AcDbSymbolTableRecord
100
AcDbDimStyleTableRecord
  2
ISO-25
 70
     0
  3

  4

  5

  6

  7

 40
1.0
 41
2.5
 42
0.625
 43
3.75
 44
1.25
 45
0.0
 46
0.0
 47
0.0
 48
0.0
140
2.5
141
2.5
142
0.0
143
0.03937007874016
144
1.0
145
0.0
146
1.0
147
0.625
 71
     0
 72
     0
 73
     0
 74
     0
 75
     0
 76
     0
 77
     1
 78
     8
170
     0
171
     3
172
     1
173
     0
174
     0
175
     0
176
     0
177
     0
178
     0
270
     2
271
     2
272
     2
273
     2
274
     3
340
11
275
     0
280
     0
281
     0
282
     0
283
     0
284
     8
285
     0
286
     0
287
     3
288
     0
  0
ENDTAB
  0
TABLE
  2
BLOCK_RECORD
  5
1
330
0
100
AcDbSymbolTable
 70
     1
  0
BLOCK_RECORD
  5
1F
330
1
100
AcDbSymbolTableRecord
100
AcDbBlockTableRecord
  2
*MODEL_SPACE
  0
BLOCK_RECORD
  5
1B
330
1
100
AcDbSymbolTableRecord
100
AcDbBlockTableRecord
  2
*PAPER_SPACE
  0
ENDTAB
  0
ENDSEC
  0
SECTION
  2
BLOCKS
  0
BLOCK
  5
20
330
1F
100
AcDbEntity
  8
0
100
AcDbBlockBegin
  2
*MODEL_SPACE
 70
     0
 10
0.0
 20
0.0
 30
0.0
  3
*MODEL_SPACE
  1

  0
ENDBLK
  5
21
330
1F
100
AcDbEntity
  8
0
100
AcDbBlockEnd
  0
BLOCK
  5
1C
330
1B
100
AcDbEntity
 67
     1
  8
0
100
AcDbBlockBegin
  2
*PAPER_SPACE
  1

  0
ENDBLK
  5
1D
330
1B
100
AcDbEntity
 67
     1
  8
0
100
AcDbBlockEnd
  0
ENDSEC
  0
SECTION
  2
ENTITIES
  0
LWPOLYLINE
  5
100
100
AcDbEntity
  8
Layer_1
 62
7
100
AcDbPolyline
 90
341
 70
0
 10
203.227753
 20
0.569096
 30
0.0
 10
202.165089
 20
2.398760
 30
0.0
 10
200.773001
 20
5.339288
 30
0.0
 10
197.861705
 20
9.589304
 30
0.0
 10
192.195841
 20
11.231000
 30
0.0
 10
185.576257
 20
13.798056
 30
0.0
 10
189.395841
 20
19.682328
 30
0.0
 10
193.358617
 20
28.564440
 30
0.0
 10
186.451625
 20
39.642856
 30
0.0
 10
180.712825
 20
44.788256
 30
0.0
 10
175.683201
 20
43.625272
 30
0.0
 10
167.845121
 20
42.217464
 30
0.0
 10
166.080313
 20
49.765528
 30
0.0
 10
164.512505
 20
56.719832
 30
0.0
 10
158.589473
 20
58.804712
 30
0.0
 10
155.833241
 20
59.369352
 30
0.0
 10
152.585705
 20
60.722752
 30
0.0
 10
145.134225
 20
63.053712
 30
0.0
 10
140.995841
 20
59.887936
 30
0.0
 10
135.341217
 20
53.326440
 30
0.0
 10
129.190009
 20
58.207704
 30
0.0
 10
124.934321
 20
62.571520
 30
0.0
 10
116.448145
 20
61.577160
 30
0.0
 10
108.779753
 20
58.881800
 30
0.0
 10
103.960809
 20
55.274624
 30
0.0
 10
103.561801
 20
52.664864
 30
0.0
 10
103.395841
 20
47.607704
 30
0.0
 10
102.154969
 20
40.681352
 30
0.0
 10
95.888545
 20
42.360728
 30
0.0
 10
90.349265
 20
44.264864
 30
0.0
 10
85.352465
 20
42.161992
 30
0.0
 10
78.396945
 20
39.543152
 30
0.0
 10
78.134577
 20
46.775272
 30
0.0
 10
78.330849
 20
53.491280
 30
0.0
 10
73.583809
 20
59.751616
 30
0.0
 10
70.876801
 20
64.559416
 30
0.0
 10
76.832097
 20
66.409104
 30
0.0
 10
85.432937
 20
70.207360
 30
0.0
 10
86.773513
 20
82.474472
 30
0.0
 10
85.330705
 20
91.358280
 30
0.0
 10
79.933161
 20
93.916864
 30
0.0
 10
73.189793
 20
97.318728
 30
0.0
 10
76.727601
 20
104.189832
 30
0.0
 10
79.502433
 20
109.640000
 30
0.0
 10
75.014617
 20
117.486856
 30
0.0
 10
66.698129
 20
127.889624
 30
0.0
 10
61.307753
 20
126.762760
 30
0.0
 10
58.158809
 20
125.625728
 30
0.0
 10
55.139625
 20
125.362760
 30
0.0
 10
53.667729
 20
125.485232
 30
0.0
 10
52.195841
 20
125.607704
 30
0.0
 10
52.079257
 20
128.932960
 30
0.0
 10
51.962673
 20
132.258216
 30
0.0
 10
51.846081
 20
135.583472
 30
0.0
 10
51.729497
 20
138.908720
 30
0.0
 10
47.929745
 20
140.745744
 30
0.0
 10
44.130001
 20
142.582768
 30
0.0
 10
36.941826
 20
145.660128
 30
0.0
 10
31.963169
 20
145.532256
 30
0.0
 10
29.679505
 20
145.169984
 30
0.0
 10
27.395841
 20
144.807704
 30
0.0
 10
26.095653
 20
142.107704
 30
0.0
 10
24.795465
 20
139.407704
 30
0.0
 10
20.249805
 20
133.768424
 30
0.0
 10
15.712545
 20
139.007704
 30
0.0
 10
13.876699
 20
142.612968
 30
0.0
 10
12.982393
 20
144.259672
 30
0.0
 10
11.346762
 20
144.782320
 30
0.0
 10
7.728593
 20
145.685056
 30
0.0
 10
0.693110
 20
149.021736
 30
0.0
 10
4.271617
 20
154.426984
 30
0.0
 10
6.109505
 20
155.933000
 30
0.0
 10
7.947393
 20
157.439008
 30
0.0
 10
7.670161
 20
160.941744
 30
0.0
 10
7.392929
 20
164.444472
 30
0.0
 10
8.045192
 20
171.862176
 30
0.0
 10
14.252585
 20
170.030640
 30
0.0
 10
24.139886
 20
168.790608
 30
0.0
 10
32.795841
 20
178.942712
 30
0.0
 10
36.244938
 20
186.107976
 30
0.0
 10
32.995841
 20
190.807704
 30
0.0
 10
29.331771
 20
197.611288
 30
0.0
 10
36.512929
 20
201.127280
 30
0.0
 10
39.154385
 20
201.767496
 30
0.0
 10
41.795841
 20
202.407704
 30
0.0
 10
41.795841
 20
208.607704
 30
0.0
 10
41.795841
 20
214.807704
 30
0.0
 10
41.795841
 20
221.007704
 30
0.0
 10
41.795841
 20
227.207704
 30
0.0
 10
39.154385
 20
227.847920
 30
0.0
 10
36.512929
 20
228.488128
 30
0.0
 10
29.331770
 20
232.004120
 30
0.0
 10
32.995841
 20
238.807704
 30
0.0
 10
36.244936
 20
243.507432
 30
0.0
 10
32.795841
 20
250.672696
 30
0.0
 10
24.319966
 20
260.761696
 30
0.0
 10
14.118809
 20
259.633296
 30
0.0
 10
7.949853
 20
258.180304
 30
0.0
 10
7.420697
 20
265.632352
 30
0.0
 10
7.692669
 20
268.897312
 30
0.0
 10
7.964641
 20
272.162264
 30
0.0
 10
6.157893
 20
273.642760
 30
0.0
 10
4.351145
 20
275.123256
 30
0.0
 10
-0.000000
 20
280.737832
 30
0.0
 10
5.265193
 20
283.596872
 30
0.0
 10
8.938670
 20
284.312912
 30
0.0
 10
11.408457
 20
284.807408
 30
0.0
 10
13.270593
 20
286.406816
 30
0.0
 10
15.600993
 20
290.375920
 30
0.0
 10
20.206261
 20
295.863840
 30
0.0
 10
24.795465
 20
290.207704
 30
0.0
 10
26.095653
 20
287.507704
 30
0.0
 10
27.395841
 20
284.807704
 30
0.0
 10
29.679505
 20
284.445432
 30
0.0
 10
31.963169
 20
284.083152
 30
0.0
 10
36.941826
 20
283.955280
 30
0.0
 10
44.130001
 20
287.032640
 30
0.0
 10
47.929745
 20
288.869664
 30
0.0
 10
51.729497
 20
290.706688
 30
0.0
 10
51.846081
 20
294.031944
 30
0.0
 10
51.962673
 20
297.357192
 30
0.0
 10
52.079257
 20
300.682448
 30
0.0
 10
52.195841
 20
304.007704
 30
0.0
 10
53.667729
 20
304.130176
 30
0.0
 10
55.139625
 20
304.252648
 30
0.0
 10
58.158801
 20
303.989680
 30
0.0
 10
61.307753
 20
302.852648
 30
0.0
 10
66.698129
 20
301.725784
 30
0.0
 10
75.014617
 20
312.128552
 30
0.0
 10
79.502441
 20
319.975408
 30
0.0
 10
76.727601
 20
325.425576
 30
0.0
 10
73.189793
 20
332.296688
 30
0.0
 10
79.933161
 20
335.698544
 30
0.0
 10
85.359417
 20
338.313280
 30
0.0
 10
86.777025
 20
347.506352
 30
0.0
 10
85.519953
 20
359.331872
 30
0.0
 10
77.073281
 20
363.332584
 30
0.0
 10
72.324593
 20
365.346136
 30
0.0
 10
73.226465
 20
368.978880
 30
0.0
 10
78.322161
 20
376.341368
 30
0.0
 10
78.152873
 20
382.737752
 30
0.0
 10
78.389953
 20
390.068032
 30
0.0
 10
85.352465
 20
387.453416
 30
0.0
 10
90.349265
 20
385.350544
 30
0.0
 10
95.888545
 20
387.254680
 30
0.0
 10
102.154969
 20
388.934056
 30
0.0
 10
103.395841
 20
382.007704
 30
0.0
 10
103.561801
 20
376.950544
 30
0.0
 10
103.960809
 20
374.340784
 30
0.0
 10
108.779753
 20
370.733608
 30
0.0
 10
116.448145
 20
368.038248
 30
0.0
 10
124.934321
 20
367.043888
 30
0.0
 10
129.190009
 20
371.407704
 30
0.0
 10
135.341225
 20
376.288976
 30
0.0
 10
140.995841
 20
369.727472
 30
0.0
 10
145.134225
 20
366.561696
 30
0.0
 10
152.585705
 20
368.892656
 30
0.0
 10
155.833241
 20
370.246040
 30
0.0
 10
158.589473
 20
370.810696
 30
0.0
 10
164.512505
 20
372.895664
 30
0.0
 10
166.080313
 20
379.849880
 30
0.0
 10
167.845121
 20
387.397944
 30
0.0
 10
175.683201
 20
385.990136
 30
0.0
 10
180.712825
 20
384.827144
 30
0.0
 10
186.451625
 20
389.972552
 30
0.0
 10
193.390681
 20
401.165256
 30
0.0
 10
188.995841
 20
410.305800
 30
0.0
 10
184.887113
 20
416.116840
 30
0.0
 10
191.795841
 20
418.348328
 30
0.0
 10
197.949889
 20
420.200288
 30
0.0
 10
201.042737
 20
424.974480
 30
0.0
 10
205.053265
 20
431.215232
 30
0.0
 10
209.795841
 20
424.971280
 30
0.0
 10
210.995841
 20
422.489648
 30
0.0
 10
212.195841
 20
420.008016
 30
0.0
 10
214.595841
 20
419.482304
 30
0.0
 10
216.995841
 20
418.956584
 30
0.0
 10
220.924657
 20
418.104608
 30
0.0
 10
223.630097
 20
417.532744
 30
0.0
 10
225.859249
 20
415.370352
 30
0.0
 10
221.911265
 20
410.348200
 30
0.0
 10
217.400881
 20
401.162192
 30
0.0
 10
224.340057
 20
389.972864
 30
0.0
 10
230.078857
 20
384.827464
 30
0.0
 10
235.108481
 20
385.990448
 30
0.0
 10
243.172945
 20
387.173520
 30
0.0
 10
244.786513
 20
379.052760
 30
0.0
 10
246.295985
 20
372.854552
 30
0.0
 10
252.195841
 20
370.803192
 30
0.0
 10
255.147921
 20
370.210488
 30
0.0
 10
258.875281
 20
368.800200
 30
0.0
 10
266.379185
 20
366.789856
 30
0.0
 10
270.519961
 20
370.658264
 30
0.0
 10
275.769017
 20
376.409808
 30
0.0
 10
281.599937
 20
371.408016
 30
0.0
 10
285.850809
 20
367.044976
 30
0.0
 10
294.276601
 20
368.025008
 30
0.0
 10
304.930561
 20
372.359112
 30
0.0
 10
307.395841
 20
381.922696
 30
0.0
 10
308.576081
 20
388.900368
 30
0.0
 10
315.044913
 20
387.184560
 30
0.0
 10
321.229873
 20
385.546672
 30
0.0
 10
327.682089
 20
389.123144
 30
0.0
 10
333.561617
 20
391.663664
 30
0.0
 10
332.947049
 20
383.609752
 30
0.0
 10
332.293449
 20
376.831736
 30
0.0
 10
336.128713
 20
370.973520
 30
0.0
 10
338.404953
 20
364.844856
 30
0.0
 10
331.143249
 20
362.812480
 30
0.0
 10
325.611825
 20
359.670072
 30
0.0
 10
323.830681
 20
350.233712
 30
0.0
 10
325.151521
 20
339.127432
 30
0.0
 10
331.363169
 20
335.606464
 30
0.0
 10
337.775577
 20
332.361864
 30
0.0
 10
334.595841
 20
326.008016
 30
0.0
 10
331.228305
 20
320.156760
 30
0.0
 10
334.644961
 20
314.002344
 30
0.0
 10
337.587729
 20
310.193848
 30
0.0
 10
339.538537
 20
307.208016
 30
0.0
 10
344.064993
 20
301.738784
 30
0.0
 10
349.576465
 20
302.805024
 30
0.0
 10
356.949201
 20
304.299768
 30
0.0
 10
359.335065
 20
296.104360
 30
0.0
 10
359.365465
 20
293.292408
 30
0.0
 10
359.395865
 20
290.480456
 30
0.0
 10
362.547649
 20
288.945872
 30
0.0
 10
365.699433
 20
287.411280
 30
0.0
 10
371.907945
 20
284.859112
 30
0.0
 10
377.699433
 20
284.575056
 30
0.0
 10
380.547673
 20
284.691384
 30
0.0
 10
383.395921
 20
284.807704
 30
0.0
 10
384.696105
 20
287.507704
 30
0.0
 10
385.996289
 20
290.207704
 30
0.0
 10
390.585497
 20
295.863840
 30
0.0
 10
395.190769
 20
290.375920
 30
0.0
 10
397.648273
 20
286.185432
 30
0.0
 10
399.783305
 20
284.738192
 30
0.0
 10
410.316945
 20
281.285720
 30
0.0
 10
407.109905
 20
275.729112
 30
0.0
 10
404.966897
 20
273.838888
 30
0.0
 10
402.823889
 20
271.948664
 30
0.0
 10
403.113753
 20
268.468856
 30
0.0
 10
403.403625
 20
264.989040
 30
0.0
 10
402.856169
 20
257.664528
 30
0.0
 10
396.655721
 20
259.511288
 30
0.0
 10
386.796201
 20
260.944144
 30
0.0
 10
378.257345
 20
250.915040
 30
0.0
 10
374.563729
 20
243.509552
 30
0.0
 10
377.795921
 20
238.807704
 30
0.0
 10
381.382521
 20
231.816384
 30
0.0
 10
374.749625
 20
228.500224
 30
0.0
 10
369.250401
 20
226.152096
 30
0.0
 10
368.595921
 20
214.807704
 30
0.0
 10
369.250401
 20
203.463312
 30
0.0
 10
374.749625
 20
201.115184
 30
0.0
 10
381.382521
 20
197.799024
 30
0.0
 10
377.795921
 20
190.807704
 30
0.0
 10
374.563729
 20
186.105856
 30
0.0
 10
378.257345
 20
178.700368
 30
0.0
 10
386.812609
 20
168.662472
 30
0.0
 10
396.588297
 20
170.134016
 30
0.0
 10
402.811369
 20
172.023720
 30
0.0
 10
403.404497
 20
164.516096
 30
0.0
 10
403.124433
 20
160.977552
 30
0.0
 10
402.844369
 20
157.439008
 30
0.0
 10
404.782257
 20
155.881184
 30
0.0
 10
406.720145
 20
154.323360
 30
0.0
 10
410.673185
 20
150.916208
 30
0.0
 10
411.771417
 20
149.207704
 30
0.0
 10
410.046665
 20
147.210240
 30
0.0
 10
404.316817
 20
145.702872
 30
0.0
 10
399.880401
 20
144.854272
 30
0.0
 10
397.870433
 20
144.319312
 30
0.0
 10
397.073809
 20
142.909480
 30
0.0
 10
395.554569
 20
139.957456
 30
0.0
 10
390.706953
 20
134.199408
 30
0.0
 10
385.795921
 20
140.073816
 30
0.0
 10
384.595921
 20
142.440760
 30
0.0
 10
383.395921
 20
144.807704
 30
0.0
 10
381.112257
 20
145.169984
 30
0.0
 10
378.828593
 20
145.532256
 30
0.0
 10
373.841513
 20
145.656968
 30
0.0
 10
366.592553
 20
142.549304
 30
0.0
 10
362.758201
 20
140.695552
 30
0.0
 10
358.923849
 20
138.841800
 30
0.0
 10
359.017217
 20
135.917008
 30
0.0
 10
359.110593
 20
132.992216
 30
0.0
 10
356.944705
 20
125.290960
 30
0.0
 10
349.576585
 20
126.810696
 30
0.0
 10
344.065121
 20
127.876936
 30
0.0
 10
339.538657
 20
122.407704
 30
0.0
 10
337.587849
 20
119.421872
 30
0.0
 10
334.645081
 20
115.613376
 30
0.0
 10
331.228393
 20
109.458960
 30
0.0
 10
334.595961
 20
103.607704
 30
0.0
 10
337.775705
 20
97.253864
 30
0.0
 10
331.363289
 20
94.009256
 30
0.0
 10
325.151641
 20
90.488288
 30
0.0
 10
323.830801
 20
79.382008
 30
0.0
 10
325.621033
 20
69.828928
 30
0.0
 10
332.915249
 20
66.517504
 30
0.0
 10
338.754657
 20
64.071816
 30
0.0
 10
336.946033
 20
59.560800
 30
0.0
 10
332.662721
 20
53.957368
 30
0.0
 10
332.551145
 20
47.895472
 30
0.0
 10
331.656705
 20
41.536464
 30
0.0
 10
324.595961
 20
42.807704
 30
0.0
 10
320.180937
 20
44.301296
 30
0.0
 10
315.705217
 20
42.761384
 30
0.0
 10
312.675729
 20
41.660112
 30
0.0
 10
309.937081
 20
41.361384
 30
0.0
 10
308.666497
 20
41.484544
 30
0.0
 10
307.395921
 20
41.607704
 30
0.0
 10
307.395921
 20
44.841280
 30
0.0
 10
307.395921
 20
48.074856
 30
0.0
 10
304.882569
 20
57.299064
 30
0.0
 10
294.276681
 20
61.590712
 30
0.0
 10
285.850889
 20
62.570744
 30
0.0
 10
281.600017
 20
58.207704
 30
0.0
 10
275.769097
 20
53.205912
 30
0.0
 10
270.520041
 20
58.957456
 30
0.0
 10
268.852305
 20
61.701592
 30
0.0
 10
267.582441
 20
62.892472
 30
0.0
 10
263.071865
 20
62.556616
 30
0.0
 10
258.388241
 20
60.738128
 30
0.0
 10
255.095361
 20
59.373888
 30
0.0
 10
252.276769
 20
58.804712
 30
0.0
 10
246.309529
 20
56.774152
 30
0.0
 10
244.786593
 20
50.562960
 30
0.0
 10
243.173025
 20
42.442200
 30
0.0
 10
235.108561
 20
43.625272
 30
0.0
 10
230.078937
 20
44.788264
 30
0.0
 10
224.340137
 20
39.642856
 30
0.0
 10
217.438033
 20
28.589664
 30
0.0
 10
221.395921
 20
19.756568
 30
0.0
 10
224.881785
 20
13.962632
 30
0.0
 10
218.195921
 20
11.191680
 30
0.0
 10
212.816497
 20
9.459648
 30
0.0
 10
209.567913
 20
4.564568
 30
0.0
 10
206.213329
 20
-0.000008
 30
0.0
 10
203.227753
 20
0.569096
 30
0.0
  0
LWPOLYLINE
  5
101
100
AcDbEntity
  8
Layer_1
 62
7
100
AcDbPolyline
 90
7
 70
0
 10
209.337777
 20
16.115592
 30
0.0
 10
210.230409
 20
22.936304
 30
0.0
 10
205.395841
 20
26.807704
 30
0.0
 10
201.830289
 20
24.713800
 30
0.0
 10
199.798833
 20
21.045904
 30
0.0
 10
203.310393
 20
14.719080
 30
0.0
 10
209.337777
 20
16.115592
 30
0.0
  0
LWPOLYLINE
  5
102
100
AcDbEntity
  8
Layer_1
 62
7
100
AcDbPolyline
 90
35
 70
0
 10
210.595841
 20
35.426392
 30
0.0
 10
214.405673
 20
38.241800
 30
0.0
 10
217.570553
 20
43.207704
 30
0.0
 10
220.356393
 20
50.704456
 30
0.0
 10
217.315985
 20
57.136712
 30
0.0
 10
214.926025
 20
64.436720
 30
0.0
 10
221.897889
 20
66.795912
 30
0.0
 10
227.284185
 20
69.976088
 30
0.0
 10
227.594857
 20
77.581240
 30
0.0
 10
227.995729
 20
88.428128
 30
0.0
 10
233.395841
 20
96.214080
 30
0.0
 10
237.166217
 20
105.059584
 30
0.0
 10
227.642753
 20
109.676016
 30
0.0
 10
220.526353
 20
112.803800
 30
0.0
 10
214.951001
 20
120.143576
 30
0.0
 10
205.395841
 20
126.982176
 30
0.0
 10
195.840681
 20
120.143576
 30
0.0
 10
190.229393
 20
112.755744
 30
0.0
 10
182.851801
 20
109.685840
 30
0.0
 10
173.731953
 20
104.644648
 30
0.0
 10
177.822905
 20
96.047952
 30
0.0
 10
181.130665
 20
93.299416
 30
0.0
 10
183.357145
 20
85.852808
 30
0.0
 10
184.144617
 20
80.964064
 30
0.0
 10
183.424825
 20
77.800448
 30
0.0
 10
183.353305
 20
70.274824
 30
0.0
 10
188.574465
 20
66.807704
 30
0.0
 10
196.112993
 20
64.422360
 30
0.0
 10
193.395889
 20
56.900680
 30
0.0
 10
190.411209
 20
51.142416
 30
0.0
 10
192.942201
 20
43.831984
 30
0.0
 10
200.802329
 20
34.689800
 30
0.0
 10
210.595889
 20
35.426392
 30
0.0
 10
210.595889
 20
35.426392
 30
0.0
 10
210.595841
 20
35.426392
 30
0.0
  0
LWPOLYLINE
  5
103
100
AcDbEntity
  8
Layer_1
 62
7
100
AcDbPolyline
 90
7
 70
0
 10
183.226145
 20
52.280808
 30
0.0
 10
183.640225
 20
58.649952
 30
0.0
 10
177.762353
 20
62.807704
 30
0.0
 10
172.035633
 20
59.415232
 30
0.0
 10
176.895785
 20
52.288880
 30
0.0
 10
180.245401
 20
50.588848
 30
0.0
 10
183.226145
 20
52.280808
 30
0.0
  0
LWPOLYLINE
  5
104
100
AcDbEntity
  8
Layer_1
 62
7
100
AcDbPolyline
 90
9
 70
0
 10
235.887177
 20
53.911120
 30
0.0
 10
237.635737
 20
55.462832
 30
0.0
 10
239.384297
 20
57.014536
 30
0.0
 10
238.693657
 20
58.462832
 30
0.0
 10
238.003009
 20
59.911120
 30
0.0
 10
231.362777
 20
62.891488
 30
0.0
 10
226.995841
 20
55.407432
 30
0.0
 10
229.501185
 20
50.888960
 30
0.0
 10
235.887177
 20
53.911120
 30
0.0
  0
LWPOLYLINE
  5
105
100
AcDbEntity
  8
Layer_1
 62
7
100
AcDbPolyline
 90
7
 70
0
 10
94.487953
 20
53.265768
 30
0.0
 10
96.343961
 20
59.206624
 30
0.0
 10
91.550481
 20
62.795456
 30
0.0
 10
88.274489
 20
62.210448
 30
0.0
 10
86.315601
 20
59.860296
 30
0.0
 10
87.284617
 20
52.825168
 30
0.0
 10
94.487953
 20
53.265768
 30
0.0
  0
LWPOLYLINE
  5
106
100
AcDbEntity
  8
Layer_1
 62
7
100
AcDbPolyline
 90
9
 70
0
 10
323.795841
 20
53.207688
 30
0.0
 10
325.073065
 20
59.363784
 30
0.0
 10
319.795841
 20
62.807688
 30
0.0
 10
314.423745
 20
59.283400
 30
0.0
 10
316.303729
 20
53.265752
 30
0.0
 10
320.276433
 20
51.680640
 30
0.0
 10
323.795841
 20
53.207672
 30
0.0
 10
323.795841
 20
53.207680
 30
0.0
 10
323.795841
 20
53.207688
 30
0.0
  0
LWPOLYLINE
  5
107
100
AcDbEntity
  8
Layer_1
 62
7
100
AcDbPolyline
 90
7
 70
0
 10
139.995841
 20
67.359912
 30
0.0
 10
140.617497
 20
71.187088
 30
0.0
 10
138.487953
 20
75.549640
 30
0.0
 10
130.560849
 20
75.113344
 30
0.0
 10
128.642425
 20
67.520656
 30
0.0
 10
133.672641
 20
66.345768
 30
0.0
 10
139.995841
 20
67.359912
 30
0.0
  0
LWPOLYLINE
  5
108
100
AcDbEntity
  8
Layer_1
 62
7
100
AcDbPolyline
 90
37
 70
0
 10
312.204241
 20
67.981664
 30
0.0
 10
316.742409
 20
82.000464
 30
0.0
 10
308.821529
 20
93.958400
 30
0.0
 10
301.760025
 20
97.573168
 30
0.0
 10
304.995841
 20
103.607704
 30
0.0
 10
308.585921
 20
109.476360
 30
0.0
 10
304.716001
 20
115.855592
 30
0.0
 10
297.848601
 20
126.573360
 30
0.0
 10
297.887321
 20
135.342872
 30
0.0
 10
298.392185
 20
141.266464
 30
0.0
 10
294.373489
 20
145.171816
 30
0.0
 10
289.344209
 20
145.798120
 30
0.0
 10
285.290521
 20
143.207704
 30
0.0
 10
282.725017
 20
141.230208
 30
0.0
 10
280.909033
 20
140.407704
 30
0.0
 10
274.064945
 20
141.890912
 30
0.0
 10
267.703737
 20
144.473304
 30
0.0
 10
257.373313
 20
144.848400
 30
0.0
 10
253.709209
 20
132.792664
 30
0.0
 10
253.238009
 20
123.117704
 30
0.0
 10
249.388321
 20
117.343032
 30
0.0
 10
243.936009
 20
107.700968
 30
0.0
 10
252.660929
 20
102.905120
 30
0.0
 10
261.730889
 20
99.350272
 30
0.0
 10
267.932977
 20
91.369288
 30
0.0
 10
271.169409
 20
86.414680
 30
0.0
 10
275.046513
 20
83.607704
 30
0.0
 10
277.004569
 20
84.312704
 30
0.0
 10
280.595865
 20
86.007704
 30
0.0
 10
287.228121
 20
87.635480
 30
0.0
 10
288.595865
 20
79.984664
 30
0.0
 10
290.037553
 20
73.078616
 30
0.0
 10
297.270193
 20
67.987216
 30
0.0
 10
304.938057
 20
66.561392
 30
0.0
 10
312.204265
 20
67.981616
 30
0.0
 10
312.204265
 20
67.981640
 30
0.0
 10
312.204241
 20
67.981664
 30
0.0
  0
LWPOLYLINE
  5
109
100
AcDbEntity
  8
Layer_1
 62
7
100
AcDbPolyline
 90
45
 70
0
 10
116.723281
 20
70.207704
 30
0.0
 10
119.259561
 20
71.907704
 30
0.0
 10
121.795841
 20
73.607704
 30
0.0
 10
121.995841
 20
76.694888
 30
0.0
 10
122.195841
 20
79.782072
 30
0.0
 10
123.952281
 20
87.424832
 30
0.0
 10
130.066761
 20
86.072864
 30
0.0
 10
133.749225
 20
84.331848
 30
0.0
 10
135.745193
 20
83.607704
 30
0.0
 10
139.622289
 20
86.414680
 30
0.0
 10
142.858729
 20
91.369288
 30
0.0
 10
149.060825
 20
99.350272
 30
0.0
 10
158.130777
 20
102.905120
 30
0.0
 10
166.927673
 20
107.797928
 30
0.0
 10
162.068913
 20
116.887832
 30
0.0
 10
158.067641
 20
121.429680
 30
0.0
 10
157.256313
 20
130.807704
 30
0.0
 10
156.591457
 20
140.337928
 30
0.0
 10
153.956617
 20
144.805224
 30
0.0
 10
148.588713
 20
145.979752
 30
0.0
 10
143.087969
 20
144.473304
 30
0.0
 10
136.726761
 20
141.890912
 30
0.0
 10
129.882673
 20
140.407704
 30
0.0
 10
128.066689
 20
141.230208
 30
0.0
 10
125.501185
 20
143.207704
 30
0.0
 10
121.447497
 20
145.798120
 30
0.0
 10
116.418217
 20
145.171816
 30
0.0
 10
112.399521
 20
141.266464
 30
0.0
 10
112.904385
 20
135.342872
 30
0.0
 10
112.864945
 20
126.507504
 30
0.0
 10
108.120929
 20
117.954160
 30
0.0
 10
102.825897
 20
110.737800
 30
0.0
 10
105.795865
 20
103.690464
 30
0.0
 10
108.991073
 20
97.479240
 30
0.0
 10
101.943425
 20
93.951664
 30
0.0
 10
97.091585
 20
91.214104
 30
0.0
 10
94.566969
 20
83.436552
 30
0.0
 10
93.935953
 20
80.385264
 30
0.0
 10
93.304929
 20
77.333968
 30
0.0
 10
94.375097
 20
75.202400
 30
0.0
 10
95.445257
 20
73.070832
 30
0.0
 10
99.032177
 20
67.559320
 30
0.0
 10
105.421265
 20
66.807704
 30
0.0
 10
111.490137
 20
67.279720
 30
0.0
 10
116.723281
 20
70.207704
 30
0.0
  0
LWPOLYLINE
  5
10a
100
AcDbEntity
  8
Layer_1
 62
7
100
AcDbPolyline
 90
7
 70
0
 10
171.726617
 20
69.776664
 30
0.0
 10
175.453753
 20
84.659496
 30
0.0
 10
164.195841
 20
94.712640
 30
0.0
 10
150.480385
 20
88.349072
 30
0.0
 10
148.213809
 20
73.692560
 30
0.0
 10
159.996681
 20
66.781832
 30
0.0
 10
171.726617
 20
69.776664
 30
0.0
  0
LWPOLYLINE
  5
10b
100
AcDbEntity
  8
Layer_1
 62
7
100
AcDbPolyline
 90
7
 70
0
 10
257.583401
 20
69.233224
 30
0.0
 10
263.796649
 20
81.706104
 30
0.0
 10
253.941121
 20
93.568832
 30
0.0
 10
236.886145
 20
86.989128
 30
0.0
 10
240.785953
 20
68.044584
 30
0.0
 10
248.807065
 20
66.693464
 30
0.0
 10
257.583401
 20
69.233224
 30
0.0
  0
LWPOLYLINE
  5
10c
100
AcDbEntity
  8
Layer_1
 62
7
100
AcDbPolyline
 90
7
 70
0
 10
282.614169
 20
68.465440
 30
0.0
 10
281.021809
 20
74.155744
 30
0.0
 10
275.654225
 20
77.207704
 30
0.0
 10
270.885993
 20
73.504872
 30
0.0
 10
271.155841
 20
67.767704
 30
0.0
 10
277.324761
 20
66.722392
 30
0.0
 10
282.614169
 20
68.465440
 30
0.0
  0
LWPOLYLINE
  5
10d
100
AcDbEntity
  8
Layer_1
 62
7
100
AcDbPolyline
 90
7
 70
0
 10
93.896129
 20
97.320816
 30
0.0
 10
96.118737
 20
102.366632
 30
0.0
 10
94.689465
 20
107.330096
 30
0.0
 10
88.718673
 20
109.050688
 30
0.0
 10
85.400305
 20
105.779560
 30
0.0
 10
88.055009
 20
97.399256
 30
0.0
 10
93.896129
 20
97.320816
 30
0.0
  0
LWPOLYLINE
  5
10e
100
AcDbEntity
  8
Layer_1
 62
7
100
AcDbPolyline
 90
7
 70
0
 10
323.662137
 20
98.433728
 30
0.0
 10
325.218825
 20
104.387376
 30
0.0
 10
324.164649
 20
108.129440
 30
0.0
 10
317.988721
 20
108.490008
 30
0.0
 10
314.213409
 20
104.549640
 30
0.0
 10
318.110849
 20
97.143360
 30
0.0
 10
323.662137
 20
98.433728
 30
0.0
  0
LWPOLYLINE
  5
10f
100
AcDbEntity
  8
Layer_1
 62
7
100
AcDbPolyline
 90
15
 70
0
 10
184.488657
 20
119.134984
 30
0.0
 10
192.637505
 20
129.394600
 30
0.0
 10
191.611281
 20
138.624696
 30
0.0
 10
184.934369
 20
143.829352
 30
0.0
 10
176.709761
 20
145.207704
 30
0.0
 10
169.801673
 20
144.199296
 30
0.0
 10
165.383729
 20
137.749728
 30
0.0
 10
164.412017
 20
135.918024
 30
0.0
 10
163.440297
 20
134.086320
 30
0.0
 10
164.148993
 20
131.366664
 30
0.0
 10
164.857689
 20
128.647008
 30
0.0
 10
167.825209
 20
121.286616
 30
0.0
 10
173.042201
 20
117.923256
 30
0.0
 10
179.349505
 20
116.632512
 30
0.0
 10
184.488657
 20
119.134984
 30
0.0
  0
LWPOLYLINE
  5
110
100
AcDbEntity
  8
Layer_1
 62
7
100
AcDbPolyline
 90
11
 70
0
 10
237.749481
 20
117.923256
 30
0.0
 10
246.219689
 20
127.794856
 30
0.0
 10
242.880273
 20
142.040288
 30
0.0
 10
241.733041
 20
143.623992
 30
0.0
 10
240.585809
 20
145.207704
 30
0.0
 10
237.360385
 20
145.207704
 30
0.0
 10
234.134961
 20
145.207704
 30
0.0
 10
217.973937
 20
135.798552
 30
0.0
 10
226.932993
 20
118.752480
 30
0.0
 10
231.785577
 20
116.608640
 30
0.0
 10
237.749481
 20
117.923256
 30
0.0
  0
LWPOLYLINE
  5
111
100
AcDbEntity
  8
Layer_1
 62
7
100
AcDbPolyline
 90
7
 70
0
 10
97.426329
 20
119.007704
 30
0.0
 10
104.972857
 20
134.061360
 30
0.0
 10
92.994025
 20
145.582176
 30
0.0
 10
80.534921
 20
142.019560
 30
0.0
 10
76.640049
 20
131.394568
 30
0.0
 10
84.351601
 20
119.123352
 30
0.0
 10
97.426329
 20
119.007704
 30
0.0
  0
LWPOLYLINE
  5
112
100
AcDbEntity
  8
Layer_1
 62
7
100
AcDbPolyline
 90
7
 70
0
 10
326.178297
 20
119.275368
 30
0.0
 10
334.282233
 20
132.553968
 30
0.0
 10
325.868825
 20
144.830352
 30
0.0
 10
311.734545
 20
143.442832
 30
0.0
 10
305.595425
 20
131.990888
 30
0.0
 10
312.795113
 20
119.180328
 30
0.0
 10
326.178297
 20
119.275368
 30
0.0
  0
LWPOLYLINE
  5
113
100
AcDbEntity
  8
Layer_1
 62
7
100
AcDbPolyline
 90
7
 70
0
 10
67.795841
 20
135.607704
 30
0.0
 10
67.451369
 20
144.133024
 30
0.0
 10
58.551217
 20
144.365776
 30
0.0
 10
57.085041
 20
139.901632
 30
0.0
 10
62.595841
 20
135.337008
 30
0.0
 10
65.648577
 20
134.147456
 30
0.0
 10
67.795841
 20
135.607704
 30
0.0
  0
LWPOLYLINE
  5
114
100
AcDbEntity
  8
Layer_1
 62
7
100
AcDbPolyline
 90
11
 70
0
 10
353.160737
 20
138.989912
 30
0.0
 10
353.788529
 20
143.064208
 30
0.0
 10
348.202369
 20
145.052928
 30
0.0
 10
341.344065
 20
141.997856
 30
0.0
 10
343.496721
 20
135.671280
 30
0.0
 10
344.547161
 20
134.845000
 30
0.0
 10
345.597601
 20
134.018728
 30
0.0
 10
347.156649
 20
134.894960
 30
0.0
 10
348.715705
 20
135.771192
 30
0.0
 10
351.307649
 20
137.439584
 30
0.0
 10
353.160737
 20
138.989912
 30
0.0
  0
LWPOLYLINE
  5
115
100
AcDbEntity
  8
Layer_1
 62
7
100
AcDbPolyline
 90
9
 70
0
 10
209.334457
 20
136.878816
 30
0.0
 10
211.527313
 20
142.919008
 30
0.0
 10
205.448433
 20
146.007704
 30
0.0
 10
199.353953
 20
142.912008
 30
0.0
 10
201.383801
 20
136.940600
 30
0.0
 10
205.380897
 20
134.925936
 30
0.0
 10
209.334457
 20
136.878840
 30
0.0
 10
209.334457
 20
136.878832
 30
0.0
 10
209.334457
 20
136.878816
 30
0.0
  0
LWPOLYLINE
  5
116
100
AcDbEntity
  8
Layer_1
 62
7
100
AcDbPolyline
 90
7
 70
0
 10
24.975297
 20
151.567976
 30
0.0
 10
26.089123
 20
155.719704
 30
0.0
 10
24.087953
 20
158.749640
 30
0.0
 10
16.181937
 20
158.650592
 30
0.0
 10
15.441201
 20
150.985712
 30
0.0
 10
20.364562
 20
149.016248
 30
0.0
 10
24.975297
 20
151.567976
 30
0.0
  0
LWPOLYLINE
  5
117
100
AcDbEntity
  8
Layer_1
 62
7
100
AcDbPolyline
 90
43
 70
0
 10
81.010993
 20
151.165024
 30
0.0
 10
85.124793
 20
153.350000
 30
0.0
 10
92.799817
 20
154.381056
 30
0.0
 10
97.874569
 20
154.432896
 30
0.0
 10
101.026489
 20
152.030424
 30
0.0
 10
110.410993
 20
150.120992
 30
0.0
 10
112.200097
 20
163.694056
 30
0.0
 10
113.321633
 20
169.882616
 30
0.0
 10
118.644393
 20
177.316384
 30
0.0
 10
122.099561
 20
188.510152
 30
0.0
 10
112.004121
 20
195.097904
 30
0.0
 10
101.632225
 20
198.581768
 30
0.0
 10
98.195841
 20
204.774264
 30
0.0
 10
94.308625
 20
209.982352
 30
0.0
 10
87.425025
 20
210.025792
 30
0.0
 10
84.731337
 20
207.662920
 30
0.0
 10
83.386049
 20
202.980648
 30
0.0
 10
82.425617
 20
200.707344
 30
0.0
 10
80.726321
 20
199.040304
 30
0.0
 10
78.182633
 20
197.449056
 30
0.0
 10
75.058689
 20
195.467408
 30
0.0
 10
71.509913
 20
193.730928
 30
0.0
 10
67.934201
 20
193.207752
 30
0.0
 10
60.954785
 20
190.885552
 30
0.0
 10
59.174129
 20
182.950480
 30
0.0
 10
59.284985
 20
179.879112
 30
0.0
 10
59.395841
 20
176.807752
 30
0.0
 10
57.595841
 20
176.858232
 30
0.0
 10
55.795841
 20
176.908712
 30
0.0
 10
52.261201
 20
177.290880
 30
0.0
 10
48.818337
 20
178.067984
 30
0.0
 10
45.434665
 20
178.641728
 30
0.0
 10
42.018337
 20
176.651248
 30
0.0
 10
32.648827
 20
159.485344
 30
0.0
 10
48.572385
 20
150.131608
 30
0.0
 10
52.093249
 20
149.993504
 30
0.0
 10
55.614113
 20
149.855400
 30
0.0
 10
56.882985
 20
151.699640
 30
0.0
 10
58.151849
 20
153.543880
 30
0.0
 10
64.156481
 20
159.176536
 30
0.0
 10
68.622921
 20
154.944640
 30
0.0
 10
73.989465
 20
149.088952
 30
0.0
 10
81.010993
 20
151.165024
 30
0.0
  0
LWPOLYLINE
  5
118
100
AcDbEntity
  8
Layer_1
 62
7
100
AcDbPolyline
 90
7
 70
0
 10
166.550481
 20
150.985712
 30
0.0
 10
167.287777
 20
155.976808
 30
0.0
 10
162.295937
 20
160.389344
 30
0.0
 10
157.058929
 20
158.726680
 30
0.0
 10
156.968369
 20
151.660824
 30
0.0
 10
161.607401
 20
149.009704
 30
0.0
 10
166.550481
 20
150.985712
 30
0.0
  0
LWPOLYLINE
  5
119
100
AcDbEntity
  8
Layer_1
 62
7
100
AcDbPolyline
 90
67
 70
0
 10
226.821649
 20
151.590280
 30
0.0
 10
235.322545
 20
155.785944
 30
0.0
 10
236.595841
 20
162.387640
 30
0.0
 10
238.173905
 20
170.533016
 30
0.0
 10
245.471497
 20
168.769368
 30
0.0
 10
250.942433
 20
167.385400
 30
0.0
 10
256.251033
 20
171.838072
 30
0.0
 10
263.893633
 20
183.314080
 30
0.0
 10
260.995841
 20
191.524944
 30
0.0
 10
257.869537
 20
197.880128
 30
0.0
 10
265.026553
 20
201.134320
 30
0.0
 10
270.705153
 20
204.194528
 30
0.0
 10
271.795841
 20
214.807704
 30
0.0
 10
270.705153
 20
225.420880
 30
0.0
 10
265.026553
 20
228.481088
 30
0.0
 10
257.869537
 20
231.735280
 30
0.0
 10
260.995841
 20
238.090464
 30
0.0
 10
263.893633
 20
246.301328
 30
0.0
 10
256.251033
 20
257.777336
 30
0.0
 10
250.942433
 20
262.230008
 30
0.0
 10
245.471497
 20
260.846040
 30
0.0
 10
238.173905
 20
259.082392
 30
0.0
 10
236.595841
 20
267.227768
 30
0.0
 10
235.322545
 20
273.829464
 30
0.0
 10
226.821649
 20
278.025128
 30
0.0
 10
216.274025
 20
280.486352
 30
0.0
 10
210.923457
 20
275.593008
 30
0.0
 10
205.501361
 20
270.027560
 30
0.0
 10
199.869169
 20
276.162944
 30
0.0
 10
194.724689
 20
280.346728
 30
0.0
 10
185.043305
 20
278.451008
 30
0.0
 10
175.719385
 20
274.037752
 30
0.0
 10
174.195841
 20
267.284896
 30
0.0
 10
172.622017
 20
259.085176
 30
0.0
 10
165.320185
 20
260.846040
 30
0.0
 10
159.849249
 20
262.230008
 30
0.0
 10
154.540649
 20
257.777336
 30
0.0
 10
146.898049
 20
246.301328
 30
0.0
 10
149.795841
 20
238.090464
 30
0.0
 10
152.922145
 20
231.735280
 30
0.0
 10
145.765129
 20
228.481088
 30
0.0
 10
140.086529
 20
225.420880
 30
0.0
 10
138.995841
 20
214.807704
 30
0.0
 10
140.086529
 20
204.194528
 30
0.0
 10
145.765129
 20
201.134320
 30
0.0
 10
152.922145
 20
197.880128
 30
0.0
 10
149.795841
 20
191.524944
 30
0.0
 10
146.898049
 20
183.314080
 30
0.0
 10
154.540649
 20
171.838072
 30
0.0
 10
159.849249
 20
167.385400
 30
0.0
 10
165.320185
 20
168.769368
 30
0.0
 10
172.605001
 20
170.507248
 30
0.0
 10
174.392377
 20
161.607704
 30
0.0
 10
174.494105
 20
158.807704
 30
0.0
 10
174.595841
 20
156.007704
 30
0.0
 10
177.395841
 20
154.620672
 30
0.0
 10
180.195841
 20
153.233640
 30
0.0
 10
185.901305
 20
150.936872
 30
0.0
 10
191.940705
 20
150.151432
 30
0.0
 10
195.013137
 20
149.997368
 30
0.0
 10
198.085577
 20
149.843296
 30
0.0
 10
199.081937
 20
151.809528
 30
0.0
 10
200.078305
 20
153.775752
 30
0.0
 10
205.461225
 20
159.577208
 30
0.0
 10
210.923457
 20
154.022400
 30
0.0
 10
216.274017
 20
149.129048
 30
0.0
 10
226.821649
 20
151.590280
 30
0.0
  0
LWPOLYLINE
  5
11a
100
AcDbEntity
  8
Layer_1
 62
7
100
AcDbPolyline
 90
45
 70
0
 10
309.765193
 20
152.030392
 30
0.0
 10
312.917113
 20
154.432856
 30
0.0
 10
317.991865
 20
154.381016
 30
0.0
 10
325.682561
 20
153.343600
 30
0.0
 10
329.844865
 20
151.116032
 30
0.0
 10
336.583425
 20
149.161192
 30
0.0
 10
342.039969
 20
154.607664
 30
0.0
 10
344.533665
 20
158.601544
 30
0.0
 10
346.580633
 20
159.607664
 30
0.0
 10
348.830809
 20
158.510432
 30
0.0
 10
351.985265
 20
154.607664
 30
0.0
 10
353.739313
 20
152.107664
 30
0.0
 10
355.493369
 20
149.607664
 30
0.0
 10
358.068985
 20
149.733184
 30
0.0
 10
360.644609
 20
149.858696
 30
0.0
 10
377.801705
 20
158.160808
 30
0.0
 10
371.609985
 20
174.422832
 30
0.0
 10
365.769057
 20
178.341528
 30
0.0
 10
360.195057
 20
177.649880
 30
0.0
 10
356.927297
 20
176.771776
 30
0.0
 10
354.029753
 20
176.554448
 30
0.0
 10
352.712793
 20
176.681056
 30
0.0
 10
351.395841
 20
176.807664
 30
0.0
 10
351.506697
 20
179.879024
 30
0.0
 10
351.617553
 20
182.950392
 30
0.0
 10
349.836897
 20
190.885464
 30
0.0
 10
342.857481
 20
193.207664
 30
0.0
 10
339.281769
 20
193.730848
 30
0.0
 10
335.732993
 20
195.467320
 30
0.0
 10
332.609049
 20
197.448968
 30
0.0
 10
330.065361
 20
199.040216
 30
0.0
 10
328.366065
 20
200.707256
 30
0.0
 10
327.405633
 20
202.980560
 30
0.0
 10
326.060345
 20
207.662824
 30
0.0
 10
323.366657
 20
210.025704
 30
0.0
 10
316.483065
 20
209.982264
 30
0.0
 10
312.595841
 20
204.774176
 30
0.0
 10
309.001425
 20
198.487544
 30
0.0
 10
298.471017
 20
195.066496
 30
0.0
 10
288.749001
 20
188.076608
 30
0.0
 10
292.571913
 20
176.807648
 30
0.0
 10
297.325593
 20
170.168784
 30
0.0
 10
298.590993
 20
163.688880
 30
0.0
 10
300.380801
 20
150.121368
 30
0.0
 10
309.765193
 20
152.030392
 30
0.0
  0
LWPOLYLINE
  5
11b
100
AcDbEntity
  8
Layer_1
 62
7
100
AcDbPolyline
 90
7
 70
0
 10
395.350481
 20
150.985712
 30
0.0
 10
394.609745
 20
158.650592
 30
0.0
 10
386.703729
 20
158.749640
 30
0.0
 10
384.702553
 20
155.719704
 30
0.0
 10
385.816385
 20
151.567976
 30
0.0
 10
390.427121
 20
149.016248
 30
0.0
 10
395.350481
 20
150.985712
 30
0.0
  0
LWPOLYLINE
  5
11c
100
AcDbEntity
  8
Layer_1
 62
7
100
AcDbPolyline
 90
9
 70
0
 10
141.307953
 20
150.896944
 30
0.0
 10
148.275985
 20
158.261336
 30
0.0
 10
147.408321
 20
169.407264
 30
0.0
 10
141.757985
 20
175.286216
 30
0.0
 10
135.381537
 20
178.807704
 30
0.0
 10
122.853129
 20
170.809728
 30
0.0
 10
121.260945
 20
157.061000
 30
0.0
 10
129.684089
 20
150.195952
 30
0.0
 10
141.307953
 20
150.896944
 30
0.0
  0
LWPOLYLINE
  5
11d
100
AcDbEntity
  8
Layer_1
 62
7
100
AcDbPolyline
 90
7
 70
0
 10
253.750481
 20
151.785712
 30
0.0
 10
254.089193
 20
158.150560
 30
0.0
 10
249.544785
 20
160.644696
 30
0.0
 10
243.048857
 20
154.253560
 30
0.0
 10
248.578625
 20
150.007704
 30
0.0
 10
251.971305
 20
150.361704
 30
0.0
 10
253.750481
 20
151.785712
 30
0.0
  0
LWPOLYLINE
  5
11e
100
AcDbEntity
  8
Layer_1
 62
7
100
AcDbPolyline
 90
9
 70
0
 10
285.800177
 20
152.207704
 30
0.0
 10
289.934297
 20
157.821104
 30
0.0
 10
290.785673
 20
162.661000
 30
0.0
 10
282.601001
 20
176.695816
 30
0.0
 10
269.257689
 20
175.385520
 30
0.0
 10
261.919281
 20
158.616888
 30
0.0
 10
277.563465
 20
150.039016
 30
0.0
 10
283.105473
 20
150.348296
 30
0.0
 10
285.800177
 20
152.207704
 30
0.0
  0
LWPOLYLINE
  5
11f
100
AcDbEntity
  8
Layer_1
 62
7
100
AcDbPolyline
 90
7
 70
0
 10
49.045169
 20
186.953856
 30
0.0
 10
52.547841
 20
190.315816
 30
0.0
 10
52.487441
 20
193.974856
 30
0.0
 10
47.892689
 20
198.145344
 30
0.0
 10
42.974321
 20
194.607704
 30
0.0
 10
42.363097
 20
186.291024
 30
0.0
 10
49.045169
 20
186.953856
 30
0.0
  0
LWPOLYLINE
  5
120
100
AcDbEntity
  8
Layer_1
 62
7
100
AcDbPolyline
 90
7
 70
0
 10
367.848433
 20
186.035848
 30
0.0
 10
368.741273
 20
192.718672
 30
0.0
 10
363.974409
 20
198.007704
 30
0.0
 10
358.984681
 20
194.970856
 30
0.0
 10
358.428345
 20
189.988912
 30
0.0
 10
363.280833
 20
185.960664
 30
0.0
 10
367.848433
 20
186.035848
 30
0.0
  0
LWPOLYLINE
  5
121
100
AcDbEntity
  8
Layer_1
 62
7
100
AcDbPolyline
 90
7
 70
0
 10
139.347217
 20
187.553976
 30
0.0
 10
139.731993
 20
193.995296
 30
0.0
 10
134.622761
 20
198.007704
 30
0.0
 10
130.782225
 20
196.384448
 30
0.0
 10
129.395841
 20
191.887760
 30
0.0
 10
133.195569
 20
186.609896
 30
0.0
 10
139.347217
 20
187.553976
 30
0.0
  0
LWPOLYLINE
  5
122
100
AcDbEntity
  8
Layer_1
 62
7
100
AcDbPolyline
 90
7
 70
0
 10
279.287953
 20
187.665768
 30
0.0
 10
281.231361
 20
194.068344
 30
0.0
 10
276.168921
 20
198.007704
 30
0.0
 10
272.516833
 20
196.497232
 30
0.0
 10
270.583849
 20
191.502920
 30
0.0
 10
272.973089
 20
186.458880
 30
0.0
 10
279.287953
 20
187.665768
 30
0.0
  0
LWPOLYLINE
  5
123
100
AcDbEntity
  8
Layer_1
 62
7
100
AcDbPolyline
 90
7
 70
0
 10
72.141737
 20
203.654760
 30
0.0
 10
78.556065
 20
215.024376
 30
0.0
 10
71.468761
 20
226.393032
 30
0.0
 10
54.107905
 20
225.240272
 30
0.0
 10
51.842777
 20
206.715704
 30
0.0
 10
60.584601
 20
200.690808
 30
0.0
 10
72.141737
 20
203.654760
 30
0.0
  0
LWPOLYLINE
  5
124
100
AcDbEntity
  8
Layer_1
 62
7
100
AcDbPolyline
 90
9
 70
0
 10
125.956641
 20
202.156040
 30
0.0
 10
131.265121
 20
215.515488
 30
0.0
 10
124.582233
 20
228.162552
 30
0.0
 10
115.200513
 20
228.708744
 30
0.0
 10
105.995841
 20
222.946400
 30
0.0
 10
103.465577
 20
214.233048
 30
0.0
 10
106.139665
 20
206.047704
 30
0.0
 10
116.780577
 20
200.767760
 30
0.0
 10
125.956641
 20
202.156040
 30
0.0
  0
LWPOLYLINE
  5
125
100
AcDbEntity
  8
Layer_1
 62
7
100
AcDbPolyline
 90
11
 70
0
 10
298.205465
 20
202.012616
 30
0.0
 10
305.410081
 20
207.273304
 30
0.0
 10
306.995841
 20
215.284200
 30
0.0
 10
306.995841
 20
218.639576
 30
0.0
 10
306.995841
 20
221.994952
 30
0.0
 10
304.199985
 20
223.854072
 30
0.0
 10
301.404129
 20
225.713192
 30
0.0
 10
286.172113
 20
228.337920
 30
0.0
 10
279.809001
 20
214.698784
 30
0.0
 10
285.295489
 20
201.984928
 30
0.0
 10
298.205465
 20
202.012616
 30
0.0
  0
LWPOLYLINE
  5
126
100
AcDbEntity
  8
Layer_1
 62
7
100
AcDbPolyline
 90
7
 70
0
 10
354.897977
 20
202.357096
 30
0.0
 10
360.579617
 20
217.314160
 30
0.0
 10
348.322193
 20
228.964384
 30
0.0
 10
333.606945
 20
220.088752
 30
0.0
 10
338.316961
 20
203.916632
 30
0.0
 10
346.585897
 20
200.586008
 30
0.0
 10
354.897977
 20
202.357096
 30
0.0
  0
LWPOLYLINE
  5
127
100
AcDbEntity
  8
Layer_1
 62
7
100
AcDbPolyline
 90
47
 70
0
 10
92.848433
 20
218.907672
 30
0.0
 10
96.678865
 20
221.801808
 30
0.0
 10
98.195841
 20
224.909512
 30
0.0
 10
101.650137
 20
231.043768
 30
0.0
 10
112.004121
 20
234.517536
 30
0.0
 10
122.099561
 20
241.105288
 30
0.0
 10
118.644393
 20
252.299056
 30
0.0
 10
113.321633
 20
259.732824
 30
0.0
 10
112.200097
 20
265.921384
 30
0.0
 10
110.411009
 20
279.494448
 30
0.0
 10
101.026489
 20
277.585016
 30
0.0
 10
97.874569
 20
275.182552
 30
0.0
 10
92.799817
 20
275.234392
 30
0.0
 10
85.109121
 20
276.271808
 30
0.0
 10
80.946817
 20
278.499376
 30
0.0
 10
74.285601
 20
280.461432
 30
0.0
 10
69.084705
 20
275.450688
 30
0.0
 10
64.365953
 20
270.335232
 30
0.0
 10
58.152817
 20
276.065984
 30
0.0
 10
56.523953
 20
278.270896
 30
0.0
 10
54.895097
 20
280.475800
 30
0.0
 10
52.420281
 20
280.220808
 30
0.0
 10
49.945465
 20
279.965808
 30
0.0
 10
36.505837
 20
275.772640
 30
0.0
 10
32.142505
 20
268.651304
 30
0.0
 10
34.541565
 20
260.902512
 30
0.0
 10
38.690129
 20
255.881320
 30
0.0
 10
44.816833
 20
251.346368
 30
0.0
 10
50.596633
 20
251.965528
 30
0.0
 10
53.864385
 20
252.843632
 30
0.0
 10
56.761929
 20
253.060960
 30
0.0
 10
58.078881
 20
252.934352
 30
0.0
 10
59.395841
 20
252.807744
 30
0.0
 10
59.284985
 20
249.736384
 30
0.0
 10
59.174129
 20
246.665016
 30
0.0
 10
60.954785
 20
238.729944
 30
0.0
 10
67.934201
 20
236.407744
 30
0.0
 10
71.509913
 20
235.884560
 30
0.0
 10
75.058689
 20
234.148088
 30
0.0
 10
78.182633
 20
232.166440
 30
0.0
 10
80.726321
 20
230.575192
 30
0.0
 10
82.425617
 20
228.908152
 30
0.0
 10
83.386049
 20
226.634848
 30
0.0
 10
84.698081
 20
221.992944
 30
0.0
 10
87.232105
 20
219.676824
 30
0.0
 10
90.295897
 20
218.126128
 30
0.0
 10
92.848433
 20
218.907672
 30
0.0
  0
LWPOLYLINE
  5
128
100
AcDbEntity
  8
Layer_1
 62
7
100
AcDbPolyline
 90
45
 70
0
 10
323.460113
 20
219.647424
 30
0.0
 10
326.073273
 20
221.964000
 30
0.0
 10
327.405633
 20
226.634808
 30
0.0
 10
328.366065
 20
228.908112
 30
0.0
 10
330.065361
 20
230.575152
 30
0.0
 10
332.609049
 20
232.166400
 30
0.0
 10
335.732993
 20
234.148048
 30
0.0
 10
339.281769
 20
235.884528
 30
0.0
 10
342.857481
 20
236.407704
 30
0.0
 10
349.836897
 20
238.729904
 30
0.0
 10
351.617553
 20
246.664976
 30
0.0
 10
351.506697
 20
249.736344
 30
0.0
 10
351.395841
 20
252.807704
 30
0.0
 10
352.712793
 20
252.934312
 30
0.0
 10
354.029753
 20
253.060920
 30
0.0
 10
356.927297
 20
252.843592
 30
0.0
 10
360.195057
 20
251.965488
 30
0.0
 10
365.769057
 20
251.273848
 30
0.0
 10
371.609985
 20
255.192536
 30
0.0
 10
377.964545
 20
271.159056
 30
0.0
 10
360.846209
 20
279.965768
 30
0.0
 10
358.371401
 20
280.220768
 30
0.0
 10
355.896585
 20
280.475760
 30
0.0
 10
354.332305
 20
278.358272
 30
0.0
 10
352.768025
 20
276.240784
 30
0.0
 10
346.503265
 20
270.234832
 30
0.0
 10
341.795841
 20
275.402408
 30
0.0
 10
336.513673
 20
280.458200
 30
0.0
 10
329.844865
 20
278.499336
 30
0.0
 10
325.682561
 20
276.271768
 30
0.0
 10
317.991865
 20
275.234352
 30
0.0
 10
312.917113
 20
275.182512
 30
0.0
 10
309.765193
 20
277.584984
 30
0.0
 10
300.380809
 20
279.493952
 30
0.0
 10
298.590993
 20
265.926440
 30
0.0
 10
297.325593
 20
259.446536
 30
0.0
 10
292.571913
 20
252.807672
 30
0.0
 10
288.749001
 20
241.538704
 30
0.0
 10
298.471017
 20
234.548824
 30
0.0
 10
308.983121
 20
231.137696
 30
0.0
 10
312.595841
 20
224.909480
 30
0.0
 10
314.051913
 20
221.877808
 30
0.0
 10
317.795841
 20
218.941256
 30
0.0
 10
320.319209
 20
218.135896
 30
0.0
 10
323.460113
 20
219.647424
 30
0.0
  0
LWPOLYLINE
  5
129
100
AcDbEntity
  8
Layer_1
 62
7
100
AcDbPolyline
 90
7
 70
0
 10
50.764441
 20
233.407704
 30
0.0
 10
53.049313
 20
237.553104
 30
0.0
 10
50.963393
 20
241.238016
 30
0.0
 10
42.946937
 20
243.742232
 30
0.0
 10
42.974297
 20
235.007704
 30
0.0
 10
46.499569
 20
231.542992
 30
0.0
 10
50.764441
 20
233.407704
 30
0.0
  0
LWPOLYLINE
  5
12a
100
AcDbEntity
  8
Layer_1
 62
7
100
AcDbPolyline
 90
7
 70
0
 10
138.082465
 20
233.645272
 30
0.0
 10
139.348137
 20
242.058128
 30
0.0
 10
131.719337
 20
241.953232
 30
0.0
 10
129.905705
 20
240.098392
 30
0.0
 10
129.395841
 20
237.731232
 30
0.0
 10
132.498617
 20
231.950552
 30
0.0
 10
138.082465
 20
233.645272
 30
0.0
  0
LWPOLYLINE
  5
12b
100
AcDbEntity
  8
Layer_1
 62
7
100
AcDbPolyline
 90
9
 70
0
 10
280.150481
 20
233.385712
 30
0.0
 10
279.728513
 20
241.560136
 30
0.0
 10
271.902673
 20
242.312488
 30
0.0
 10
270.462401
 20
238.640328
 30
0.0
 10
272.273465
 20
233.407704
 30
0.0
 10
276.161913
 20
231.538208
 30
0.0
 10
280.150481
 20
233.385704
 30
0.0
 10
280.150481
 20
233.385704
 30
0.0
 10
280.150481
 20
233.385712
 30
0.0
  0
LWPOLYLINE
  5
12c
100
AcDbEntity
  8
Layer_1
 62
7
100
AcDbPolyline
 90
7
 70
0
 10
367.891153
 20
235.236848
 30
0.0
 10
368.278161
 20
243.271776
 30
0.0
 10
361.443329
 20
242.534088
 30
0.0
 10
358.152593
 20
238.203552
 30
0.0
 10
359.935289
 20
233.459264
 30
0.0
 10
364.327793
 20
231.537584
 30
0.0
 10
367.891153
 20
235.236848
 30
0.0
  0
LWPOLYLINE
  5
12d
100
AcDbEntity
  8
Layer_1
 62
7
100
AcDbPolyline
 90
7
 70
0
 10
137.654889
 20
251.554112
 30
0.0
 10
148.864633
 20
268.034800
 30
0.0
 10
133.635569
 20
279.595456
 30
0.0
 10
126.970473
 20
278.981640
 30
0.0
 10
122.750817
 20
274.492664
 30
0.0
 10
123.285041
 20
257.770960
 30
0.0
 10
137.654889
 20
251.554112
 30
0.0
  0
LWPOLYLINE
  5
12e
100
AcDbEntity
  8
Layer_1
 62
7
100
AcDbPolyline
 90
9
 70
0
 10
282.471153
 20
253.213840
 30
0.0
 10
289.664105
 20
261.939296
 30
0.0
 10
289.514889
 20
272.615080
 30
0.0
 10
284.624577
 20
278.515000
 30
0.0
 10
277.234041
 20
279.604712
 30
0.0
 10
261.892865
 20
271.000152
 30
0.0
 10
269.359801
 20
254.146648
 30
0.0
 10
275.128417
 20
251.036016
 30
0.0
 10
282.471153
 20
253.213840
 30
0.0
  0
LWPOLYLINE
  5
12f
100
AcDbEntity
  8
Layer_1
 62
7
100
AcDbPolyline
 90
7
 70
0
 10
163.802473
 20
270.207704
 30
0.0
 10
167.931497
 20
276.231512
 30
0.0
 10
162.453217
 20
279.446984
 30
0.0
 10
155.994921
 20
276.300144
 30
0.0
 10
157.903729
 20
270.065768
 30
0.0
 10
160.623585
 20
268.541216
 30
0.0
 10
163.802473
 20
270.207704
 30
0.0
  0
LWPOLYLINE
  5
130
100
AcDbEntity
  8
Layer_1
 62
7
100
AcDbPolyline
 90
7
 70
0
 10
252.887953
 20
270.065768
 30
0.0
 10
254.795465
 20
276.193416
 30
0.0
 10
248.578625
 20
279.607704
 30
0.0
 10
242.939353
 20
276.703784
 30
0.0
 10
246.315873
 20
270.812720
 30
0.0
 10
250.077993
 20
268.576888
 30
0.0
 10
252.887953
 20
270.065768
 30
0.0
  0
LWPOLYLINE
  5
131
100
AcDbEntity
  8
Layer_1
 62
7
100
AcDbPolyline
 90
7
 70
0
 10
24.087953
 20
270.865768
 30
0.0
 10
26.089123
 20
273.895704
 30
0.0
 10
24.975297
 20
278.047432
 30
0.0
 10
20.364562
 20
280.599160
 30
0.0
 10
15.441201
 20
278.629696
 30
0.0
 10
16.181938
 20
270.964816
 30
0.0
 10
24.087953
 20
270.865768
 30
0.0
  0
LWPOLYLINE
  5
132
100
AcDbEntity
  8
Layer_1
 62
7
100
AcDbPolyline
 90
7
 70
0
 10
394.632201
 20
271.171344
 30
0.0
 10
396.262689
 20
277.290152
 30
0.0
 10
390.571025
 20
280.407704
 30
0.0
 10
384.955345
 20
276.885784
 30
0.0
 10
386.703729
 20
270.865768
 30
0.0
 10
390.816633
 20
269.293840
 30
0.0
 10
394.632201
 20
271.171344
 30
0.0
  0
LWPOLYLINE
  5
133
100
AcDbEntity
  8
Layer_1
 62
7
100
AcDbPolyline
 90
7
 70
0
 10
68.395841
 20
285.765696
 30
0.0
 10
68.535873
 20
292.470752
 30
0.0
 10
63.510345
 20
294.689712
 30
0.0
 10
57.309681
 20
289.898088
 30
0.0
 10
58.313313
 20
285.265912
 30
0.0
 10
63.457545
 20
283.808312
 30
0.0
 10
68.395841
 20
285.765696
 30
0.0
  0
LWPOLYLINE
  5
134
100
AcDbEntity
  8
Layer_1
 62
7
100
AcDbPolyline
 90
41
 70
0
 10
125.633465
 20
286.407704
 30
0.0
 10
128.058609
 20
288.385200
 30
0.0
 10
129.840713
 20
289.207704
 30
0.0
 10
136.713289
 20
287.728568
 30
0.0
 10
143.087969
 20
285.142104
 30
0.0
 10
148.588713
 20
283.635664
 30
0.0
 10
153.956617
 20
284.810184
 30
0.0
 10
156.591457
 20
289.277480
 30
0.0
 10
157.256313
 20
298.807704
 30
0.0
 10
158.067641
 20
308.185728
 30
0.0
 10
162.068913
 20
312.727576
 30
0.0
 10
166.927673
 20
321.817480
 30
0.0
 10
158.130777
 20
326.710288
 30
0.0
 10
149.060817
 20
330.265136
 30
0.0
 10
142.858729
 20
338.246120
 30
0.0
 10
139.622297
 20
343.200728
 30
0.0
 10
135.745193
 20
346.007704
 30
0.0
 10
133.733881
 20
345.275816
 30
0.0
 10
130.014513
 20
343.516168
 30
0.0
 10
127.546665
 20
342.270400
 30
0.0
 10
125.078817
 20
341.024640
 30
0.0
 10
124.358073
 20
341.914720
 30
0.0
 10
123.637329
 20
342.804800
 30
0.0
 10
122.512857
 20
345.404432
 30
0.0
 10
122.195841
 20
350.091312
 30
0.0
 10
122.195841
 20
352.844488
 30
0.0
 10
122.195841
 20
355.597672
 30
0.0
 10
120.495841
 20
356.836760
 30
0.0
 10
118.795841
 20
358.075856
 30
0.0
 10
108.148841
 20
363.172016
 30
0.0
 10
98.923001
 20
361.947328
 30
0.0
 10
94.210617
 20
348.072016
 30
0.0
 10
101.943401
 20
335.663744
 30
0.0
 10
108.991049
 20
332.136168
 30
0.0
 10
105.795841
 20
325.924944
 30
0.0
 10
102.825873
 20
318.877608
 30
0.0
 10
108.120905
 20
311.661248
 30
0.0
 10
112.869641
 20
303.050944
 30
0.0
 10
112.947161
 20
294.445712
 30
0.0
 10
114.836953
 20
285.048048
 30
0.0
 10
125.633465
 20
286.407704
 30
0.0
  0
LWPOLYLINE
  5
135
100
AcDbEntity
  8
Layer_1
 62
7
100
AcDbPolyline
 90
7
 70
0
 10
210.550481
 20
285.385712
 30
0.0
 10
209.615121
 20
292.998696
 30
0.0
 10
201.457225
 20
292.736592
 30
0.0
 10
199.263049
 20
286.689584
 30
0.0
 10
205.395841
 20
283.607704
 30
0.0
 10
208.773721
 20
283.962384
 30
0.0
 10
210.550481
 20
285.385712
 30
0.0
  0
LWPOLYLINE
  5
136
100
AcDbEntity
  8
Layer_1
 62
7
100
AcDbPolyline
 90
41
 70
0
 10
267.703713
 20
285.142104
 30
0.0
 10
274.064921
 20
287.724496
 30
0.0
 10
280.909009
 20
289.207704
 30
0.0
 10
282.724993
 20
288.385200
 30
0.0
 10
285.290497
 20
286.407704
 30
0.0
 10
289.344185
 20
283.817288
 30
0.0
 10
294.373465
 20
284.443592
 30
0.0
 10
298.392161
 20
288.348944
 30
0.0
 10
297.887297
 20
294.272536
 30
0.0
 10
297.848577
 20
303.042048
 30
0.0
 10
304.715977
 20
313.759816
 30
0.0
 10
308.585889
 20
320.139048
 30
0.0
 10
304.995817
 20
326.007704
 30
0.0
 10
301.760001
 20
332.042240
 30
0.0
 10
308.821505
 20
335.657008
 30
0.0
 10
313.676673
 20
338.342176
 30
0.0
 10
316.252857
 20
345.748400
 30
0.0
 10
311.077033
 20
362.170592
 30
0.0
 10
291.995817
 20
358.075856
 30
0.0
 10
290.295817
 20
356.836768
 30
0.0
 10
288.595817
 20
355.597672
 30
0.0
 10
288.595817
 20
352.844488
 30
0.0
 10
288.595817
 20
350.091312
 30
0.0
 10
288.278801
 20
345.404432
 30
0.0
 10
287.154329
 20
342.804800
 30
0.0
 10
286.433585
 20
341.914720
 30
0.0
 10
285.712841
 20
341.024640
 30
0.0
 10
283.244993
 20
342.270408
 30
0.0
 10
280.777145
 20
343.516168
 30
0.0
 10
277.057777
 20
345.275816
 30
0.0
 10
275.046465
 20
346.007704
 30
0.0
 10
271.169369
 20
343.200728
 30
0.0
 10
267.932929
 20
338.246120
 30
0.0
 10
261.730833
 20
330.265136
 30
0.0
 10
252.660881
 20
326.710288
 30
0.0
 10
243.935961
 20
321.914440
 30
0.0
 10
249.388273
 20
312.272376
 30
0.0
 10
253.237961
 20
306.497704
 30
0.0
 10
253.709161
 20
296.822744
 30
0.0
 10
257.373265
 20
284.767008
 30
0.0
 10
267.703713
 20
285.142104
 30
0.0
  0
LWPOLYLINE
  5
137
100
AcDbEntity
  8
Layer_1
 62
7
100
AcDbPolyline
 90
13
 70
0
 10
101.346073
 20
288.141040
 30
0.0
 10
102.211409
 20
306.623648
 30
0.0
 10
84.613385
 20
310.340040
 30
0.0
 10
77.668113
 20
302.086536
 30
0.0
 10
76.783969
 20
292.825664
 30
0.0
 10
82.404505
 20
286.200272
 30
0.0
 10
91.527849
 20
284.436056
 30
0.0
 10
94.793857
 20
284.421896
 30
0.0
 10
98.059865
 20
284.407736
 30
0.0
 10
99.702969
 20
286.274408
 30
0.0
 10
101.346073
 20
288.141072
 30
0.0
 10
101.346073
 20
288.141056
 30
0.0
 10
101.346073
 20
288.141040
 30
0.0
  0
LWPOLYLINE
  5
138
100
AcDbEntity
  8
Layer_1
 62
7
100
AcDbPolyline
 90
13
 70
0
 10
185.672345
 20
286.134640
 30
0.0
 10
192.739665
 20
293.817680
 30
0.0
 10
191.698529
 20
303.607704
 30
0.0
 10
185.852513
 20
309.416472
 30
0.0
 10
178.931537
 20
313.145704
 30
0.0
 10
165.497617
 20
304.382976
 30
0.0
 10
167.911409
 20
287.575120
 30
0.0
 10
169.058641
 20
285.991416
 30
0.0
 10
170.205873
 20
284.407704
 30
0.0
 10
173.441617
 20
284.407704
 30
0.0
 10
176.677361
 20
284.407704
 30
0.0
 10
182.391321
 20
284.739064
 30
0.0
 10
185.672345
 20
286.134640
 30
0.0
  0
LWPOLYLINE
  5
139
100
AcDbEntity
  8
Layer_1
 62
7
100
AcDbPolyline
 90
17
 70
0
 10
242.880273
 20
287.575120
 30
0.0
 10
246.215305
 20
302.099976
 30
0.0
 10
236.844793
 20
311.900744
 30
0.0
 10
230.022585
 20
312.723032
 30
0.0
 10
223.195841
 20
307.962008
 30
0.0
 10
220.695841
 20
305.720952
 30
0.0
 10
218.195841
 20
303.479896
 30
0.0
 10
218.195841
 20
300.586688
 30
0.0
 10
218.195841
 20
297.693472
 30
0.0
 10
222.252713
 20
287.741952
 30
0.0
 10
234.390825
 20
284.410696
 30
0.0
 10
237.488313
 20
284.409096
 30
0.0
 10
240.585809
 20
284.407496
 30
0.0
 10
241.733041
 20
285.991208
 30
0.0
 10
242.880273
 20
287.574912
 30
0.0
 10
242.880273
 20
287.575016
 30
0.0
 10
242.880273
 20
287.575120
 30
0.0
  0
LWPOLYLINE
  5
13a
100
AcDbEntity
  8
Layer_1
 62
7
100
AcDbPolyline
 90
9
 70
0
 10
327.496849
 20
285.436056
 30
0.0
 10
330.965169
 20
288.591776
 30
0.0
 10
334.087681
 20
292.975096
 30
0.0
 10
333.159465
 20
302.136576
 30
0.0
 10
326.178297
 20
310.340040
 30
0.0
 10
308.003425
 20
305.657248
 30
0.0
 10
311.101593
 20
286.441480
 30
0.0
 10
319.060249
 20
284.355256
 30
0.0
 10
327.496849
 20
285.436056
 30
0.0
  0
LWPOLYLINE
  5
13b
100
AcDbEntity
  8
Layer_1
 62
7
100
AcDbPolyline
 90
11
 70
0
 10
353.725657
 20
286.983480
 30
0.0
 10
353.343881
 20
290.384696
 30
0.0
 10
348.715705
 20
293.844216
 30
0.0
 10
347.156649
 20
294.720448
 30
0.0
 10
345.597601
 20
295.596680
 30
0.0
 10
344.547161
 20
294.770408
 30
0.0
 10
343.496721
 20
293.944128
 30
0.0
 10
341.444137
 20
290.340800
 30
0.0
 10
342.243753
 20
285.918184
 30
0.0
 10
348.142673
 20
284.329000
 30
0.0
 10
353.725657
 20
286.983480
 30
0.0
  0
LWPOLYLINE
  5
13c
100
AcDbEntity
  8
Layer_1
 62
7
100
AcDbPolyline
 90
35
 70
0
 10
210.796449
 20
304.355232
 30
0.0
 10
213.405281
 20
306.817232
 30
0.0
 10
214.951001
 20
309.471832
 30
0.0
 10
220.526353
 20
316.811608
 30
0.0
 10
227.642753
 20
319.939392
 30
0.0
 10
237.166217
 20
324.555816
 30
0.0
 10
233.395841
 20
333.401328
 30
0.0
 10
227.995729
 20
341.187280
 30
0.0
 10
227.594857
 20
352.034168
 30
0.0
 10
227.284185
 20
359.639320
 30
0.0
 10
221.897889
 20
362.819496
 30
0.0
 10
214.926025
 20
365.178688
 30
0.0
 10
217.315985
 20
372.478696
 30
0.0
 10
220.356385
 20
378.910952
 30
0.0
 10
217.570553
 20
386.407704
 30
0.0
 10
205.555273
 20
395.980792
 30
0.0
 10
193.618073
 20
387.172136
 30
0.0
 10
190.460633
 20
379.051704
 30
0.0
 10
193.305401
 20
372.834512
 30
0.0
 10
196.120929
 20
365.206872
 30
0.0
 10
188.574417
 20
362.807704
 30
0.0
 10
183.353257
 20
359.340584
 30
0.0
 10
183.424777
 20
351.814960
 30
0.0
 10
184.144569
 20
348.651344
 30
0.0
 10
183.357097
 20
343.762600
 30
0.0
 10
181.130609
 20
336.315992
 30
0.0
 10
177.822857
 20
333.567456
 30
0.0
 10
173.731905
 20
324.970760
 30
0.0
 10
182.851753
 20
319.929568
 30
0.0
 10
190.229345
 20
316.859664
 30
0.0
 10
195.840633
 20
309.471832
 30
0.0
 10
199.850217
 20
304.501232
 30
0.0
 10
205.395801
 20
302.007704
 30
0.0
 10
207.873209
 20
302.697288
 30
0.0
 10
210.796449
 20
304.355232
 30
0.0
  0
LWPOLYLINE
  5
13d
100
AcDbEntity
  8
Layer_1
 62
7
100
AcDbPolyline
 90
7
 70
0
 10
94.709393
 20
322.302448
 30
0.0
 10
95.880857
 20
328.945280
 30
0.0
 10
90.626297
 20
333.207704
 30
0.0
 10
87.402977
 20
331.655520
 30
0.0
 10
85.679417
 20
325.859944
 30
0.0
 10
88.155265
 20
320.581632
 30
0.0
 10
94.709393
 20
322.302448
 30
0.0
  0
LWPOLYLINE
  5
13e
100
AcDbEntity
  8
Layer_1
 62
7
100
AcDbPolyline
 90
7
 70
0
 10
324.164649
 20
321.485968
 30
0.0
 10
324.867249
 20
328.225248
 30
0.0
 10
320.165385
 20
333.207704
 30
0.0
 10
314.910825
 20
328.945280
 30
0.0
 10
316.082289
 20
322.302448
 30
0.0
 10
320.204289
 20
320.488960
 30
0.0
 10
324.164649
 20
321.485968
 30
0.0
  0
LWPOLYLINE
  5
13f
100
AcDbEntity
  8
Layer_1
 62
7
100
AcDbPolyline
 90
7
 70
0
 10
168.419409
 20
336.396712
 30
0.0
 10
175.501697
 20
348.139856
 30
0.0
 10
170.132473
 20
361.718592
 30
0.0
 10
163.295497
 20
363.320528
 30
0.0
 10
155.442969
 20
362.030520
 30
0.0
 10
148.897025
 20
343.102032
 30
0.0
 10
168.419409
 20
336.396712
 30
0.0
  0
LWPOLYLINE
  5
140
100
AcDbEntity
  8
Layer_1
 62
7
100
AcDbPolyline
 90
11
 70
0
 10
255.839217
 20
337.094984
 30
0.0
 10
261.594265
 20
342.043024
 30
0.0
 10
263.399641
 20
349.061832
 30
0.0
 10
263.684369
 20
351.988896
 30
0.0
 10
263.969097
 20
354.915960
 30
0.0
 10
262.143481
 20
356.665208
 30
0.0
 10
260.317865
 20
358.414456
 30
0.0
 10
243.303633
 20
362.491024
 30
0.0
 10
235.220961
 20
348.857696
 30
0.0
 10
242.508593
 20
336.240392
 30
0.0
 10
255.839217
 20
337.094984
 30
0.0
  0
LWPOLYLINE
  5
141
100
AcDbEntity
  8
Layer_1
 62
7
100
AcDbPolyline
 90
11
 70
0
 10
138.529521
 20
354.098464
 30
0.0
 10
140.239777
 20
356.086512
 30
0.0
 10
140.437401
 20
359.098464
 30
0.0
 10
140.316617
 20
360.753088
 30
0.0
 10
140.195841
 20
362.407704
 30
0.0
 10
137.307801
 20
362.524992
 30
0.0
 10
134.419761
 20
362.642272
 30
0.0
 10
129.377393
 20
362.569552
 30
0.0
 10
128.147521
 20
360.900032
 30
0.0
 10
131.045337
 20
353.956944
 30
0.0
 10
138.529521
 20
354.098464
 30
0.0
  0
LWPOLYLINE
  5
142
100
AcDbEntity
  8
Layer_1
 62
7
100
AcDbPolyline
 90
7
 70
0
 10
279.547545
 20
354.207704
 30
0.0
 10
283.220377
 20
360.019688
 30
0.0
 10
277.140601
 20
362.807704
 30
0.0
 10
271.528025
 20
361.944120
 30
0.0
 10
270.195841
 20
358.305768
 30
0.0
 10
273.179057
 20
353.216184
 30
0.0
 10
279.547545
 20
354.207704
 30
0.0
  0
LWPOLYLINE
  5
143
100
AcDbEntity
  8
Layer_1
 62
7
100
AcDbPolyline
 90
7
 70
0
 10
95.350481
 20
368.585712
 30
0.0
 10
94.470001
 20
376.428448
 30
0.0
 10
86.995841
 20
376.407728
 30
0.0
 10
85.609833
 20
371.755712
 30
0.0
 10
88.115601
 20
367.419976
 30
0.0
 10
91.981593
 20
366.850704
 30
0.0
 10
95.350481
 20
368.585712
 30
0.0
  0
LWPOLYLINE
  5
144
100
AcDbEntity
  8
Layer_1
 62
7
100
AcDbPolyline
 90
7
 70
0
 10
182.478945
 20
369.007704
 30
0.0
 10
183.477793
 20
377.291232
 30
0.0
 10
178.273169
 20
378.315768
 30
0.0
 10
172.554529
 20
372.895544
 30
0.0
 10
173.558113
 20
367.812176
 30
0.0
 10
178.187449
 20
366.728856
 30
0.0
 10
182.478945
 20
369.007704
 30
0.0
  0
LWPOLYLINE
  5
145
100
AcDbEntity
  8
Layer_1
 62
7
100
AcDbPolyline
 90
7
 70
0
 10
238.098913
 20
369.544864
 30
0.0
 10
238.426121
 20
373.005648
 30
0.0
 10
234.218497
 20
377.037792
 30
0.0
 10
227.788137
 20
377.303352
 30
0.0
 10
228.192737
 20
369.213712
 30
0.0
 10
233.177337
 20
366.665064
 30
0.0
 10
238.098913
 20
369.544864
 30
0.0
  0
LWPOLYLINE
  5
146
100
AcDbEntity
  8
Layer_1
 62
7
100
AcDbPolyline
 90
7
 70
0
 10
324.150481
 20
368.585712
 30
0.0
 10
323.864217
 20
376.316256
 30
0.0
 10
316.303729
 20
376.349616
 30
0.0
 10
314.246361
 20
372.775080
 30
0.0
 10
315.441201
 20
368.585688
 30
0.0
 10
319.795841
 20
366.710688
 30
0.0
 10
324.150481
 20
368.585712
 30
0.0
  0
LWPOLYLINE
  5
147
100
AcDbEntity
  8
Layer_1
 62
7
100
AcDbPolyline
 90
9
 70
0
 10
208.879025
 20
404.769504
 30
0.0
 10
210.509105
 20
411.558992
 30
0.0
 10
205.326017
 20
415.607704
 30
0.0
 10
201.579473
 20
413.345472
 30
0.0
 10
199.798833
 20
408.569504
 30
0.0
 10
201.830369
 20
404.901608
 30
0.0
 10
205.395841
 20
402.807704
 30
0.0
 10
206.982649
 20
403.383984
 30
0.0
 10
208.879025
 20
404.769504
 30
0.0
  0
ENDSEC
  0
SECTION
  2
OBJECTS
  0
DICTIONARY
  5
C
330
0
100
AcDbDictionary
  3
ACAD_GROUP
350
D
  3
ACAD_MLINESTYLE
350
17
  0
DICTIONARY
  5
D
330
C
100
AcDbDictionary
  0
DICTIONARY
  5
1A
330
C
100
AcDbDictionary
  0
DICTIONARY
  5
17
330
C
100
AcDbDictionary
  3
STANDARD
350
18
  0
DICTIONARY
  5
19
330
C
100
AcDbDictionary
  0
ENDSEC
  0
EOF
