  0
SECTION
  2
HEADER
  9
$ACADVER
  1
AC1014
  9
$HANDSEED
  5
FFFF
  9
$MEASUREMENT
 70
     1
  0
ENDSEC
  0
SECTION
  2
TABLES
  0
TABLE
  2
VPORT
  5
8
330
0
100
AcDbSymbolTable
 70
     4
  0
VPORT
  5
2E
330
8
100
AcDbSymbolTableRecord
100
AcDbViewportTableRecord
  2
*ACTIVE
 70
     0
 10
0.0
 20
0.0
 11
1.0
 21
1.0
 12
210.0
 22
148.5
 13
0.0
 23
0.0
 14
10.0
 24
10.0
 15
10.0
 25
10.0
 16
0.0
 26
0.0
 36
1.0
 17
0.0
 27
0.0
 37
0.0
 40
341.0
 41
1.24
 42
50.0
 43
0.0
 44
0.0
 50
0.0
 51
0.0
 71
     0
 72
   100
 73
     1
 74
     3
 75
     0
 76
     0
 77
     0
 78
     0
  0
ENDTAB
  0
TABLE
  2
LTYPE
  5
5
330
0
100
AcDbSymbolTable
 70
     1
  0
LTYPE
  5
14
330
5
100
AcDbSymbolTableRecord
100
AcDbLinetypeTableRecord
  2
BYBLOCK
 70
     0
  3

 72
    65
 73
     0
 40
0.0
  0
LTYPE
  5
15
330
5
100
AcDbSymbolTableRecord
100
AcDbLinetypeTableRecord
  2
BYLAYER
 70
     0
  3

 72
    65
 73
     0
 40
0.0
  0
LTYPE
  5
16
330
5
100
AcDbSymbolTableRecord
100
AcDbLinetypeTableRecord
  2
CONTINUOUS
 70
     0
  3
Solid line
 72
    65
 73
     0
 40
0.0
  0
ENDTAB
  0
TABLE
  2
LAYER
  5
2
100
AcDbSymbolTable
 70
2
  0
LAYER
  5
50
100
AcDbSymbolTableRecord
100
AcDbLayerTableRecord
  2
0
 70
0
  6
CONTINUOUS
  0
LAYER
  5
51
100
AcDbSymbolTableRecord
100
AcDbLayerTableRecord
  2
Layer_1
 70
0
  6
CONTINUOUS
  0
ENDTAB
  0
TABLE
  2
STYLE
  5
3
330
0
100
AcDbSymbolTable
 70
     1
  0
STYLE
  5
11
330
3
100
AcDbSymbolTableRecord
100
AcDbTextStyleTableRecord
  2
STANDARD
 70
     0
 40
0.0
 41
1.0
 50
0.0
 71
     0
 42
2.5
  3
txt
  4

  0
ENDTAB
  0
TABLE
  2
VIEW
  5
6
330
0
100
AcDbSymbolTable
 70
     0
  0
ENDTAB
  0
TABLE
  2
UCS
  5
7
330
0
100
AcDbSymbolTable
 70
     0
  0
ENDTAB
  0
TABLE
  2
APPID
  5
9
330
0
100
AcDbSymbolTable
 70
     2
  0
APPID
  5
12
330
9
100
AcDbSymbolTableRecord
100
AcDbRegAppTableRecord
  2
ACAD
 70
     0
  0
ENDTAB
  0
TABLE
  2
DIMSTYLE
  5
A
330
0
100
AcDbSymbolTable
 70
     1
  0
DIMSTYLE
105
27
330
A
100
AcDbSymbolTableRecord
100
AcDbDimStyleTableRecord
  2
ISO-25
 70
     0
  3

  4

  5

  6

  7

 40
1.0
 41
2.5
 42
0.625
 43
3.75
 44
1.25
 45
0.0
 46
0.0
 47
0.0
 48
0.0
140
2.5
141
2.5
142
0.0
143
0.03937007874016
144
1.0
145
0.0
146
1.0
147
0.625
 71
     0
 72
     0
 73
     0
 74
     0
 75
     0
 76
     0
 77
     1
 78
     8
170
     0
171
     3
172
     1
173
     0
174
     0
175
     0
176
     0
177
     0
178
     0
270
     2
271
     2
272
     2
273
     2
274
     3
340
11
275
     0
280
     0
281
     0
282
     0
283
     0
284
     8
285
     0
286
     0
287
     3
288
     0
  0
ENDTAB
  0
TABLE
  2
BLOCK_RECORD
  5
1
330
0
100
AcDbSymbolTable
 70
     1
  0
BLOCK_RECORD
  5
1F
330
1
100
AcDbSymbolTableRecord
100
AcDbBlockTableRecord
  2
*MODEL_SPACE
  0
BLOCK_RECORD
  5
1B
330
1
100
AcDbSymbolTableRecord
100
AcDbBlockTableRecord
  2
*PAPER_SPACE
  0
ENDTAB
  0
ENDSEC
  0
SECTION
  2
BLOCKS
  0
BLOCK
  5
20
330
1F
100
AcDbEntity
  8
0
100
AcDbBlockBegin
  2
*MODEL_SPACE
 70
     0
 10
0.0
 20
0.0
 30
0.0
  3
*MODEL_SPACE
  1

  0
ENDBLK
  5
21
330
1F
100
AcDbEntity
  8
0
100
AcDbBlockEnd
  0
BLOCK
  5
1C
330
1B
100
AcDbEntity
 67
     1
  8
0
100
AcDbBlockBegin
  2
*PAPER_SPACE
  1

  0
ENDBLK
  5
1D
330
1B
100
AcDbEntity
 67
     1
  8
0
100
AcDbBlockEnd
  0
ENDSEC
  0
SECTION
  2
ENTITIES
  0
LWPOLYLINE
  5
100
100
AcDbEntity
  8
Layer_1
 62
7
100
AcDbPolyline
 90
683
 70
0
 10
203.227969
 20
0.950192
 30
0.0
 10
202.778081
 20
1.647912
 30
0.0
 10
202.165305
 20
2.779856
 30
0.0
 10
201.470169
 20
4.189528
 30
0.0
 10
200.773217
 20
5.720384
 30
0.0
 10
199.424449
 20
8.334528
 30
0.0
 10
197.861921
 20
9.970400
 30
0.0
 10
195.610753
 20
10.954192
 30
0.0
 10
192.196057
 20
11.612096
 30
0.0
 10
187.528385
 20
12.640888
 30
0.0
 10
185.576473
 20
14.179152
 30
0.0
 10
186.234353
 20
16.546720
 30
0.0
 10
189.396057
 20
20.063424
 30
0.0
 10
192.706449
 20
24.431408
 30
0.0
 10
193.358833
 20
28.945536
 30
0.0
 10
191.293777
 20
34.008736
 30
0.0
 10
186.451841
 20
40.023952
 30
0.0
 10
182.993881
 20
43.570080
 30
0.0
 10
180.713041
 20
45.169352
 30
0.0
 10
178.609489
 20
45.191512
 30
0.0
 10
175.683417
 20
44.006336
 30
0.0
 10
170.842073
 20
42.287248
 30
0.0
 10
167.845337
 20
42.598528
 30
0.0
 10
166.366929
 20
45.148752
 30
0.0
 10
166.080529
 20
50.146592
 30
0.0
 10
165.785049
 20
54.299976
 30
0.0
 10
164.512721
 20
57.100896
 30
0.0
 10
162.151585
 20
58.684464
 30
0.0
 10
158.589689
 20
59.185776
 30
0.0
 10
157.371481
 20
59.338024
 30
0.0
 10
155.833457
 20
59.750416
 30
0.0
 10
154.172601
 20
60.359992
 30
0.0
 10
152.585921
 20
61.103816
 30
0.0
 10
148.374457
 20
62.951240
 30
0.0
 10
145.134441
 20
63.434776
 30
0.0
 10
142.722697
 20
62.544136
 30
0.0
 10
140.996057
 20
60.269000
 30
0.0
 10
138.127441
 20
55.543192
 30
0.0
 10
135.341433
 20
53.707504
 30
0.0
 10
132.431289
 20
54.732504
 30
0.0
 10
129.190225
 20
58.588768
 30
0.0
 10
127.020713
 20
61.591304
 30
0.0
 10
124.934537
 20
62.952584
 30
0.0
 10
121.790737
 20
62.974344
 30
0.0
 10
116.448361
 20
61.958256
 30
0.0
 10
112.466505
 20
60.829800
 30
0.0
 10
108.779969
 20
59.262896
 30
0.0
 10
105.805793
 20
57.468040
 30
0.0
 10
103.961025
 20
55.655720
 30
0.0
 10
103.741657
 20
54.782544
 30
0.0
 10
103.562017
 20
53.045960
 30
0.0
 10
103.440633
 20
50.697520
 30
0.0
 10
103.396073
 20
47.988800
 30
0.0
 10
103.165345
 20
43.283232
 30
0.0
 10
102.155201
 20
41.062448
 30
0.0
 10
99.888665
 20
40.993088
 30
0.0
 10
95.888777
 20
42.741824
 30
0.0
 10
92.707713
 20
44.188288
 30
0.0
 10
90.349497
 20
44.645960
 30
0.0
 10
88.126905
 20
44.101880
 30
0.0
 10
85.352697
 20
42.543088
 30
0.0
 10
80.884905
 20
40.100336
 30
0.0
 10
78.397177
 20
39.924248
 30
0.0
 10
77.582737
 20
42.210896
 30
0.0
 10
78.134809
 20
47.156368
 30
0.0
 10
78.673617
 20
51.076728
 30
0.0
 10
78.331081
 20
53.872376
 30
0.0
 10
76.752713
 20
56.554104
 30
0.0
 10
73.584041
 20
60.132712
 30
0.0
 10
71.222153
 20
63.058864
 30
0.0
 10
70.877033
 20
64.940512
 30
0.0
 10
72.697489
 20
66.082624
 30
0.0
 10
76.832329
 20
66.790200
 30
0.0
 10
82.263457
 20
67.991384
 30
0.0
 10
85.433169
 20
70.588456
 30
0.0
 10
86.787809
 20
75.302744
 30
0.0
 10
86.773729
 20
82.855568
 30
0.0
 10
86.285633
 20
88.524784
 30
0.0
 10
85.330921
 20
91.739376
 30
0.0
 10
83.387529
 20
93.372656
 30
0.0
 10
79.933377
 20
94.297960
 30
0.0
 10
75.234737
 20
95.699232
 30
0.0
 10
73.190009
 20
97.699824
 30
0.0
 10
73.715577
 20
100.567720
 30
0.0
 10
76.727817
 20
104.570928
 30
0.0
 10
78.963641
 20
107.457736
 30
0.0
 10
79.502649
 20
110.021096
 30
0.0
 10
78.226001
 20
113.183624
 30
0.0
 10
75.014833
 20
117.867952
 30
0.0
 10
69.718625
 20
125.033112
 30
0.0
 10
66.698345
 20
128.270720
 30
0.0
 10
64.409593
 20
128.625920
 30
0.0
 10
61.307969
 20
127.143856
 30
0.0
 10
59.760641
 20
126.475920
 30
0.0
 10
58.159025
 20
126.006824
 30
0.0
 10
56.589841
 20
125.756240
 30
0.0
 10
55.139841
 20
125.743840
 30
0.0
 10
54.403897
 20
125.805040
 30
0.0
 10
53.667945
 20
125.866240
 30
0.0
 10
52.932001
 20
125.927440
 30
0.0
 10
52.196057
 20
125.988640
 30
0.0
 10
52.137737
 20
127.651264
 30
0.0
 10
52.079417
 20
129.313896
 30
0.0
 10
52.021097
 20
130.976520
 30
0.0
 10
51.962777
 20
132.639152
 30
0.0
 10
51.904457
 20
134.301776
 30
0.0
 10
51.846137
 20
135.964408
 30
0.0
 10
51.787817
 20
137.627032
 30
0.0
 10
51.729497
 20
139.289656
 30
0.0
 10
49.829617
 20
140.208168
 30
0.0
 10
47.929745
 20
141.126680
 30
0.0
 10
46.029873
 20
142.045192
 30
0.0
 10
44.130001
 20
142.963704
 30
0.0
 10
39.738009
 20
145.029512
 30
0.0
 10
36.941826
 20
146.041064
 30
0.0
 10
34.698025
 20
146.251304
 30
0.0
 10
31.963169
 20
145.913192
 30
0.0
 10
30.821337
 20
145.732056
 30
0.0
 10
29.679505
 20
145.550920
 30
0.0
 10
28.537673
 20
145.369776
 30
0.0
 10
27.395841
 20
145.188640
 30
0.0
 10
26.745746
 20
143.838640
 30
0.0
 10
26.095653
 20
142.488640
 30
0.0
 10
25.445558
 20
141.138640
 30
0.0
 10
24.795465
 20
139.788640
 30
0.0
 10
22.371202
 20
135.602560
 30
0.0
 10
20.249805
 20
134.149360
 30
0.0
 10
18.130506
 20
135.415808
 30
0.0
 10
15.712545
 20
139.388640
 30
0.0
 10
14.721722
 20
141.349928
 30
0.0
 10
13.876699
 20
142.993904
 30
0.0
 10
13.267061
 20
144.148240
 30
0.0
 10
12.982393
 20
144.640608
 30
0.0
 10
12.498590
 20
144.831032
 30
0.0
 10
11.346762
 20
145.163256
 30
0.0
 10
9.699299
 20
145.590496
 30
0.0
 10
7.728593
 20
146.065992
 30
0.0
 10
2.836980
 20
147.594920
 30
0.0
 10
0.693110
 20
149.402672
 30
0.0
 10
1.202738
 20
151.727568
 30
0.0
 10
4.271617
 20
154.807920
 30
0.0
 10
5.190561
 20
155.560928
 30
0.0
 10
6.109505
 20
156.313936
 30
0.0
 10
7.028449
 20
157.066936
 30
0.0
 10
7.947393
 20
157.819944
 30
0.0
 10
7.808777
 20
159.571312
 30
0.0
 10
7.670161
 20
161.322680
 30
0.0
 10
7.531545
 20
163.074040
 30
0.0
 10
7.392929
 20
164.825408
 30
0.0
 10
7.231146
 20
169.858560
 30
0.0
 10
8.045192
 20
172.243112
 30
0.0
 10
10.248020
 20
172.315352
 30
0.0
 10
14.252585
 20
170.411568
 30
0.0
 10
19.558582
 20
168.467704
 30
0.0
 10
24.139886
 20
169.171536
 30
0.0
 10
28.413352
 20
172.723400
 30
0.0
 10
32.795841
 20
179.323640
 30
0.0
 10
35.369954
 20
183.943552
 30
0.0
 10
36.244938
 20
186.488904
 30
0.0
 10
35.445373
 20
188.417880
 30
0.0
 10
32.995841
 20
191.188632
 30
0.0
 10
29.890527
 20
195.243072
 30
0.0
 10
29.331771
 20
197.992216
 30
0.0
 10
31.484322
 20
199.919456
 30
0.0
 10
36.512929
 20
201.508208
 30
0.0
 10
37.833657
 20
201.828312
 30
0.0
 10
39.154385
 20
202.148424
 30
0.0
 10
40.475113
 20
202.468528
 30
0.0
 10
41.795841
 20
202.788632
 30
0.0
 10
41.795841
 20
205.888632
 30
0.0
 10
41.795841
 20
208.988632
 30
0.0
 10
41.795841
 20
212.088632
 30
0.0
 10
41.795841
 20
215.188632
 30
0.0
 10
41.795841
 20
218.288632
 30
0.0
 10
41.795841
 20
221.388632
 30
0.0
 10
41.795841
 20
224.488632
 30
0.0
 10
41.795841
 20
227.588632
 30
0.0
 10
40.475113
 20
227.908736
 30
0.0
 10
39.154385
 20
228.228848
 30
0.0
 10
37.833657
 20
228.548952
 30
0.0
 10
36.512929
 20
228.869056
 30
0.0
 10
31.484320
 20
230.457808
 30
0.0
 10
29.331770
 20
232.385048
 30
0.0
 10
29.890527
 20
235.134192
 30
0.0
 10
32.995841
 20
239.188632
 30
0.0
 10
35.445372
 20
241.959384
 30
0.0
 10
36.244936
 20
243.888360
 30
0.0
 10
35.369952
 20
246.433712
 30
0.0
 10
32.795841
 20
251.053624
 30
0.0
 10
28.477413
 20
257.642384
 30
0.0
 10
24.319966
 20
261.142624
 30
0.0
 10
19.731199
 20
261.838512
 30
0.0
 10
14.118809
 20
260.014224
 30
0.0
 10
10.102686
 20
258.377616
 30
0.0
 10
7.949853
 20
258.561232
 30
0.0
 10
7.206969
 20
260.971112
 30
0.0
 10
7.420697
 20
266.013280
 30
0.0
 10
7.556682
 20
267.645760
 30
0.0
 10
7.692669
 20
269.278240
 30
0.0
 10
7.828654
 20
270.910712
 30
0.0
 10
7.964641
 20
272.543192
 30
0.0
 10
7.061266
 20
273.283440
 30
0.0
 10
6.157893
 20
274.023688
 30
0.0
 10
5.254518
 20
274.763936
 30
0.0
 10
4.351145
 20
275.504184
 30
0.0
 10
0.983065
 20
278.744296
 30
0.0
 10
-0.000000
 20
281.118760
 30
0.0
 10
1.421021
 20
282.804344
 30
0.0
 10
5.265193
 20
283.977800
 30
0.0
 10
7.151605
 20
284.343656
 30
0.0
 10
8.938670
 20
284.693840
 30
0.0
 10
10.424813
 20
284.988640
 30
0.0
 10
11.408457
 20
285.188336
 30
0.0
 10
12.268493
 20
285.675224
 30
0.0
 10
13.270593
 20
286.787744
 30
0.0
 10
14.389758
 20
288.492680
 30
0.0
 10
15.600993
 20
290.756848
 30
0.0
 10
18.061839
 20
294.890960
 30
0.0
 10
20.206261
 20
296.244768
 30
0.0
 10
22.346666
 20
294.812560
 30
0.0
 10
24.795465
 20
290.588632
 30
0.0
 10
25.445558
 20
289.238632
 30
0.0
 10
26.095653
 20
287.888632
 30
0.0
 10
26.745746
 20
286.538632
 30
0.0
 10
27.395841
 20
285.188632
 30
0.0
 10
28.537673
 20
285.007496
 30
0.0
 10
29.679505
 20
284.826360
 30
0.0
 10
30.821337
 20
284.645216
 30
0.0
 10
31.963169
 20
284.464080
 30
0.0
 10
34.698024
 20
284.125968
 30
0.0
 10
36.941826
 20
284.336208
 30
0.0
 10
39.738009
 20
285.347760
 30
0.0
 10
44.130001
 20
287.413568
 30
0.0
 10
46.029873
 20
288.332080
 30
0.0
 10
47.929745
 20
289.250592
 30
0.0
 10
49.829617
 20
290.169104
 30
0.0
 10
51.729497
 20
291.087616
 30
0.0
 10
51.787817
 20
292.750240
 30
0.0
 10
51.846137
 20
294.412872
 30
0.0
 10
51.904457
 20
296.075496
 30
0.0
 10
51.962777
 20
297.738120
 30
0.0
 10
52.021097
 20
299.400744
 30
0.0
 10
52.079417
 20
301.063376
 30
0.0
 10
52.137737
 20
302.726000
 30
0.0
 10
52.196057
 20
304.388632
 30
0.0
 10
52.932001
 20
304.449832
 30
0.0
 10
53.667945
 20
304.511032
 30
0.0
 10
54.403889
 20
304.572232
 30
0.0
 10
55.139841
 20
304.633432
 30
0.0
 10
56.589841
 20
304.621032
 30
0.0
 10
58.159017
 20
304.370448
 30
0.0
 10
59.760641
 20
303.901344
 30
0.0
 10
61.307969
 20
303.233416
 30
0.0
 10
64.409593
 20
301.751360
 30
0.0
 10
66.698345
 20
302.106552
 30
0.0
 10
69.718617
 20
305.344152
 30
0.0
 10
75.014833
 20
312.509320
 30
0.0
 10
78.226009
 20
317.193640
 30
0.0
 10
79.502657
 20
320.356176
 30
0.0
 10
78.963641
 20
322.919536
 30
0.0
 10
76.727817
 20
325.806344
 30
0.0
 10
73.715577
 20
329.809552
 30
0.0
 10
73.190009
 20
332.677456
 30
0.0
 10
75.234729
 20
334.678040
 30
0.0
 10
79.933377
 20
336.079312
 30
0.0
 10
83.409633
 20
337.016496
 30
0.0
 10
85.359633
 20
338.694048
 30
0.0
 10
86.307465
 20
342.016176
 30
0.0
 10
86.777241
 20
347.887120
 30
0.0
 10
86.792361
 20
355.193904
 30
0.0
 10
85.520145
 20
359.712640
 30
0.0
 10
82.450529
 20
362.275176
 30
0.0
 10
77.073473
 20
363.713352
 30
0.0
 10
73.978401
 20
364.538888
 30
0.0
 10
72.324785
 20
365.726904
 30
0.0
 10
72.083809
 20
367.319720
 30
0.0
 10
73.226657
 20
369.359648
 30
0.0
 10
76.650881
 20
373.771216
 30
0.0
 10
78.322353
 20
376.722136
 30
0.0
 10
78.677577
 20
379.431528
 30
0.0
 10
78.153065
 20
383.118520
 30
0.0
 10
77.586529
 20
388.128688
 30
0.0
 10
78.390145
 20
390.448800
 30
0.0
 10
80.875121
 20
390.282688
 30
0.0
 10
85.352657
 20
387.834184
 30
0.0
 10
88.126865
 20
386.275392
 30
0.0
 10
90.349457
 20
385.731312
 30
0.0
 10
92.707673
 20
386.188984
 30
0.0
 10
95.888737
 20
387.635448
 30
0.0
 10
99.888625
 20
389.384176
 30
0.0
 10
102.155161
 20
389.314816
 30
0.0
 10
103.165313
 20
387.094032
 30
0.0
 10
103.396033
 20
382.388464
 30
0.0
 10
103.440593
 20
379.679744
 30
0.0
 10
103.561961
 20
377.331304
 30
0.0
 10
103.741585
 20
375.594720
 30
0.0
 10
103.960969
 20
374.721544
 30
0.0
 10
105.805737
 20
372.909224
 30
0.0
 10
108.779913
 20
371.114368
 30
0.0
 10
112.466449
 20
369.547464
 30
0.0
 10
116.448305
 20
368.419008
 30
0.0
 10
121.790681
 20
367.402912
 30
0.0
 10
124.934481
 20
367.424672
 30
0.0
 10
127.020657
 20
368.785952
 30
0.0
 10
129.190169
 20
371.788488
 30
0.0
 10
132.431233
 20
375.644760
 30
0.0
 10
135.341385
 20
376.669760
 30
0.0
 10
138.127385
 20
374.834072
 30
0.0
 10
140.996001
 20
370.108256
 30
0.0
 10
142.722649
 20
367.833120
 30
0.0
 10
145.134385
 20
366.942480
 30
0.0
 10
148.374401
 20
367.426024
 30
0.0
 10
152.585865
 20
369.273440
 30
0.0
 10
154.172553
 20
370.017256
 30
0.0
 10
155.833401
 20
370.626824
 30
0.0
 10
157.371425
 20
371.039208
 30
0.0
 10
158.589633
 20
371.191480
 30
0.0
 10
162.151537
 20
371.693040
 30
0.0
 10
164.512665
 20
373.276448
 30
0.0
 10
165.784993
 20
376.077320
 30
0.0
 10
166.080473
 20
380.230664
 30
0.0
 10
166.366873
 20
385.228504
 30
0.0
 10
167.845281
 20
387.778728
 30
0.0
 10
170.842009
 20
388.089984
 30
0.0
 10
175.683361
 20
386.370920
 30
0.0
 10
178.609441
 20
385.185752
 30
0.0
 10
180.712985
 20
385.207912
 30
0.0
 10
182.993833
 20
386.807184
 30
0.0
 10
186.451785
 20
390.353320
 30
0.0
 10
191.369001
 20
396.453552
 30
0.0
 10
193.390841
 20
401.546024
 30
0.0
 10
192.579209
 20
406.125456
 30
0.0
 10
188.996001
 20
410.686568
 30
0.0
 10
185.641241
 20
414.260088
 30
0.0
 10
184.887273
 20
416.497608
 30
0.0
 10
186.887665
 20
417.840240
 30
0.0
 10
191.796001
 20
418.729096
 30
0.0
 10
195.439393
 20
419.421440
 30
0.0
 10
197.950049
 20
420.581056
 30
0.0
 10
199.695401
 20
422.471224
 30
0.0
 10
201.042897
 20
425.355248
 30
0.0
 10
203.130953
 20
430.036160
 30
0.0
 10
205.053425
 20
431.596000
 30
0.0
 10
207.158913
 20
430.034664
 30
0.0
 10
209.796001
 20
425.352048
 30
0.0
 10
210.396001
 20
424.111232
 30
0.0
 10
210.996001
 20
422.870416
 30
0.0
 10
211.596001
 20
421.629600
 30
0.0
 10
212.196001
 20
420.388784
 30
0.0
 10
213.396001
 20
420.125928
 30
0.0
 10
214.596001
 20
419.863072
 30
0.0
 10
215.796001
 20
419.600208
 30
0.0
 10
216.996001
 20
419.337352
 30
0.0
 10
219.004489
 20
418.899712
 30
0.0
 10
220.924817
 20
418.485376
 30
0.0
 10
222.539297
 20
418.141072
 30
0.0
 10
223.630257
 20
417.913512
 30
0.0
 10
225.502129
 20
417.127720
 30
0.0
 10
225.859409
 20
415.751120
 30
0.0
 10
224.672409
 20
413.659584
 30
0.0
 10
221.911425
 20
410.728968
 30
0.0
 10
218.256601
 20
406.121656
 30
0.0
 10
217.401041
 20
401.542960
 30
0.0
 10
219.407873
 20
396.463440
 30
0.0
 10
224.340217
 20
390.353632
 30
0.0
 10
227.798177
 20
386.807504
 30
0.0
 10
230.079017
 20
385.208232
 30
0.0
 10
232.182561
 20
385.186072
 30
0.0
 10
235.108641
 20
386.371216
 30
0.0
 10
240.061297
 20
388.043952
 30
0.0
 10
243.173105
 20
387.554288
 30
0.0
 10
244.672193
 20
384.738648
 30
0.0
 10
244.786673
 20
379.433528
 30
0.0
 10
245.002513
 20
375.805048
 30
0.0
 10
246.296145
 20
373.235320
 30
0.0
 10
248.687377
 20
371.702296
 30
0.0
 10
252.196001
 20
371.183960
 30
0.0
 10
253.465545
 20
371.022560
 30
0.0
 10
255.148081
 20
370.591256
 30
0.0
 10
257.024433
 20
369.955400
 30
0.0
 10
258.875441
 20
369.180968
 30
0.0
 10
263.249849
 20
367.473192
 30
0.0
 10
266.379345
 20
367.170624
 30
0.0
 10
268.668049
 20
368.337736
 30
0.0
 10
270.520121
 20
371.039032
 30
0.0
 10
273.204137
 20
375.267912
 30
0.0
 10
275.769177
 20
376.790576
 30
0.0
 10
278.479689
 20
375.624904
 30
0.0
 10
281.600097
 20
371.788784
 30
0.0
 10
283.769449
 20
368.788392
 30
0.0
 10
285.850969
 20
367.425744
 30
0.0
 10
288.976217
 20
367.398864
 30
0.0
 10
294.276761
 20
368.405768
 30
0.0
 10
300.932777
 20
370.242704
 30
0.0
 10
304.930721
 20
372.739872
 30
0.0
 10
306.881497
 20
376.544408
 30
0.0
 10
307.396001
 20
382.303456
 30
0.0
 10
307.599561
 20
387.067816
 30
0.0
 10
308.576241
 20
389.281128
 30
0.0
 10
310.875073
 20
389.321048
 30
0.0
 10
315.045073
 20
387.565280
 30
0.0
 10
318.505897
 20
386.156168
 30
0.0
 10
321.230033
 20
385.927392
 30
0.0
 10
324.020985
 20
387.002208
 30
0.0
 10
327.682249
 20
389.503864
 30
0.0
 10
331.541305
 20
391.985824
 30
0.0
 10
333.561777
 20
392.044384
 30
0.0
 10
333.958737
 20
389.454328
 30
0.0
 10
332.947209
 20
383.990472
 30
0.0
 10
332.174761
 20
380.027936
 30
0.0
 10
332.293609
 20
377.212456
 30
0.0
 10
333.534673
 20
374.626928
 30
0.0
 10
336.128873
 20
371.354240
 30
0.0
 10
338.454097
 20
367.769472
 30
0.0
 10
338.405137
 20
365.225576
 30
0.0
 10
335.971657
 20
363.705752
 30
0.0
 10
331.143433
 20
363.193200
 30
0.0
 10
327.906497
 20
362.404536
 30
0.0
 10
325.612009
 20
360.050792
 30
0.0
 10
324.255097
 20
356.123560
 30
0.0
 10
323.830865
 20
350.614432
 30
0.0
 10
324.111617
 20
343.663224
 30
0.0
 10
325.151705
 20
339.508152
 30
0.0
 10
327.414497
 20
337.249408
 30
0.0
 10
331.363353
 20
335.987184
 30
0.0
 10
335.817649
 20
334.607824
 30
0.0
 10
337.775761
 20
332.742584
 30
0.0
 10
337.335833
 20
330.100032
 30
0.0
 10
334.596025
 20
326.388736
 30
0.0
 10
332.065689
 20
323.144272
 30
0.0
 10
331.228489
 20
320.537480
 30
0.0
 10
332.087337
 20
317.854904
 30
0.0
 10
334.645145
 20
314.383064
 30
0.0
 10
336.160233
 20
312.487448
 30
0.0
 10
337.587913
 20
310.574568
 30
0.0
 10
338.767601
 20
308.867352
 30
0.0
 10
339.538721
 20
307.588736
 30
0.0
 10
341.799257
 20
303.984360
 30
0.0
 10
344.065177
 20
302.119504
 30
0.0
 10
346.577353
 20
301.888520
 30
0.0
 10
349.576649
 20
303.185744
 30
0.0
 10
353.933297
 20
305.112168
 30
0.0
 10
356.949385
 20
304.680488
 30
0.0
 10
358.718761
 20
301.826272
 30
0.0
 10
359.335249
 20
296.485080
 30
0.0
 10
359.350449
 20
295.079104
 30
0.0
 10
359.365649
 20
293.673128
 30
0.0
 10
359.380849
 20
292.267152
 30
0.0
 10
359.396049
 20
290.861176
 30
0.0
 10
360.971945
 20
290.093880
 30
0.0
 10
362.547833
 20
289.326592
 30
0.0
 10
364.123721
 20
288.559296
 30
0.0
 10
365.699617
 20
287.792000
 30
0.0
 10
369.276441
 20
286.133024
 30
0.0
 10
371.908129
 20
285.239832
 30
0.0
 10
374.435553
 20
284.913664
 30
0.0
 10
377.699617
 20
284.955744
 30
0.0
 10
379.123737
 20
285.013904
 30
0.0
 10
380.547857
 20
285.072064
 30
0.0
 10
381.971977
 20
285.130224
 30
0.0
 10
383.396105
 20
285.188384
 30
0.0
 10
384.046193
 20
286.538384
 30
0.0
 10
384.696289
 20
287.888384
 30
0.0
 10
385.346377
 20
289.238384
 30
0.0
 10
385.996473
 20
290.588384
 30
0.0
 10
388.445273
 20
294.812320
 30
0.0
 10
390.585681
 20
296.244520
 30
0.0
 10
392.730105
 20
294.890712
 30
0.0
 10
395.190953
 20
290.756600
 30
0.0
 10
396.518961
 20
288.246096
 30
0.0
 10
397.648457
 20
286.566112
 30
0.0
 10
398.697337
 20
285.571944
 30
0.0
 10
399.783489
 20
285.118872
 30
0.0
 10
406.970337
 20
283.406704
 30
0.0
 10
410.317129
 20
281.666400
 30
0.0
 10
410.228745
 20
279.400048
 30
0.0
 10
407.110089
 20
276.109792
 30
0.0
 10
406.038585
 20
275.164680
 30
0.0
 10
404.967081
 20
274.219568
 30
0.0
 10
403.895577
 20
273.274456
 30
0.0
 10
402.824073
 20
272.329344
 30
0.0
 10
402.969001
 20
270.589440
 30
0.0
 10
403.113937
 20
268.849536
 30
0.0
 10
403.258873
 20
267.109624
 30
0.0
 10
403.403809
 20
265.369720
 30
0.0
 10
403.610689
 20
260.377576
 30
0.0
 10
402.856353
 20
258.045208
 30
0.0
 10
400.688769
 20
258.005688
 30
0.0
 10
396.655905
 20
259.892000
 30
0.0
 10
391.269233
 20
261.904832
 30
0.0
 10
386.796385
 20
261.324856
 30
0.0
 10
382.653697
 20
257.879400
 30
0.0
 10
378.257529
 20
251.295752
 30
0.0
 10
375.516305
 20
246.502064
 30
0.0
 10
374.563913
 20
243.890264
 30
0.0
 10
375.342977
 20
241.954376
 30
0.0
 10
377.796105
 20
239.188416
 30
0.0
 10
380.826817
 20
235.097920
 30
0.0
 10
381.382705
 20
232.197096
 30
0.0
 10
379.383721
 20
230.215064
 30
0.0
 10
374.749809
 20
228.880936
 30
0.0
 10
371.063129
 20
228.093840
 30
0.0
 10
369.250585
 20
226.532808
 30
0.0
 10
368.649233
 20
222.722712
 30
0.0
 10
368.596113
 20
215.188416
 30
0.0
 10
368.649233
 20
207.654120
 30
0.0
 10
369.250585
 20
203.844024
 30
0.0
 10
371.063121
 20
202.282992
 30
0.0
 10
374.749809
 20
201.495896
 30
0.0
 10
379.383721
 20
200.161768
 30
0.0
 10
381.382705
 20
198.179736
 30
0.0
 10
380.826809
 20
195.278912
 30
0.0
 10
377.796105
 20
191.188416
 30
0.0
 10
375.342985
 20
188.422456
 30
0.0
 10
374.563913
 20
186.486568
 30
0.0
 10
375.516297
 20
183.874768
 30
0.0
 10
378.257529
 20
179.081080
 30
0.0
 10
382.662193
 20
172.492800
 30
0.0
 10
386.812793
 20
169.043184
 30
0.0
 10
391.268489
 20
168.470936
 30
0.0
 10
396.588481
 20
170.514728
 30
0.0
 10
400.624793
 20
172.452064
 30
0.0
 10
402.811553
 20
172.404464
 30
0.0
 10
403.590825
 20
170.007496
 30
0.0
 10
403.404681
 20
164.896840
 30
0.0
 10
403.264649
 20
163.127568
 30
0.0
 10
403.124617
 20
161.358296
 30
0.0
 10
402.984585
 20
159.589024
 30
0.0
 10
402.844553
 20
157.819752
 30
0.0
 10
403.813497
 20
157.040840
 30
0.0
 10
404.782441
 20
156.261928
 30
0.0
 10
405.751385
 20
155.483016
 30
0.0
 10
406.720329
 20
154.704104
 30
0.0
 10
409.115417
 20
152.725688
 30
0.0
 10
410.673369
 20
151.296952
 30
0.0
 10
411.517617
 20
150.292880
 30
0.0
 10
411.771601
 20
149.588448
 30
0.0
 10
411.357769
 20
148.503968
 30
0.0
 10
410.046849
 20
147.590984
 30
0.0
 10
407.734649
 20
146.800528
 30
0.0
 10
404.317001
 20
146.083616
 30
0.0
 10
401.901241
 20
145.642808
 30
0.0
 10
399.880585
 20
145.235016
 30
0.0
 10
398.466537
 20
144.905632
 30
0.0
 10
397.870617
 20
144.700056
 30
0.0
 10
397.600633
 20
144.259480
 30
0.0
 10
397.073993
 20
143.290224
 30
0.0
 10
396.366705
 20
141.935424
 30
0.0
 10
395.554753
 20
140.338200
 30
0.0
 10
392.953209
 20
136.007336
 30
0.0
 10
390.707137
 20
134.580152
 30
0.0
 10
388.445209
 20
136.061088
 30
0.0
 10
385.796105
 20
140.454560
 30
0.0
 10
385.196105
 20
141.638032
 30
0.0
 10
384.596105
 20
142.821504
 30
0.0
 10
383.996105
 20
144.004976
 30
0.0
 10
383.396105
 20
145.188448
 30
0.0
 10
382.254273
 20
145.369584
 30
0.0
 10
381.112441
 20
145.550728
 30
0.0
 10
379.970609
 20
145.731864
 30
0.0
 10
378.828777
 20
145.913000
 30
0.0
 10
376.091857
 20
146.251144
 30
0.0
 10
373.841697
 20
146.037712
 30
0.0
 10
371.026065
 20
145.016184
 30
0.0
 10
366.592737
 20
142.930048
 30
0.0
 10
364.675561
 20
142.003168
 30
0.0
 10
362.758385
 20
141.076296
 30
0.0
 10
360.841209
 20
140.149416
 30
0.0
 10
358.924033
 20
139.222544
 30
0.0
 10
358.970673
 20
137.760144
 30
0.0
 10
359.017393
 20
136.297752
 30
0.0
 10
359.064113
 20
134.835352
 30
0.0
 10
359.110833
 20
133.372960
 30
0.0
 10
358.670417
 20
128.364688
 30
0.0
 10
356.944945
 20
125.671704
 30
0.0
 10
353.918913
 20
125.283968
 30
0.0
 10
349.576825
 20
127.191440
 30
0.0
 10
346.577537
 20
128.488664
 30
0.0
 10
344.065361
 20
128.257680
 30
0.0
 10
341.799433
 20
126.392824
 30
0.0
 10
339.538897
 20
122.788448
 30
0.0
 10
338.767769
 20
121.509832
 30
0.0
 10
337.588089
 20
119.802616
 30
0.0
 10
336.160417
 20
117.889728
 30
0.0
 10
334.645321
 20
115.994120
 30
0.0
 10
332.087489
 20
112.522288
 30
0.0
 10
331.228633
 20
109.839704
 30
0.0
 10
332.065841
 20
107.232912
 30
0.0
 10
334.596201
 20
103.988448
 30
0.0
 10
337.336025
 20
100.277160
 30
0.0
 10
337.775945
 20
97.634608
 30
0.0
 10
335.817825
 20
95.769360
 30
0.0
 10
331.363529
 20
94.390000
 30
0.0
 10
327.414673
 20
93.127776
 30
0.0
 10
325.151881
 20
90.869032
 30
0.0
 10
324.111793
 20
86.713960
 30
0.0
 10
323.831041
 20
79.762752
 30
0.0
 10
324.201745
 20
73.974352
 30
0.0
 10
325.621273
 20
70.209672
 30
0.0
 10
328.416801
 20
68.005408
 30
0.0
 10
332.915489
 20
66.898248
 30
0.0
 10
336.773457
 20
65.964184
 30
0.0
 10
338.754897
 20
64.452560
 30
0.0
 10
338.824337
 20
62.424608
 30
0.0
 10
336.946289
 20
59.941544
 30
0.0
 10
334.216545
 20
57.020296
 30
0.0
 10
332.662977
 20
54.338112
 30
0.0
 10
332.152345
 20
51.541312
 30
0.0
 10
332.551401
 20
48.276216
 30
0.0
 10
332.889433
 20
44.152184
 30
0.0
 10
331.656961
 20
41.917208
 30
0.0
 10
328.882913
 20
41.589800
 30
0.0
 10
324.596217
 20
43.188448
 30
0.0
 10
322.114905
 20
44.312968
 30
0.0
 10
320.181193
 20
44.682040
 30
0.0
 10
318.232313
 20
44.292736
 30
0.0
 10
315.705473
 20
43.142128
 30
0.0
 10
314.236521
 20
42.511112
 30
0.0
 10
312.675985
 20
42.040856
 30
0.0
 10
311.188153
 20
41.771232
 30
0.0
 10
309.937337
 20
41.742112
 30
0.0
 10
309.302041
 20
41.803712
 30
0.0
 10
308.666753
 20
41.865312
 30
0.0
 10
308.031465
 20
41.926912
 30
0.0
 10
307.396177
 20
41.988512
 30
0.0
 10
307.396177
 20
43.605296
 30
0.0
 10
307.396177
 20
45.222088
 30
0.0
 10
307.396177
 20
46.838872
 30
0.0
 10
307.396177
 20
48.455664
 30
0.0
 10
306.863641
 20
53.980448
 30
0.0
 10
304.882825
 20
57.679872
 30
0.0
 10
300.878873
 20
60.146160
 30
0.0
 10
294.276937
 20
61.971520
 30
0.0
 10
288.976393
 20
62.978424
 30
0.0
 10
285.851145
 20
62.951544
 30
0.0
 10
283.769625
 20
61.588904
 30
0.0
 10
281.600273
 20
58.588504
 30
0.0
 10
278.479865
 20
54.752384
 30
0.0
 10
275.769353
 20
53.586712
 30
0.0
 10
273.204305
 20
55.109376
 30
0.0
 10
270.520297
 20
59.338256
 30
0.0
 10
269.684889
 20
60.839920
 30
0.0
 10
268.852561
 20
62.082392
 30
0.0
 10
268.119697
 20
62.936552
 30
0.0
 10
267.582697
 20
63.273272
 30
0.0
 10
265.334225
 20
63.287192
 30
0.0
 10
263.072121
 20
62.937424
 30
0.0
 10
260.766753
 20
62.216992
 30
0.0
 10
258.388497
 20
61.118936
 30
0.0
 10
256.783041
 20
60.369152
 30
0.0
 10
255.095617
 20
59.754696
 30
0.0
 10
253.526769
 20
59.339008
 30
0.0
 10
252.277025
 20
59.185520
 30
0.0
 10
248.726017
 20
58.679816
 30
0.0
 10
246.309785
 20
57.154960
 30
0.0
 10
245.004625
 20
54.584944
 30
0.0
 10
244.786849
 20
50.943768
 30
0.0
 10
244.672377
 20
45.638648
 30
0.0
 10
243.173281
 20
42.823008
 30
0.0
 10
240.061465
 20
42.333320
 30
0.0
 10
235.108817
 20
44.006080
 30
0.0
 10
232.182737
 20
45.191248
 30
0.0
 10
230.079193
 20
45.169088
 30
0.0
 10
227.798345
 20
43.569808
 30
0.0
 10
224.340393
 20
40.023680
 30
0.0
 10
219.501897
 20
34.017304
 30
0.0
 10
217.438289
 20
28.970488
 30
0.0
 10
218.089673
 20
24.478696
 30
0.0
 10
221.396177
 20
20.137392
 30
0.0
 10
224.365633
 20
16.742248
 30
0.0
 10
224.882041
 20
14.343456
 30
0.0
 10
222.855521
 20
12.700416
 30
0.0
 10
218.196177
 20
11.572504
 30
0.0
 10
214.972753
 20
10.896520
 30
0.0
 10
212.816753
 20
9.840472
 30
0.0
 10
211.193457
 20
7.993664
 30
0.0
 10
209.568169
 20
4.945392
 30
0.0
 10
207.882265
 20
2.045040
 30
0.0
 10
206.213585
 20
0.380816
 30
0.0
 10
204.637185
 20
0.000016
 30
0.0
 10
203.228089
 20
0.949920
 30
0.0
 10
203.228049
 20
0.949920
 30
0.0
 10
203.227969
 20
0.950192
 30
0.0
  0
LWPOLYLINE
  5
101
100
AcDbEntity
  8
Layer_1
 62
7
100
AcDbPolyline
 90
13
 70
0
 10
209.337993
 20
16.496688
 30
0.0
 10
210.665889
 20
19.826320
 30
0.0
 10
210.230625
 20
23.317400
 30
0.0
 10
208.363561
 20
26.071152
 30
0.0
 10
205.396057
 20
27.188800
 30
0.0
 10
203.659553
 20
26.583640
 30
0.0
 10
201.830505
 20
25.094896
 30
0.0
 10
200.384977
 20
23.212648
 30
0.0
 10
199.799049
 20
21.427000
 30
0.0
 10
200.820553
 20
17.515152
 30
0.0
 10
203.310609
 20
15.100176
 30
0.0
 10
206.429625
 20
14.616040
 30
0.0
 10
209.337993
 20
16.496688
 30
0.0
  0
LWPOLYLINE
  5
102
100
AcDbEntity
  8
Layer_1
 62
7
100
AcDbPolyline
 90
69
 70
0
 10
210.596057
 20
35.807488
 30
0.0
 10
212.750345
 20
37.134648
 30
0.0
 10
214.405889
 20
38.622896
 30
0.0
 10
215.900193
 20
40.648768
 30
0.0
 10
217.570769
 20
43.588800
 30
0.0
 10
219.683033
 20
47.959560
 30
0.0
 10
220.356609
 20
51.085552
 30
0.0
 10
219.573625
 20
53.945424
 30
0.0
 10
217.316201
 20
57.517808
 30
0.0
 10
214.964609
 20
61.814120
 30
0.0
 10
214.926209
 20
64.817816
 30
0.0
 10
217.228297
 20
66.586312
 30
0.0
 10
221.898073
 20
67.177008
 30
0.0
 10
225.132457
 20
68.037504
 30
0.0
 10
227.284369
 20
70.357184
 30
0.0
 10
228.167369
 20
73.783104
 30
0.0
 10
227.595041
 20
77.962336
 30
0.0
 10
227.010057
 20
83.252832
 30
0.0
 10
227.995913
 20
88.809224
 30
0.0
 10
230.231577
 20
93.600384
 30
0.0
 10
233.396025
 20
96.595176
 30
0.0
 10
237.324537
 20
100.653656
 30
0.0
 10
237.166401
 20
105.440680
 30
0.0
 10
233.684801
 20
109.170448
 30
0.0
 10
227.642937
 20
110.057112
 30
0.0
 10
224.326825
 20
110.735968
 30
0.0
 10
220.526537
 20
113.184896
 30
0.0
 10
217.111505
 20
116.686824
 30
0.0
 10
214.951185
 20
120.524672
 30
0.0
 10
211.118841
 20
125.653624
 30
0.0
 10
205.396025
 20
127.363272
 30
0.0
 10
199.673209
 20
125.653624
 30
0.0
 10
195.840865
 20
120.524672
 30
0.0
 10
193.658801
 20
116.615320
 30
0.0
 10
190.229577
 20
113.136840
 30
0.0
 10
186.358777
 20
110.737848
 30
0.0
 10
182.851985
 20
110.066936
 30
0.0
 10
176.994489
 20
108.950192
 30
0.0
 10
173.732137
 20
105.025744
 30
0.0
 10
173.772457
 20
100.212424
 30
0.0
 10
177.823065
 20
96.429048
 30
0.0
 10
179.771185
 20
95.348984
 30
0.0
 10
181.130825
 20
93.680512
 30
0.0
 10
182.220145
 20
90.837520
 30
0.0
 10
183.357305
 20
86.233904
 30
0.0
 10
183.941345
 20
83.348672
 30
0.0
 10
184.144777
 20
81.345160
 30
0.0
 10
183.971393
 20
79.772936
 30
0.0
 10
183.424985
 20
78.181544
 30
0.0
 10
182.601329
 20
74.181016
 30
0.0
 10
183.353465
 20
70.655920
 30
0.0
 10
185.428761
 20
68.145456
 30
0.0
 10
188.574625
 20
67.188800
 30
0.0
 10
193.642529
 20
66.603888
 30
0.0
 10
196.113153
 20
64.803456
 30
0.0
 10
196.019873
 20
61.718936
 30
0.0
 10
193.396049
 20
57.281776
 30
0.0
 10
191.196345
 20
54.081008
 30
0.0
 10
190.411369
 20
51.523512
 30
0.0
 10
191.005305
 20
48.577976
 30
0.0
 10
192.942361
 20
44.213080
 30
0.0
 10
196.595521
 20
38.423912
 30
0.0
 10
200.802489
 20
35.070896
 30
0.0
 10
205.492817
 20
34.187568
 30
0.0
 10
210.596049
 20
35.807488
 30
0.0
 10
210.596049
 20
35.807488
 30
0.0
 10
210.596049
 20
35.807488
 30
0.0
 10
210.596025
 20
35.807488
 30
0.0
 10
210.596057
 20
35.807488
 30
0.0
  0
LWPOLYLINE
  5
103
100
AcDbEntity
  8
Layer_1
 62
7
100
AcDbPolyline
 90
13
 70
0
 10
183.226361
 20
52.661904
 30
0.0
 10
184.516921
 20
55.550640
 30
0.0
 10
183.640441
 20
59.031048
 30
0.0
 10
181.190977
 20
61.958608
 30
0.0
 10
177.762569
 20
63.188800
 30
0.0
 10
173.599417
 20
62.245336
 30
0.0
 10
172.035849
 20
59.796328
 30
0.0
 10
173.119001
 20
56.413848
 30
0.0
 10
176.896001
 20
52.669976
 30
0.0
 10
178.831145
 20
51.395688
 30
0.0
 10
180.245617
 20
50.969944
 30
0.0
 10
181.567873
 20
51.392200
 30
0.0
 10
183.226361
 20
52.661904
 30
0.0
  0
LWPOLYLINE
  5
104
100
AcDbEntity
  8
Layer_1
 62
7
100
AcDbPolyline
 90
17
 70
0
 10
235.887393
 20
54.292216
 30
0.0
 10
236.761673
 20
55.068072
 30
0.0
 10
237.635953
 20
55.843928
 30
0.0
 10
238.510233
 20
56.619784
 30
0.0
 10
239.384513
 20
57.395632
 30
0.0
 10
239.039193
 20
58.119784
 30
0.0
 10
238.693873
 20
58.843928
 30
0.0
 10
238.348553
 20
59.568072
 30
0.0
 10
238.003225
 20
60.292216
 30
0.0
 10
235.004625
 20
63.338272
 30
0.0
 10
231.362993
 20
63.272592
 30
0.0
 10
228.289689
 20
60.590800
 30
0.0
 10
226.996057
 20
55.788536
 30
0.0
 10
227.657705
 20
52.604552
 30
0.0
 10
229.501401
 20
51.270064
 30
0.0
 10
232.315257
 20
51.820736
 30
0.0
 10
235.887393
 20
54.292216
 30
0.0
  0
LWPOLYLINE
  5
105
100
AcDbEntity
  8
Layer_1
 62
7
100
AcDbPolyline
 90
13
 70
0
 10
94.488169
 20
53.646864
 30
0.0
 10
96.388849
 20
56.452272
 30
0.0
 10
96.344209
 20
59.587720
 30
0.0
 10
94.637161
 20
62.135160
 30
0.0
 10
91.550729
 20
63.176552
 30
0.0
 10
89.641369
 20
63.044848
 30
0.0
 10
88.274737
 20
62.591544
 30
0.0
 10
87.237385
 20
61.696952
 30
0.0
 10
86.315849
 20
60.241392
 30
0.0
 10
85.557513
 20
56.163416
 30
0.0
 10
87.284865
 20
53.206264
 30
0.0
 10
90.570793
 20
52.118048
 30
0.0
 10
94.488169
 20
53.646864
 30
0.0
  0
LWPOLYLINE
  5
106
100
AcDbEntity
  8
Layer_1
 62
7
100
AcDbPolyline
 90
17
 70
0
 10
323.796057
 20
53.588784
 30
0.0
 10
325.417089
 20
56.614384
 30
0.0
 10
325.073281
 20
59.744880
 30
0.0
 10
323.090865
 20
62.197320
 30
0.0
 10
319.796057
 20
63.188784
 30
0.0
 10
316.359793
 20
62.165360
 30
0.0
 10
314.423961
 20
59.664496
 30
0.0
 10
314.301153
 20
56.540288
 30
0.0
 10
316.303945
 20
53.646848
 30
0.0
 10
318.307961
 20
52.465576
 30
0.0
 10
320.276649
 20
52.061736
 30
0.0
 10
322.132017
 20
52.435944
 30
0.0
 10
323.796057
 20
53.588768
 30
0.0
 10
323.796057
 20
53.588768
 30
0.0
 10
323.796057
 20
53.588776
 30
0.0
 10
323.796057
 20
53.588776
 30
0.0
 10
323.796057
 20
53.588784
 30
0.0
  0
LWPOLYLINE
  5
107
100
AcDbEntity
  8
Layer_1
 62
7
100
AcDbPolyline
 90
13
 70
0
 10
139.996057
 20
67.741008
 30
0.0
 10
140.726401
 20
69.176992
 30
0.0
 10
140.617713
 20
71.568184
 30
0.0
 10
139.821225
 20
74.093224
 30
0.0
 10
138.488169
 20
75.930736
 30
0.0
 10
134.412161
 20
77.127936
 30
0.0
 10
130.561065
 20
75.494440
 30
0.0
 10
128.212137
 20
72.071848
 30
0.0
 10
128.642641
 20
67.901752
 30
0.0
 10
130.397369
 20
67.049152
 30
0.0
 10
133.672857
 20
66.726864
 30
0.0
 10
137.271593
 20
66.951832
 30
0.0
 10
139.996057
 20
67.741008
 30
0.0
  0
LWPOLYLINE
  5
108
100
AcDbEntity
  8
Layer_1
 62
7
100
AcDbPolyline
 90
73
 70
0
 10
312.204457
 20
68.362760
 30
0.0
 10
316.217681
 20
74.195632
 30
0.0
 10
316.742625
 20
82.381560
 30
0.0
 10
314.152817
 20
90.052264
 30
0.0
 10
308.821745
 20
94.339496
 30
0.0
 10
303.951153
 20
95.977272
 30
0.0
 10
301.760241
 20
97.954264
 30
0.0
 10
302.143665
 20
100.536200
 30
0.0
 10
304.996057
 20
103.988800
 30
0.0
 10
307.717017
 20
107.147360
 30
0.0
 10
308.586137
 20
109.857456
 30
0.0
 10
307.590257
 20
112.695200
 30
0.0
 10
304.716217
 20
116.236688
 30
0.0
 10
300.487289
 20
121.644936
 30
0.0
 10
297.848817
 20
126.954456
 30
0.0
 10
296.936865
 20
131.776912
 30
0.0
 10
297.887537
 20
135.723968
 30
0.0
 10
298.791153
 20
138.698232
 30
0.0
 10
298.392401
 20
141.647560
 30
0.0
 10
296.862769
 20
144.092320
 30
0.0
 10
294.373705
 20
145.552912
 30
0.0
 10
291.470489
 20
146.210496
 30
0.0
 10
289.344425
 20
146.179216
 30
0.0
 10
287.462265
 20
145.343752
 30
0.0
 10
285.290737
 20
143.588800
 30
0.0
 10
283.986177
 20
142.501616
 30
0.0
 10
282.725233
 20
141.611304
 30
0.0
 10
281.651665
 20
141.009736
 30
0.0
 10
280.909249
 20
140.788800
 30
0.0
 10
277.995425
 20
141.217952
 30
0.0
 10
274.065161
 20
142.272008
 30
0.0
 10
270.255609
 20
143.600864
 30
0.0
 10
267.703953
 20
144.854400
 30
0.0
 10
262.085953
 20
146.913384
 30
0.0
 10
257.373529
 20
145.229496
 30
0.0
 10
254.327689
 20
140.437896
 30
0.0
 10
253.709425
 20
133.173760
 30
0.0
 10
253.892425
 20
127.835480
 30
0.0
 10
253.238225
 20
123.498800
 30
0.0
 10
251.739401
 20
120.137184
 30
0.0
 10
249.388537
 20
117.724128
 30
0.0
 10
244.770033
 20
112.827568
 30
0.0
 10
243.936225
 20
108.082064
 30
0.0
 10
246.646721
 20
104.548112
 30
0.0
 10
252.661145
 20
103.286216
 30
0.0
 10
257.159017
 20
102.360872
 30
0.0
 10
261.731105
 20
99.731368
 30
0.0
 10
265.586217
 20
95.995336
 30
0.0
 10
267.933193
 20
91.750384
 30
0.0
 10
269.173489
 20
89.329592
 30
0.0
 10
271.169625
 20
86.795776
 30
0.0
 10
273.325929
 20
84.798864
 30
0.0
 10
275.046729
 20
83.988800
 30
0.0
 10
275.730561
 20
84.178176
 30
0.0
 10
277.004785
 20
84.693800
 30
0.0
 10
278.687321
 20
85.456920
 30
0.0
 10
280.596081
 20
86.388800
 30
0.0
 10
284.807369
 20
88.184008
 30
0.0
 10
287.228337
 20
88.016576
 30
0.0
 10
288.333177
 20
85.529496
 30
0.0
 10
288.596081
 20
80.365760
 30
0.0
 10
288.865641
 20
76.308888
 30
0.0
 10
290.037769
 20
73.459712
 30
0.0
 10
292.657633
 20
71.064192
 30
0.0
 10
297.270409
 20
68.368312
 30
0.0
 10
300.677513
 20
67.299816
 30
0.0
 10
304.938273
 20
66.942488
 30
0.0
 10
309.098625
 20
67.296776
 30
0.0
 10
312.204481
 20
68.362712
 30
0.0
 10
312.204481
 20
68.362720
 30
0.0
 10
312.204481
 20
68.362736
 30
0.0
 10
312.204473
 20
68.362752
 30
0.0
 10
312.204457
 20
68.362760
 30
0.0
  0
LWPOLYLINE
  5
109
100
AcDbEntity
  8
Layer_1
 62
7
100
AcDbPolyline
 90
91
 70
0
 10
116.723497
 20
70.588800
 30
0.0
 10
117.991641
 20
71.438800
 30
0.0
 10
119.259777
 20
72.288800
 30
0.0
 10
120.527921
 20
73.138800
 30
0.0
 10
121.796057
 20
73.988800
 30
0.0
 10
121.896057
 20
75.532392
 30
0.0
 10
121.996057
 20
77.075984
 30
0.0
 10
122.096057
 20
78.619576
 30
0.0
 10
122.196057
 20
80.163168
 30
0.0
 10
122.768601
 20
85.299968
 30
0.0
 10
123.952497
 20
87.805928
 30
0.0
 10
126.225905
 20
88.063200
 30
0.0
 10
130.066977
 20
86.453960
 30
0.0
 10
132.025857
 20
85.496784
 30
0.0
 10
133.749441
 20
84.712944
 30
0.0
 10
135.051401
 20
84.183320
 30
0.0
 10
135.745409
 20
83.988800
 30
0.0
 10
137.466209
 20
84.798864
 30
0.0
 10
139.622505
 20
86.795776
 30
0.0
 10
141.618641
 20
89.329600
 30
0.0
 10
142.858945
 20
91.750384
 30
0.0
 10
145.205921
 20
95.995336
 30
0.0
 10
149.061041
 20
99.731368
 30
0.0
 10
153.633121
 20
102.360872
 30
0.0
 10
158.130993
 20
103.286216
 30
0.0
 10
164.065529
 20
104.601280
 30
0.0
 10
166.927889
 20
108.179024
 30
0.0
 10
166.376337
 20
112.806040
 30
0.0
 10
162.069129
 20
117.268928
 30
0.0
 10
159.552913
 20
119.273272
 30
0.0
 10
158.067857
 20
121.810776
 30
0.0
 10
157.380289
 20
125.557320
 30
0.0
 10
157.256529
 20
131.188800
 30
0.0
 10
157.138609
 20
136.721440
 30
0.0
 10
156.591673
 20
140.719024
 30
0.0
 10
155.552241
 20
143.450880
 30
0.0
 10
153.956833
 20
145.186320
 30
0.0
 10
151.596857
 20
146.118096
 30
0.0
 10
148.588929
 20
146.360848
 30
0.0
 10
145.547785
 20
145.933360
 30
0.0
 10
143.088185
 20
144.854400
 30
0.0
 10
140.536529
 20
143.600864
 30
0.0
 10
136.726977
 20
142.272008
 30
0.0
 10
132.796713
 20
141.217952
 30
0.0
 10
129.882889
 20
140.788800
 30
0.0
 10
129.140473
 20
141.009736
 30
0.0
 10
128.066905
 20
141.611304
 30
0.0
 10
126.805961
 20
142.501616
 30
0.0
 10
125.501401
 20
143.588800
 30
0.0
 10
123.329881
 20
145.343752
 30
0.0
 10
121.447713
 20
146.179216
 30
0.0
 10
119.321649
 20
146.210496
 30
0.0
 10
116.418433
 20
145.552912
 30
0.0
 10
113.929369
 20
144.092328
 30
0.0
 10
112.399737
 20
141.647560
 30
0.0
 10
112.000993
 20
138.698240
 30
0.0
 10
112.904601
 20
135.723968
 30
0.0
 10
113.644137
 20
131.893368
 30
0.0
 10
112.865161
 20
126.888600
 30
0.0
 10
110.910033
 20
121.954336
 30
0.0
 10
108.121145
 20
118.335256
 30
0.0
 10
104.424105
 20
114.605304
 30
0.0
 10
102.826113
 20
111.118896
 30
0.0
 10
103.294377
 20
107.674744
 30
0.0
 10
105.796081
 20
104.071560
 30
0.0
 10
108.604289
 20
100.454168
 30
0.0
 10
108.991289
 20
97.860336
 30
0.0
 10
106.817577
 20
95.937416
 30
0.0
 10
101.943641
 20
94.332760
 30
0.0
 10
99.022465
 20
93.302680
 30
0.0
 10
97.091801
 20
91.595200
 30
0.0
 10
95.742937
 20
88.627728
 30
0.0
 10
94.567185
 20
83.817648
 30
0.0
 10
94.251681
 20
82.292000
 30
0.0
 10
93.936169
 20
80.766360
 30
0.0
 10
93.620657
 20
79.240712
 30
0.0
 10
93.305145
 20
77.715064
 30
0.0
 10
93.840233
 20
76.649280
 30
0.0
 10
94.375313
 20
75.583496
 30
0.0
 10
94.910393
 20
74.517712
 30
0.0
 10
95.445473
 20
73.451928
 30
0.0
 10
97.374969
 20
69.795872
 30
0.0
 10
99.032393
 20
67.940416
 30
0.0
 10
101.390361
 20
67.274936
 30
0.0
 10
105.421481
 20
67.188800
 30
0.0
 10
109.031561
 20
67.259520
 30
0.0
 10
111.490353
 20
67.660776
 30
0.0
 10
113.740225
 20
68.676024
 30
0.0
 10
116.723521
 20
70.588760
 30
0.0
 10
116.723513
 20
70.588760
 30
0.0
 10
116.723497
 20
70.588800
 30
0.0
  0
LWPOLYLINE
  5
10a
100
AcDbEntity
  8
Layer_1
 62
7
100
AcDbPolyline
 90
13
 70
0
 10
171.726833
 20
70.157760
 30
0.0
 10
175.616297
 20
77.697040
 30
0.0
 10
175.453969
 20
85.040592
 30
0.0
 10
171.545377
 20
91.176720
 30
0.0
 10
164.196057
 20
95.093736
 30
0.0
 10
156.799745
 20
94.122448
 30
0.0
 10
150.480601
 20
88.730168
 30
0.0
 10
147.023673
 20
81.264648
 30
0.0
 10
148.214025
 20
74.073656
 30
0.0
 10
153.262617
 20
69.521576
 30
0.0
 10
159.996897
 20
67.162928
 30
0.0
 10
166.717937
 20
67.280680
 30
0.0
 10
171.726833
 20
70.157760
 30
0.0
  0
LWPOLYLINE
  5
10b
100
AcDbEntity
  8
Layer_1
 62
7
100
AcDbPolyline
 90
13
 70
0
 10
257.583617
 20
69.614320
 30
0.0
 10
262.784137
 20
75.357144
 30
0.0
 10
263.796865
 20
82.087200
 30
0.0
 10
260.792401
 20
88.664720
 30
0.0
 10
253.941337
 20
93.949928
 30
0.0
 10
243.863601
 20
94.280000
 30
0.0
 10
236.886361
 20
87.370224
 30
0.0
 10
235.147817
 20
77.369240
 30
0.0
 10
240.786169
 20
68.425680
 30
0.0
 10
244.202161
 20
67.228368
 30
0.0
 10
248.807281
 20
67.074560
 30
0.0
 10
253.601201
 20
67.893472
 30
0.0
 10
257.583617
 20
69.614320
 30
0.0
  0
LWPOLYLINE
  5
10c
100
AcDbEntity
  8
Layer_1
 62
7
100
AcDbPolyline
 90
13
 70
0
 10
282.614385
 20
68.846536
 30
0.0
 10
282.548785
 20
71.696584
 30
0.0
 10
281.022049
 20
74.536840
 30
0.0
 10
278.551505
 20
76.717512
 30
0.0
 10
275.654465
 20
77.588800
 30
0.0
 10
272.880553
 20
76.495240
 30
0.0
 10
270.886233
 20
73.885968
 30
0.0
 10
270.151433
 20
70.768112
 30
0.0
 10
271.156081
 20
68.148800
 30
0.0
 10
273.613625
 20
67.232728
 30
0.0
 10
277.325001
 20
67.103488
 30
0.0
 10
280.816497
 20
67.671336
 30
0.0
 10
282.614385
 20
68.846536
 30
0.0
  0
LWPOLYLINE
  5
10d
100
AcDbEntity
  8
Layer_1
 62
7
100
AcDbPolyline
 90
15
 70
0
 10
93.896345
 20
97.701912
 30
0.0
 10
95.434609
 20
99.862576
 30
0.0
 10
96.118953
 20
102.747728
 30
0.0
 10
95.890329
 20
105.612288
 30
0.0
 10
94.689681
 20
107.711192
 30
0.0
 10
91.748825
 20
109.258232
 30
0.0
 10
88.718889
 20
109.431784
 30
0.0
 10
86.352057
 20
108.357408
 30
0.0
 10
85.400521
 20
106.160656
 30
0.0
 10
86.135977
 20
101.125528
 30
0.0
 10
88.055225
 20
97.780352
 30
0.0
 10
90.771081
 20
96.510640
 30
0.0
 10
93.896345
 20
97.701872
 30
0.0
 10
93.896345
 20
97.701888
 30
0.0
 10
93.896345
 20
97.701912
 30
0.0
  0
LWPOLYLINE
  5
10e
100
AcDbEntity
  8
Layer_1
 62
7
100
AcDbPolyline
 90
13
 70
0
 10
323.662353
 20
98.814824
 30
0.0
 10
324.758521
 20
101.903544
 30
0.0
 10
325.219041
 20
104.768472
 30
0.0
 10
325.026841
 20
107.080504
 30
0.0
 10
324.164865
 20
108.510536
 30
0.0
 10
321.272249
 20
109.406656
 30
0.0
 10
317.988937
 20
108.871104
 30
0.0
 10
315.305769
 20
107.260312
 30
0.0
 10
314.213625
 20
104.930736
 30
0.0
 10
315.404073
 20
100.497512
 30
0.0
 10
318.111065
 20
97.524456
 30
0.0
 10
321.231521
 20
96.725560
 30
0.0
 10
323.662353
 20
98.814824
 30
0.0
  0
LWPOLYLINE
  5
10f
100
AcDbEntity
  8
Layer_1
 62
7
100
AcDbPolyline
 90
29
 70
0
 10
184.488873
 20
119.516080
 30
0.0
 10
189.578545
 20
124.414392
 30
0.0
 10
192.637721
 20
129.775696
 30
0.0
 10
193.403129
 20
134.879624
 30
0.0
 10
191.611497
 20
139.005792
 30
0.0
 10
188.239521
 20
142.186680
 30
0.0
 10
184.934585
 20
144.210448
 30
0.0
 10
181.242729
 20
145.277640
 30
0.0
 10
176.709977
 20
145.588800
 30
0.0
 10
172.457129
 20
145.443696
 30
0.0
 10
169.801889
 20
144.580392
 30
0.0
 10
167.769185
 20
142.356784
 30
0.0
 10
165.383945
 20
138.130824
 30
0.0
 10
164.898089
 20
137.214968
 30
0.0
 10
164.412233
 20
136.299120
 30
0.0
 10
163.926377
 20
135.383264
 30
0.0
 10
163.440513
 20
134.467416
 30
0.0
 10
163.794865
 20
133.107584
 30
0.0
 10
164.149209
 20
131.747760
 30
0.0
 10
164.503561
 20
130.387928
 30
0.0
 10
164.857905
 20
129.028104
 30
0.0
 10
166.230161
 20
124.625952
 30
0.0
 10
167.825425
 20
121.667712
 30
0.0
 10
169.983057
 20
119.708728
 30
0.0
 10
173.042417
 20
118.304352
 30
0.0
 10
176.654097
 20
117.217856
 30
0.0
 10
179.349721
 20
117.013608
 30
0.0
 10
181.753305
 20
117.757664
 30
0.0
 10
184.488873
 20
119.516080
 30
0.0
  0
LWPOLYLINE
  5
110
100
AcDbEntity
  8
Layer_1
 62
7
100
AcDbPolyline
 90
21
 70
0
 10
237.749697
 20
118.304352
 30
0.0
 10
243.347809
 20
122.161360
 30
0.0
 10
246.219905
 20
128.175952
 30
0.0
 10
246.139585
 20
135.284008
 30
0.0
 10
242.880489
 20
142.421384
 30
0.0
 10
242.306873
 20
143.213232
 30
0.0
 10
241.733257
 20
144.005088
 30
0.0
 10
241.159641
 20
144.796944
 30
0.0
 10
240.586025
 20
145.588800
 30
0.0
 10
238.973313
 20
145.588800
 30
0.0
 10
237.360601
 20
145.588800
 30
0.0
 10
235.747889
 20
145.588800
 30
0.0
 10
234.135177
 20
145.588800
 30
0.0
 10
223.200025
 20
142.887096
 30
0.0
 10
217.974153
 20
136.179648
 30
0.0
 10
219.028305
 20
127.562976
 30
0.0
 10
226.933209
 20
119.133576
 30
0.0
 10
229.548305
 20
117.604224
 30
0.0
 10
231.785793
 20
116.989736
 30
0.0
 10
234.301097
 20
117.239864
 30
0.0
 10
237.749697
 20
118.304352
 30
0.0
  0
LWPOLYLINE
  5
111
100
AcDbEntity
  8
Layer_1
 62
7
100
AcDbPolyline
 90
13
 70
0
 10
97.426545
 20
119.388800
 30
0.0
 10
103.873897
 20
125.957768
 30
0.0
 10
104.973073
 20
134.442456
 30
0.0
 10
101.190913
 20
142.043928
 30
0.0
 10
92.994241
 20
145.963272
 30
0.0
 10
86.058393
 20
145.380744
 30
0.0
 10
80.535137
 20
142.400656
 30
0.0
 10
77.152937
 20
137.654976
 30
0.0
 10
76.640265
 20
131.775664
 30
0.0
 10
79.487641
 20
124.322032
 30
0.0
 10
84.351817
 20
119.504448
 30
0.0
 10
90.556793
 20
117.725752
 30
0.0
 10
97.426545
 20
119.388800
 30
0.0
  0
LWPOLYLINE
  5
112
100
AcDbEntity
  8
Layer_1
 62
7
100
AcDbPolyline
 90
13
 70
0
 10
326.178513
 20
119.656464
 30
0.0
 10
332.306145
 20
125.513136
 30
0.0
 10
334.282449
 20
132.935064
 30
0.0
 10
332.129417
 20
140.106440
 30
0.0
 10
325.869041
 20
145.211448
 30
0.0
 10
318.502457
 20
146.219032
 30
0.0
 10
311.734761
 20
143.823928
 30
0.0
 10
306.965857
 20
138.912720
 30
0.0
 10
305.595641
 20
132.371984
 30
0.0
 10
308.032241
 20
124.594624
 30
0.0
 10
312.795329
 20
119.561424
 30
0.0
 10
319.104289
 20
117.754624
 30
0.0
 10
326.178513
 20
119.656464
 30
0.0
  0
LWPOLYLINE
  5
113
100
AcDbEntity
  8
Layer_1
 62
7
100
AcDbPolyline
 90
13
 70
0
 10
67.796057
 20
135.988800
 30
0.0
 10
69.534625
 20
140.490960
 30
0.0
 10
67.451585
 20
144.514120
 30
0.0
 10
63.229617
 20
146.464136
 30
0.0
 10
58.551433
 20
144.746872
 30
0.0
 10
56.960457
 20
142.495592
 30
0.0
 10
57.085257
 20
140.282728
 30
0.0
 10
58.954305
 20
138.044752
 30
0.0
 10
62.596057
 20
135.718104
 30
0.0
 10
64.451329
 20
134.803328
 30
0.0
 10
65.648793
 20
134.528552
 30
0.0
 10
66.619889
 20
134.916224
 30
0.0
 10
67.796057
 20
135.988800
 30
0.0
  0
LWPOLYLINE
  5
114
100
AcDbEntity
  8
Layer_1
 62
7
100
AcDbPolyline
 90
21
 70
0
 10
353.160953
 20
139.371008
 30
0.0
 10
354.331353
 20
141.571328
 30
0.0
 10
353.788745
 20
143.445304
 30
0.0
 10
351.692649
 20
144.797896
 30
0.0
 10
348.202585
 20
145.434024
 30
0.0
 10
343.830833
 20
144.681808
 30
0.0
 10
341.344281
 20
142.378952
 30
0.0
 10
341.110465
 20
139.258216
 30
0.0
 10
343.496937
 20
136.052376
 30
0.0
 10
344.022153
 20
135.639232
 30
0.0
 10
344.547377
 20
135.226096
 30
0.0
 10
345.072593
 20
134.812960
 30
0.0
 10
345.597817
 20
134.399824
 30
0.0
 10
346.377337
 20
134.837936
 30
0.0
 10
347.156865
 20
135.276056
 30
0.0
 10
347.936393
 20
135.714168
 30
0.0
 10
348.715921
 20
136.152288
 30
0.0
 10
350.031321
 20
136.948432
 30
0.0
 10
351.307865
 20
137.820680
 30
0.0
 10
352.399689
 20
138.663408
 30
0.0
 10
353.160953
 20
139.371008
 30
0.0
  0
LWPOLYLINE
  5
115
100
AcDbEntity
  8
Layer_1
 62
7
100
AcDbPolyline
 90
17
 70
0
 10
209.334673
 20
137.259912
 30
0.0
 10
211.593809
 20
140.346520
 30
0.0
 10
211.527489
 20
143.300104
 30
0.0
 10
209.393273
 20
145.515816
 30
0.0
 10
205.448609
 20
146.388800
 30
0.0
 10
201.525177
 20
145.511256
 30
0.0
 10
199.354129
 20
143.293104
 30
0.0
 10
199.214169
 20
140.356024
 30
0.0
 10
201.383977
 20
137.321696
 30
0.0
 10
203.526689
 20
135.817344
 30
0.0
 10
205.381073
 20
135.307032
 30
0.0
 10
207.224577
 20
135.788608
 30
0.0
 10
209.334633
 20
137.259936
 30
0.0
 10
209.334633
 20
137.259936
 30
0.0
 10
209.334633
 20
137.259928
 30
0.0
 10
209.334633
 20
137.259920
 30
0.0
 10
209.334673
 20
137.259912
 30
0.0
  0
LWPOLYLINE
  5
116
100
AcDbEntity
  8
Layer_1
 62
7
100
AcDbPolyline
 90
13
 70
0
 10
24.975513
 20
151.949072
 30
0.0
 10
25.913326
 20
154.233736
 30
0.0
 10
26.089339
 20
156.100800
 30
0.0
 10
25.486603
 20
157.687416
 30
0.0
 10
24.088169
 20
159.130736
 30
0.0
 10
19.835346
 20
160.561952
 30
0.0
 10
16.182153
 20
159.031688
 30
0.0
 10
14.320280
 20
155.609968
 30
0.0
 10
15.441417
 20
151.366808
 30
0.0
 10
17.561553
 20
149.793680
 30
0.0
 10
20.364778
 20
149.397344
 30
0.0
 10
23.089846
 20
150.131304
 30
0.0
 10
24.975513
 20
151.949072
 30
0.0
  0
LWPOLYLINE
  5
117
100
AcDbEntity
  8
Layer_1
 62
7
100
AcDbPolyline
 90
87
 70
0
 10
81.011209
 20
151.546120
 30
0.0
 10
82.998897
 20
152.885408
 30
0.0
 10
85.125009
 20
153.731096
 30
0.0
 10
88.141425
 20
154.288304
 30
0.0
 10
92.800033
 20
154.762152
 30
0.0
 10
95.955537
 20
154.986896
 30
0.0
 10
97.874785
 20
154.813992
 30
0.0
 10
99.313329
 20
154.027496
 30
0.0
 10
101.026705
 20
152.411520
 30
0.0
 10
106.344409
 20
149.183304
 30
0.0
 10
110.411209
 20
150.502088
 30
0.0
 10
112.579161
 20
155.691496
 30
0.0
 10
112.200313
 20
164.075152
 30
0.0
 10
112.224313
 20
166.989272
 30
0.0
 10
113.321817
 20
170.263712
 30
0.0
 10
115.469633
 20
173.849448
 30
0.0
 10
118.644577
 20
177.697480
 30
0.0
 10
122.189961
 20
183.538152
 30
0.0
 10
122.099745
 20
188.891248
 30
0.0
 10
118.621881
 20
193.092840
 30
0.0
 10
112.004305
 20
195.479000
 30
0.0
 10
105.945529
 20
196.886480
 30
0.0
 10
101.632409
 20
198.962864
 30
0.0
 10
99.053161
 20
201.716416
 30
0.0
 10
98.196025
 20
205.155360
 30
0.0
 10
97.074905
 20
208.186584
 30
0.0
 10
94.308809
 20
210.363448
 30
0.0
 10
90.793609
 20
211.249152
 30
0.0
 10
87.425209
 20
210.406888
 30
0.0
 10
85.763593
 20
209.260328
 30
0.0
 10
84.731521
 20
208.044016
 30
0.0
 10
84.036545
 20
206.247848
 30
0.0
 10
83.386233
 20
203.361744
 30
0.0
 10
83.017609
 20
202.177800
 30
0.0
 10
82.425801
 20
201.088440
 30
0.0
 10
81.649281
 20
200.150648
 30
0.0
 10
80.726505
 20
199.421400
 30
0.0
 10
79.620177
 20
198.733200
 30
0.0
 10
78.182817
 20
197.830152
 30
0.0
 10
76.600393
 20
196.829512
 30
0.0
 10
75.058873
 20
195.848504
 30
0.0
 10
73.238513
 20
194.812952
 30
0.0
 10
71.510097
 20
194.112024
 30
0.0
 10
69.774953
 20
193.714424
 30
0.0
 10
67.934385
 20
193.588848
 30
0.0
 10
63.717289
 20
193.038560
 30
0.0
 10
60.954969
 20
191.266648
 30
0.0
 10
59.492337
 20
188.091512
 30
0.0
 10
59.174313
 20
183.331576
 30
0.0
 10
59.229753
 20
181.795888
 30
0.0
 10
59.285193
 20
180.260208
 30
0.0
 10
59.340633
 20
178.724528
 30
0.0
 10
59.396073
 20
177.188848
 30
0.0
 10
58.496073
 20
177.214128
 30
0.0
 10
57.596073
 20
177.239408
 30
0.0
 10
56.696073
 20
177.264608
 30
0.0
 10
55.796073
 20
177.289888
 30
0.0
 10
54.131753
 20
177.412592
 30
0.0
 10
52.261433
 20
177.672056
 30
0.0
 10
50.414057
 20
178.030256
 30
0.0
 10
48.818569
 20
178.449160
 30
0.0
 10
46.843049
 20
178.996608
 30
0.0
 10
45.434897
 20
179.022928
 30
0.0
 10
44.018577
 20
178.408168
 30
0.0
 10
42.018569
 20
177.032448
 30
0.0
 10
33.969710
 20
168.292232
 30
0.0
 10
32.649059
 20
159.866544
 30
0.0
 10
37.651675
 20
153.393896
 30
0.0
 10
48.572617
 20
150.512808
 30
0.0
 10
50.333049
 20
150.443768
 30
0.0
 10
52.093481
 20
150.374728
 30
0.0
 10
53.853913
 20
150.305688
 30
0.0
 10
55.614345
 20
150.236648
 30
0.0
 10
56.248777
 20
151.158768
 30
0.0
 10
56.883217
 20
152.080888
 30
0.0
 10
57.517649
 20
153.003008
 30
0.0
 10
58.152081
 20
153.925128
 30
0.0
 10
61.448921
 20
157.988200
 30
0.0
 10
64.156713
 20
159.557784
 30
0.0
 10
66.479961
 20
158.661232
 30
0.0
 10
68.623153
 20
155.325888
 30
0.0
 10
71.109281
 20
151.403592
 30
0.0
 10
73.989697
 20
149.470200
 30
0.0
 10
77.283865
 20
149.519800
 30
0.0
 10
81.011225
 20
151.546400
 30
0.0
 10
81.011225
 20
151.546344
 30
0.0
 10
81.011209
 20
151.546120
 30
0.0
  0
LWPOLYLINE
  5
118
100
AcDbEntity
  8
Layer_1
 62
7
100
AcDbPolyline
 90
13
 70
0
 10
166.550697
 20
151.366808
 30
0.0
 10
167.642593
 20
153.918952
 30
0.0
 10
167.287993
 20
156.357904
 30
0.0
 10
165.501105
 20
158.652216
 30
0.0
 10
162.296153
 20
160.770440
 30
0.0
 10
159.295033
 20
161.041616
 30
0.0
 10
157.059145
 20
159.107776
 30
0.0
 10
156.109873
 20
155.823144
 30
0.0
 10
156.968585
 20
152.041920
 30
0.0
 10
158.876545
 20
150.164288
 30
0.0
 10
161.607617
 20
149.390800
 30
0.0
 10
164.414705
 20
149.774096
 30
0.0
 10
166.550697
 20
151.366808
 30
0.0
  0
LWPOLYLINE
  5
119
100
AcDbEntity
  8
Layer_1
 62
7
100
AcDbPolyline
 90
133
 70
0
 10
226.821865
 20
151.971376
 30
0.0
 10
232.414609
 20
154.253232
 30
0.0
 10
235.322761
 20
156.167040
 30
0.0
 10
236.424017
 20
158.682352
 30
0.0
 10
236.596057
 20
162.768736
 30
0.0
 10
236.910465
 20
168.252840
 30
0.0
 10
238.174121
 20
170.914112
 30
0.0
 10
240.867657
 20
171.098128
 30
0.0
 10
245.471713
 20
169.150464
 30
0.0
 10
248.580201
 20
167.829312
 30
0.0
 10
250.942649
 20
167.766512
 30
0.0
 10
253.264513
 20
169.162856
 30
0.0
 10
256.251249
 20
172.219184
 30
0.0
 10
261.467497
 20
178.686456
 30
0.0
 10
263.893849
 20
183.695192
 30
0.0
 10
263.685105
 20
187.887648
 30
0.0
 10
260.996057
 20
191.906056
 30
0.0
 10
258.198169
 20
195.592104
 30
0.0
 10
257.869753
 20
198.261240
 30
0.0
 10
260.112161
 20
200.155128
 30
0.0
 10
265.026769
 20
201.515432
 30
0.0
 10
268.665169
 20
202.557136
 30
0.0
 10
270.705369
 20
204.575640
 30
0.0
 10
271.598593
 20
208.482392
 30
0.0
 10
271.796057
 20
215.188816
 30
0.0
 10
271.598593
 20
221.895240
 30
0.0
 10
270.705369
 20
225.801992
 30
0.0
 10
268.665169
 20
227.820496
 30
0.0
 10
265.026769
 20
228.862200
 30
0.0
 10
260.112161
 20
230.222504
 30
0.0
 10
257.869753
 20
232.116392
 30
0.0
 10
258.198169
 20
234.785520
 30
0.0
 10
260.996057
 20
238.471576
 30
0.0
 10
263.685105
 20
242.489984
 30
0.0
 10
263.893849
 20
246.682440
 30
0.0
 10
261.467489
 20
251.691176
 30
0.0
 10
256.251249
 20
258.158448
 30
0.0
 10
253.264513
 20
261.214776
 30
0.0
 10
250.942649
 20
262.611120
 30
0.0
 10
248.580201
 20
262.548320
 30
0.0
 10
245.471713
 20
261.227168
 30
0.0
 10
240.867665
 20
259.279504
 30
0.0
 10
238.174121
 20
259.463520
 30
0.0
 10
236.910465
 20
262.124784
 30
0.0
 10
236.596057
 20
267.608896
 30
0.0
 10
236.424025
 20
271.695280
 30
0.0
 10
235.322761
 20
274.210592
 30
0.0
 10
232.414601
 20
276.124392
 30
0.0
 10
226.821865
 20
278.406256
 30
0.0
 10
220.527673
 20
280.499472
 30
0.0
 10
216.274241
 20
280.867480
 30
0.0
 10
213.320065
 20
279.396848
 30
0.0
 10
210.923673
 20
275.974136
 30
0.0
 10
208.098825
 20
271.736032
 30
0.0
 10
205.501577
 20
270.408688
 30
0.0
 10
202.851809
 20
272.006552
 30
0.0
 10
199.869385
 20
276.544072
 30
0.0
 10
197.655785
 20
279.428072
 30
0.0
 10
194.724905
 20
280.727856
 30
0.0
 10
190.659801
 20
280.507760
 30
0.0
 10
185.043521
 20
278.832136
 30
0.0
 10
178.960889
 20
276.459248
 30
0.0
 10
175.719601
 20
274.418880
 30
0.0
 10
174.428401
 20
271.793616
 30
0.0
 10
174.196057
 20
267.666024
 30
0.0
 10
173.883241
 20
262.145600
 30
0.0
 10
172.622233
 20
259.466304
 30
0.0
 10
169.929225
 20
259.277152
 30
0.0
 10
165.320401
 20
261.227168
 30
0.0
 10
162.211913
 20
262.548320
 30
0.0
 10
159.849465
 20
262.611120
 30
0.0
 10
157.527601
 20
261.214776
 30
0.0
 10
154.540865
 20
258.158448
 30
0.0
 10
149.324617
 20
251.691176
 30
0.0
 10
146.898265
 20
246.682440
 30
0.0
 10
147.107009
 20
242.489984
 30
0.0
 10
149.796057
 20
238.471576
 30
0.0
 10
152.593945
 20
234.785528
 30
0.0
 10
152.922361
 20
232.116392
 30
0.0
 10
150.679953
 20
230.222504
 30
0.0
 10
145.765345
 20
228.862200
 30
0.0
 10
142.126945
 20
227.820496
 30
0.0
 10
140.086745
 20
225.801992
 30
0.0
 10
139.193521
 20
221.895240
 30
0.0
 10
138.996057
 20
215.188816
 30
0.0
 10
139.193521
 20
208.482392
 30
0.0
 10
140.086745
 20
204.575640
 30
0.0
 10
142.126945
 20
202.557136
 30
0.0
 10
145.765345
 20
201.515432
 30
0.0
 10
150.679953
 20
200.155128
 30
0.0
 10
152.922361
 20
198.261240
 30
0.0
 10
152.593937
 20
195.592112
 30
0.0
 10
149.796057
 20
191.906056
 30
0.0
 10
147.107009
 20
187.887640
 30
0.0
 10
146.898265
 20
183.695192
 30
0.0
 10
149.324617
 20
178.686456
 30
0.0
 10
154.540865
 20
172.219184
 30
0.0
 10
157.527601
 20
169.162856
 30
0.0
 10
159.849465
 20
167.766512
 30
0.0
 10
162.211913
 20
167.829312
 30
0.0
 10
165.320401
 20
169.150464
 30
0.0
 10
169.935289
 20
171.123864
 30
0.0
 10
172.605217
 20
170.888344
 30
0.0
 10
173.900785
 20
167.993464
 30
0.0
 10
174.392593
 20
161.988800
 30
0.0
 10
174.443473
 20
160.588800
 30
0.0
 10
174.494353
 20
159.188800
 30
0.0
 10
174.545233
 20
157.788800
 30
0.0
 10
174.596113
 20
156.388800
 30
0.0
 10
175.996113
 20
155.695288
 30
0.0
 10
177.396113
 20
155.001768
 30
0.0
 10
178.796113
 20
154.308256
 30
0.0
 10
180.196113
 20
153.614736
 30
0.0
 10
183.255697
 20
152.212192
 30
0.0
 10
185.901577
 20
151.317968
 30
0.0
 10
188.630937
 20
150.801568
 30
0.0
 10
191.940977
 20
150.532528
 30
0.0
 10
193.477193
 20
150.455488
 30
0.0
 10
195.013409
 20
150.378448
 30
0.0
 10
196.549625
 20
150.301408
 30
0.0
 10
198.085849
 20
150.224368
 30
0.0
 10
198.584025
 20
151.207488
 30
0.0
 10
199.082209
 20
152.190600
 30
0.0
 10
199.580393
 20
153.173712
 30
0.0
 10
200.078577
 20
154.156824
 30
0.0
 10
202.850009
 20
158.479128
 30
0.0
 10
205.461497
 20
159.958280
 30
0.0
 10
208.092809
 20
158.598360
 30
0.0
 10
210.923729
 20
154.403472
 30
0.0
 10
213.320121
 20
150.980760
 30
0.0
 10
216.274289
 20
149.510120
 30
0.0
 10
220.527729
 20
149.878128
 30
0.0
 10
226.821865
 20
151.971376
 30
0.0
  0
LWPOLYLINE
  5
11a
100
AcDbEntity
  8
Layer_1
 62
7
100
AcDbPolyline
 90
91
 70
0
 10
309.765409
 20
152.411488
 30
0.0
 10
311.478793
 20
154.027448
 30
0.0
 10
312.917329
 20
154.813952
 30
0.0
 10
314.836569
 20
154.986880
 30
0.0
 10
317.992081
 20
154.762112
 30
0.0
 10
322.660769
 20
154.286848
 30
0.0
 10
325.682777
 20
153.724696
 30
0.0
 10
327.822681
 20
152.864984
 30
0.0
 10
329.845081
 20
151.497128
 30
0.0
 10
333.379409
 20
149.595920
 30
0.0
 10
336.583641
 20
149.542320
 30
0.0
 10
339.467369
 20
151.339024
 30
0.0
 10
342.040185
 20
154.988792
 30
0.0
 10
343.425929
 20
157.450664
 30
0.0
 10
344.533881
 20
158.982672
 30
0.0
 10
345.530153
 20
159.767744
 30
0.0
 10
346.580849
 20
159.988792
 30
0.0
 10
347.654825
 20
159.733584
 30
0.0
 10
348.831025
 20
158.891560
 30
0.0
 10
350.233297
 20
157.348160
 30
0.0
 10
351.985481
 20
154.988792
 30
0.0
 10
352.862505
 20
153.738792
 30
0.0
 10
353.739529
 20
152.488792
 30
0.0
 10
354.616553
 20
151.238792
 30
0.0
 10
355.493585
 20
149.988792
 30
0.0
 10
356.781393
 20
150.051512
 30
0.0
 10
358.069201
 20
150.114232
 30
0.0
 10
359.357009
 20
150.176952
 30
0.0
 10
360.644825
 20
150.239752
 30
0.0
 10
371.892385
 20
152.836696
 30
0.0
 10
377.801921
 20
158.541864
 30
0.0
 10
377.874241
 20
166.237008
 30
0.0
 10
371.610185
 20
174.803888
 30
0.0
 10
368.397073
 20
177.412824
 30
0.0
 10
365.769257
 20
178.722584
 30
0.0
 10
363.208177
 20
178.879752
 30
0.0
 10
360.195257
 20
178.030936
 30
0.0
 10
358.616249
 20
177.527256
 30
0.0
 10
356.927497
 20
177.152832
 30
0.0
 10
355.331297
 20
176.943600
 30
0.0
 10
354.029953
 20
176.935520
 30
0.0
 10
353.371473
 20
176.998800
 30
0.0
 10
352.712993
 20
177.062080
 30
0.0
 10
352.054521
 20
177.125360
 30
0.0
 10
351.396041
 20
177.188640
 30
0.0
 10
351.451481
 20
178.724320
 30
0.0
 10
351.506921
 20
180.260000
 30
0.0
 10
351.562361
 20
181.795688
 30
0.0
 10
351.617801
 20
183.331368
 30
0.0
 10
351.299777
 20
188.091304
 30
0.0
 10
349.837145
 20
191.266440
 30
0.0
 10
347.074825
 20
193.038352
 30
0.0
 10
342.857729
 20
193.588640
 30
0.0
 10
341.017161
 20
193.714224
 30
0.0
 10
339.282017
 20
194.111824
 30
0.0
 10
337.553601
 20
194.812744
 30
0.0
 10
335.733241
 20
195.848296
 30
0.0
 10
334.191721
 20
196.829304
 30
0.0
 10
332.609297
 20
197.829944
 30
0.0
 10
331.171937
 20
198.732992
 30
0.0
 10
330.065609
 20
199.421192
 30
0.0
 10
329.142833
 20
200.150440
 30
0.0
 10
328.366313
 20
201.088232
 30
0.0
 10
327.774505
 20
202.177592
 30
0.0
 10
327.405881
 20
203.361536
 30
0.0
 10
326.755569
 20
206.247640
 30
0.0
 10
326.060593
 20
208.043800
 30
0.0
 10
325.028513
 20
209.260120
 30
0.0
 10
323.366905
 20
210.406680
 30
0.0
 10
319.998505
 20
211.248960
 30
0.0
 10
316.483313
 20
210.363240
 30
0.0
 10
313.717217
 20
208.186368
 30
0.0
 10
312.596089
 20
205.155152
 30
0.0
 10
311.689585
 20
201.669928
 30
0.0
 10
309.001673
 20
198.868520
 30
0.0
 10
304.579761
 20
196.783512
 30
0.0
 10
298.471265
 20
195.447472
 30
0.0
 10
292.081273
 20
192.995448
 30
0.0
 10
288.749249
 20
188.457584
 30
0.0
 10
288.803409
 20
182.849952
 30
0.0
 10
292.572121
 20
177.188624
 30
0.0
 10
295.286089
 20
174.064896
 30
0.0
 10
297.325801
 20
170.549760
 30
0.0
 10
298.493441
 20
167.074360
 30
0.0
 10
298.591201
 20
164.069856
 30
0.0
 10
298.212457
 20
155.689928
 30
0.0
 10
300.381009
 20
150.502344
 30
0.0
 10
304.448209
 20
149.183880
 30
0.0
 10
309.765401
 20
152.411312
 30
0.0
 10
309.765401
 20
152.411344
 30
0.0
 10
309.765409
 20
152.411488
 30
0.0
  0
LWPOLYLINE
  5
11b
100
AcDbEntity
  8
Layer_1
 62
7
100
AcDbPolyline
 90
13
 70
0
 10
395.350697
 20
151.366808
 30
0.0
 10
396.471833
 20
155.609968
 30
0.0
 10
394.609961
 20
159.031688
 30
0.0
 10
390.956769
 20
160.561960
 30
0.0
 10
386.703945
 20
159.130736
 30
0.0
 10
385.305505
 20
157.687408
 30
0.0
 10
384.702769
 20
156.100800
 30
0.0
 10
384.878785
 20
154.233744
 30
0.0
 10
385.816601
 20
151.949072
 30
0.0
 10
387.702265
 20
150.131312
 30
0.0
 10
390.427337
 20
149.397344
 30
0.0
 10
393.230561
 20
149.793680
 30
0.0
 10
395.350697
 20
151.366808
 30
0.0
  0
LWPOLYLINE
  5
11c
100
AcDbEntity
  8
Layer_1
 62
7
100
AcDbPolyline
 90
17
 70
0
 10
141.308169
 20
151.278040
 30
0.0
 10
145.654441
 20
154.131912
 30
0.0
 10
148.276201
 20
158.642432
 30
0.0
 10
148.939033
 20
164.098336
 30
0.0
 10
147.408537
 20
169.788360
 30
0.0
 10
145.236121
 20
172.583256
 30
0.0
 10
141.758201
 20
175.667312
 30
0.0
 10
138.098745
 20
178.162008
 30
0.0
 10
135.381753
 20
179.188800
 30
0.0
 10
128.374185
 20
176.869144
 30
0.0
 10
122.853345
 20
171.190824
 30
0.0
 10
120.066561
 20
164.074816
 30
0.0
 10
121.261161
 20
157.442096
 30
0.0
 10
125.036641
 20
153.074880
 30
0.0
 10
129.684305
 20
150.577048
 30
0.0
 10
135.132153
 20
149.970720
 30
0.0
 10
141.308169
 20
151.278040
 30
0.0
  0
LWPOLYLINE
  5
11d
100
AcDbEntity
  8
Layer_1
 62
7
100
AcDbPolyline
 90
13
 70
0
 10
253.750697
 20
152.166808
 30
0.0
 10
254.760209
 20
155.349088
 30
0.0
 10
254.089409
 20
158.531656
 30
0.0
 10
252.197825
 20
160.746552
 30
0.0
 10
249.545001
 20
161.025792
 30
0.0
 10
244.847865
 20
158.157032
 30
0.0
 10
243.049073
 20
154.634656
 30
0.0
 10
244.256705
 20
151.648592
 30
0.0
 10
248.578841
 20
150.388800
 30
0.0
 10
250.575585
 20
150.466000
 30
0.0
 10
251.971521
 20
150.742816
 30
0.0
 10
252.964073
 20
151.287128
 30
0.0
 10
253.750697
 20
152.166808
 30
0.0
  0
LWPOLYLINE
  5
11e
100
AcDbEntity
  8
Layer_1
 62
7
100
AcDbPolyline
 90
17
 70
0
 10
285.800393
 20
152.588800
 30
0.0
 10
288.303337
 20
155.545736
 30
0.0
 10
289.934513
 20
158.202200
 30
0.0
 10
290.745001
 20
160.665280
 30
0.0
 10
290.785881
 20
163.042096
 30
0.0
 10
287.871297
 20
171.662648
 30
0.0
 10
282.601209
 20
177.076912
 30
0.0
 10
276.041457
 20
178.654896
 30
0.0
 10
269.257897
 20
175.766616
 30
0.0
 10
262.448481
 20
167.174440
 30
0.0
 10
261.919489
 20
158.997984
 30
0.0
 10
267.136145
 20
152.869208
 30
0.0
 10
277.563673
 20
150.420112
 30
0.0
 10
280.991297
 20
150.460192
 30
0.0
 10
283.105681
 20
150.729408
 30
0.0
 10
284.508241
 20
151.386160
 30
0.0
 10
285.800393
 20
152.588800
 30
0.0
  0
LWPOLYLINE
  5
11f
100
AcDbEntity
  8
Layer_1
 62
7
100
AcDbPolyline
 90
15
 70
0
 10
49.045385
 20
187.334952
 30
0.0
 10
51.298505
 20
189.093824
 30
0.0
 10
52.548057
 20
190.696912
 30
0.0
 10
52.906841
 20
192.374272
 30
0.0
 10
52.487657
 20
194.355952
 30
0.0
 10
50.544689
 20
197.383832
 30
0.0
 10
47.892905
 20
198.526440
 30
0.0
 10
45.160225
 20
197.742024
 30
0.0
 10
42.974537
 20
194.988800
 30
0.0
 10
41.571801
 20
189.941840
 30
0.0
 10
42.363313
 20
186.672120
 30
0.0
 10
44.978153
 20
185.647280
 30
0.0
 10
49.045409
 20
187.334952
 30
0.0
 10
49.045393
 20
187.334952
 30
0.0
 10
49.045385
 20
187.334952
 30
0.0
  0
LWPOLYLINE
  5
120
100
AcDbEntity
  8
Layer_1
 62
7
100
AcDbPolyline
 90
15
 70
0
 10
367.848649
 20
186.416944
 30
0.0
 10
369.281153
 20
189.071560
 30
0.0
 10
368.741489
 20
193.099768
 30
0.0
 10
366.786897
 20
196.779536
 30
0.0
 10
363.974625
 20
198.388800
 30
0.0
 10
361.193281
 20
197.500568
 30
0.0
 10
358.984897
 20
195.351952
 30
0.0
 10
357.884857
 20
192.717064
 30
0.0
 10
358.428561
 20
190.370008
 30
0.0
 10
360.843017
 20
187.862848
 30
0.0
 10
363.281049
 20
186.341760
 30
0.0
 10
365.647857
 20
185.846536
 30
0.0
 10
367.848649
 20
186.416960
 30
0.0
 10
367.848649
 20
186.416952
 30
0.0
 10
367.848649
 20
186.416944
 30
0.0
  0
LWPOLYLINE
  5
121
100
AcDbEntity
  8
Layer_1
 62
7
100
AcDbPolyline
 90
13
 70
0
 10
139.347433
 20
187.935072
 30
0.0
 10
140.463665
 20
190.934736
 30
0.0
 10
139.732209
 20
194.376392
 30
0.0
 10
137.627249
 20
197.210824
 30
0.0
 10
134.622977
 20
198.388800
 30
0.0
 10
132.425817
 20
197.971328
 30
0.0
 10
130.782441
 20
196.765544
 30
0.0
 10
129.752609
 20
194.841408
 30
0.0
 10
129.396057
 20
192.268856
 30
0.0
 10
130.509977
 20
189.066424
 30
0.0
 10
133.195785
 20
186.990992
 30
0.0
 10
136.469577
 20
186.471040
 30
0.0
 10
139.347433
 20
187.935072
 30
0.0
  0
LWPOLYLINE
  5
122
100
AcDbEntity
  8
Layer_1
 62
7
100
AcDbPolyline
 90
13
 70
0
 10
279.288169
 20
188.046864
 30
0.0
 10
281.288721
 20
191.048352
 30
0.0
 10
281.231601
 20
194.449440
 30
0.0
 10
279.422993
 20
197.234728
 30
0.0
 10
276.169161
 20
198.388800
 30
0.0
 10
274.090961
 20
198.025648
 30
0.0
 10
272.517073
 20
196.878328
 30
0.0
 10
271.372953
 20
194.860048
 30
0.0
 10
270.584089
 20
191.884016
 30
0.0
 10
270.955169
 20
188.727360
 30
0.0
 10
272.973329
 20
186.839976
 30
0.0
 10
275.972897
 20
186.515328
 30
0.0
 10
279.288169
 20
188.046864
 30
0.0
  0
LWPOLYLINE
  5
123
100
AcDbEntity
  8
Layer_1
 62
7
100
AcDbPolyline
 90
13
 70
0
 10
72.141953
 20
204.035856
 30
0.0
 10
77.047233
 20
209.369088
 30
0.0
 10
78.556281
 20
215.405472
 30
0.0
 10
76.689929
 20
221.441616
 30
0.0
 10
71.468977
 20
226.774128
 30
0.0
 10
61.968281
 20
229.438712
 30
0.0
 10
54.108121
 20
225.621368
 30
0.0
 10
50.021889
 20
217.461064
 30
0.0
 10
51.842993
 20
207.096800
 30
0.0
 10
55.462321
 20
203.021016
 30
0.0
 10
60.584817
 20
201.071904
 30
0.0
 10
66.411153
 20
201.370008
 30
0.0
 10
72.141953
 20
204.035856
 30
0.0
  0
LWPOLYLINE
  5
124
100
AcDbEntity
  8
Layer_1
 62
7
100
AcDbPolyline
 90
17
 70
0
 10
125.956857
 20
202.537136
 30
0.0
 10
130.190209
 20
207.788528
 30
0.0
 10
131.265337
 20
215.896584
 30
0.0
 10
129.342625
 20
223.826544
 30
0.0
 10
124.582449
 20
228.543648
 30
0.0
 10
119.732545
 20
229.566888
 30
0.0
 10
115.200729
 20
229.089840
 30
0.0
 10
110.713185
 20
227.035664
 30
0.0
 10
105.996057
 20
223.327496
 30
0.0
 10
104.073697
 20
219.690392
 30
0.0
 10
103.465793
 20
214.614144
 30
0.0
 10
104.158985
 20
209.669904
 30
0.0
 10
106.139881
 20
206.428800
 30
0.0
 10
111.830889
 20
202.918488
 30
0.0
 10
116.780793
 20
201.148856
 30
0.0
 10
121.364489
 20
201.046272
 30
0.0
 10
125.956857
 20
202.537136
 30
0.0
  0
LWPOLYLINE
  5
125
100
AcDbEntity
  8
Layer_1
 62
7
100
AcDbPolyline
 90
23
 70
0
 10
298.205681
 20
202.393712
 30
0.0
 10
302.739785
 20
205.026680
 30
0.0
 10
305.410297
 20
207.654400
 30
0.0
 10
306.676097
 20
210.969672
 30
0.0
 10
306.996057
 20
215.665296
 30
0.0
 10
306.996057
 20
217.342984
 30
0.0
 10
306.996057
 20
219.020672
 30
0.0
 10
306.996057
 20
220.698360
 30
0.0
 10
306.996057
 20
222.376048
 30
0.0
 10
305.598129
 20
223.305608
 30
0.0
 10
304.200201
 20
224.235168
 30
0.0
 10
302.802273
 20
225.164728
 30
0.0
 10
301.404345
 20
226.094288
 30
0.0
 10
293.050041
 20
229.628512
 30
0.0
 10
286.172329
 20
228.719016
 30
0.0
 10
281.511841
 20
223.743552
 30
0.0
 10
279.809217
 20
215.079880
 30
0.0
 10
281.299249
 20
207.354568
 30
0.0
 10
285.295705
 20
202.366024
 30
0.0
 10
291.148025
 20
200.562872
 30
0.0
 10
298.205681
 20
202.393704
 30
0.0
 10
298.205681
 20
202.393704
 30
0.0
 10
298.205681
 20
202.393712
 30
0.0
  0
LWPOLYLINE
  5
126
100
AcDbEntity
  8
Layer_1
 62
7
100
AcDbPolyline
 90
13
 70
0
 10
354.898193
 20
202.738192
 30
0.0
 10
360.352585
 20
209.128144
 30
0.0
 10
360.579833
 20
217.695256
 30
0.0
 10
356.322313
 20
225.435656
 30
0.0
 10
348.322409
 20
229.345480
 30
0.0
 10
339.093985
 20
227.215056
 30
0.0
 10
333.607161
 20
220.469848
 30
0.0
 10
332.976649
 20
211.900520
 30
0.0
 10
338.317177
 20
204.297728
 30
0.0
 10
342.450073
 20
201.994344
 30
0.0
 10
346.586113
 20
200.967104
 30
0.0
 10
350.732945
 20
201.215296
 30
0.0
 10
354.898193
 20
202.738192
 30
0.0
  0
LWPOLYLINE
  5
127
100
AcDbEntity
  8
Layer_1
 62
7
100
AcDbPolyline
 90
95
 70
0
 10
92.848649
 20
219.288768
 30
0.0
 10
94.985497
 20
220.633328
 30
0.0
 10
96.679081
 20
222.182904
 30
0.0
 10
97.794297
 20
223.785872
 30
0.0
 10
98.196057
 20
225.290608
 30
0.0
 10
99.059913
 20
228.689712
 30
0.0
 10
101.650353
 20
231.424864
 30
0.0
 10
105.965721
 20
233.494888
 30
0.0
 10
112.004337
 20
234.898632
 30
0.0
 10
118.621913
 20
237.284792
 30
0.0
 10
122.099777
 20
241.486384
 30
0.0
 10
122.189985
 20
246.839480
 30
0.0
 10
118.644609
 20
252.680152
 30
0.0
 10
115.469665
 20
256.528184
 30
0.0
 10
113.321849
 20
260.113920
 30
0.0
 10
112.224329
 20
263.388360
 30
0.0
 10
112.200329
 20
266.302480
 30
0.0
 10
112.579201
 20
274.686136
 30
0.0
 10
110.411241
 20
279.875544
 30
0.0
 10
106.344433
 20
281.194328
 30
0.0
 10
101.026721
 20
277.966112
 30
0.0
 10
99.313337
 20
276.350152
 30
0.0
 10
97.874801
 20
275.563648
 30
0.0
 10
95.955553
 20
275.390712
 30
0.0
 10
92.800049
 20
275.615488
 30
0.0
 10
88.131361
 20
276.090728
 30
0.0
 10
85.109353
 20
276.652904
 30
0.0
 10
82.969449
 20
277.512616
 30
0.0
 10
80.947049
 20
278.880472
 30
0.0
 10
77.468689
 20
280.742040
 30
0.0
 10
74.285833
 20
280.842528
 30
0.0
 10
71.468057
 20
279.199816
 30
0.0
 10
69.084937
 20
275.831784
 30
0.0
 10
66.662041
 20
271.932368
 30
0.0
 10
64.366185
 20
270.716328
 30
0.0
 10
61.696729
 20
272.211840
 30
0.0
 10
58.153049
 20
276.447080
 30
0.0
 10
57.338617
 20
277.549536
 30
0.0
 10
56.524185
 20
278.651992
 30
0.0
 10
55.709761
 20
279.754440
 30
0.0
 10
54.895329
 20
280.856896
 30
0.0
 10
53.657921
 20
280.729400
 30
0.0
 10
52.420513
 20
280.601904
 30
0.0
 10
51.183105
 20
280.474400
 30
0.0
 10
49.945697
 20
280.346904
 30
0.0
 10
42.400049
 20
278.812536
 30
0.0
 10
36.506069
 20
276.153736
 30
0.0
 10
32.881163
 20
272.762896
 30
0.0
 10
32.142737
 20
269.032400
 30
0.0
 10
33.363616
 20
264.348904
 30
0.0
 10
34.541797
 20
261.283608
 30
0.0
 10
36.157354
 20
258.900208
 30
0.0
 10
38.690361
 20
256.262416
 30
0.0
 10
42.075417
 20
253.259136
 30
0.0
 10
44.817065
 20
251.727464
 30
0.0
 10
47.471985
 20
251.484320
 30
0.0
 10
50.596865
 20
252.346624
 30
0.0
 10
52.175865
 20
252.850296
 30
0.0
 10
53.864617
 20
253.224728
 30
0.0
 10
55.460817
 20
253.433960
 30
0.0
 10
56.762161
 20
253.442040
 30
0.0
 10
57.420641
 20
253.378760
 30
0.0
 10
58.079113
 20
253.315480
 30
0.0
 10
58.737593
 20
253.252200
 30
0.0
 10
59.396073
 20
253.188920
 30
0.0
 10
59.340633
 20
251.653240
 30
0.0
 10
59.285193
 20
250.117560
 30
0.0
 10
59.229753
 20
248.581872
 30
0.0
 10
59.174313
 20
247.046192
 30
0.0
 10
59.492337
 20
242.286256
 30
0.0
 10
60.954969
 20
239.111120
 30
0.0
 10
63.717289
 20
237.339208
 30
0.0
 10
67.934385
 20
236.788920
 30
0.0
 10
69.774945
 20
236.663344
 30
0.0
 10
71.510097
 20
236.265736
 30
0.0
 10
73.238505
 20
235.564808
 30
0.0
 10
75.058873
 20
234.529264
 30
0.0
 10
76.600393
 20
233.548264
 30
0.0
 10
78.182817
 20
232.547616
 30
0.0
 10
79.620177
 20
231.644576
 30
0.0
 10
80.726505
 20
230.956368
 30
0.0
 10
81.649281
 20
230.227120
 30
0.0
 10
82.425801
 20
229.289328
 30
0.0
 10
83.017609
 20
228.199968
 30
0.0
 10
83.386233
 20
227.016024
 30
0.0
 10
84.027681
 20
224.154360
 30
0.0
 10
84.698265
 20
222.374120
 30
0.0
 10
85.674353
 20
221.175320
 30
0.0
 10
87.232289
 20
220.058000
 30
0.0
 10
89.048017
 20
218.961000
 30
0.0
 10
90.296081
 20
218.507304
 30
0.0
 10
91.416329
 20
218.636680
 30
0.0
 10
92.848617
 20
219.288888
 30
0.0
 10
92.848617
 20
219.288864
 30
0.0
 10
92.848649
 20
219.288768
 30
0.0
  0
LWPOLYLINE
  5
128
100
AcDbEntity
  8
Layer_1
 62
7
100
AcDbPolyline
 90
91
 70
0
 10
323.460329
 20
220.028520
 30
0.0
 10
325.068713
 20
221.143488
 30
0.0
 10
326.073489
 20
222.345096
 30
0.0
 10
326.758065
 20
224.135264
 30
0.0
 10
327.405849
 20
227.015904
 30
0.0
 10
327.774473
 20
228.199848
 30
0.0
 10
328.366281
 20
229.289208
 30
0.0
 10
329.142801
 20
230.227000
 30
0.0
 10
330.065577
 20
230.956248
 30
0.0
 10
331.171905
 20
231.644448
 30
0.0
 10
332.609265
 20
232.547496
 30
0.0
 10
334.191689
 20
233.548136
 30
0.0
 10
335.733209
 20
234.529144
 30
0.0
 10
337.553569
 20
235.564696
 30
0.0
 10
339.281985
 20
236.265624
 30
0.0
 10
341.017129
 20
236.663224
 30
0.0
 10
342.857697
 20
236.788800
 30
0.0
 10
347.074793
 20
237.339088
 30
0.0
 10
349.837113
 20
239.111000
 30
0.0
 10
351.299745
 20
242.286136
 30
0.0
 10
351.617769
 20
247.046072
 30
0.0
 10
351.562329
 20
248.581760
 30
0.0
 10
351.506889
 20
250.117440
 30
0.0
 10
351.451449
 20
251.653120
 30
0.0
 10
351.396009
 20
253.188800
 30
0.0
 10
352.054481
 20
253.252080
 30
0.0
 10
352.712961
 20
253.315360
 30
0.0
 10
353.371441
 20
253.378640
 30
0.0
 10
354.029921
 20
253.441920
 30
0.0
 10
355.331265
 20
253.433840
 30
0.0
 10
356.927465
 20
253.224624
 30
0.0
 10
358.616217
 20
252.850208
 30
0.0
 10
360.195225
 20
252.346520
 30
0.0
 10
363.208145
 20
251.497712
 30
0.0
 10
365.769225
 20
251.654880
 30
0.0
 10
368.397041
 20
252.964632
 30
0.0
 10
371.610153
 20
255.573568
 30
0.0
 10
377.913761
 20
264.009416
 30
0.0
 10
377.964721
 20
271.540088
 30
0.0
 10
372.147457
 20
277.280800
 30
0.0
 10
360.846385
 20
280.346800
 30
0.0
 10
359.608985
 20
280.474304
 30
0.0
 10
358.371577
 20
280.601800
 30
0.0
 10
357.134169
 20
280.729296
 30
0.0
 10
355.896761
 20
280.856792
 30
0.0
 10
355.114625
 20
279.798048
 30
0.0
 10
354.332481
 20
278.739304
 30
0.0
 10
353.550345
 20
277.680560
 30
0.0
 10
352.768201
 20
276.621816
 30
0.0
 10
349.138977
 20
272.199056
 30
0.0
 10
346.503441
 20
270.615864
 30
0.0
 10
344.257233
 20
271.826048
 30
0.0
 10
341.796017
 20
275.783440
 30
0.0
 10
339.355633
 20
279.181072
 30
0.0
 10
336.513849
 20
280.839232
 30
0.0
 10
333.325401
 20
280.743728
 30
0.0
 10
329.845041
 20
278.880368
 30
0.0
 10
327.822641
 20
277.512512
 30
0.0
 10
325.682737
 20
276.652800
 30
0.0
 10
322.660729
 20
276.090624
 30
0.0
 10
317.992041
 20
275.615384
 30
0.0
 10
314.836537
 20
275.390640
 30
0.0
 10
312.917289
 20
275.563544
 30
0.0
 10
311.478745
 20
276.350040
 30
0.0
 10
309.765369
 20
277.966016
 30
0.0
 10
304.448177
 20
281.193448
 30
0.0
 10
300.380985
 20
279.874984
 30
0.0
 10
298.212425
 20
274.687400
 30
0.0
 10
298.591169
 20
266.307472
 30
0.0
 10
298.493409
 20
263.302960
 30
0.0
 10
297.325769
 20
259.827568
 30
0.0
 10
295.286049
 20
256.312432
 30
0.0
 10
292.572089
 20
253.188704
 30
0.0
 10
288.803385
 20
247.527368
 30
0.0
 10
288.749145
 20
241.919736
 30
0.0
 10
292.081169
 20
237.381880
 30
0.0
 10
298.471161
 20
234.929856
 30
0.0
 10
304.559073
 20
233.597288
 30
0.0
 10
308.983265
 20
231.518728
 30
0.0
 10
311.682617
 20
228.735896
 30
0.0
 10
312.595985
 20
225.290512
 30
0.0
 10
312.979513
 20
223.829960
 30
0.0
 10
314.052057
 20
222.258840
 30
0.0
 10
315.696561
 20
220.711504
 30
0.0
 10
317.795985
 20
219.322288
 30
0.0
 10
319.184905
 20
218.655488
 30
0.0
 10
320.319353
 20
218.516928
 30
0.0
 10
321.608193
 20
218.957584
 30
0.0
 10
323.460257
 20
220.028424
 30
0.0
 10
323.460257
 20
220.028440
 30
0.0
 10
323.460329
 20
220.028520
 30
0.0
  0
LWPOLYLINE
  5
129
100
AcDbEntity
  8
Layer_1
 62
7
100
AcDbPolyline
 90
13
 70
0
 10
50.764657
 20
233.788800
 30
0.0
 10
52.455937
 20
236.017104
 30
0.0
 10
53.049529
 20
237.934200
 30
0.0
 10
52.550425
 20
239.736168
 30
0.0
 10
50.963609
 20
241.619112
 30
0.0
 10
46.291433
 20
244.542400
 30
0.0
 10
42.947153
 20
244.123328
 30
0.0
 10
41.613833
 20
240.894568
 30
0.0
 10
42.974513
 20
235.388800
 30
0.0
 10
44.567529
 20
233.006120
 30
0.0
 10
46.499785
 20
231.924088
 30
0.0
 10
48.616945
 20
232.174416
 30
0.0
 10
50.764657
 20
233.788800
 30
0.0
  0
LWPOLYLINE
  5
12a
100
AcDbEntity
  8
Layer_1
 62
7
100
AcDbPolyline
 90
13
 70
0
 10
138.082681
 20
234.026368
 30
0.0
 10
140.220881
 20
238.783664
 30
0.0
 10
139.348353
 20
242.439224
 30
0.0
 10
136.252201
 20
243.965344
 30
0.0
 10
131.719553
 20
242.334328
 30
0.0
 10
130.623137
 20
241.422568
 30
0.0
 10
129.905921
 20
240.479488
 30
0.0
 10
129.514649
 20
239.408336
 30
0.0
 10
129.396057
 20
238.112328
 30
0.0
 10
130.288137
 20
234.451808
 30
0.0
 10
132.498833
 20
232.331648
 30
0.0
 10
135.329793
 20
232.080344
 30
0.0
 10
138.082681
 20
234.026368
 30
0.0
  0
LWPOLYLINE
  5
12b
100
AcDbEntity
  8
Layer_1
 62
7
100
AcDbPolyline
 90
17
 70
0
 10
280.150697
 20
233.766808
 30
0.0
 10
281.403241
 20
238.199448
 30
0.0
 10
279.728729
 20
241.941232
 30
0.0
 10
276.203249
 20
243.827504
 30
0.0
 10
271.902889
 20
242.693584
 30
0.0
 10
270.770689
 20
241.188192
 30
0.0
 10
270.462617
 20
239.021424
 30
0.0
 10
270.967377
 20
236.464536
 30
0.0
 10
272.273681
 20
233.788800
 30
0.0
 10
273.935385
 20
232.390184
 30
0.0
 10
276.162129
 20
231.919304
 30
0.0
 10
278.413905
 20
232.377672
 30
0.0
 10
280.150697
 20
233.766800
 30
0.0
 10
280.150697
 20
233.766800
 30
0.0
 10
280.150697
 20
233.766800
 30
0.0
 10
280.150697
 20
233.766800
 30
0.0
 10
280.150697
 20
233.766808
 30
0.0
  0
LWPOLYLINE
  5
12c
100
AcDbEntity
  8
Layer_1
 62
7
100
AcDbPolyline
 90
13
 70
0
 10
367.891369
 20
235.617944
 30
0.0
 10
369.174593
 20
240.520360
 30
0.0
 10
368.278377
 20
243.652872
 30
0.0
 10
365.576697
 20
244.592240
 30
0.0
 10
361.443545
 20
242.915184
 30
0.0
 10
359.173353
 20
240.857928
 30
0.0
 10
358.152809
 20
238.584648
 30
0.0
 10
358.400625
 20
236.207928
 30
0.0
 10
359.935505
 20
233.840360
 30
0.0
 10
362.179385
 20
232.164392
 30
0.0
 10
364.328009
 20
231.918680
 30
0.0
 10
366.269353
 20
233.078208
 30
0.0
 10
367.891369
 20
235.617944
 30
0.0
  0
LWPOLYLINE
  5
12d
100
AcDbEntity
  8
Layer_1
 62
7
100
AcDbPolyline
 90
13
 70
0
 10
137.655105
 20
251.935208
 30
0.0
 10
146.810841
 20
259.074200
 30
0.0
 10
148.864849
 20
268.415896
 30
0.0
 10
144.309153
 20
276.527584
 30
0.0
 10
133.635785
 20
279.976552
 30
0.0
 10
129.459673
 20
279.901832
 30
0.0
 10
126.970689
 20
279.362704
 30
0.0
 10
125.093057
 20
277.854784
 30
0.0
 10
122.751033
 20
274.873728
 30
0.0
 10
120.403793
 20
266.561704
 30
0.0
 10
123.285257
 20
258.152024
 30
0.0
 10
129.625625
 20
252.368560
 30
0.0
 10
137.655105
 20
251.935208
 30
0.0
  0
LWPOLYLINE
  5
12e
100
AcDbEntity
  8
Layer_1
 62
7
100
AcDbPolyline
 90
17
 70
0
 10
282.471369
 20
253.594936
 30
0.0
 10
286.751065
 20
257.067832
 30
0.0
 10
289.664321
 20
262.320392
 30
0.0
 10
290.742033
 20
268.060528
 30
0.0
 10
289.515105
 20
272.996176
 30
0.0
 10
286.950761
 20
276.793120
 30
0.0
 10
284.624793
 20
278.896096
 30
0.0
 10
281.673769
 20
279.796520
 30
0.0
 10
277.234257
 20
279.985808
 30
0.0
 10
266.971793
 20
277.552488
 30
0.0
 10
261.893081
 20
271.381248
 30
0.0
 10
262.516393
 20
263.147840
 30
0.0
 10
269.360017
 20
254.527744
 30
0.0
 10
272.474457
 20
252.281000
 30
0.0
 10
275.128633
 20
251.417112
 30
0.0
 10
278.176337
 20
251.875336
 30
0.0
 10
282.471369
 20
253.594936
 30
0.0
  0
LWPOLYLINE
  5
12f
100
AcDbEntity
  8
Layer_1
 62
7
100
AcDbPolyline
 90
13
 70
0
 10
163.802689
 20
270.588800
 30
0.0
 10
167.101609
 20
273.722376
 30
0.0
 10
167.931713
 20
276.612608
 30
0.0
 10
166.359993
 20
278.800760
 30
0.0
 10
162.453433
 20
279.828080
 30
0.0
 10
158.374929
 20
279.045864
 30
0.0
 10
155.995137
 20
276.681240
 30
0.0
 10
155.707121
 20
273.544736
 30
0.0
 10
157.903945
 20
270.446864
 30
0.0
 10
159.475065
 20
269.292168
 30
0.0
 10
160.623801
 20
268.922312
 30
0.0
 10
161.887297
 20
269.350216
 30
0.0
 10
163.802689
 20
270.588800
 30
0.0
  0
LWPOLYLINE
  5
130
100
AcDbEntity
  8
Layer_1
 62
7
100
AcDbPolyline
 90
13
 70
0
 10
252.888169
 20
270.446864
 30
0.0
 10
255.031705
 20
273.464056
 30
0.0
 10
254.795681
 20
276.574512
 30
0.0
 10
252.528569
 20
279.006624
 30
0.0
 10
248.578841
 20
279.988800
 30
0.0
 10
244.700265
 20
279.174672
 30
0.0
 10
242.939569
 20
277.084880
 30
0.0
 10
243.432825
 20
274.248304
 30
0.0
 10
246.316089
 20
271.193816
 30
0.0
 10
248.631785
 20
269.574432
 30
0.0
 10
250.078209
 20
268.957984
 30
0.0
 10
251.286585
 20
269.272712
 30
0.0
 10
252.888169
 20
270.446864
 30
0.0
  0
LWPOLYLINE
  5
131
100
AcDbEntity
  8
Layer_1
 62
7
100
AcDbPolyline
 90
13
 70
0
 10
24.088169
 20
271.246864
 30
0.0
 10
25.486602
 20
272.690184
 30
0.0
 10
26.089339
 20
274.276800
 30
0.0
 10
25.913326
 20
276.143864
 30
0.0
 10
24.975513
 20
278.428528
 30
0.0
 10
23.089846
 20
280.246296
 30
0.0
 10
20.364778
 20
280.980256
 30
0.0
 10
17.561552
 20
280.583920
 30
0.0
 10
15.441417
 20
279.010792
 30
0.0
 10
14.320279
 20
274.767632
 30
0.0
 10
16.182154
 20
271.345912
 30
0.0
 10
19.835349
 20
269.815648
 30
0.0
 10
24.088169
 20
271.246864
 30
0.0
  0
LWPOLYLINE
  5
132
100
AcDbEntity
  8
Layer_1
 62
7
100
AcDbPolyline
 90
13
 70
0
 10
394.632417
 20
271.552440
 30
0.0
 10
396.496233
 20
274.683832
 30
0.0
 10
396.262905
 20
277.671248
 30
0.0
 10
394.199041
 20
279.908352
 30
0.0
 10
390.571241
 20
280.788800
 30
0.0
 10
387.015617
 20
279.766264
 30
0.0
 10
384.955561
 20
277.266880
 30
0.0
 10
384.736521
 20
274.142968
 30
0.0
 10
386.703945
 20
271.246864
 30
0.0
 10
388.784953
 20
270.029232
 30
0.0
 10
390.816849
 20
269.674936
 30
0.0
 10
392.774409
 20
270.182992
 30
0.0
 10
394.632417
 20
271.552440
 30
0.0
  0
LWPOLYLINE
  5
133
100
AcDbEntity
  8
Layer_1
 62
7
100
AcDbPolyline
 90
13
 70
0
 10
68.396057
 20
286.146792
 30
0.0
 10
69.423529
 20
289.490608
 30
0.0
 10
68.536089
 20
292.851848
 30
0.0
 10
66.357257
 20
295.091568
 30
0.0
 10
63.510561
 20
295.070768
 30
0.0
 10
59.484273
 20
292.608944
 30
0.0
 10
57.309897
 20
290.279144
 30
0.0
 10
56.936593
 20
287.989208
 30
0.0
 10
58.313529
 20
285.646968
 30
0.0
 10
60.499449
 20
284.470872
 30
0.0
 10
63.457761
 20
284.189368
 30
0.0
 10
66.364585
 20
284.761608
 30
0.0
 10
68.396057
 20
286.146792
 30
0.0
  0
LWPOLYLINE
  5
134
100
AcDbEntity
  8
Layer_1
 62
7
100
AcDbPolyline
 90
83
 70
0
 10
125.633681
 20
286.788800
 30
0.0
 10
126.857609
 20
287.875984
 30
0.0
 10
128.058825
 20
288.766296
 30
0.0
 10
129.099281
 20
289.367864
 30
0.0
 10
129.840929
 20
289.588800
 30
0.0
 10
132.774041
 20
289.161176
 30
0.0
 10
136.713505
 20
288.109664
 30
0.0
 10
140.528489
 20
286.781328
 30
0.0
 10
143.088185
 20
285.523200
 30
0.0
 10
145.547785
 20
284.444248
 30
0.0
 10
148.588929
 20
284.016760
 30
0.0
 10
151.596857
 20
284.259512
 30
0.0
 10
153.956833
 20
285.191280
 30
0.0
 10
155.552249
 20
286.926720
 30
0.0
 10
156.591673
 20
289.658576
 30
0.0
 10
157.138601
 20
293.656160
 30
0.0
 10
157.256529
 20
299.188800
 30
0.0
 10
157.380289
 20
304.820280
 30
0.0
 10
158.067857
 20
308.566824
 30
0.0
 10
159.552913
 20
311.104328
 30
0.0
 10
162.069129
 20
313.108672
 30
0.0
 10
166.376337
 20
317.571560
 30
0.0
 10
166.927889
 20
322.198576
 30
0.0
 10
164.065529
 20
325.776320
 30
0.0
 10
158.130993
 20
327.091384
 30
0.0
 10
153.633121
 20
328.016728
 30
0.0
 10
149.061033
 20
330.646232
 30
0.0
 10
145.205913
 20
334.382264
 30
0.0
 10
142.858945
 20
338.627216
 30
0.0
 10
141.618649
 20
341.048008
 30
0.0
 10
139.622513
 20
343.581824
 30
0.0
 10
137.466209
 20
345.578736
 30
0.0
 10
135.745409
 20
346.388800
 30
0.0
 10
135.047273
 20
346.192200
 30
0.0
 10
133.734097
 20
345.656912
 30
0.0
 10
131.993897
 20
344.864680
 30
0.0
 10
130.014729
 20
343.897264
 30
0.0
 10
128.780801
 20
343.274376
 30
0.0
 10
127.546881
 20
342.651496
 30
0.0
 10
126.312953
 20
342.028616
 30
0.0
 10
125.079033
 20
341.405736
 30
0.0
 10
124.718665
 20
341.850776
 30
0.0
 10
124.358289
 20
342.295816
 30
0.0
 10
123.997913
 20
342.740856
 30
0.0
 10
123.637545
 20
343.185896
 30
0.0
 10
122.958121
 20
344.306992
 30
0.0
 10
122.513073
 20
345.785528
 30
0.0
 10
122.269889
 20
347.785880
 30
0.0
 10
122.196049
 20
350.472408
 30
0.0
 10
122.196049
 20
351.848992
 30
0.0
 10
122.196049
 20
353.225584
 30
0.0
 10
122.196049
 20
354.602176
 30
0.0
 10
122.196049
 20
355.978768
 30
0.0
 10
121.346049
 20
356.598312
 30
0.0
 10
120.496049
 20
357.217856
 30
0.0
 10
119.646049
 20
357.837400
 30
0.0
 10
118.796049
 20
358.456952
 30
0.0
 10
113.302529
 20
361.793656
 30
0.0
 10
108.149049
 20
363.553112
 30
0.0
 10
103.350857
 20
363.732360
 30
0.0
 10
98.923209
 20
362.328424
 30
0.0
 10
94.829561
 20
356.789464
 30
0.0
 10
94.210825
 20
348.453112
 30
0.0
 10
96.703377
 20
340.483520
 30
0.0
 10
101.943609
 20
336.044840
 30
0.0
 10
106.817545
 20
334.440184
 30
0.0
 10
108.991257
 20
332.517264
 30
0.0
 10
108.604257
 20
329.923432
 30
0.0
 10
105.796049
 20
326.306040
 30
0.0
 10
103.294345
 20
322.702856
 30
0.0
 10
102.826081
 20
319.258704
 30
0.0
 10
104.424065
 20
315.772288
 30
0.0
 10
108.121113
 20
312.042344
 30
0.0
 10
110.889553
 20
308.413680
 30
0.0
 10
112.869849
 20
303.432040
 30
0.0
 10
113.682345
 20
298.451664
 30
0.0
 10
112.947369
 20
294.826808
 30
0.0
 10
111.835777
 20
289.380880
 30
0.0
 10
114.837161
 20
285.429144
 30
0.0
 10
120.065201
 20
284.166744
 30
0.0
 10
125.633657
 20
286.788800
 30
0.0
 10
125.633665
 20
286.788800
 30
0.0
 10
125.633681
 20
286.788800
 30
0.0
  0
LWPOLYLINE
  5
135
100
AcDbEntity
  8
Layer_1
 62
7
100
AcDbPolyline
 90
13
 70
0
 10
210.550697
 20
285.766808
 30
0.0
 10
211.634017
 20
290.033696
 30
0.0
 10
209.615337
 20
293.379792
 30
0.0
 10
205.791017
 20
294.757112
 30
0.0
 10
201.457441
 20
293.117688
 30
0.0
 10
199.190105
 20
290.023416
 30
0.0
 10
199.263305
 20
287.070680
 30
0.0
 10
201.418209
 20
284.859232
 30
0.0
 10
205.396097
 20
283.988800
 30
0.0
 10
207.382825
 20
284.066240
 30
0.0
 10
208.773977
 20
284.343480
 30
0.0
 10
209.764841
 20
284.887880
 30
0.0
 10
210.550697
 20
285.766808
 30
0.0
  0
LWPOLYLINE
  5
136
100
AcDbEntity
  8
Layer_1
 62
7
100
AcDbPolyline
 90
83
 70
0
 10
267.703929
 20
285.523200
 30
0.0
 10
270.255585
 20
286.776736
 30
0.0
 10
274.065137
 20
288.105592
 30
0.0
 10
277.995409
 20
289.159648
 30
0.0
 10
280.909225
 20
289.588800
 30
0.0
 10
281.651641
 20
289.367864
 30
0.0
 10
282.725209
 20
288.766296
 30
0.0
 10
283.986153
 20
287.875984
 30
0.0
 10
285.290713
 20
286.788800
 30
0.0
 10
287.462233
 20
285.033848
 30
0.0
 10
289.344401
 20
284.198384
 30
0.0
 10
291.470465
 20
284.167104
 30
0.0
 10
294.373681
 20
284.824688
 30
0.0
 10
296.862745
 20
286.285272
 30
0.0
 10
298.392377
 20
288.730040
 30
0.0
 10
298.791121
 20
291.679368
 30
0.0
 10
297.887513
 20
294.653632
 30
0.0
 10
296.936865
 20
298.600696
 30
0.0
 10
297.848793
 20
303.423144
 30
0.0
 10
300.487273
 20
308.732656
 30
0.0
 10
304.716193
 20
314.140912
 30
0.0
 10
307.590225
 20
317.682400
 30
0.0
 10
308.586105
 20
320.520144
 30
0.0
 10
307.716985
 20
323.230240
 30
0.0
 10
304.996033
 20
326.388800
 30
0.0
 10
302.143641
 20
329.841400
 30
0.0
 10
301.760217
 20
332.423336
 30
0.0
 10
303.951121
 20
334.400336
 30
0.0
 10
308.821721
 20
336.038104
 30
0.0
 10
311.731969
 20
337.059152
 30
0.0
 10
313.676889
 20
338.723272
 30
0.0
 10
315.052057
 20
341.567664
 30
0.0
 10
316.253073
 20
346.129496
 30
0.0
 10
316.103937
 20
356.549160
 30
0.0
 10
311.077249
 20
362.551688
 30
0.0
 10
302.574217
 20
363.424976
 30
0.0
 10
291.996033
 20
358.456952
 30
0.0
 10
291.146033
 20
357.837408
 30
0.0
 10
290.296033
 20
357.217864
 30
0.0
 10
289.446033
 20
356.598312
 30
0.0
 10
288.596033
 20
355.978768
 30
0.0
 10
288.596033
 20
354.602176
 30
0.0
 10
288.596033
 20
353.225584
 30
0.0
 10
288.596033
 20
351.848992
 30
0.0
 10
288.596033
 20
350.472408
 30
0.0
 10
288.522193
 20
347.785880
 30
0.0
 10
288.279009
 20
345.785528
 30
0.0
 10
287.833969
 20
344.306992
 30
0.0
 10
287.154537
 20
343.185896
 30
0.0
 10
286.794169
 20
342.740856
 30
0.0
 10
286.433793
 20
342.295816
 30
0.0
 10
286.073425
 20
341.850776
 30
0.0
 10
285.713049
 20
341.405736
 30
0.0
 10
284.479129
 20
342.028616
 30
0.0
 10
283.245201
 20
342.651504
 30
0.0
 10
282.011273
 20
343.274384
 30
0.0
 10
280.777353
 20
343.897264
 30
0.0
 10
278.798185
 20
344.864680
 30
0.0
 10
277.057985
 20
345.656912
 30
0.0
 10
275.744809
 20
346.192200
 30
0.0
 10
275.046673
 20
346.388800
 30
0.0
 10
273.325881
 20
345.578736
 30
0.0
 10
271.169577
 20
343.581824
 30
0.0
 10
269.173441
 20
341.048000
 30
0.0
 10
267.933137
 20
338.627216
 30
0.0
 10
265.586161
 20
334.382264
 30
0.0
 10
261.731041
 20
330.646232
 30
0.0
 10
257.158961
 20
328.016728
 30
0.0
 10
252.661089
 20
327.091384
 30
0.0
 10
246.646665
 20
325.829488
 30
0.0
 10
243.936169
 20
322.295536
 30
0.0
 10
244.769985
 20
317.550032
 30
0.0
 10
249.388481
 20
312.653472
 30
0.0
 10
251.739345
 20
310.240416
 30
0.0
 10
253.238169
 20
306.878800
 30
0.0
 10
253.892377
 20
302.542112
 30
0.0
 10
253.709369
 20
297.203840
 30
0.0
 10
254.327633
 20
289.939712
 30
0.0
 10
257.373473
 20
285.148104
 30
0.0
 10
262.085897
 20
283.464208
 30
0.0
 10
267.703897
 20
285.523200
 30
0.0
 10
267.703913
 20
285.523200
 30
0.0
 10
267.703929
 20
285.523200
 30
0.0
  0
LWPOLYLINE
  5
137
100
AcDbEntity
  8
Layer_1
 62
7
100
AcDbPolyline
 90
25
 70
0
 10
101.346289
 20
288.522136
 30
0.0
 10
105.182825
 20
298.155240
 30
0.0
 10
102.211625
 20
307.004744
 30
0.0
 10
94.624585
 20
312.162696
 30
0.0
 10
84.613601
 20
310.721136
 30
0.0
 10
80.640337
 20
307.295240
 30
0.0
 10
77.668329
 20
302.467632
 30
0.0
 10
76.211609
 20
297.388176
 30
0.0
 10
76.784185
 20
293.206760
 30
0.0
 10
79.393529
 20
289.151592
 30
0.0
 10
82.404721
 20
286.581368
 30
0.0
 10
86.291609
 20
285.226432
 30
0.0
 10
91.528065
 20
284.817152
 30
0.0
 10
93.161073
 20
284.809952
 30
0.0
 10
94.794073
 20
284.802752
 30
0.0
 10
96.427081
 20
284.795552
 30
0.0
 10
98.060081
 20
284.788352
 30
0.0
 10
98.881633
 20
285.721688
 30
0.0
 10
99.703185
 20
286.655024
 30
0.0
 10
100.524737
 20
287.588360
 30
0.0
 10
101.346289
 20
288.521688
 30
0.0
 10
101.346289
 20
288.521680
 30
0.0
 10
101.346289
 20
288.521672
 30
0.0
 10
101.346289
 20
288.521664
 30
0.0
 10
101.346289
 20
288.522136
 30
0.0
  0
LWPOLYLINE
  5
138
100
AcDbEntity
  8
Layer_1
 62
7
100
AcDbPolyline
 90
25
 70
0
 10
185.672561
 20
286.515736
 30
0.0
 10
190.302841
 20
290.334744
 30
0.0
 10
192.739881
 20
294.198776
 30
0.0
 10
193.149801
 20
298.589560
 30
0.0
 10
191.698745
 20
303.988800
 30
0.0
 10
189.614841
 20
306.626632
 30
0.0
 10
185.852729
 20
309.797568
 30
0.0
 10
181.821873
 20
312.448624
 30
0.0
 10
178.931753
 20
313.526800
 30
0.0
 10
170.566169
 20
310.922232
 30
0.0
 10
165.497833
 20
304.764072
 30
0.0
 10
164.391417
 20
296.594624
 30
0.0
 10
167.911625
 20
287.956216
 30
0.0
 10
168.485241
 20
287.164368
 30
0.0
 10
169.058857
 20
286.372512
 30
0.0
 10
169.632473
 20
285.580656
 30
0.0
 10
170.206089
 20
284.788800
 30
0.0
 10
171.823961
 20
284.788800
 30
0.0
 10
173.441833
 20
284.788800
 30
0.0
 10
175.059705
 20
284.788800
 30
0.0
 10
176.677577
 20
284.788800
 30
0.0
 10
180.034729
 20
284.859120
 30
0.0
 10
182.391537
 20
285.120200
 30
0.0
 10
184.140105
 20
285.647320
 30
0.0
 10
185.672561
 20
286.515736
 30
0.0
  0
LWPOLYLINE
  5
139
100
AcDbEntity
  8
Layer_1
 62
7
100
AcDbPolyline
 90
33
 70
0
 10
242.880489
 20
287.956216
 30
0.0
 10
246.257945
 20
295.318480
 30
0.0
 10
246.215545
 20
302.481072
 30
0.0
 10
242.996737
 20
308.462640
 30
0.0
 10
236.845033
 20
312.281840
 30
0.0
 10
232.993081
 20
313.263520
 30
0.0
 10
230.022825
 20
313.104128
 30
0.0
 10
227.051433
 20
311.548912
 30
0.0
 10
223.196081
 20
308.343104
 30
0.0
 10
221.946081
 20
307.222576
 30
0.0
 10
220.696081
 20
306.102048
 30
0.0
 10
219.446081
 20
304.981520
 30
0.0
 10
218.196081
 20
303.860992
 30
0.0
 10
218.196081
 20
302.414392
 30
0.0
 10
218.196081
 20
300.967784
 30
0.0
 10
218.196081
 20
299.521176
 30
0.0
 10
218.196081
 20
298.074568
 30
0.0
 10
219.211313
 20
292.273776
 30
0.0
 10
222.252953
 20
288.123048
 30
0.0
 10
227.314897
 20
285.627392
 30
0.0
 10
234.391065
 20
284.791792
 30
0.0
 10
235.939809
 20
284.790992
 30
0.0
 10
237.488553
 20
284.790192
 30
0.0
 10
239.037305
 20
284.789392
 30
0.0
 10
240.586049
 20
284.788592
 30
0.0
 10
241.159665
 20
285.580448
 30
0.0
 10
241.733281
 20
286.372304
 30
0.0
 10
242.306897
 20
287.164160
 30
0.0
 10
242.880513
 20
287.956008
 30
0.0
 10
242.880513
 20
287.956064
 30
0.0
 10
242.880513
 20
287.956112
 30
0.0
 10
242.880513
 20
287.956168
 30
0.0
 10
242.880489
 20
287.956216
 30
0.0
  0
LWPOLYLINE
  5
13a
100
AcDbEntity
  8
Layer_1
 62
7
100
AcDbPolyline
 90
17
 70
0
 10
327.497065
 20
285.817152
 30
0.0
 10
329.123193
 20
287.068544
 30
0.0
 10
330.965385
 20
288.972872
 30
0.0
 10
332.721129
 20
291.184104
 30
0.0
 10
334.087897
 20
293.356192
 30
0.0
 10
334.639041
 20
297.488872
 30
0.0
 10
333.159681
 20
302.517672
 30
0.0
 10
330.167089
 20
307.306968
 30
0.0
 10
326.178513
 20
310.721136
 30
0.0
 10
315.585217
 20
312.024440
 30
0.0
 10
308.003641
 20
306.038344
 30
0.0
 10
305.740329
 20
296.419000
 30
0.0
 10
311.101809
 20
286.822576
 30
0.0
 10
314.342185
 20
285.425240
 30
0.0
 10
319.060465
 20
284.736352
 30
0.0
 10
323.898233
 20
284.839224
 30
0.0
 10
327.497065
 20
285.817152
 30
0.0
  0
LWPOLYLINE
  5
13b
100
AcDbEntity
  8
Layer_1
 62
7
100
AcDbPolyline
 90
21
 70
0
 10
353.725873
 20
287.364576
 30
0.0
 10
353.994761
 20
289.155152
 30
0.0
 10
353.344097
 20
290.765792
 30
0.0
 10
351.631825
 20
292.391008
 30
0.0
 10
348.715921
 20
294.225312
 30
0.0
 10
347.936393
 20
294.663432
 30
0.0
 10
347.156865
 20
295.101544
 30
0.0
 10
346.377337
 20
295.539664
 30
0.0
 10
345.597817
 20
295.977776
 30
0.0
 10
345.072593
 20
295.564640
 30
0.0
 10
344.547377
 20
295.151504
 30
0.0
 10
344.022153
 20
294.738360
 30
0.0
 10
343.496937
 20
294.325224
 30
0.0
 10
342.129377
 20
292.723728
 30
0.0
 10
341.444353
 20
290.721896
 30
0.0
 10
341.472353
 20
288.515240
 30
0.0
 10
342.243953
 20
286.299280
 30
0.0
 10
344.505737
 20
284.906768
 30
0.0
 10
348.142873
 20
284.710096
 30
0.0
 10
351.701033
 20
285.574344
 30
0.0
 10
353.725873
 20
287.364576
 30
0.0
  0
LWPOLYLINE
  5
13c
100
AcDbEntity
  8
Layer_1
 62
7
100
AcDbPolyline
 90
71
 70
0
 10
210.796665
 20
304.736328
 30
0.0
 10
212.200393
 20
305.901904
 30
0.0
 10
213.405497
 20
307.198328
 30
0.0
 10
214.344825
 20
308.542904
 30
0.0
 10
214.951217
 20
309.852928
 30
0.0
 10
217.111545
 20
313.690776
 30
0.0
 10
220.526569
 20
317.192704
 30
0.0
 10
224.326857
 20
319.641632
 30
0.0
 10
227.642969
 20
320.320488
 30
0.0
 10
233.684833
 20
321.207152
 30
0.0
 10
237.166433
 20
324.936912
 30
0.0
 10
237.324569
 20
329.723944
 30
0.0
 10
233.396057
 20
333.782424
 30
0.0
 10
230.231609
 20
336.777216
 30
0.0
 10
227.995945
 20
341.568376
 30
0.0
 10
227.010089
 20
347.124768
 30
0.0
 10
227.595073
 20
352.415264
 30
0.0
 10
228.167401
 20
356.594496
 30
0.0
 10
227.284401
 20
360.020416
 30
0.0
 10
225.132497
 20
362.340096
 30
0.0
 10
221.898105
 20
363.200592
 30
0.0
 10
217.228329
 20
363.791288
 30
0.0
 10
214.926241
 20
365.559784
 30
0.0
 10
214.964561
 20
368.563480
 30
0.0
 10
217.316161
 20
372.859792
 30
0.0
 10
219.573585
 20
376.432176
 30
0.0
 10
220.356561
 20
379.292048
 30
0.0
 10
219.682985
 20
382.418040
 30
0.0
 10
217.570729
 20
386.788800
 30
0.0
 10
211.951385
 20
393.860360
 30
0.0
 10
205.555449
 20
396.361888
 30
0.0
 10
199.179033
 20
394.267984
 30
0.0
 10
193.618249
 20
387.553232
 30
0.0
 10
191.279409
 20
382.803664
 30
0.0
 10
190.460809
 20
379.432800
 30
0.0
 10
191.142761
 20
376.537744
 30
0.0
 10
193.305577
 20
373.215608
 30
0.0
 10
195.989569
 20
368.707904
 30
0.0
 10
196.121105
 20
365.587968
 30
0.0
 10
193.662129
 20
363.775152
 30
0.0
 10
188.574593
 20
363.188800
 30
0.0
 10
185.428721
 20
362.232152
 30
0.0
 10
183.353433
 20
359.721680
 30
0.0
 10
182.601321
 20
356.196584
 30
0.0
 10
183.424953
 20
352.196056
 30
0.0
 10
183.971361
 20
350.604664
 30
0.0
 10
184.144745
 20
349.032440
 30
0.0
 10
183.941305
 20
347.028936
 30
0.0
 10
183.357273
 20
344.143696
 30
0.0
 10
182.220113
 20
339.540080
 30
0.0
 10
181.130785
 20
336.697088
 30
0.0
 10
179.771145
 20
335.028616
 30
0.0
 10
177.823033
 20
333.948552
 30
0.0
 10
173.772425
 20
330.165176
 30
0.0
 10
173.732105
 20
325.351856
 30
0.0
 10
176.994457
 20
321.427408
 30
0.0
 10
182.851953
 20
320.310664
 30
0.0
 10
186.358745
 20
319.639752
 30
0.0
 10
190.229545
 20
317.240760
 30
0.0
 10
193.658769
 20
313.762288
 30
0.0
 10
195.840833
 20
309.852928
 30
0.0
 10
197.352393
 20
307.293304
 30
0.0
 10
199.850417
 20
304.882328
 30
0.0
 10
202.732441
 20
303.090616
 30
0.0
 10
205.396001
 20
302.388800
 30
0.0
 10
206.490377
 20
302.574032
 30
0.0
 10
207.873409
 20
303.078384
 30
0.0
 10
209.367889
 20
303.824824
 30
0.0
 10
210.796609
 20
304.736328
 30
0.0
 10
210.796633
 20
304.736328
 30
0.0
 10
210.796665
 20
304.736328
 30
0.0
  0
LWPOLYLINE
  5
13d
100
AcDbEntity
  8
Layer_1
 62
7
100
AcDbPolyline
 90
13
 70
0
 10
94.709609
 20
322.683544
 30
0.0
 10
96.314273
 20
325.726464
 30
0.0
 10
95.881073
 20
329.326376
 30
0.0
 10
93.841369
 20
332.331184
 30
0.0
 10
90.626513
 20
333.588800
 30
0.0
 10
88.755489
 20
333.236344
 30
0.0
 10
87.403193
 20
332.036616
 30
0.0
 10
86.425833
 20
329.776032
 30
0.0
 10
85.679633
 20
326.241040
 30
0.0
 10
86.083161
 20
322.854880
 30
0.0
 10
88.155481
 20
320.962728
 30
0.0
 10
91.247377
 20
320.820360
 30
0.0
 10
94.709609
 20
322.683544
 30
0.0
  0
LWPOLYLINE
  5
13e
100
AcDbEntity
  8
Layer_1
 62
7
100
AcDbPolyline
 90
13
 70
0
 10
324.164865
 20
321.867064
 30
0.0
 10
325.454289
 20
324.686808
 30
0.0
 10
324.867465
 20
328.606344
 30
0.0
 10
322.929521
 20
332.086688
 30
0.0
 10
320.165601
 20
333.588800
 30
0.0
 10
316.950753
 20
332.331176
 30
0.0
 10
314.911041
 20
329.326376
 30
0.0
 10
314.477841
 20
325.726472
 30
0.0
 10
316.082505
 20
322.683544
 30
0.0
 10
318.065809
 20
321.435376
 30
0.0
 10
320.204505
 20
320.870056
 30
0.0
 10
322.302785
 20
321.007360
 30
0.0
 10
324.164865
 20
321.867064
 30
0.0
  0
LWPOLYLINE
  5
13f
100
AcDbEntity
  8
Layer_1
 62
7
100
AcDbPolyline
 90
13
 70
0
 10
168.419625
 20
336.777808
 30
0.0
 10
173.454585
 20
341.494288
 30
0.0
 10
175.501913
 20
348.520952
 30
0.0
 10
174.436361
 20
356.006512
 30
0.0
 10
170.132689
 20
362.099688
 30
0.0
 10
167.327649
 20
363.251816
 30
0.0
 10
163.295713
 20
363.701624
 30
0.0
 10
159.009881
 20
363.428440
 30
0.0
 10
155.443185
 20
362.411616
 30
0.0
 10
147.725345
 20
353.762968
 30
0.0
 10
148.897241
 20
343.483128
 30
0.0
 10
156.586225
 20
336.259088
 30
0.0
 10
168.419625
 20
336.777808
 30
0.0
  0
LWPOLYLINE
  5
140
100
AcDbEntity
  8
Layer_1
 62
7
100
AcDbPolyline
 90
21
 70
0
 10
255.839433
 20
337.476080
 30
0.0
 10
259.421849
 20
340.025528
 30
0.0
 10
261.594481
 20
342.424120
 30
0.0
 10
262.779689
 20
345.340408
 30
0.0
 10
263.399857
 20
349.442928
 30
0.0
 10
263.542217
 20
350.906456
 30
0.0
 10
263.684585
 20
352.369992
 30
0.0
 10
263.826945
 20
353.833528
 30
0.0
 10
263.969313
 20
355.297056
 30
0.0
 10
263.056505
 20
356.171680
 30
0.0
 10
262.143697
 20
357.046304
 30
0.0
 10
261.230889
 20
357.920928
 30
0.0
 10
260.318081
 20
358.795552
 30
0.0
 10
251.765777
 20
363.455496
 30
0.0
 10
243.303849
 20
362.872120
 30
0.0
 10
237.074817
 20
357.861264
 30
0.0
 10
235.221177
 20
349.238792
 30
0.0
 10
237.657625
 20
341.504016
 30
0.0
 10
242.508809
 20
336.621488
 30
0.0
 10
248.870745
 20
335.106936
 30
0.0
 10
255.839433
 20
337.476080
 30
0.0
  0
LWPOLYLINE
  5
141
100
AcDbEntity
  8
Layer_1
 62
7
100
AcDbPolyline
 90
23
 70
0
 10
138.529737
 20
354.479560
 30
0.0
 10
139.621385
 20
355.469936
 30
0.0
 10
140.239993
 20
356.467608
 30
0.0
 10
140.480441
 20
357.721256
 30
0.0
 10
140.437641
 20
359.479560
 30
0.0
 10
140.377241
 20
360.306872
 30
0.0
 10
140.316841
 20
361.134184
 30
0.0
 10
140.256441
 20
361.961496
 30
0.0
 10
140.196041
 20
362.788800
 30
0.0
 10
138.752017
 20
362.847440
 30
0.0
 10
137.308001
 20
362.906080
 30
0.0
 10
135.863977
 20
362.964720
 30
0.0
 10
134.419961
 20
363.023360
 30
0.0
 10
131.161049
 20
363.114048
 30
0.0
 10
129.377593
 20
362.950640
 30
0.0
 10
128.547265
 20
362.388032
 30
0.0
 10
128.147721
 20
361.281120
 30
0.0
 10
128.502209
 20
357.265400
 30
0.0
 10
131.045537
 20
354.338032
 30
0.0
 10
134.735457
 20
353.181824
 30
0.0
 10
138.529721
 20
354.479576
 30
0.0
 10
138.529721
 20
354.479568
 30
0.0
 10
138.529737
 20
354.479560
 30
0.0
  0
LWPOLYLINE
  5
142
100
AcDbEntity
  8
Layer_1
 62
7
100
AcDbPolyline
 90
13
 70
0
 10
279.547761
 20
354.588800
 30
0.0
 10
282.670217
 20
357.633528
 30
0.0
 10
283.220593
 20
360.400784
 30
0.0
 10
281.332817
 20
362.412048
 30
0.0
 10
277.140817
 20
363.188800
 30
0.0
 10
273.647977
 20
363.005640
 30
0.0
 10
271.528241
 20
362.325216
 30
0.0
 10
270.478601
 20
360.951096
 30
0.0
 10
270.196057
 20
358.686864
 30
0.0
 10
271.022521
 20
355.487976
 30
0.0
 10
273.179273
 20
353.597280
 30
0.0
 10
276.182345
 20
353.226864
 30
0.0
 10
279.547761
 20
354.588800
 30
0.0
  0
LWPOLYLINE
  5
143
100
AcDbEntity
  8
Layer_1
 62
7
100
AcDbPolyline
 90
15
 70
0
 10
95.350697
 20
368.966808
 30
0.0
 10
96.394945
 20
373.252928
 30
0.0
 10
94.470217
 20
376.809544
 30
0.0
 10
90.897065
 20
378.400296
 30
0.0
 10
86.996057
 20
376.788824
 30
0.0
 10
85.785873
 20
374.669752
 30
0.0
 10
85.610049
 20
372.136808
 30
0.0
 10
86.407169
 20
369.682936
 30
0.0
 10
88.115817
 20
367.801072
 30
0.0
 10
89.878865
 20
367.191000
 30
0.0
 10
91.981809
 20
367.231800
 30
0.0
 10
93.960465
 20
367.848672
 30
0.0
 10
95.350697
 20
368.966832
 30
0.0
 10
95.350697
 20
368.966824
 30
0.0
 10
95.350697
 20
368.966808
 30
0.0
  0
LWPOLYLINE
  5
144
100
AcDbEntity
  8
Layer_1
 62
7
100
AcDbPolyline
 90
13
 70
0
 10
182.479161
 20
369.388800
 30
0.0
 10
183.928849
 20
374.051008
 30
0.0
 10
183.478009
 20
377.672328
 30
0.0
 10
181.476297
 20
379.478896
 30
0.0
 10
178.273385
 20
378.696864
 30
0.0
 10
174.554985
 20
375.902760
 30
0.0
 10
172.554745
 20
373.276640
 30
0.0
 10
172.235065
 20
370.734736
 30
0.0
 10
173.558329
 20
368.193272
 30
0.0
 10
175.492713
 20
367.174720
 30
0.0
 10
178.187665
 20
367.109920
 30
0.0
 10
180.798153
 20
367.885696
 30
0.0
 10
182.479161
 20
369.388800
 30
0.0
  0
LWPOLYLINE
  5
145
100
AcDbEntity
  8
Layer_1
 62
7
100
AcDbPolyline
 90
13
 70
0
 10
238.099129
 20
369.925960
 30
0.0
 10
238.724321
 20
371.788184
 30
0.0
 10
238.426337
 20
373.386744
 30
0.0
 10
236.994641
 20
375.128136
 30
0.0
 10
234.218713
 20
377.418888
 30
0.0
 10
230.432033
 20
378.963352
 30
0.0
 10
227.788353
 20
377.684448
 30
0.0
 10
226.853417
 20
374.316744
 30
0.0
 10
228.192953
 20
369.594808
 30
0.0
 10
230.270209
 20
367.627792
 30
0.0
 10
233.177553
 20
367.046160
 30
0.0
 10
236.069137
 20
367.821640
 30
0.0
 10
238.099129
 20
369.925960
 30
0.0
  0
LWPOLYLINE
  5
146
100
AcDbEntity
  8
Layer_1
 62
7
100
AcDbPolyline
 90
15
 70
0
 10
324.150697
 20
368.966808
 30
0.0
 10
325.443945
 20
373.272688
 30
0.0
 10
323.864433
 20
376.697352
 30
0.0
 10
320.466361
 20
378.197728
 30
0.0
 10
316.303945
 20
376.730712
 30
0.0
 10
314.877177
 20
375.096256
 30
0.0
 10
314.246577
 20
373.156176
 30
0.0
 10
314.429033
 20
371.062376
 30
0.0
 10
315.441417
 20
368.966784
 30
0.0
 10
317.294729
 20
367.560536
 30
0.0
 10
319.796057
 20
367.091784
 30
0.0
 10
322.297385
 20
367.560536
 30
0.0
 10
324.150697
 20
368.966784
 30
0.0
 10
324.150697
 20
368.966792
 30
0.0
 10
324.150697
 20
368.966808
 30
0.0
  0
LWPOLYLINE
  5
147
100
AcDbEntity
  8
Layer_1
 62
7
100
AcDbPolyline
 90
17
 70
0
 10
208.879241
 20
405.150600
 30
0.0
 10
210.710553
 20
408.385760
 30
0.0
 10
210.509321
 20
411.940088
 30
0.0
 10
208.604801
 20
414.809224
 30
0.0
 10
205.326233
 20
415.988800
 30
0.0
 10
203.355257
 20
415.360408
 30
0.0
 10
201.579689
 20
413.726568
 30
0.0
 10
200.295593
 20
411.464296
 30
0.0
 10
199.799049
 20
408.950600
 30
0.0
 10
200.385065
 20
407.164944
 30
0.0
 10
201.830585
 20
405.282704
 30
0.0
 10
203.659585
 20
403.793960
 30
0.0
 10
205.396057
 20
403.188800
 30
0.0
 10
206.093625
 20
403.343600
 30
0.0
 10
206.982865
 20
403.765080
 30
0.0
 10
207.949505
 20
404.388872
 30
0.0
 10
208.879241
 20
405.150600
 30
0.0
  0
ENDSEC
  0
SECTION
  2
OBJECTS
  0
DICTIONARY
  5
C
330
0
100
AcDbDictionary
  3
ACAD_GROUP
350
D
  3
ACAD_MLINESTYLE
350
17
  0
DICTIONARY
  5
D
330
C
100
AcDbDictionary
  0
DICTIONARY
  5
1A
330
C
100
AcDbDictionary
  0
DICTIONARY
  5
17
330
C
100
AcDbDictionary
  3
STANDARD
350
18
  0
DICTIONARY
  5
19
330
C
100
AcDbDictionary
  0
ENDSEC
  0
EOF
